<?xml version="1.0" encoding="iso-8859-1"?>
<!-- Generator: Adobe Illustrator 19.0.0, SVG Export Plug-In . SVG Version: 6.00 Build 0)  -->
<svg version="1.1" id="Layer_1" xmlns="http://www.w3.org/2000/svg" xmlns:xlink="http://www.w3.org/1999/xlink" x="0px" y="0px"
	 viewBox="0 0 512 512" style="enable-background:new 0 0 512 512;" xml:space="preserve">
<path style="fill:#314E55;" d="M511.645,226.829c-0.106-1.36-0.419-2.712-1.092-3.947l-66.543-122.37
	c-1.721-3.173-5.043-5.144-8.649-5.144h-43.942c-2.933,0-5.711,1.308-7.582,3.563c-1.87,2.26-2.639,5.236-2.091,8.115
	l21.135,111.697H256H108.865L130,107.046c0.548-2.88-0.221-5.856-2.091-8.115c-1.87-2.255-4.649-3.563-7.582-3.563H76.389
	c-3.606,0-6.928,1.971-8.649,5.144L1.197,222.882c-0.907,1.666-1.249,3.524-1.126,5.356C0.066,228.363,0,228.464,0,228.589v164.288
	c0,3.812,2.202,7.284,5.649,8.909c1.591,0.745,32.279,14.846,84.76,14.846c13.274,0,27.947-0.899,43.889-3.149
	C197.922,404.51,240.87,379.541,256,369.531c15.13,10.01,58.078,34.978,121.702,43.952c15.947,2.25,30.61,3.149,43.889,3.149
	c52.476,0,83.168-14.101,84.76-14.846c3.447-1.625,5.649-5.096,5.649-8.909V228.589C512,227.964,511.756,227.421,511.645,226.829z"
	/>
<g>
	<polygon style="fill:#EAEAEA;" points="429.505,115.06 485.341,217.738 422.731,217.738 403.303,115.06 	"/>
	<polygon style="fill:#EAEAEA;" points="82.245,115.06 108.442,115.06 89.014,217.738 26.409,217.738 	"/>
</g>
<path style="fill:#E65F58;" d="M131.548,393.983c-57.827,8.154-97.736-2.865-111.856-7.827V238.435h226.462v113.976
	C233.861,360.642,192.788,385.349,131.548,393.983z"/>
<path style="fill:#81A4E3;" d="M492.308,386.156c-14.149,4.966-54.048,15.981-111.856,7.827
	c-60.976-8.601-102.255-33.351-114.606-41.586V238.435h226.462V386.156z"/>
<g>
	<path style="fill:#314E55;" d="M81.654,259.978l-39.385,39.385c-3.846,3.846-3.846,10.077,0,13.923
		c1.923,1.923,4.442,2.885,6.961,2.885c2.519,0,5.039-0.961,6.961-2.885l39.385-39.385c3.846-3.846,3.846-10.077,0-13.923
		C91.731,256.132,85.5,256.132,81.654,259.978z"/>
	<path style="fill:#314E55;" d="M455.808,313.286c1.923,1.923,4.442,2.885,6.961,2.885c2.519,0,5.039-0.961,6.961-2.885
		c3.846-3.846,3.846-10.077,0-13.923l-39.385-39.385c-3.846-3.846-10.077-3.846-13.923,0c-3.846,3.846-3.846,10.077,0,13.923
		L455.808,313.286z"/>
</g>
<g>
</g>
<g>
</g>
<g>
</g>
<g>
</g>
<g>
</g>
<g>
</g>
<g>
</g>
<g>
</g>
<g>
</g>
<g>
</g>
<g>
</g>
<g>
</g>
<g>
</g>
<g>
</g>
<g>
</g>
</svg>
