<?xml version="1.0" encoding="iso-8859-1"?>
<!-- Generator: Adobe Illustrator 19.0.0, SVG Export Plug-In . SVG Version: 6.00 Build 0)  -->
<svg version="1.1" id="Layer_1" xmlns="http://www.w3.org/2000/svg" xmlns:xlink="http://www.w3.org/1999/xlink" x="0px" y="0px"
	 viewBox="0 0 512 512" style="enable-background:new 0 0 512 512;" xml:space="preserve">
<path style="fill:#314E55;" d="M406.897,0H105.103C84.96,0,68.571,16.402,68.571,36.567v438.866
	c0,20.165,16.388,36.567,36.531,36.567h301.795c20.143,0,36.531-16.402,36.531-36.567V36.567C443.429,16.402,427.04,0,406.897,0z"/>
<path style="fill:#EAEAEA;" d="M425.143,475.433c0,10.08-8.183,18.281-18.246,18.281H105.103c-10.062,0-18.245-8.201-18.245-18.281
	V36.567c0-10.08,8.183-18.281,18.245-18.281h301.795c10.062,0,18.245,8.201,18.245,18.281V475.433z"/>
<g>
	<path style="fill:#314E55;" d="M169.143,100.571c1.313,0,2.547-0.299,3.675-0.797l8.575,15.81c2.411,4.442,7.96,6.089,12.393,3.679
		c4.442-2.406,6.089-7.955,3.679-12.393l-36.67-67.625c-1.594-2.947-4.679-4.781-8.027-4.786c-0.005,0-0.009,0-0.009,0
		c-3.348,0-6.429,1.83-8.031,4.772l-37.138,68.214c-2.415,4.433-0.777,9.987,3.661,12.402c1.388,0.755,2.884,1.112,4.362,1.112
		c3.241,0,6.379-1.723,8.04-4.772l8.543-15.692c0.132,0.005,0.243,0.076,0.376,0.076H169.143z M152.741,62.755l10.593,19.531
		h-21.225L152.741,62.755z"/>
	<path style="fill:#314E55;" d="M400.75,392.152c-4.442-2.42-9.991-0.786-12.402,3.661l-13.479,24.759h-31.161l-13.101-24.156
		c-2.411-4.433-7.955-6.103-12.393-3.679c-4.442,2.406-6.089,7.955-3.679,12.393l36.67,67.625c1.594,2.947,4.679,4.781,8.027,4.786
		c0.005,0,0.009,0,0.009,0c3.348,0,6.429-1.83,8.031-4.772l37.138-68.214C406.826,400.12,405.187,394.567,400.75,392.152z
		 M353.625,438.857h11.29l-5.656,10.388L353.625,438.857z"/>
	<path style="fill:#314E55;" d="M334.696,268.772c23.317-40.393,19.12-70.125-12.478-88.371c-18.621-10.75-43.058-8.29-65.058,6.21
		c-21.987-14.487-46.429-16.955-65.058-6.21c-31.598,18.25-35.795,47.982-12.478,88.371c18.053,31.272,70.442,64.473,72.665,65.871
		c1.487,0.938,3.179,1.406,4.871,1.406s3.384-0.469,4.871-1.406C264.25,333.246,316.647,300.045,334.696,268.772z"/>
</g>
<path style="fill:#E65F58;" d="M257.161,315.973c-13.08-8.768-48.817-34.027-61.696-56.344
	c-22.915-39.683-9.938-54.312,5.781-63.388c13.679-7.88,32.969-4.504,50.344,8.844c3.286,2.527,7.857,2.527,11.143,0
	c17.375-13.362,36.665-16.75,50.344-8.844c15.719,9.072,28.696,23.701,5.781,63.388C306,281.911,270.241,307.196,257.161,315.973z"
	/>
<g>
</g>
<g>
</g>
<g>
</g>
<g>
</g>
<g>
</g>
<g>
</g>
<g>
</g>
<g>
</g>
<g>
</g>
<g>
</g>
<g>
</g>
<g>
</g>
<g>
</g>
<g>
</g>
<g>
</g>
</svg>
