<?xml version="1.0" encoding="iso-8859-1"?>
<!-- Generator: Adobe Illustrator 19.0.0, SVG Export Plug-In . SVG Version: 6.00 Build 0)  -->
<svg version="1.1" id="Layer_1" xmlns="http://www.w3.org/2000/svg" xmlns:xlink="http://www.w3.org/1999/xlink" x="0px" y="0px"
	 viewBox="0 0 512 512" style="enable-background:new 0 0 512 512;" xml:space="preserve">
<path style="fill:#314E55;" d="M503.172,247.172h-17.879c-4.55-119.546-100.92-215.916-220.466-220.466V8.828
	C264.828,3.948,260.879,0,256,0c-4.879,0-8.828,3.948-8.828,8.828v17.879c-119.546,4.55-215.916,100.92-220.466,220.466H8.828
	C3.948,247.172,0,251.121,0,256c0,4.879,3.948,8.828,8.828,8.828h17.879c4.55,119.546,100.92,215.916,220.466,220.466v17.879
	c0,4.879,3.948,8.828,8.828,8.828c4.879,0,8.828-3.948,8.828-8.828v-17.879c119.546-4.55,215.916-100.92,220.466-220.466h17.879
	c4.879,0,8.828-3.948,8.828-8.828C512,251.121,508.052,247.172,503.172,247.172z"/>
<path style="fill:#5ECB66;" d="M264.828,467.638v-17.431c0-4.879-3.948-8.828-8.828-8.828c-4.879,0-8.828,3.948-8.828,8.828v17.431
	c-109.807-4.529-198.282-93.004-202.81-202.81h17.431c4.879,0,8.828-3.948,8.828-8.828c0-4.879-3.948-8.828-8.828-8.828H44.362
	c4.529-109.807,93.004-198.282,202.81-202.81v17.431c0,4.879,3.948,8.828,8.828,8.828c4.879,0,8.828-3.948,8.828-8.828V44.362
	c109.807,4.529,198.282,93.004,202.81,202.81h-17.431c-4.879,0-8.828,3.948-8.828,8.828c0,4.879,3.948,8.828,8.828,8.828h17.431
	C463.109,374.634,374.634,463.109,264.828,467.638z"/>
<g>
	<path style="fill:#314E55;" d="M409.457,298.328c-4.655-1.534-9.629,0.948-11.19,5.552c-15.078,44.81-50.914,80.276-95.853,94.879
		c-4.638,1.509-7.181,6.483-5.672,11.121c1.216,3.733,4.672,6.103,8.397,6.103c0.905,0,1.819-0.138,2.724-0.431
		c50.233-16.319,90.285-55.957,107.147-106.034C416.56,304.896,414.078,299.888,409.457,298.328z"/>
	<path style="fill:#314E55;" d="M204.121,96.448c-50.241,16.336-90.285,55.974-107.129,106.043c-1.552,4.621,0.94,9.621,5.56,11.181
		c0.931,0.31,1.879,0.457,2.81,0.457c3.69,0,7.129-2.328,8.371-6.017c15.06-44.793,50.897-80.259,95.853-94.871
		c4.629-1.509,7.172-6.491,5.664-11.129C213.733,97.483,208.776,94.931,204.121,96.448z"/>
	<path style="fill:#314E55;" d="M208.112,398.267c-44.802-15.069-80.267-50.897-94.871-95.845
		c-1.509-4.638-6.509-7.172-11.121-5.672c-4.638,1.509-7.181,6.491-5.672,11.121c16.327,50.241,55.966,90.293,106.043,107.138
		c0.931,0.31,1.879,0.457,2.81,0.457c3.69,0,7.129-2.328,8.371-6.017C215.224,404.828,212.733,399.828,208.112,398.267z"/>
	<path style="fill:#314E55;" d="M309.517,96.991c-4.655-1.517-9.638,0.94-11.19,5.552c-1.552,4.621,0.931,9.629,5.552,11.19
		c44.802,15.069,80.267,50.905,94.879,95.862c1.216,3.724,4.672,6.095,8.397,6.095c0.905,0,1.819-0.138,2.733-0.431
		c4.629-1.509,7.172-6.491,5.664-11.129C399.224,153.897,359.586,113.845,309.517,96.991z"/>
	<path style="fill:#314E55;" d="M282.483,247.172h-17.655v-17.655c0-4.879-3.948-8.828-8.828-8.828
		c-4.879,0-8.828,3.948-8.828,8.828v17.655h-17.655c-4.879,0-8.828,3.948-8.828,8.828c0,4.879,3.948,8.828,8.828,8.828h17.655
		v17.655c0,4.879,3.948,8.828,8.828,8.828c4.879,0,8.828-3.948,8.828-8.828v-17.655h17.655c4.879,0,8.828-3.948,8.828-8.828
		C291.31,251.121,287.362,247.172,282.483,247.172z"/>
</g>
<g>
</g>
<g>
</g>
<g>
</g>
<g>
</g>
<g>
</g>
<g>
</g>
<g>
</g>
<g>
</g>
<g>
</g>
<g>
</g>
<g>
</g>
<g>
</g>
<g>
</g>
<g>
</g>
<g>
</g>
</svg>
