<?xml version="1.0" encoding="iso-8859-1"?>
<!-- Generator: Adobe Illustrator 19.0.0, SVG Export Plug-In . SVG Version: 6.00 Build 0)  -->
<svg version="1.1" id="Layer_1" xmlns="http://www.w3.org/2000/svg" xmlns:xlink="http://www.w3.org/1999/xlink" x="0px" y="0px"
	 viewBox="0 0 512 512" style="enable-background:new 0 0 512 512;" xml:space="preserve">
<path style="fill:#314E55;" d="M511.345,400.153l-49.231-127.999c-1.466-3.798-5.12-6.308-9.192-6.308
	c-4.072,0-7.726,2.51-9.192,6.308l-49.231,127.999c-1.164,3.029-0.76,6.442,1.077,9.115c1.837,2.673,4.87,4.269,8.115,4.269h38.804
	c-4.918,44.243-42.505,78.769-88.035,78.769c-48.86,0-88.615-39.75-88.615-88.615V195.928c22.442-4.575,39.384-24.463,39.384-48.235
	c0-2.406-0.375-4.712-0.71-7.026c18.943-14.874,30.249-37.738,30.249-61.896c0-43.432-35.336-78.769-78.769-78.769
	s-78.769,35.336-78.769,78.769c0,24.238,11.296,46.987,30.251,61.875c-0.337,2.322-0.713,4.635-0.713,7.048
	c0,23.773,16.942,43.661,39.384,48.235v207.764c0,48.865-39.755,88.615-88.615,88.615c-45.529,0-83.116-34.526-88.035-78.769h38.804
	c3.245,0,6.279-1.596,8.115-4.269c1.837-2.673,2.24-6.087,1.077-9.115L68.27,272.154c-1.466-3.798-5.12-6.308-9.192-6.308
	s-7.726,2.51-9.192,6.308L0.655,400.153c-1.164,3.029-0.76,6.442,1.077,9.115c1.837,2.673,4.87,4.269,8.115,4.269H49.73
	c4.997,55.118,51.411,98.461,107.809,98.461c43.711,0,81.364-26.079,98.461-63.451c17.097,37.371,54.75,63.451,98.461,63.451
	c56.398,0,102.811-43.344,107.809-98.461h39.883c3.245,0,6.279-1.596,8.115-4.269C512.105,406.595,512.509,403.182,511.345,400.153z
	 M196.923,78.77c0-32.577,26.5-59.077,59.077-59.077s59.077,26.5,59.077,59.077c0,15.955-6.584,31.155-17.844,42.192
	c-8.787-13.507-23.953-22.5-41.232-22.5c-17.275,0-32.437,8.987-41.226,22.488C203.51,109.916,196.923,94.779,196.923,78.77z"/>
<polygon style="fill:#81A4E3;" points="59.078,303.125 93.972,393.846 24.184,393.846 "/>
<path style="fill:#F28544;" d="M226.462,147.693c0-16.288,13.25-29.538,29.538-29.538c16.288,0,29.538,13.25,29.538,29.538
	s-13.25,29.538-29.538,29.538C239.712,177.231,226.462,163.981,226.462,147.693z"/>
<polygon style="fill:#81A4E3;" points="418.028,393.846 452.922,303.125 487.817,393.846 "/>
<g>
</g>
<g>
</g>
<g>
</g>
<g>
</g>
<g>
</g>
<g>
</g>
<g>
</g>
<g>
</g>
<g>
</g>
<g>
</g>
<g>
</g>
<g>
</g>
<g>
</g>
<g>
</g>
<g>
</g>
</svg>
