<?xml version="1.0" encoding="iso-8859-1"?>
<!-- Generator: Adobe Illustrator 19.0.0, SVG Export Plug-In . SVG Version: 6.00 Build 0)  -->
<svg version="1.1" id="Layer_1" xmlns="http://www.w3.org/2000/svg" xmlns:xlink="http://www.w3.org/1999/xlink" x="0px" y="0px"
	 viewBox="0 0 512 512" style="enable-background:new 0 0 512 512;" xml:space="preserve">
<path style="fill:#314E55;" d="M278.622,139.348c-1.211-12.843-45.219-64.907-57.9-71.093c-11.267-5.489-25.931,6.564-57.996,34.395
	c-16.48,14.317-33.531,29.117-45.702,35.961c-28.634,16.103-109.85,40.95-110.666,41.2c-3.958,1.207-6.573,4.958-6.345,9.091
	c0.079,1.435,2.422,35.733,44.64,81.633c41.709,45.338,69.738,54.174,70.914,54.53c0.86,0.259,1.737,0.382,2.597,0.382
	c3.361,0,6.538-1.896,8.073-5.046l52.547-107.722C279.886,152.884,279.192,145.386,278.622,139.348z"/>
<g>
	<path style="fill:#EAEAEA;" d="M113.891,304.724c-9.916-5.19-29.863-17.937-56.004-46.36c-26.905-29.24-35.76-52.771-38.611-63.744
		c4.033-1.269,9.435-2.989,15.71-5.037l88.349,95.781L113.891,304.724z"/>
	<path style="fill:#EAEAEA;" d="M167.316,198.577c-1.509,0.895-2.729,2.216-3.501,3.8l-32.019,65.642l-78.111-84.682
		c25.44-8.684,55.944-19.946,72.15-29.062c13.768-7.74,31.512-23.149,48.677-38.054c13.128-11.395,32.592-28.296,39.708-30.973
		c9.732,6.832,38.067,41.38,45.211,53.714C248.479,148.729,206.032,175.726,167.316,198.577z"/>
</g>
<path style="fill:#314E55;" d="M492.152,428.206c-4.282-5.498-8.328-10.688-10.53-14.874
	c-6.502-12.351-48.001-53.328-97.494-101.618c-12.759-12.439-23.334-22.759-28.862-28.414
	c-20.157-20.618-70.764-108.27-71.273-109.152c-1.22-2.124-3.256-3.655-5.634-4.238c-2.369-0.584-4.879-0.18-6.959,1.132
	l-53.143,33.64c-2.045,1.294-3.484,3.361-3.984,5.735c-0.5,2.369-0.026,4.844,1.325,6.854c1.053,1.566,25.878,38.568,42.683,56.403
	c2.58,2.738,6.634,6.99,11.768,12.373c28.072,29.437,86.499,90.698,114.773,125.439c19.973,24.54,29.354,48.988,35.558,65.166
	c5.055,13.185,7.836,20.447,14.216,23.557c4.8,2.343,20.034,6.744,35.215,6.744c13.751,0,27.467-3.616,33.337-15.642l1.009-2.049
	c5.994-12.18,6.099-12.474,6.353-13.194C516.434,459.35,503.534,442.804,492.152,428.206z"/>
<path style="fill:#E4AD40;" d="M493.767,469.573c-0.544,1.211-3.984,8.187-5.739,11.75l-1.053,2.154
	c-4.493,9.21-34.434,4.875-43.719,0.93c-1.474-2.128-4.019-8.78-6.099-14.194c-6.617-17.244-16.612-43.306-38.401-70.076
	c-28.713-35.286-87.473-96.893-115.703-126.497c-5.098-5.349-9.126-9.574-11.697-12.294c-11.373-12.079-27.449-34.667-35.619-46.465
	l37.4-23.671c13.338,22.754,51.169,86.13,69.281,104.65c5.581,5.717,16.27,16.142,29.152,28.717
	c30.907,30.152,88.438,86.279,94.151,97.126c2.949,5.603,7.468,11.404,12.259,17.551
	C486.097,449.67,496.206,462.632,493.767,469.573z"/>
<g>
	<path style="fill:#314E55;" d="M119.148,95.691c1.641,0,3.308-0.452,4.8-1.395l114.623-72.677
		c4.195-2.659,5.441-8.209,2.782-12.404c-2.65-4.181-8.187-5.419-12.399-2.777L114.33,79.114c-4.195,2.659-5.441,8.209-2.782,12.404
		C113.259,94.217,116.173,95.691,119.148,95.691z"/>
	<path style="fill:#314E55;" d="M318.225,140.178c1.711,2.698,4.625,4.173,7.599,4.173c1.641,0,3.308-0.452,4.8-1.395
		l114.623-72.677c4.195-2.659,5.441-8.209,2.782-12.404c-2.65-4.186-8.196-5.428-12.4-2.777l-114.623,72.677
		C316.812,130.433,315.566,135.983,318.225,140.178z"/>
	<path style="fill:#314E55;" d="M285.862,108.011c1.764,0,3.554-0.522,5.116-1.606l51.731-35.944
		c4.081-2.834,5.09-8.433,2.255-12.509c-2.834-4.067-8.424-5.085-12.505-2.251l-51.731,35.944c-4.081,2.834-5.09,8.433-2.255,12.509
		C280.219,106.664,283.018,108.011,285.862,108.011z"/>
</g>
<g>
</g>
<g>
</g>
<g>
</g>
<g>
</g>
<g>
</g>
<g>
</g>
<g>
</g>
<g>
</g>
<g>
</g>
<g>
</g>
<g>
</g>
<g>
</g>
<g>
</g>
<g>
</g>
<g>
</g>
</svg>
