<?xml version="1.0" encoding="iso-8859-1"?>
<!-- Generator: Adobe Illustrator 19.0.0, SVG Export Plug-In . SVG Version: 6.00 Build 0)  -->
<svg version="1.1" id="Layer_1" xmlns="http://www.w3.org/2000/svg" xmlns:xlink="http://www.w3.org/1999/xlink" x="0px" y="0px"
	 viewBox="0 0 512 512" style="enable-background:new 0 0 512 512;" xml:space="preserve">
<path style="fill:#314E55;" d="M400.291,74.473h-23.273h-37.786C334.583,32.648,299.05,0,256,0s-78.583,32.648-83.232,74.473
	h-37.786h-23.273c-5.145,0-9.309,4.168-9.309,9.309v283.877c0,54.327,40.65,99.23,93.091,106.093v28.939
	c0,5.141,4.164,9.309,9.309,9.309c5.145,0,9.309-4.168,9.309-9.309v-27.927h83.782v27.927c0,5.141,4.164,9.309,9.309,9.309
	c5.145,0,9.309-4.168,9.309-9.309v-28.939c52.44-6.864,93.091-51.766,93.091-106.093V83.782
	C409.6,78.641,405.436,74.473,400.291,74.473z M256,18.618c32.773,0,59.973,24.318,64.5,55.855h-129
	C196.027,42.936,223.227,18.618,256,18.618z"/>
<g>
	<path style="fill:#D8D8D8;" d="M181.527,93.091h148.945h36.854c-4.745,57.255-52.864,102.4-111.327,102.4
		s-106.582-45.145-111.327-102.4H181.527z"/>
	<rect x="232.727" y="214.109" style="fill:#D8D8D8;" width="46.545" height="55.855"/>
</g>
<path style="fill:#5ECB66;" d="M390.982,367.659c0,48.791-39.655,88.486-88.391,88.486h-93.182
	c-48.736,0-88.391-39.695-88.391-88.486V93.091h5.126c3.781,53.108,39.437,97.445,87.965,113.984v72.198
	c0,5.141,4.164,9.309,9.309,9.309h65.164c5.145,0,9.309-4.168,9.309-9.309v-72.198c48.528-16.539,84.184-60.876,87.965-113.984
	h5.126V367.659z"/>
<path style="fill:#314E55;" d="M335.127,307.2H176.873c-5.145,0-9.309,4.168-9.309,9.309v37.236
	c0,25.664,20.909,46.545,46.609,46.545h83.655c25.7,0,46.609-20.882,46.609-46.545v-37.236
	C344.436,311.368,340.273,307.2,335.127,307.2z"/>
<path style="fill:#D8D8D8;" d="M325.818,353.745c0,15.4-12.554,27.927-27.991,27.927h-83.655c-15.436,0-27.991-12.527-27.991-27.927
	v-27.927h139.636V353.745z"/>
<g>
</g>
<g>
</g>
<g>
</g>
<g>
</g>
<g>
</g>
<g>
</g>
<g>
</g>
<g>
</g>
<g>
</g>
<g>
</g>
<g>
</g>
<g>
</g>
<g>
</g>
<g>
</g>
<g>
</g>
</svg>
