<?xml version="1.0" encoding="iso-8859-1"?>
<!-- Generator: Adobe Illustrator 19.0.0, SVG Export Plug-In . SVG Version: 6.00 Build 0)  -->
<svg version="1.1" id="Layer_1" xmlns="http://www.w3.org/2000/svg" xmlns:xlink="http://www.w3.org/1999/xlink" x="0px" y="0px"
	 viewBox="0 0 512 512" style="enable-background:new 0 0 512 512;" xml:space="preserve">
<path style="fill:#314E55;" d="M375.76,316.412l41.889-41.899c3.115-3.115,3.79-7.926,1.649-11.774L279.648,11.376
	c-1.408-2.536-3.857-4.32-6.692-4.889c-22.545-4.522-76.719-13.259-92.698,2.7c-13.228,13.228-9.504,52.548-5.267,78.518
	c-25.978-4.238-65.306-7.952-78.52,5.269c-13.228,13.228-9.504,52.548-5.267,78.518c-25.978-4.238-65.306-7.952-78.52,5.269
	c-15.978,15.978-7.213,70.153-2.7,92.707c0.569,2.835,2.353,5.284,4.889,6.692l251.353,139.649c1.504,0.839,3.153,1.244,4.793,1.244
	c2.555,0,5.082-0.993,6.981-2.893l41.899-41.899L375.76,316.412z"/>
<path style="fill:#DBCF56;" d="M194.221,23.15c5.12-5.12,37.964-4.156,70.403,1.842l133.796,240.823l-29.124,29.131L196.444,95.494
	C190.118,62.427,189.012,28.37,194.221,23.15z"/>
<path style="fill:#E4AD40;" d="M110.434,106.938c5.169-5.178,38.755-4.137,71.58,2.063l173.284,199.947l-42.863,42.853
	L112.497,178.518C106.297,145.693,105.255,112.116,110.434,106.938z"/>
<path style="fill:#DBCF56;" d="M269.301,394.935L28.488,261.139c-6.007-32.448-6.962-65.292-1.842-70.413
	c5.219-5.228,39.287-4.096,72.344,2.223l199.443,172.854L269.301,394.935z"/>
<path style="fill:#314E55;" d="M483.983,340.847l-52.371-52.361c-3.857-3.857-10.106-3.857-13.963,0L284.991,421.144
	c-3.857,3.857-3.857,10.106,0,13.963l52.361,52.371C353.706,503.832,375.181,512,396.675,512c21.513,0,43.046-8.196,59.439-24.589
	l27.801-27.801C516.682,426.853,516.711,373.575,483.983,340.847z"/>
<path style="fill:#73C9C9;" d="M469.952,445.647l-27.801,27.801c-25.072,25.062-65.823,25.081-90.837,0.067l-45.38-45.389
	L424.63,309.43l45.389,45.38C495.043,379.834,495.014,420.585,469.952,445.647z"/>
<g>
</g>
<g>
</g>
<g>
</g>
<g>
</g>
<g>
</g>
<g>
</g>
<g>
</g>
<g>
</g>
<g>
</g>
<g>
</g>
<g>
</g>
<g>
</g>
<g>
</g>
<g>
</g>
<g>
</g>
</svg>
