<?xml version="1.0" encoding="iso-8859-1"?>
<!-- Generator: Adobe Illustrator 19.0.0, SVG Export Plug-In . SVG Version: 6.00 Build 0)  -->
<svg version="1.1" id="Layer_1" xmlns="http://www.w3.org/2000/svg" xmlns:xlink="http://www.w3.org/1999/xlink" x="0px" y="0px"
	 viewBox="0 0 512 512" style="enable-background:new 0 0 512 512;" xml:space="preserve">
<path style="fill:#314E55;" d="M512,200.99c0-92.361-60.535-167.51-134.939-167.51s-134.939,75.149-134.939,167.51
	c0,78.399,43.676,144.207,102.367,162.369v23.753c0,5.144,4.162,9.306,9.306,9.306h17.011
	c-7.343,18.904-23.937,26.622-42.776,35.389c-24.819,11.542-52.956,24.628-55.437,66.706c-0.309,5.126,3.608,9.533,8.743,9.833
	c0.182,0.009,0.373,0.018,0.554,0.018c4.889,0,8.988-3.817,9.279-8.761c1.827-30.981,20.748-39.778,44.713-50.929
	c21.63-10.06,45.979-21.438,54.459-52.256h19.29c5.144,0,9.306-4.162,9.306-9.306v-26.974C472.889,338.202,512,275.197,512,200.99z"
	/>
<rect x="363.101" y="368.505" style="fill:#FFFFFF;" width="37.224" height="9.306"/>
<path style="fill:#314E55;" d="M130.449,294.051c5.144,0,9.306-4.162,9.306-9.306V259.28
	c42.086-17.438,72.531-66.562,72.531-124.396c0-72.368-47.612-131.249-106.139-131.249S0,62.516,0,134.884
	c0,54.548,27.069,101.402,65.459,121.184c-0.022,0.263-0.153,0.489-0.153,0.758v27.918c0,5.144,4.162,9.306,9.306,9.306H88.41
	c-25.317,52.186,7.053,89.77,36.05,123.224c21.575,24.874,41.941,48.376,37.561,75.394c-0.818,5.071,2.626,9.851,7.698,10.678
	c0.509,0.082,1.009,0.118,1.499,0.118c4.49,0,8.434-3.244,9.179-7.816c5.771-35.616-18.449-63.552-41.868-90.571
	c-30.303-34.947-56.433-65.328-28.961-111.028L130.449,294.051L130.449,294.051z"/>
<path style="fill:#73C9C9;" d="M18.612,134.884c0-62.107,39.269-112.637,87.536-112.637s87.527,50.529,87.527,112.637
	s-39.26,112.637-87.527,112.637S18.612,196.992,18.612,134.884z"/>
<path style="fill:#E65F58;" d="M377.061,349.888c-64.143,0-116.326-66.797-116.326-148.898S312.918,52.092,377.061,52.092
	s116.326,66.797,116.326,148.898S441.204,349.888,377.061,349.888z"/>
<g>
	<path style="fill:#314E55;" d="M115.454,52.756c0-5.144-4.162-9.306-9.306-9.306c-41.096,0-74.531,41.014-74.531,91.434
		c0,5.144,4.162,9.306,9.306,9.306s9.306-4.162,9.306-9.306c0-40.151,25.083-72.822,55.919-72.822
		C111.292,62.062,115.454,57.9,115.454,52.756z"/>
	<path style="fill:#314E55;" d="M377.061,80.011c-53.883,0-97.714,54.274-97.714,120.98c0,5.144,4.162,9.306,9.306,9.306
		c5.144,0,9.306-4.162,9.306-9.306c0-56.446,35.489-102.367,79.102-102.367c5.144,0,9.306-4.162,9.306-9.306
		S382.205,80.011,377.061,80.011z"/>
</g>
<rect x="83.918" y="266.137" style="fill:#FFFFFF;" width="37.224" height="9.306"/>
<g>
</g>
<g>
</g>
<g>
</g>
<g>
</g>
<g>
</g>
<g>
</g>
<g>
</g>
<g>
</g>
<g>
</g>
<g>
</g>
<g>
</g>
<g>
</g>
<g>
</g>
<g>
</g>
<g>
</g>
</svg>
