<?xml version="1.0" encoding="iso-8859-1"?>
<!-- Generator: Adobe Illustrator 19.0.0, SVG Export Plug-In . SVG Version: 6.00 Build 0)  -->
<svg version="1.1" id="Layer_1" xmlns="http://www.w3.org/2000/svg" xmlns:xlink="http://www.w3.org/1999/xlink" x="0px" y="0px"
	 viewBox="0 0 512 512" style="enable-background:new 0 0 512 512;" xml:space="preserve">
<path style="fill:#314E55;" d="M486.472,180.297C480.065,94.986,458.098,0,415.586,0c-7.641,0-14.941,3.127-21.741,9.309H118.154
	C111.354,3.127,104.054,0,96.414,0c-42.52,0-64.47,94.857-70.883,180.293c-1.349,1.615-2.258,3.619-2.258,5.889V307.2
	c0,2.74,1.229,5.14,3.11,6.843c5.989,67.415,22.326,141.44,51.603,163.439v25.209c0,5.145,4.168,9.309,9.309,9.309h337.409
	c5.141,0,9.309-4.164,9.309-9.309v-25.2c29.278-21.98,45.595-95.816,51.61-163.453c1.877-1.702,3.104-4.102,3.104-6.838V186.182
	C488.727,183.913,487.819,181.911,486.472,180.297z"/>
<g>
	<path style="fill:#E4AD40;" d="M397.65,27.927c2.568,0,5.023-1.064,6.782-2.936c3.977-4.227,7.732-6.373,11.155-6.373
		c16.339,0,43.258,50.505,51.899,158.255h-86.751c-0.007-0.182,0.071-0.344,0.052-0.527c-6.12-60.827-19.445-112.671-37.958-148.418
		H397.65z"/>
	<path style="fill:#E4AD40;" d="M265.309,27.927H321.5c19.505,32.817,34.211,86.583,40.613,148.945h-96.803V27.927z"/>
	<path style="fill:#E4AD40;" d="M246.691,27.927v148.945h-89.279c6.589-62.693,21.569-116.548,41.376-148.945H246.691z"/>
	<path style="fill:#E4AD40;" d="M96.414,18.618c3.423,0,7.177,2.146,11.155,6.373c1.759,1.873,4.214,2.936,6.782,2.936h63.062
		c-18.851,35.597-32.46,87.639-38.722,148.945H44.513C53.145,69.12,80.05,18.618,96.414,18.618z"/>
	<path style="fill:#E4AD40;" d="M96.605,493.382v-20.973c0-3.473-1.927-6.646-5.005-8.255
		c-16.873-8.801-37.989-58.656-46.293-147.645h92.573c6.952,77.651,25.761,141.671,51.469,176.873H96.605z"/>
	<path style="fill:#E4AD40;" d="M246.691,493.382h-32.857c-27.837-26.772-49.643-94.331-57.251-176.873h90.108V493.382z"/>
	<path style="fill:#E4AD40;" d="M304.417,493.382h-39.108V316.509h97.306c-7.748,81.939-29.49,148.9-57.201,175.436
		C304.976,492.366,304.755,492.903,304.417,493.382z"/>
	<path style="fill:#E4AD40;" d="M420.4,464.155c-3.077,1.609-5.005,4.782-5.005,8.255v20.973h-86.598
		c26.143-34.61,45.347-98.733,52.52-176.873h85.389C458.405,405.505,437.314,455.333,420.4,464.155z"/>
</g>
<path style="fill:#EAEAEA;" d="M470.109,296.993c-0.24,0.298-0.503,0.57-0.706,0.898H41.891V196.007
	c0.115-0.182,0.277-0.326,0.378-0.516h427.84V296.993z"/>
<path style="fill:#314E55;" d="M423.564,279.273c15.4,0,27.927-12.527,27.927-27.927s-12.527-27.927-27.927-27.927
	c-15.4,0-27.927,12.527-27.927,27.927S408.164,279.273,423.564,279.273z"/>
<circle style="fill:#EAEAEA;" cx="423.564" cy="251.345" r="9.309"/>
<path style="fill:#314E55;" d="M311.855,279.273c15.4,0,27.927-12.527,27.927-27.927s-12.527-27.927-27.927-27.927
	c-15.4,0-27.927,12.527-27.927,27.927S296.454,279.273,311.855,279.273z"/>
<circle style="fill:#EAEAEA;" cx="311.855" cy="251.345" r="9.309"/>
<path style="fill:#314E55;" d="M190.836,279.273c15.4,0,27.927-12.527,27.927-27.927s-12.527-27.927-27.927-27.927
	s-27.927,12.527-27.927,27.927S175.436,279.273,190.836,279.273z"/>
<circle style="fill:#EAEAEA;" cx="190.836" cy="251.345" r="9.309"/>
<path style="fill:#314E55;" d="M88.436,279.273c15.4,0,27.927-12.527,27.927-27.927s-12.527-27.927-27.927-27.927
	s-27.927,12.527-27.927,27.927S73.036,279.273,88.436,279.273z"/>
<circle style="fill:#EAEAEA;" cx="88.436" cy="251.345" r="9.309"/>
<g>
</g>
<g>
</g>
<g>
</g>
<g>
</g>
<g>
</g>
<g>
</g>
<g>
</g>
<g>
</g>
<g>
</g>
<g>
</g>
<g>
</g>
<g>
</g>
<g>
</g>
<g>
</g>
<g>
</g>
</svg>
