<?xml version="1.0" encoding="iso-8859-1"?>
<!-- Generator: Adobe Illustrator 19.0.0, SVG Export Plug-In . SVG Version: 6.00 Build 0)  -->
<svg version="1.1" id="Layer_1" xmlns="http://www.w3.org/2000/svg" xmlns:xlink="http://www.w3.org/1999/xlink" x="0px" y="0px"
	 viewBox="0 0 512 512" style="enable-background:new 0 0 512 512;" xml:space="preserve">
<path style="fill:#314E55;" d="M486.255,48.096c-2.783-18.224-12.237-32.834-26.637-41.147c-14.391-8.322-31.784-9.189-48.949-2.491
	c-16.444,6.424-30.808,19.154-40.444,35.845c-1.989,3.45-3.751,7.018-4.955,10.011L174.934,436.04l-0.634-0.366
	c-5.393-3.121-11.69-3.96-17.713-2.318c-6.032,1.615-11.06,5.485-14.181,10.887c-6.433,11.151-2.61,25.46,8.532,31.903
	l56.697,32.724c3.586,2.071,7.574,3.13,11.617,3.13c2.035,0,4.079-0.265,6.087-0.803c6.032-1.615,11.06-5.485,14.181-10.887
	c6.433-11.151,2.61-25.46-8.523-31.903l-0.63-0.364l238.705-357.447c2.3-3.021,4.435-6.224,6.361-9.554
	C485.069,84.351,488.911,65.553,486.255,48.096z"/>
<g>
	<path style="fill:#E4AD40;" d="M223.331,490.966c-0.84,1.46-2.135,1.989-2.829,2.181c-0.703,0.164-2.062,0.383-3.522-0.465
		l-56.688-32.715c-2.263-1.314-3.012-4.116-1.697-6.379c0.84-1.46,2.145-1.999,2.838-2.181c0.301-0.082,0.73-0.164,1.232-0.164
		c0.666,0,1.469,0.146,2.291,0.62l56.688,32.724C223.897,485.892,224.645,488.694,223.331,490.966z"/>
	<polygon style="fill:#E4AD40;" points="202.648,452.041 191.155,445.402 264.35,297.047 306.017,321.104 214.143,458.678 	"/>
	<path style="fill:#E4AD40;" d="M459.244,91.697c-1.561,2.71-3.313,5.329-5.183,7.775c-0.128,0.155-0.246,0.328-0.365,0.493
		L316.42,305.526l-43.781-25.279l109.65-222.241c1.159-2.811,2.546-5.621,4.125-8.359c7.52-13.031,18.552-22.896,31.054-27.778
		c11.781-4.608,23.425-4.161,32.806,1.269c9.381,5.411,15.595,15.276,17.503,27.778C469.802,64.184,466.772,78.666,459.244,91.697z"
		/>
</g>
<path style="fill:#314E55;" d="M174.437,111.025c0-41.22-33.536-74.756-74.756-74.756s-74.756,33.536-74.756,74.756
	s33.536,74.756,74.756,74.756S174.437,152.245,174.437,111.025z"/>
<g>
	<path style="fill:#5ECB66;" d="M155.748,111.025c0,14.195-5.344,27.133-14.07,37.021c-8.936-10.178-13.964-23.38-13.964-37.021
		c0-13.83,4.946-26.781,13.978-37.006C150.41,83.904,155.748,96.839,155.748,111.025z"/>
	<path style="fill:#5ECB66;" d="M43.613,111.025c0-14.799,5.805-28.239,15.205-38.269c9.777,10.412,15.183,23.853,15.183,38.269
		c0,14.226-5.516,27.933-15.181,38.271C49.419,139.266,43.613,125.826,43.613,111.025z"/>
	<path style="fill:#5ECB66;" d="M73.769,160.698c12.087-13.611,18.922-31.332,18.922-49.672c0-18.59-6.714-35.98-18.949-49.659
		c7.765-4.072,16.579-6.408,25.939-6.408c9.988,0,19.355,2.655,27.486,7.253c-11.745,13.545-18.141,30.618-18.141,48.815
		c0,17.951,6.562,35.304,18.173,48.795c-8.139,4.607-17.516,7.272-27.518,7.272C90.331,167.092,81.527,164.761,73.769,160.698z"/>
</g>
<g>
	<path style="fill:#314E55;" d="M175.085,49.939c1.195,0,2.409-0.228,3.586-0.712l55.419-23.015
		c4.764-1.98,7.027-7.446,5.047-12.219c-1.989-4.764-7.437-7.018-12.219-5.047l-55.419,23.015c-4.764,1.98-7.027,7.446-5.047,12.219
		C167.949,47.776,171.425,49.939,175.085,49.939z"/>
	<path style="fill:#314E55;" d="M218.896,59.229l-33.491,14.437c-4.745,2.044-6.926,7.538-4.882,12.274
		c1.524,3.541,4.964,5.649,8.587,5.649c1.232,0,2.482-0.246,3.687-0.766l33.491-14.437c4.745-2.044,6.926-7.538,4.882-12.274
		C229.126,59.366,223.641,57.167,218.896,59.229z"/>
</g>
<g>
</g>
<g>
</g>
<g>
</g>
<g>
</g>
<g>
</g>
<g>
</g>
<g>
</g>
<g>
</g>
<g>
</g>
<g>
</g>
<g>
</g>
<g>
</g>
<g>
</g>
<g>
</g>
<g>
</g>
</svg>
