<?xml version="1.0" encoding="iso-8859-1"?>
<!-- Generator: Adobe Illustrator 19.0.0, SVG Export Plug-In . SVG Version: 6.00 Build 0)  -->
<svg version="1.1" id="Layer_1" xmlns="http://www.w3.org/2000/svg" xmlns:xlink="http://www.w3.org/1999/xlink" x="0px" y="0px"
	 viewBox="0 0 512 512" style="enable-background:new 0 0 512 512;" xml:space="preserve">
<path style="fill:#314E55;" d="M511.686,251.267c-2.102-10.949-14.508-22.331-30.098-22.331h-91.301
	c-4.555-101.257-88.334-182.237-190.695-182.237S13.453,127.679,8.898,228.936h-0.22c-4.792,0-8.678,3.881-8.678,8.678v43.39
	c0,2.33,0.941,4.568,2.61,6.203c1.623,1.585,3.801,2.475,6.068,2.475c0.064,0,0.127,0,0.191,0l136.019-2.983
	c-35.828,24.143-42.227,51.34-40.358,71.357c4.462,47.814,58.788,89.763,108.733,102.703c11.763,3.042,23.009,4.542,33.551,4.542
	c28.856,0,52.466-11.229,67.119-32.653c17.792-26,7.373-44.593-0.237-58.169c-5.957-10.629-9.934-17.855-2.654-27.84
	c4.301,2.338,9.153,3.789,14.382,3.789c16.746,0,30.373-13.627,30.373-30.373c0-16.746-13.627-30.373-30.373-30.373
	c-16.746,0-30.373,13.627-30.373,30.373c0,5.191,1.431,10.007,3.736,14.286c-16.255,19.951-7.548,35.575-0.232,48.629
	c7.131,12.72,12.763,22.771,1.055,39.881c-22.208,32.458-64.742,25.576-81.996,21.102c-49.521-12.822-92.496-52.085-95.805-87.517
	c-2.453-26.288,16.39-49.661,54.496-67.576c1.412-0.665,3.81-1.692,5.854-2.938l299.621-6.613
	c16.941-0.373,30.212-11.271,30.22-24.814c0-0.008,0-0.008,0-0.017v-0.89C512,252.784,511.89,252.004,511.686,251.267z
	 M325.424,307.038c7.178,0,13.017,5.839,13.017,13.017c0,7.115-5.742,12.897-12.834,12.999c0.007-0.005,0.013-0.01,0.02-0.015
	c3.852-2.856,4.661-8.288,1.809-12.144c-2.86-3.847-8.292-4.669-12.14-1.805c-1.002,0.743-1.834,1.459-2.766,2.19
	c-0.039-0.409-0.124-0.805-0.124-1.224C312.407,312.877,318.246,307.038,325.424,307.038z"/>
<path style="fill:#73C9C9;" d="M199.593,64.055c92.792,0,168.809,73.195,173.343,164.881H61.232
	c1.121-18.333,5.566-35.995,13.692-52.517c23.555-47.898,71.322-77.653,124.67-77.653c4.792,0,8.678-3.881,8.678-8.678
	c0-4.797-3.886-8.678-8.678-8.678c-60.013,0-113.75,33.466-140.246,87.347c-9.315,18.942-14.58,39.145-15.716,60.178H26.25
	C30.784,137.25,106.801,64.055,199.593,64.055z"/>
<path style="fill:#E9E7D1;" d="M481.398,261.953L17.356,272.131v-25.839h364.475h99.758c7.305,0,12.534,5.695,13.021,8.61
	C494.152,257.809,489.106,261.784,481.398,261.953z"/>
<g>
</g>
<g>
</g>
<g>
</g>
<g>
</g>
<g>
</g>
<g>
</g>
<g>
</g>
<g>
</g>
<g>
</g>
<g>
</g>
<g>
</g>
<g>
</g>
<g>
</g>
<g>
</g>
<g>
</g>
</svg>
