<?xml version="1.0" encoding="iso-8859-1"?>
<!-- Generator: Adobe Illustrator 19.0.0, SVG Export Plug-In . SVG Version: 6.00 Build 0)  -->
<svg version="1.1" id="Layer_1" xmlns="http://www.w3.org/2000/svg" xmlns:xlink="http://www.w3.org/1999/xlink" x="0px" y="0px"
	 viewBox="0 0 512 512" style="enable-background:new 0 0 512 512;" xml:space="preserve">
<path style="fill:#314E55;" d="M454.816,135.946c30.083,0,54.555-24.472,54.555-54.555S484.9,26.836,454.816,26.836
	c-30.084,0-54.555,24.472-54.555,54.555S424.733,135.946,454.816,135.946z"/>
<path style="fill:#E4AD40;" d="M454.816,45.021c20.059,0,36.37,16.312,36.37,36.37s-16.312,36.37-36.37,36.37
	c-20.059,0-36.37-16.312-36.37-36.37S434.758,45.021,454.816,45.021z"/>
<g>
	<path style="fill:#314E55;" d="M375.648,151.467c1.776,1.776,4.102,2.664,6.429,2.664c2.326,0,4.653-0.888,6.429-2.664
		l18.185-18.185c3.552-3.552,3.552-9.306,0-12.857c-3.552-3.552-9.306-3.552-12.857,0l-18.185,18.185
		C372.096,142.162,372.096,147.915,375.648,151.467z"/>
	<path style="fill:#314E55;" d="M505.411,467.335c-15.996-4.589-33.056-8.642-50.772-12.27c0.03-0.304,0.178-0.568,0.178-0.881
		v-36.37h9.092c5.026,0,9.093-4.067,9.093-9.092v-36.37c0-5.026-4.067-9.092-9.093-9.092h-9.092v-36.37v-36.37v-18.185
		c0-5.026-4.067-9.093-9.093-9.093s-9.092,4.067-9.092,9.093v9.092H82.023v-9.092c0-5.026-4.067-9.093-9.093-9.093
		s-9.093,4.067-9.093,9.093v18.185v36.37v36.37h-9.093c-5.026,0-9.093,4.067-9.093,9.092v36.37c0,5.026,4.067,9.092,9.093,9.092
		h9.093v35.342c-19.924,3.866-39.062,8.35-57.21,13.468c-4.83,1.368-7.645,6.393-6.287,11.224c1.368,4.83,6.393,7.636,11.224,6.287
		c68.451-19.313,154.83-29.95,243.216-29.95c89.513,0,176.745,10.877,245.622,30.625c0.835,0.24,1.678,0.355,2.504,0.355
		c3.96,0,7.592-2.593,8.737-6.588C513.03,473.754,510.242,468.72,505.411,467.335z M436.631,451.647
		c-55.914-10.127-118.28-15.648-181.85-15.648c-61.007,0-119.432,4.832-172.758,13.944v-32.129h354.608V451.647z M436.631,363.259
		H82.023v-27.278h354.608V363.259z"/>
	<path style="fill:#314E55;" d="M363.891,90.483h18.185c5.026,0,9.093-4.067,9.093-9.093s-4.067-9.093-9.093-9.093h-18.185
		c-5.026,0-9.092,4.067-9.092,9.093S358.866,90.483,363.891,90.483z"/>
	<path style="fill:#314E55;" d="M445.724,153.811v18.185c0,5.026,4.067,9.093,9.093,9.093c5.026,0,9.092-4.067,9.092-9.093v-18.185
		c0-5.026-4.067-9.093-9.092-9.093C449.791,144.719,445.724,148.786,445.724,153.811z"/>
</g>
<g>
	<rect x="82.015" y="299.611" style="fill:#F28544;" width="354.608" height="18.185"/>
	<rect x="63.829" y="381.444" style="fill:#F28544;" width="390.978" height="18.185"/>
</g>
<g>
</g>
<g>
</g>
<g>
</g>
<g>
</g>
<g>
</g>
<g>
</g>
<g>
</g>
<g>
</g>
<g>
</g>
<g>
</g>
<g>
</g>
<g>
</g>
<g>
</g>
<g>
</g>
<g>
</g>
</svg>
