<?xml version="1.0" encoding="iso-8859-1"?>
<!-- Generator: Adobe Illustrator 19.0.0, SVG Export Plug-In . SVG Version: 6.00 Build 0)  -->
<svg version="1.1" id="Layer_1" xmlns="http://www.w3.org/2000/svg" xmlns:xlink="http://www.w3.org/1999/xlink" x="0px" y="0px"
	 viewBox="0 0 512 512" style="enable-background:new 0 0 512 512;" xml:space="preserve">
<path style="fill:#314E55;" d="M443.429,338.286c-14.878,0-28.623,4.814-39.873,12.893l-103.479-95.575l62.387-98.756
	c0.261-0.413,0.314-0.878,0.501-1.312h30.043c2.33,0,4.571-0.893,6.268-2.482l19.545-18.393c3.674-3.464,3.853-9.25,0.388-12.928
	c-3.46-3.679-9.246-3.848-12.924-0.393l-16.902,15.911H320.21c-5.049,0-9.143,4.089-9.143,9.143s4.094,9.143,9.143,9.143h21.458
	l-55.248,87.454L146.542,113.795c2.597-32.921,30.162-58.938,63.743-58.938c5.049,0,9.143-4.089,9.143-9.143
	s-4.094-9.143-9.143-9.143c-45.371,0-82.286,36.911-82.286,82.286v82.749C56.645,206.347,0,265.747,0,338.286
	c0,75.625,61.522,137.143,137.143,137.143s137.143-61.518,137.143-137.143c0-72.539-56.645-131.939-128-136.68v-63.157
	l243.904,225.276c-9.571,11.791-15.332,26.796-15.332,43.132c0,37.813,30.759,68.571,68.571,68.571S512,444.67,512,406.857
	S481.241,338.286,443.429,338.286z"/>
<g>
	<path style="fill:#E4AD40;" d="M128.417,322.317c0.959,4.024,4.409,7.076,8.725,7.076s7.766-3.051,8.725-7.076
		c5.666,3.11,9.56,9.063,9.56,15.969c0,10.08-8.201,18.286-18.286,18.286c-10.085,0-18.286-8.205-18.286-18.286
		C118.857,331.38,122.751,325.427,128.417,322.317z"/>
	<path style="fill:#E4AD40;" d="M256,338.286c0,65.536-53.317,118.857-118.857,118.857S18.286,403.822,18.286,338.286
		c0-62.45,48.444-113.696,109.714-118.394v83.121c-15.728,4.088-27.429,18.279-27.429,35.273c0,20.17,16.406,36.571,36.571,36.571
		c20.165,0,36.571-16.402,36.571-36.571c0-16.994-11.7-31.185-27.429-35.273v-83.121C207.556,224.59,256,275.836,256,338.286z"/>
</g>
<path style="fill:#5ECB66;" d="M443.429,457.143c-27.728,0-50.286-22.563-50.286-50.286c0-11.552,3.957-22.176,10.532-30.676
	l36.142,33.382c1.759,1.625,3.986,2.429,6.201,2.429c2.464,0,4.92-0.991,6.719-2.938c3.429-3.714,3.196-9.5-0.509-12.92
	l-34.861-32.199c7.612-4.64,16.514-7.364,26.062-7.364c27.728,0,50.286,22.563,50.286,50.286
	C493.714,434.58,471.156,457.143,443.429,457.143z"/>
<g>
</g>
<g>
</g>
<g>
</g>
<g>
</g>
<g>
</g>
<g>
</g>
<g>
</g>
<g>
</g>
<g>
</g>
<g>
</g>
<g>
</g>
<g>
</g>
<g>
</g>
<g>
</g>
<g>
</g>
</svg>
