<?xml version="1.0" encoding="iso-8859-1"?>
<!-- Generator: Adobe Illustrator 19.0.0, SVG Export Plug-In . SVG Version: 6.00 Build 0)  -->
<svg version="1.1" id="Layer_1" xmlns="http://www.w3.org/2000/svg" xmlns:xlink="http://www.w3.org/1999/xlink" x="0px" y="0px"
	 viewBox="0 0 512 512" style="enable-background:new 0 0 512 512;" xml:space="preserve">
<path style="fill:#314E55;" d="M510.19,370.445c-0.042-0.277,0.043-0.541-0.02-0.819l-0.324-1.427
	c-0.144-0.723-0.33-1.43-0.488-2.148L430.966,20.699c-1.204-5.301-5.915-9.062-11.347-9.062H335c-6.131,0-11.21,4.756-11.614,10.875
	l-3.159,48.318h-127.08l-4.562-48.642c-0.563-5.983-5.58-10.551-11.585-10.551H92.381c-5.432,0-10.142,3.761-11.347,9.062
	L2.641,366.05c-0.158,0.717-0.344,1.425-0.488,2.148l-0.324,1.427c-0.063,0.278,0.023,0.543-0.02,0.819
	C0.689,376.747,0,383.199,0,389.818c0,60.954,49.591,110.545,110.545,110.545s110.545-49.591,110.545-110.545
	c0-1.29-0.15-2.543-0.194-3.824c0.094-0.822,0.327-1.609,0.239-2.466l-19.051-185.71h107.83l-19.051,185.71
	c-0.088,0.856,0.145,1.643,0.239,2.466c-0.044,1.281-0.194,2.534-0.194,3.824c0,60.954,49.591,110.545,110.545,110.545
	S512,450.773,512,389.818C512,383.199,511.311,376.747,510.19,370.445z"/>
<g>
	<path style="fill:#81A4E3;" d="M110.545,477.091c-48.125,0-87.273-39.148-87.273-87.273c0-5.798,0.597-11.457,1.68-16.943
		l0.484-2.131c8.732-38.97,43.541-68.199,85.108-68.199c48.125,0,87.273,39.148,87.273,87.273S158.671,477.091,110.545,477.091z"/>
	<path style="fill:#81A4E3;" d="M401.455,477.091c-48.125,0-87.273-39.148-87.273-87.273s39.148-87.273,87.273-87.273
		c41.567,0,76.376,29.229,85.108,68.199l0.484,2.131c1.084,5.486,1.68,11.145,1.68,16.943
		C488.727,437.943,449.58,477.091,401.455,477.091z"/>
</g>
<path style="fill:#314E55;" d="M110.545,325.818c-35.29,0-64,28.71-64,64s28.71,64,64,64s64-28.71,64-64
	S145.835,325.818,110.545,325.818z"/>
<path style="fill:#D8D8D8;" d="M110.545,430.545c-22.455,0-40.727-18.273-40.727-40.727c0-22.455,18.273-40.727,40.727-40.727
	s40.727,18.273,40.727,40.727S133,430.545,110.545,430.545z"/>
<path style="fill:#314E55;" d="M401.455,325.818c-35.29,0-64,28.71-64,64s28.71,64,64,64s64-28.71,64-64
	S436.744,325.818,401.455,325.818z"/>
<path style="fill:#D8D8D8;" d="M401.455,430.545c-22.455,0-40.727-18.273-40.727-40.727c0-22.455,18.273-40.727,40.727-40.727
	s40.727,18.273,40.727,40.727S423.909,430.545,401.455,430.545z"/>
<path style="fill:#DBCF56;" d="M331.443,178.386c-2.205-2.443-5.341-3.841-8.637-3.841H189.193c-3.295,0-6.432,1.398-8.637,3.841
	c-2.21,2.443-3.273,5.71-2.938,8.983l12.971,126.423c-20.154-21.209-48.546-34.52-80.045-34.52
	c-26.563,0-50.959,9.429-70.042,25.099L101.67,34.909h64.733l4.563,48.642c0.563,5.983,5.58,10.551,11.585,10.551h148.579
	c6.131,0,11.21-4.756,11.614-10.875l3.153-48.318h64.432l61.167,269.463c-19.083-15.67-43.479-25.099-70.042-25.099
	c-31.498,0-59.89,13.311-80.045,34.52l12.971-126.423C334.716,184.097,333.654,180.83,331.443,178.386z"/>
<path style="fill:#314E55;" d="M314.182,128H197.818c-6.426,0-11.636,5.21-11.636,11.636s5.21,11.636,11.636,11.636h116.364
	c6.426,0,11.636-5.21,11.636-11.636S320.608,128,314.182,128z"/>
<g>
</g>
<g>
</g>
<g>
</g>
<g>
</g>
<g>
</g>
<g>
</g>
<g>
</g>
<g>
</g>
<g>
</g>
<g>
</g>
<g>
</g>
<g>
</g>
<g>
</g>
<g>
</g>
<g>
</g>
</svg>
