<?xml version="1.0" encoding="iso-8859-1"?>
<!-- Generator: Adobe Illustrator 19.0.0, SVG Export Plug-In . SVG Version: 6.00 Build 0)  -->
<svg version="1.1" id="Layer_1" xmlns="http://www.w3.org/2000/svg" xmlns:xlink="http://www.w3.org/1999/xlink" x="0px" y="0px"
	 viewBox="0 0 512 512" style="enable-background:new 0 0 512 512;" xml:space="preserve">
<path style="fill:#314E55;" d="M471.61,337.92h-0.57v-40.96c0-5.66-4.58-10.24-10.24-10.24h-51.2c-5.66,0-10.24,4.58-10.24,10.24
	v40.96h-20.48v-40.96c0-5.66-4.58-10.24-10.24-10.24h-51.2c-5.66,0-10.24,4.58-10.24,10.24v40.96h-0.57
	c-22.27,0-40.39,18.15-40.39,40.46v92.66c0,5.66,4.58,10.24,10.24,10.24h225.28c5.66,0,10.24-4.58,10.24-10.24v-92.66
	C512,356.07,493.88,337.92,471.61,337.92z"/>
<g>
	<rect x="419.84" y="307.2" style="fill:#D8D8D8;" width="30.72" height="30.72"/>
	<rect x="327.68" y="307.2" style="fill:#D8D8D8;" width="30.72" height="30.72"/>
</g>
<path style="fill:#E65F58;" d="M491.52,460.8h-204.8v-82.42c0-11.02,8.93-19.98,19.91-19.98h10.81h51.2h40.96h51.2h10.81
	c10.98,0,19.91,8.96,19.91,19.98V460.8z"/>
<path style="fill:#314E55;" d="M235.52,30.72H10.24C4.58,30.72,0,35.3,0,40.96v430.08c0,5.66,4.58,10.24,10.24,10.24h225.28
	c5.66,0,10.24-4.58,10.24-10.24V40.96C245.76,35.3,241.18,30.72,235.52,30.72z"/>
<rect x="20.48" y="51.2" style="fill:#E4AD40;" width="204.8" height="409.6"/>
<path style="fill:#314E55;" d="M51.2,153.6h51.2c5.66,0,10.24-4.58,10.24-10.24v-51.2c0-5.66-4.58-10.24-10.24-10.24H51.2
	c-5.66,0-10.24,4.58-10.24,10.24v51.2C40.96,149.02,45.54,153.6,51.2,153.6z"/>
<rect x="61.44" y="102.4" style="fill:#D8D8D8;" width="30.72" height="30.72"/>
<path style="fill:#314E55;" d="M143.36,153.6h51.2c5.66,0,10.24-4.58,10.24-10.24v-51.2c0-5.66-4.58-10.24-10.24-10.24h-51.2
	c-5.66,0-10.24,4.58-10.24,10.24v51.2C133.12,149.02,137.7,153.6,143.36,153.6z"/>
<rect x="153.6" y="102.4" style="fill:#D8D8D8;" width="30.72" height="30.72"/>
<path style="fill:#314E55;" d="M51.2,245.76h51.2c5.66,0,10.24-4.58,10.24-10.24v-51.2c0-5.66-4.58-10.24-10.24-10.24H51.2
	c-5.66,0-10.24,4.58-10.24,10.24v51.2C40.96,241.18,45.54,245.76,51.2,245.76z"/>
<rect x="61.44" y="194.56" style="fill:#D8D8D8;" width="30.72" height="30.72"/>
<path style="fill:#314E55;" d="M143.36,245.76h51.2c5.66,0,10.24-4.58,10.24-10.24v-51.2c0-5.66-4.58-10.24-10.24-10.24h-51.2
	c-5.66,0-10.24,4.58-10.24,10.24v51.2C133.12,241.18,137.7,245.76,143.36,245.76z"/>
<rect x="153.6" y="194.56" style="fill:#D8D8D8;" width="30.72" height="30.72"/>
<path style="fill:#314E55;" d="M51.2,337.92h51.2c5.66,0,10.24-4.58,10.24-10.24v-51.2c0-5.66-4.58-10.24-10.24-10.24H51.2
	c-5.66,0-10.24,4.58-10.24,10.24v51.2C40.96,333.34,45.54,337.92,51.2,337.92z"/>
<rect x="61.44" y="286.72" style="fill:#D8D8D8;" width="30.72" height="30.72"/>
<path style="fill:#314E55;" d="M143.36,337.92h51.2c5.66,0,10.24-4.58,10.24-10.24v-51.2c0-5.66-4.58-10.24-10.24-10.24h-51.2
	c-5.66,0-10.24,4.58-10.24,10.24v51.2C133.12,333.34,137.7,337.92,143.36,337.92z"/>
<rect x="153.6" y="286.72" style="fill:#D8D8D8;" width="30.72" height="30.72"/>
<path style="fill:#314E55;" d="M51.2,430.08h51.2c5.66,0,10.24-4.58,10.24-10.24v-51.2c0-5.66-4.58-10.24-10.24-10.24H51.2
	c-5.66,0-10.24,4.58-10.24,10.24v51.2C40.96,425.5,45.54,430.08,51.2,430.08z"/>
<rect x="61.44" y="378.88" style="fill:#D8D8D8;" width="30.72" height="30.72"/>
<path style="fill:#314E55;" d="M143.36,430.08h51.2c5.66,0,10.24-4.58,10.24-10.24v-51.2c0-5.66-4.58-10.24-10.24-10.24h-51.2
	c-5.66,0-10.24,4.58-10.24,10.24v51.2C133.12,425.5,137.7,430.08,143.36,430.08z"/>
<rect x="153.6" y="378.88" style="fill:#D8D8D8;" width="30.72" height="30.72"/>
<g>
</g>
<g>
</g>
<g>
</g>
<g>
</g>
<g>
</g>
<g>
</g>
<g>
</g>
<g>
</g>
<g>
</g>
<g>
</g>
<g>
</g>
<g>
</g>
<g>
</g>
<g>
</g>
<g>
</g>
</svg>
