<?xml version="1.0" encoding="iso-8859-1"?>
<!-- Generator: Adobe Illustrator 19.0.0, SVG Export Plug-In . SVG Version: 6.00 Build 0)  -->
<svg version="1.1" id="Layer_1" xmlns="http://www.w3.org/2000/svg" xmlns:xlink="http://www.w3.org/1999/xlink" x="0px" y="0px"
	 viewBox="0 0 512 512" style="enable-background:new 0 0 512 512;" xml:space="preserve">
<path style="fill:#314E55;" d="M478.444,432.489l-64.069-17.168l64.069-17.168c4.981-1.335,7.933-6.448,6.598-11.428l-16.386-61.166
	c-0.638-2.392-2.205-4.429-4.347-5.669c-2.137-1.23-4.684-1.568-7.081-0.93l-201.23,53.92L54.772,318.966
	c-2.388-0.647-4.94-0.305-7.081,0.93c-2.142,1.239-3.709,3.276-4.347,5.669L26.958,386.73c-1.335,4.981,1.618,10.093,6.598,11.428
	l64.052,17.163l-64.052,17.163c-4.981,1.335-7.933,6.448-6.598,11.428l16.386,61.166c0.638,2.392,2.205,4.429,4.347,5.669
	c1.431,0.825,3.044,1.249,4.666,1.249c0.807,0,1.622-0.105,2.415-0.319l201.221-53.918l201.234,53.923
	c0.793,0.214,1.604,0.319,2.415,0.319c1.622,0,3.235-0.424,4.666-1.249c2.142-1.239,3.709-3.276,4.347-5.669l16.386-61.166
	C486.377,438.937,483.424,433.824,478.444,432.489z"/>
<g>
	<polygon style="fill:#D8D8D8;" points="47.399,382.547 58.955,339.408 219.942,382.542 219.396,382.688 133.661,405.661 	"/>
	<path style="fill:#D8D8D8;" d="M47.399,448.096l88.655-23.754c0.01-0.002,0.019-0.002,0.029-0.005l122.331-32.782
		c0,0,0.005-0.002,0.007-0.002l194.622-52.15l11.556,43.139L58.955,491.235L47.399,448.096z"/>
	<polygon style="fill:#D8D8D8;" points="453.044,491.24 292.058,448.101 378.331,424.984 464.6,448.101 	"/>
</g>
<path style="fill:#314E55;" d="M242.001,335.99c72.043,0,130.652-58.609,130.652-130.652c0-69.897-118.795-197.14-123.849-202.522
	c-3.527-3.755-10.08-3.755-13.606,0c-5.053,5.381-123.849,132.625-123.849,202.522C111.349,277.381,169.959,335.99,242.001,335.99z"
	/>
<path style="fill:#E65F58;" d="M242.001,23.053c25.235,28.088,111.987,128.565,111.987,182.285
	c0,61.749-50.239,111.988-111.987,111.988s-111.987-50.239-111.987-111.988C130.014,151.618,216.766,51.141,242.001,23.053z"/>
<path style="fill:#314E55;" d="M242.001,299.367c30.877,0,55.994-25.117,55.994-55.994c0-28.639-44.155-76.467-49.19-81.826
	c-3.527-3.755-10.08-3.755-13.606,0c-5.035,5.359-49.191,53.187-49.191,81.826C186.008,274.25,211.124,299.367,242.001,299.367z"/>
<path style="fill:#DBCF56;" d="M242.001,181.861c16.609,19.061,37.329,47.468,37.329,61.512c0,20.583-16.746,37.329-37.329,37.329
	s-37.329-16.746-37.329-37.329C204.672,229.329,225.392,200.922,242.001,181.861z"/>
<g>
</g>
<g>
</g>
<g>
</g>
<g>
</g>
<g>
</g>
<g>
</g>
<g>
</g>
<g>
</g>
<g>
</g>
<g>
</g>
<g>
</g>
<g>
</g>
<g>
</g>
<g>
</g>
<g>
</g>
</svg>
