<?xml version="1.0" encoding="iso-8859-1"?>
<!-- Generator: Adobe Illustrator 19.0.0, SVG Export Plug-In . SVG Version: 6.00 Build 0)  -->
<svg version="1.1" id="Layer_1" xmlns="http://www.w3.org/2000/svg" xmlns:xlink="http://www.w3.org/1999/xlink" x="0px" y="0px"
	 viewBox="0 0 512 512" style="enable-background:new 0 0 512 512;" xml:space="preserve">
<path style="fill:#314E55;" d="M511.618,151.005c-1.636-13.321-8.357-25.206-18.926-33.464c-2.757-2.155-5.704-3.999-8.807-5.522
	c0.939-16.29-6.167-32.425-19.207-42.604c-10.565-8.258-23.704-11.91-37.043-10.274c-10.361,1.272-19.852,5.618-27.435,12.456
	c-0.567-0.485-1.142-0.961-1.731-1.42c-21.817-17.043-53.454-13.174-70.502,8.656c-17.052,21.822-13.17,53.45,8.656,70.502
	c7.184,5.609,15.797,9.158,24.782,10.274c1.029,2.671,2.36,5.2,3.823,7.651c-30.346,6.213-59.424,28.845-72.363,40.092
	c-10.61-16.933-23.686-27.455-38.944-31.158c-4.448-1.074-8.655-1.358-12.653-1.313c4.395-8.207,6.914-17.531,6.914-27.433
	c0-32.581-26.95-59.094-60.076-59.094c-4.666,0-9.27,0.519-13.759,1.558c-11.028-16.619-29.668-26.669-50.256-26.669
	c-30.123,0-55.142,21.925-59.427,50.403c-1.523-0.113-3.051-0.173-4.588-0.173C26.95,113.473,0,139.978,0,172.558
	s26.95,59.094,60.076,59.094c11.335,0,22.479-3.194,32.005-9.089c9.53,5.895,20.675,9.089,32.009,9.089
	c20.588,0,39.228-10.05,50.256-26.669c4.488,1.039,9.093,1.558,13.759,1.558c11.049,0,21.377-3.001,30.28-8.141
	c1.65,0.03,3.316-0.236,4.824-1.164c0.121-0.078,12.244-7.306,26.535-3.808c11.04,2.675,20.839,11.054,29.123,24.903
	c24.505,40.986-24.652,80.188-26.76,81.841c-0.86,0.673-1.504,1.508-2.042,2.389H106.363c-2.731,0-5.306,1.255-6.985,3.41
	c-1.679,2.147-2.276,4.951-1.614,7.6l26.591,106.363c0.987,3.947,4.531,6.717,8.6,6.717h265.908c4.068,0,7.613-2.77,8.6-6.717
	l26.591-106.363c0.662-2.649,0.065-5.453-1.614-7.6c-1.679-2.155-4.254-3.41-6.985-3.41H275.59
	c17.26-18.347,34.301-47.702,25.06-78.395c9.621-8.772,47.036-40.849,79.585-40.849c0.072,0,0.132-0.039,0.204-0.041
	c12.771,8.561,28.419,10.836,42.924,6.239c2.225,2.631,4.726,5.038,7.479,7.184c8.92,6.968,19.679,10.655,30.824,10.655
	c2.06,0,4.142-0.13,6.219-0.381c13.317-1.636,25.201-8.353,33.459-18.93C509.605,177.475,513.254,164.318,511.618,151.005z"/>
<path style="fill:#5ECB66;" d="M173.217,186.183c-4.224-1.541-8.972,0.346-10.989,4.389c-7.037,14.187-22.007,23.353-38.138,23.353
	c-9.773,0-18.943-3.151-26.53-9.123c-1.606-1.264-3.545-1.896-5.479-1.896c-1.939,0-3.873,0.632-5.483,1.896
	c-7.578,5.973-16.749,9.123-26.522,9.123c-23.349,0-42.349-18.558-42.349-41.366s19-41.358,42.349-41.358
	c3.631,0,7.215,0.441,10.651,1.316c2.692,0.684,5.561,0.061,7.734-1.688c2.168-1.749,3.393-4.415,3.302-7.202l-0.022-1.29
	c0-22.808,19-41.366,42.349-41.366c16.13,0,31.101,9.167,38.138,23.354c2.008,4.051,6.76,5.921,10.989,4.389
	c4.761-1.749,9.773-2.631,14.888-2.631c23.35,0,42.349,18.558,42.349,41.366c0,22.808-19,41.366-42.349,41.366
	C182.989,188.814,177.978,187.931,173.217,186.183z"/>
<polygon style="fill:#DBCF56;" points="391.942,408.924 139.874,408.924 117.715,320.288 414.101,320.288 "/>
<path style="fill:#5ECB66;" d="M487.373,177.137c-5.341,6.838-13.031,11.183-21.648,12.239c-8.613,1.047-17.13-1.307-23.973-6.648
	c-3.09-2.415-5.683-5.315-7.704-8.613c-1.657-2.718-4.566-4.241-7.565-4.241c-1.311,0-2.64,0.294-3.886,0.9
	c-11.283,5.522-24.427,4.129-34.321-3.584c-5.886-4.596-9.902-10.854-11.616-18.108c-0.952-4.042-4.709-6.726-8.734-6.829
	c-7.57-0.113-14.507-2.285-20.389-6.89c-6.842-5.341-11.192-13.036-12.252-21.648c-1.056-8.621,1.307-17.13,6.652-23.977
	c11.032-14.118,31.503-16.619,45.621-5.592c2.181,1.705,4.124,3.661,5.774,5.817c1.696,2.216,4.371,3.748,7.133,3.471
	c2.796-0.035,5.41-1.376,7.059-3.627l0.623-0.831c5.341-6.838,13.032-11.183,21.648-12.239c8.565-1.108,17.121,1.298,23.973,6.648
	c9.885,7.721,14.395,20.142,11.772,32.425c-0.952,4.475,1.649,8.933,6.007,10.309c3.7,1.16,7.141,2.978,10.227,5.393
	C495.894,142.548,498.409,163.011,487.373,177.137z"/>
<path style="fill:#314E55;" d="M416.589,435.515H115.227c-4.895,0-8.864,3.964-8.864,8.864c0,4.899,3.969,8.864,8.864,8.864h301.362
	c4.895,0,8.864-3.964,8.864-8.864C425.453,439.479,421.484,435.515,416.589,435.515z"/>
<g>
</g>
<g>
</g>
<g>
</g>
<g>
</g>
<g>
</g>
<g>
</g>
<g>
</g>
<g>
</g>
<g>
</g>
<g>
</g>
<g>
</g>
<g>
</g>
<g>
</g>
<g>
</g>
<g>
</g>
</svg>
