<?xml version="1.0" encoding="iso-8859-1"?>
<!-- Generator: Adobe Illustrator 19.0.0, SVG Export Plug-In . SVG Version: 6.00 Build 0)  -->
<svg version="1.1" id="Layer_1" xmlns="http://www.w3.org/2000/svg" xmlns:xlink="http://www.w3.org/1999/xlink" x="0px" y="0px"
	 viewBox="0 0 512 512" style="enable-background:new 0 0 512 512;" xml:space="preserve">
<path style="fill:#314E55;" d="M256,0C162.535,0,86.489,76.042,86.489,169.511c0,73.668,47.323,136.333,113.096,159.653
	c-0.007,0.154-0.089,0.284-0.089,0.44v65.921c0,5.201,4.212,9.417,9.417,9.417h94.173c5.205,0,9.417-4.217,9.417-9.417v-65.921
	c0-0.156-0.081-0.286-0.089-0.44c65.774-23.32,113.096-85.986,113.096-159.653C425.511,76.042,349.465,0,256,0z"/>
<path style="fill:#D8D8D8;" d="M293.669,386.108h-75.338v-51.451c12.135,2.768,24.708,4.365,37.669,4.365
	c12.961,0,25.534-1.597,37.669-4.365V386.108z"/>
<path style="fill:#E65F58;" d="M256,320.187c-83.082,0-150.676-67.595-150.676-150.676S172.918,18.835,256,18.835
	s150.676,67.595,150.676,150.676S339.082,320.187,256,320.187z"/>
<path style="fill:#314E55;" d="M208.914,103.59c15.579,0,28.252-12.673,28.252-28.252s-12.673-28.252-28.252-28.252
	s-28.252,12.673-28.252,28.252S193.335,103.59,208.914,103.59z"/>
<circle style="fill:#E65F58;" cx="208.914" cy="75.338" r="9.417"/>
<path style="fill:#314E55;" d="M152.41,160.094c15.579,0,28.252-12.673,28.252-28.252s-12.673-28.252-28.252-28.252
	s-28.252,12.673-28.252,28.252S136.831,160.094,152.41,160.094z"/>
<circle style="fill:#E65F58;" cx="152.41" cy="131.842" r="9.417"/>
<path style="fill:#314E55;" d="M152.41,178.928c-15.579,0-28.252,12.673-28.252,28.252s12.673,28.252,28.252,28.252
	s28.252-12.673,28.252-28.252S167.989,178.928,152.41,178.928z"/>
<circle style="fill:#E65F58;" cx="152.41" cy="207.18" r="9.417"/>
<path style="fill:#314E55;" d="M208.914,235.432c-15.579,0-28.252,12.673-28.252,28.252s12.673,28.252,28.252,28.252
	s28.252-12.673,28.252-28.252S224.493,235.432,208.914,235.432z"/>
<circle style="fill:#E65F58;" cx="208.914" cy="263.684" r="9.417"/>
<path style="fill:#314E55;" d="M352.619,493.993l-51.569-23.258l11.168-44.672c0.708-2.814,0.073-5.794-1.711-8.079
	c-1.784-2.285-4.525-3.624-7.422-3.624h-94.173c-2.897,0-5.637,1.338-7.422,3.624c-1.784,2.285-2.419,5.265-1.711,8.079
	l10.612,42.447L153.9,493.993c-4.745,2.138-6.852,7.716-4.709,12.457c1.563,3.486,4.994,5.55,8.589,5.55
	c1.288,0,2.603-0.271,3.862-0.837l53.392-24.085l3.58,14.323c1.048,4.189,4.81,7.132,9.132,7.132h56.504
	c4.322,0,8.084-2.943,9.132-7.132l3.025-12.098l48.467,21.86c1.26,0.566,2.575,0.837,3.863,0.837c3.596,0,7.026-2.065,8.59-5.55
	C359.47,501.709,357.364,496.131,352.619,493.993z"/>
<path style="fill:#D8D8D8;" d="M235.105,489.698l-14.126-56.504h70.041l-9.555,38.219c-0.125,0.228-0.334,0.377-0.442,0.618
	c-0.612,1.353-0.793,2.759-0.75,4.15l-3.379,13.517H235.105z"/>
<path style="fill:#314E55;" d="M227.748,141.259c-15.579,0-28.252,12.673-28.252,28.252s12.673,28.252,28.252,28.252
	S256,185.09,256,169.511S243.327,141.259,227.748,141.259z"/>
<circle style="fill:#E65F58;" cx="227.748" cy="169.511" r="9.417"/>
<g>
</g>
<g>
</g>
<g>
</g>
<g>
</g>
<g>
</g>
<g>
</g>
<g>
</g>
<g>
</g>
<g>
</g>
<g>
</g>
<g>
</g>
<g>
</g>
<g>
</g>
<g>
</g>
<g>
</g>
</svg>
