<?xml version="1.0" encoding="iso-8859-1"?>
<!-- Generator: Adobe Illustrator 19.0.0, SVG Export Plug-In . SVG Version: 6.00 Build 0)  -->
<svg version="1.1" id="Layer_1" xmlns="http://www.w3.org/2000/svg" xmlns:xlink="http://www.w3.org/1999/xlink" x="0px" y="0px"
	 viewBox="0 0 512 512" style="enable-background:new 0 0 512 512;" xml:space="preserve">
<path style="fill:#314E55;" d="M167.564,167.564C75.173,167.564,0,242.732,0,335.127s75.173,167.564,167.564,167.564
	s167.564-75.168,167.564-167.564S259.954,167.564,167.564,167.564z"/>
<path style="fill:#E65F58;" d="M167.564,484.073c-82.127,0-148.945-66.818-148.945-148.945s66.818-148.945,148.945-148.945
	S316.509,253,316.509,335.127S249.691,484.073,167.564,484.073z"/>
<g>
	<path style="fill:#314E55;" d="M167.564,454.768c-5.145,0-9.309,4.168-9.309,9.309c0,5.141,4.164,9.309,9.309,9.309
		c76.236,0,138.254-62.023,138.254-138.259c0-5.141-4.164-9.309-9.309-9.309s-9.309,4.168-9.309,9.309
		C287.2,401.095,233.527,454.768,167.564,454.768z"/>
	<path style="fill:#314E55;" d="M135.845,253.064c0-14.827-12.064-26.891-26.891-26.891c-14.836,0-26.9,12.064-26.9,26.891
		c0,14.832,12.064,26.895,26.9,26.895C123.782,279.959,135.845,267.895,135.845,253.064z"/>
</g>
<circle style="fill:#D8D8D8;" cx="108.951" cy="253.068" r="8.276"/>
<path style="fill:#314E55;" d="M73.782,278.927c-14.827,0-26.891,12.064-26.891,26.891c0,14.832,12.064,26.895,26.891,26.895
	s26.891-12.064,26.891-26.895C100.673,290.991,88.609,278.927,73.782,278.927z"/>
<circle style="fill:#D8D8D8;" cx="73.782" cy="305.827" r="8.273"/>
<path style="fill:#314E55;" d="M171.009,305.818c0-14.827-12.064-26.891-26.891-26.891c-14.827,0-26.891,12.064-26.891,26.891
	c0,14.832,12.064,26.895,26.891,26.895C158.945,332.713,171.009,320.65,171.009,305.818z"/>
<circle style="fill:#D8D8D8;" cx="144.119" cy="305.827" r="8.273"/>
<path style="fill:#314E55;" d="M509.645,217.232c-1.764-1.986-4.3-3.123-6.955-3.123H363.055c-2.654,0-5.191,1.136-6.955,3.123
	c-1.773,1.986-2.6,4.632-2.291,7.273l18.618,158.255c0.555,4.691,4.527,8.223,9.246,8.223h102.4c4.718,0,8.691-3.532,9.246-8.223
	l18.618-158.255C512.245,221.864,511.418,219.218,509.645,217.232z"/>
<polygon style="fill:#D8D8D8;" points="475.791,372.364 389.955,372.364 373.527,232.727 492.218,232.727 "/>
<path style="fill:#314E55;" d="M372.364,204.8h121.018c2.864,0,5.573-1.323,7.336-3.582c1.764-2.259,2.391-5.204,1.691-7.986
	l-18.618-74.473c-1.036-4.141-4.755-7.05-9.027-7.05h-83.782c-4.273,0-7.991,2.909-9.027,7.05l-18.618,74.473
	c-0.7,2.782-0.073,5.727,1.691,7.986C366.791,203.477,369.5,204.8,372.364,204.8z"/>
<polygon style="fill:#D8D8D8;" points="398.255,130.327 467.491,130.327 481.455,186.182 384.291,186.182 "/>
<path style="fill:#314E55;" d="M400.682,100.327c1.654,1.341,3.718,2.073,5.854,2.073H459.2c2.136,0,4.2-0.732,5.854-2.073
	c12.091-9.782,19.018-24.296,19.018-39.818c0-28.232-22.973-51.2-51.2-51.2s-51.2,22.968-51.2,51.2
	C381.673,76.036,388.6,90.55,400.682,100.327z"/>
<path style="fill:#D8D8D8;" d="M432.873,27.927c17.964,0,32.582,14.618,32.582,32.582c0,8.832-3.527,17.155-9.782,23.273h-45.609
	c-6.246-6.114-9.773-14.436-9.773-23.273C400.291,42.545,414.909,27.927,432.873,27.927z"/>
<g>
</g>
<g>
</g>
<g>
</g>
<g>
</g>
<g>
</g>
<g>
</g>
<g>
</g>
<g>
</g>
<g>
</g>
<g>
</g>
<g>
</g>
<g>
</g>
<g>
</g>
<g>
</g>
<g>
</g>
</svg>
