<?xml version="1.0" encoding="iso-8859-1"?>
<!-- Generator: Adobe Illustrator 19.0.0, SVG Export Plug-In . SVG Version: 6.00 Build 0)  -->
<svg version="1.1" id="Layer_1" xmlns="http://www.w3.org/2000/svg" xmlns:xlink="http://www.w3.org/1999/xlink" x="0px" y="0px"
	 viewBox="0 0 512 512" style="enable-background:new 0 0 512 512;" xml:space="preserve">
<path style="fill:#314E55;" d="M505.032,107.383L22.87,7.468c-4.738-0.973-9.356,2.057-10.337,6.786
	c-0.973,4.729,2.057,9.355,6.786,10.337l248.378,51.469c0.393,0.726,0.767,1.465,1.38,2.078l33.236,33.234l-69.924,69.924h-75.049
	c-4.831,0-8.741,3.91-8.741,8.741v139.855v83.039c0,50.611,41.195,91.78,91.831,91.78h148.494c50.636,0,91.831-41.17,91.831-91.78
	v-83.039V190.038c0-4.831-3.91-8.741-8.741-8.741h-75.049l-69.93-69.925l15.76-15.76c1.028-1.028,1.642-2.267,2.051-3.564
	l156.635,32.458c0.597,0.12,1.195,0.179,1.784,0.179c4.055,0,7.691-2.843,8.553-6.965
	C512.791,112.992,509.761,108.365,505.032,107.383z M372.243,181.298H257.109l57.565-57.565L372.243,181.298z M314.674,99.013
	l-16.672-16.672l27.621,5.723L314.674,99.013z"/>
<g>
	<rect x="270.97" y="198.779" style="fill:#E9E7D1;" width="78.669" height="122.374"/>
	<rect x="166.078" y="198.779" style="fill:#E9E7D1;" width="87.41" height="122.374"/>
</g>
<path style="fill:#EA86A5;" d="M463.273,412.933c0,40.965-33.351,74.298-74.349,74.298H240.43
	c-40.999,0-74.349-33.333-74.349-74.298v-74.298h297.193L463.273,412.933L463.273,412.933z"/>
<rect x="367.12" y="198.779" style="fill:#E9E7D1;" width="96.151" height="122.374"/>
<g>
	<path style="fill:#314E55;" d="M136.375,448.179l-114.17-53.692c-4.37-2.057-9.577-0.171-11.635,4.191
		c-2.049,4.37-0.179,9.577,4.191,11.635l114.17,53.692c1.204,0.563,2.467,0.828,3.713,0.828c3.286,0,6.428-1.852,7.921-5.02
		C142.615,455.443,140.745,450.236,136.375,448.179z"/>
	<path style="fill:#314E55;" d="M78.662,409.809c3.252,0,6.385-1.827,7.887-4.951c2.091-4.353,0.256-9.577-4.089-11.669
		l-69.928-33.632c-4.336-2.083-9.577-0.256-11.669,4.089c-2.091,4.353-0.256,9.577,4.089,11.669l69.928,33.632
		C76.101,409.536,77.39,409.809,78.662,409.809z"/>
	<path style="fill:#314E55;" d="M236.008,356.117c-4.831,0-8.741,3.91-8.741,8.741v26.223c0,4.831,3.91,8.741,8.741,8.741
		s8.741-3.91,8.741-8.741v-26.223C244.749,360.026,240.839,356.117,236.008,356.117z"/>
	<path style="fill:#314E55;" d="M384.605,399.822c4.831,0,8.741-3.91,8.741-8.741v-26.223c0-4.831-3.91-8.741-8.741-8.741
		c-4.831,0-8.741,3.91-8.741,8.741v26.223C375.864,395.912,379.773,399.822,384.605,399.822z"/>
</g>
<g>
</g>
<g>
</g>
<g>
</g>
<g>
</g>
<g>
</g>
<g>
</g>
<g>
</g>
<g>
</g>
<g>
</g>
<g>
</g>
<g>
</g>
<g>
</g>
<g>
</g>
<g>
</g>
<g>
</g>
</svg>
