<?xml version="1.0" encoding="iso-8859-1"?>
<!-- Generator: Adobe Illustrator 19.0.0, SVG Export Plug-In . SVG Version: 6.00 Build 0)  -->
<svg version="1.1" id="Layer_1" xmlns="http://www.w3.org/2000/svg" xmlns:xlink="http://www.w3.org/1999/xlink" x="0px" y="0px"
	 viewBox="0 0 512 512" style="enable-background:new 0 0 512 512;" xml:space="preserve">
<path style="fill:#314E55;" d="M420.537,134.324c10.725,0,21.451-4.082,29.611-12.238l59.393-59.393
	c3.279-3.279,3.279-8.59,0-11.869L462.062,3.34c-3.148-3.148-8.721-3.148-11.869,0l-59.393,59.393
	c-7.918,7.918-12.275,18.451-12.262,29.656c0.006,7.876,2.279,15.367,6.319,21.906l-76.737,76.737
	C242.804,126.198,178.674,89.234,146.094,72.93c-19.397-9.705-84.09-39.951-102.307-21.73
	c-18.225,18.221,12.025,82.918,21.73,102.311c16.304,32.576,53.269,96.709,118.102,162.021l-68.995,68.996
	c-6.796-4.512-14.761-6.953-23.107-6.959c-0.016,0-0.033,0-0.053,0c-11.193,0-21.709,4.352-29.611,12.254L2.459,449.209
	C0.885,450.783,0,452.914,0,455.143c0,2.23,0.885,4.361,2.459,5.934l47.48,47.484c1.574,1.574,3.709,2.459,5.934,2.459
	c2.225,0,4.361-0.885,5.934-2.459l59.393-59.393c7.918-7.918,12.275-18.451,12.262-29.656c-0.006-8.346-2.448-16.317-6.968-23.118
	l69.173-69.173c91.717,87.526,198.565,135.979,240.356,135.979c7.205,0,12.48-1.434,15.402-4.361
	c16.766-16.762-16.197-87.025-22.975-100.943C412.8,325.772,378.406,264.37,319.87,203.019l76.482-76.482
	C403.586,131.658,412.034,134.324,420.537,134.324z"/>
<path style="fill:#FFFFFF;" d="M395.324,92.373c-0.008-6.713,2.602-13.025,7.344-17.771l53.459-53.459l35.611,35.615l-53.459,53.459
	c-8.05,8.043-20.215,9.353-29.761,4.154l21.31-21.31c3.279-3.279,3.279-8.59,0-11.869s-8.59-3.279-11.869,0l-20.746,20.746
	C395.98,98.943,395.326,95.709,395.324,92.373z"/>
<g>
	<path style="fill:#EAEAEA;" d="M301.025,308.438c-14.174,14.156-45.366,7.398-72.387-14.187l58.201-58.201
		C308.429,263.07,315.188,294.268,301.025,308.438z"/>
	<path style="fill:#EAEAEA;" d="M216.245,282.907c-27.65-28.714-37.813-65.539-22.056-81.304c5.061-5.057,12.295-7.451,20.738-7.451
		c17.844,0,41.054,10.762,60.548,29.526L216.245,282.907z"/>
</g>
<path style="fill:#C59981;" d="M55.582,63.135c1.328-0.975,3.598-1.467,6.725-1.467c29.799,0,136.766,44.82,233.931,141.245
	l-8.881,8.881c-36.332-35.188-82.109-44.965-105.038-22.061c-22.922,22.93-13.135,68.71,22.06,105.038l-8.896,8.896
	C88.934,196.306,45.432,76.978,55.582,63.135z"/>
<path style="fill:#FFFFFF;" d="M116.676,419.529c0.008,6.713-2.602,13.025-7.344,17.771l-53.459,53.459l-35.611-35.615
	l53.459-53.451c4.734-4.73,11.033-7.336,17.742-7.336c0.012,0,0.025,0,0.033,0c3.807,0.005,7.444,0.929,10.78,2.52l-20.759,20.759
	c-3.279,3.279-3.279,8.59,0,11.869c1.639,1.639,3.787,2.459,5.934,2.459s4.295-0.82,5.934-2.459l20.763-20.763
	C115.745,412.08,116.674,415.72,116.676,419.529z"/>
<path style="fill:#C59981;" d="M439.352,446.766c-17.354,4.625-128.685-32.847-231.897-131.333l9.266-9.266
	c20.87,17.232,43.837,26.542,63.426,26.542c12.918,0,24.365-4.016,32.746-12.402c21.091-21.099,14.461-61.542-14.14-96.172
	l9.266-9.266C406.516,318.091,444.041,429.416,439.352,446.766z"/>
<g>
</g>
<g>
</g>
<g>
</g>
<g>
</g>
<g>
</g>
<g>
</g>
<g>
</g>
<g>
</g>
<g>
</g>
<g>
</g>
<g>
</g>
<g>
</g>
<g>
</g>
<g>
</g>
<g>
</g>
</svg>
