<?xml version="1.0" encoding="iso-8859-1"?>
<!-- Generator: Adobe Illustrator 19.0.0, SVG Export Plug-In . SVG Version: 6.00 Build 0)  -->
<svg version="1.1" id="Layer_1" xmlns="http://www.w3.org/2000/svg" xmlns:xlink="http://www.w3.org/1999/xlink" x="0px" y="0px"
	 viewBox="0 0 512 512" style="enable-background:new 0 0 512 512;" xml:space="preserve">
<path style="fill:#314E55;" d="M409.697,38.424H265.606V9.606C265.606,4.301,261.31,0,256,0c-5.309,0-9.606,4.301-9.606,9.606
	v28.818H102.303c-5.309,0-9.606,4.301-9.606,9.606v336.211c0,5.305,4.297,9.606,9.606,9.606h47.436l-35.157,105.507
	c-1.679,5.033,1.041,10.469,6.069,12.148c1.013,0.338,2.036,0.497,3.039,0.497c4.024,0,7.767-2.547,9.109-6.576l24.55-73.675
	c0.841,0.24,1.67,0.523,2.589,0.523H350.49l24.375,73.152c1.341,4.029,5.085,6.576,9.109,6.576c1.004,0,2.026-0.159,3.039-0.497
	c5.028-1.679,7.749-7.115,6.069-12.148l-35.157-105.507h51.77c5.31,0,9.606-4.301,9.606-9.606V48.03
	C419.303,42.725,415.006,38.424,409.697,38.424z M169.98,393.848h76.414v19.212h-82.816L169.98,393.848z M344.088,413.06h-78.482
	v-19.212h72.08L344.088,413.06z"/>
<rect x="111.909" y="57.636" style="fill:#EA86A5;" width="288.181" height="316.999"/>
<path style="fill:#314E55;" d="M195.493,155.695c-8.649,4.803-23.143,12.791-26.689,11.9c0-0.005-0.385-0.455-0.76-1.909
	c-11.06-42.209,45.638-67.237,52.148-69.953c4.888-2.045,7.205-7.669,5.159-12.566c-2.045-4.901-7.683-7.205-12.57-5.164
	c-36.417,15.206-74.85,48.57-63.33,92.552c2.345,8.921,7.533,12.8,11.482,14.484c12.045,5.164,26.811-3.054,43.893-12.556
	c14.053-7.819,31.52-17.547,40.394-14.128c1.154,0.45,4.662,1.811,7.449,10.136c1.023,3.124-7.927,15.554-12.739,22.228
	c-16.238,22.552-40.779,56.632-15.45,94.616c8.799,13.199,17.711,19.648,27.233,19.719c0.056,0.005,0.113,0.005,0.169,0.005
	c13.396-0.005,21.942-12.402,28.809-22.369c2.092-3.03,5.038-7.294,7.092-9.386c2.711,3.349,9.128,14.85,18.893,53.917
	c1.088,4.362,5,7.279,9.306,7.275c0.769,0,1.557-0.089,2.336-0.286c5.15-1.285,8.283-6.501,6.989-11.651
	c-13.762-55.07-23.077-67.045-34.522-69.118c-11.829-2.134-19.287,8.743-25.91,18.344c-3.387,4.916-9.691,14.062-12.993,14.062
	c-0.009,0-0.009,0-0.019,0c-1.473-0.014-5.535-2.378-11.398-11.168c-16.623-24.925-3.64-46.768,15.056-72.735
	c10.479-14.54,19.522-27.102,15.366-39.536c-3.743-11.201-10.038-18.593-18.706-21.961
	C234.902,133.743,213.974,145.409,195.493,155.695z"/>
<g>
</g>
<g>
</g>
<g>
</g>
<g>
</g>
<g>
</g>
<g>
</g>
<g>
</g>
<g>
</g>
<g>
</g>
<g>
</g>
<g>
</g>
<g>
</g>
<g>
</g>
<g>
</g>
<g>
</g>
</svg>
