<?xml version="1.0" encoding="iso-8859-1"?>
<!-- Generator: Adobe Illustrator 19.0.0, SVG Export Plug-In . SVG Version: 6.00 Build 0)  -->
<svg version="1.1" id="Layer_1" xmlns="http://www.w3.org/2000/svg" xmlns:xlink="http://www.w3.org/1999/xlink" x="0px" y="0px"
	 viewBox="0 0 512 512" style="enable-background:new 0 0 512 512;" xml:space="preserve">
<g>
	<path style="fill:#314E55;" d="M148.945,386.327c-30.8,0-55.855,25.054-55.855,55.855s25.054,55.855,55.855,55.855
		s55.855-25.054,55.855-55.855S179.745,386.327,148.945,386.327z"/>
	<path style="fill:#314E55;" d="M502.691,395.636c-5.141,0-9.309,4.164-9.309,9.309v27.927h-62.962
		c10.247-12.754,16.417-28.915,16.417-46.509V228.036c0-41.045-33.405-74.436-74.464-74.436H148.945v-23.335
		c9.956,5.288,21.059,7.944,32.332,7.944c19.227,0,38.909-7.655,54.041-22.782c1.745-1.745,2.727-4.109,2.727-6.582
		s-0.982-4.836-2.727-6.582l-85.573-85.573c-3.636-3.636-9.527-3.636-13.164,0c-13.977,13.973-22.064,32.209-22.773,51.355
		c-0.661,17.864,5.222,34.492,16.518,47.385v38.17H74.464C33.405,153.6,0,186.991,0,228.036v158.327
		C0,427.409,33.405,460.8,75.05,460.8c2.673,0,5.214-1.145,6.982-3.146c1.764-2.009,2.586-4.673,2.255-7.318
		c-0.332-2.673-0.505-5.391-0.505-8.155c0-35.927,29.232-65.164,65.164-65.164s65.164,29.236,65.164,65.164
		c0,2.764-0.173,5.482-0.505,8.155c-0.332,2.645,0.491,5.309,2.255,7.318c1.768,2,4.309,3.146,6.982,3.146h149.532
		c13.176,0,25.541-3.472,36.289-9.498c0.324,0.034,0.605,0.189,0.938,0.189h93.091c5.141,0,9.309-4.164,9.309-9.309v-37.236
		C512,399.8,507.832,395.636,502.691,395.636z"/>
</g>
<path style="fill:#D8D8D8;" d="M148.945,479.418c-20.532,0-37.236-16.7-37.236-37.236c0-20.536,16.704-37.236,37.236-37.236
	s37.236,16.7,37.236,37.236C186.182,462.718,169.477,479.418,148.945,479.418z"/>
<path style="fill:#F28544;" d="M232.727,442.182c0-46.2-37.586-83.782-83.782-83.782c-45.936,0-83.359,37.164-83.777,83.009
	c-26.386-4.436-46.55-27.436-46.55-55.046V228.036c0-30.782,25.05-55.818,55.845-55.818h297.909
	c30.795,0,55.845,25.036,55.845,55.818v158.327c0,30.782-25.05,55.818-55.845,55.818H232.727z"/>
<path style="fill:#314E55;" d="M214.109,200.145H97.745c-28.232,0-51.2,22.973-51.2,51.2v41.891c0,5.145,4.168,9.309,9.309,9.309
	h158.255c5.141,0,9.309-4.164,9.309-9.309v-83.782C223.418,204.309,219.25,200.145,214.109,200.145z"/>
<path style="fill:#D8D8D8;" d="M204.8,283.927H65.164v-32.582c0-17.964,14.618-32.582,32.582-32.582H204.8V283.927z"/>
<path style="fill:#314E55;" d="M344.436,200.145h-93.091c-5.141,0-9.309,4.164-9.309,9.309v83.782c0,5.145,4.168,9.309,9.309,9.309
	h93.091c5.141,0,9.309-4.164,9.309-9.309v-83.782C353.745,204.309,349.577,200.145,344.436,200.145z"/>
<rect x="260.655" y="218.764" style="fill:#D8D8D8;" width="74.473" height="65.164"/>
<path style="fill:#E4AD40;" d="M143.659,36.936l71.409,71.409c-21.536,15.764-50.709,15.109-68.614-2.791
	c-9.577-9.582-14.564-22.655-14.041-36.827C132.836,57.327,136.773,46.309,143.659,36.936z"/>
<g>
</g>
<g>
</g>
<g>
</g>
<g>
</g>
<g>
</g>
<g>
</g>
<g>
</g>
<g>
</g>
<g>
</g>
<g>
</g>
<g>
</g>
<g>
</g>
<g>
</g>
<g>
</g>
<g>
</g>
</svg>
