<?xml version="1.0" encoding="iso-8859-1"?>
<!-- Generator: Adobe Illustrator 19.0.0, SVG Export Plug-In . SVG Version: 6.00 Build 0)  -->
<svg version="1.1" id="Layer_1" xmlns="http://www.w3.org/2000/svg" xmlns:xlink="http://www.w3.org/1999/xlink" x="0px" y="0px"
	 viewBox="0 0 512 512" style="enable-background:new 0 0 512 512;" xml:space="preserve">
<path style="fill:#314E55;" d="M509.823,222.77C493.472,97.262,385.944,0,256.051,0S18.629,97.262,2.278,222.771
	c-0.666,0.794-2.248,17.008-2.248,33.223c0,16.22,1.582,32.441,2.248,33.235C18.629,414.738,126.157,512,256.051,512
	s237.422-97.262,253.772-222.77c0.666-0.794,2.147-17.013,2.147-33.23C511.97,239.781,510.489,223.564,509.823,222.77z"/>
<path style="fill:#EAEAEA;" d="M256.051,18.286c118.646,0,217.253,87.364,234.896,201.143h-112.19
	C362.711,165.241,313.256,128,256.051,128s-106.661,37.241-122.705,91.429H21.155C38.798,105.65,137.405,18.286,256.051,18.286z"/>
<path style="fill:#314E55;" d="M256.051,54.857c59.455,0,115.536,26.098,153.884,71.607c1.804,2.143,4.393,3.25,7,3.25
	c2.071,0,4.17-0.705,5.884-2.152c3.857-3.25,4.348-9.018,1.098-12.884c-41.822-49.634-103.009-78.107-167.866-78.107
	c-5.053,0-9.143,4.089-9.143,9.143S250.997,54.857,256.051,54.857z"/>
<path style="fill:#73C9C9;" d="M18.336,256c0-6.159,0.311-12.243,0.773-18.286h121.263c4.241,0,7.92-2.911,8.902-7.045
	c11.732-49.679,55.643-84.384,106.777-84.384s95.045,34.705,106.777,84.384c0.982,4.134,4.661,7.045,8.902,7.045h121.263
	c0.462,6.043,0.773,12.127,0.773,18.286c0,6.159-0.311,12.243-0.773,18.286H371.729c-4.241,0-7.92,2.911-8.902,7.045
	c-11.732,49.679-55.643,84.384-106.777,84.384s-95.045-34.705-106.777-84.384c-0.982-4.134-4.661-7.045-8.902-7.045H19.109
	C18.647,268.243,18.336,262.159,18.336,256z"/>
<path style="fill:#EAEAEA;" d="M256.051,493.714c-118.646,0-217.253-87.364-234.896-201.143h112.19
	C149.39,346.759,198.846,384,256.051,384s106.661-37.241,122.705-91.429h112.19C473.303,406.35,374.696,493.714,256.051,493.714z"/>
<path style="fill:#314E55;" d="M256.051,329.143c40.33,0,73.143-32.813,73.143-73.143s-32.813-73.143-73.143-73.143
	S182.908,215.67,182.908,256S215.72,329.143,256.051,329.143z"/>
<path style="fill:#EAEAEA;" d="M256.051,201.143c30.25,0,54.857,24.607,54.857,54.857s-24.607,54.857-54.857,54.857
	S201.194,286.25,201.194,256S225.801,201.143,256.051,201.143z"/>
<g>
</g>
<g>
</g>
<g>
</g>
<g>
</g>
<g>
</g>
<g>
</g>
<g>
</g>
<g>
</g>
<g>
</g>
<g>
</g>
<g>
</g>
<g>
</g>
<g>
</g>
<g>
</g>
<g>
</g>
</svg>
