<?xml version="1.0" encoding="iso-8859-1"?>
<!-- Generator: Adobe Illustrator 19.0.0, SVG Export Plug-In . SVG Version: 6.00 Build 0)  -->
<svg version="1.1" id="Layer_1" xmlns="http://www.w3.org/2000/svg" xmlns:xlink="http://www.w3.org/1999/xlink" x="0px" y="0px"
	 viewBox="0 0 512 512" style="enable-background:new 0 0 512 512;" xml:space="preserve">
<path style="fill:#314E55;" d="M501.33,342.559L394.468,205.571c-7.54-9.665-18.225-15.559-30.085-16.602
	c-11.812-1.045-23.404,2.894-32.526,11.085l-18.237-20.258l29.376-26.453c3.73-3.358,4.032-9.101,0.674-12.827
	c-3.353-3.735-9.101-4.032-12.827-0.674l-29.374,26.448c-0.002,0.002-0.005,0.002-0.005,0.002L281.21,184.53
	c-3.726,3.358-4.027,9.101-0.67,12.832c1.796,1.992,4.267,3.003,6.755,3.003c2.164,0,4.338-0.772,6.072-2.333l6.752-6.079
	l18.232,20.252l-80.941,72.88c-9.017,8.117-14.34,19.267-14.996,31.394c-0.652,12.144,3.46,23.8,11.581,32.813l127.62,141.738
	c8.232,9.146,19.281,14.211,31.106,14.264c0.067,0,0.129,0,0.191,0c11.745,0,22.754-4.95,31.017-13.963l74.763-81.585
	C515.359,391.552,516.521,362.039,501.33,342.559z M457.477,380.295c-1.796,1.623-4.107,2.457-6.56,2.324
	c-2.413-0.124-4.617-1.171-6.21-2.936l-97.361-108.126c-3.326-3.69-2.998-9.421,0.723-12.774h0.005
	c1.681-1.517,3.823-2.333,6.081-2.333c0.16,0,0.319,0.005,0.479,0.009c2.413,0.124,4.617,1.167,6.21,2.932l97.361,108.131
	C461.526,371.212,461.203,376.942,457.477,380.295z"/>
<path style="fill:#F28544;" d="M487.003,353.736L380.141,216.749c-4.404-5.646-10.565-9.084-17.351-9.683
	c-6.773-0.612-13.497,1.721-18.846,6.538l-94.381,84.982c-5.416,4.879-8.614,11.577-9.008,18.868
	c-0.39,7.292,2.071,14.282,6.941,19.684l127.62,141.738c4.764,5.296,11.044,8.223,17.688,8.25c6.791,0.39,12.929-2.839,17.728-8.072
	l74.763-81.585C495.781,386.026,496.566,365.995,487.003,353.736z M457.477,380.295c-1.796,1.623-4.107,2.457-6.56,2.324
	c-2.413-0.124-4.617-1.171-6.21-2.936l-97.361-108.126c-3.326-3.69-2.998-9.421,0.723-12.774h0.005
	c1.681-1.517,3.823-2.333,6.081-2.333c0.16,0,0.319,0.005,0.479,0.009c2.413,0.124,4.617,1.167,6.21,2.932l97.361,108.131
	C461.526,371.212,461.203,376.942,457.477,380.295z"/>
<g>
	<path style="fill:#314E55;" d="M471.706,355.368l-97.361-108.131c-4.843-5.38-11.51-8.547-18.779-8.92
		c-7.274-0.382-14.251,2.102-19.649,6.964h-0.005c-11.164,10.051-12.095,27.287-2.071,38.428l97.361,108.126
		c4.843,5.385,11.514,8.551,18.784,8.924c0.479,0.027,0.958,0.035,1.433,0.035c6.751,0,13.173-2.457,18.221-6.999
		C480.803,383.737,481.73,366.501,471.706,355.368z M457.477,380.295c-1.796,1.623-4.107,2.457-6.56,2.324
		c-2.413-0.124-4.617-1.171-6.21-2.936l-97.361-108.126c-3.326-3.69-2.998-9.421,0.723-12.774h0.005
		c1.681-1.517,3.823-2.333,6.081-2.333c0.16,0,0.319,0.005,0.479,0.009c2.413,0.124,4.617,1.167,6.21,2.932l97.361,108.131
		C461.526,371.212,461.203,376.942,457.477,380.295z"/>
	<path style="fill:#314E55;" d="M272.445,229.092L87.085,23.232C68.643,2.753,36.978,1.072,16.5,19.502h-0.005
		C-3.974,37.939-5.619,69.604,12.828,90.086l185.36,205.865c1.61,1.792,3.868,2.865,6.276,2.998c0.16,0.009,0.315,0.009,0.475,0.009
		c2.24,0,4.404-0.825,6.077-2.333l60.756-54.706C275.501,238.562,275.803,232.818,272.445,229.092z"/>
</g>
<path style="fill:#D8D8D8;" d="M205.613,277.048L26.329,77.934c-11.745-13.044-10.698-33.199,2.324-44.931
	c13.027-11.727,33.181-10.658,44.931,2.382l179.284,199.11L205.613,277.048z"/>
<g>
</g>
<g>
</g>
<g>
</g>
<g>
</g>
<g>
</g>
<g>
</g>
<g>
</g>
<g>
</g>
<g>
</g>
<g>
</g>
<g>
</g>
<g>
</g>
<g>
</g>
<g>
</g>
<g>
</g>
</svg>
