<?xml version="1.0" encoding="iso-8859-1"?>
<!-- Generator: Adobe Illustrator 19.0.0, SVG Export Plug-In . SVG Version: 6.00 Build 0)  -->
<svg version="1.1" id="Layer_1" xmlns="http://www.w3.org/2000/svg" xmlns:xlink="http://www.w3.org/1999/xlink" x="0px" y="0px"
	 viewBox="0 0 512 512" style="enable-background:new 0 0 512 512;" xml:space="preserve">
<g>
	<path style="fill:#314E55;" d="M500.876,421.069l-130.418-75.296L191.133,242.24l-81.51-47.06c-2.16-1.232-4.729-1.563-7.142-0.937
		c-2.413,0.643-4.467,2.224-5.717,4.384L54.41,271.993c-2.597,4.504-1.057,10.258,3.447,12.859l81.51,47.06l179.325,103.533
		l130.418,75.296c1.443,0.827,3.07,1.259,4.706,1.259c0.813,0,1.636-0.11,2.436-0.322c2.413-0.643,4.467-2.224,5.717-4.384
		l42.354-73.366C506.919,429.424,505.379,423.671,500.876,421.069z"/>
	<polygon style="fill:#73C9C9;" points="319.951,414.433 156.932,320.313 173.402,291.782 189.874,263.252 352.893,357.372 
		336.422,385.903 	"/>
	<polygon style="fill:#DBA840;" points="108.364,216.192 173.567,253.84 157.097,282.37 140.626,310.9 75.422,273.252 	"/>
	<polygon style="fill:#E9E7D1;" points="450.368,489.729 336.257,423.845 352.728,395.315 369.199,366.785 483.311,432.669 	"/>
	<g>
		<path style="fill:#314E55;" d="M64.649,162.339c-4.398,2.776-5.722,8.585-2.95,12.987c1.788,2.84,4.848,4.394,7.974,4.394
			c1.714,0,3.447-0.469,5.005-1.443c1.65-1.039,40.001-26.196,6.723-92.466c-8.985-17.887-11.338-33.429-6.99-46.187
			c5.111-15.019,18.227-21.554,18.507-21.692c4.674-2.206,6.696-7.776,4.518-12.473c-2.188-4.724-7.799-6.774-12.5-4.577
			c-0.827,0.386-20.322,9.651-28.213,32.281c-6.204,17.804-3.562,38.365,7.859,61.105C89.825,144.535,65.568,161.714,64.649,162.339
			z"/>
		<path style="fill:#314E55;" d="M111.709,162.339c-4.398,2.776-5.722,8.585-2.95,12.987c1.788,2.84,4.848,4.394,7.974,4.394
			c1.714,0,3.447-0.469,5.005-1.443c1.65-1.039,40.001-26.196,6.723-92.466c-8.985-17.887-11.338-33.429-6.99-46.187
			c5.111-15.019,18.227-21.554,18.507-21.692c4.674-2.206,6.696-7.776,4.518-12.473c-2.192-4.724-7.79-6.774-12.5-4.577
			c-0.827,0.386-20.322,9.651-28.213,32.281c-6.204,17.804-3.562,38.365,7.859,61.105
			C136.885,144.535,112.629,161.714,111.709,162.339z"/>
		<rect x="25.241" y="263.538" style="fill:#314E55;" width="18.824" height="18.824"/>
		<rect x="53.477" y="320.01" style="fill:#314E55;" width="18.824" height="18.824"/>
		<rect x="6.417" y="301.186" style="fill:#314E55;" width="18.824" height="18.824"/>
		<rect x="34.653" y="367.07" style="fill:#314E55;" width="18.824" height="18.824"/>
	</g>
</g>
<g>
</g>
<g>
</g>
<g>
</g>
<g>
</g>
<g>
</g>
<g>
</g>
<g>
</g>
<g>
</g>
<g>
</g>
<g>
</g>
<g>
</g>
<g>
</g>
<g>
</g>
<g>
</g>
<g>
</g>
</svg>
