<?xml version="1.0" encoding="iso-8859-1"?>
<!-- Generator: Adobe Illustrator 19.0.0, SVG Export Plug-In . SVG Version: 6.00 Build 0)  -->
<svg version="1.1" id="Layer_1" xmlns="http://www.w3.org/2000/svg" xmlns:xlink="http://www.w3.org/1999/xlink" x="0px" y="0px"
	 viewBox="0 0 512 512" style="enable-background:new 0 0 512 512;" xml:space="preserve">
<path style="fill:#314E55;" d="M256,455.274c36.593,0,66.37-31.278,66.37-69.713c0-35.361-52.722-107.907-58.741-116.065
	c-3.574-4.833-11.685-4.833-15.259,0c-6.019,8.157-58.741,80.704-58.741,116.065C189.63,423.996,219.407,455.274,256,455.274z"/>
<path style="fill:#E65F58;" d="M256,291.459c17.963,25.898,47.407,72.824,47.407,94.102c0,27.982-21.269,50.75-47.407,50.75
	s-47.407-22.769-47.407-50.75C208.593,364.283,238.037,317.357,256,291.459z"/>
<path style="fill:#314E55;" d="M502.519,284.607h-18.963h-11.145c0.963-1.484,1.663-3.153,1.663-5.056V96.283
	c0-5.241-4.241-9.481-9.481-9.481s-9.481,4.241-9.481,9.481v55.583h-47.407v-26.074c0-3.519-1.944-6.741-5.056-8.38
	c-3.102-1.639-6.861-1.426-9.769,0.546l-43.758,29.835c-17.678-13.501-62.808-43.335-116.825-43.335
	c-63.461,0-114.751,41.222-123.52,48.682c-1.352-0.741-2.828-1.275-4.48-1.275H56.889V96.283c0-5.241-4.241-9.481-9.481-9.481
	s-9.481,4.241-9.481,9.481v183.269c0,1.903,0.7,3.571,1.663,5.056H28.444H9.481c-5.241,0-9.481,4.241-9.481,9.481
	c0,5.241,4.241,9.482,9.481,9.482h9.481V493.2c0,5.241,4.241,9.481,9.481,9.481H66.37c5.241,0,9.481-4.241,9.481-9.481V303.57h9.481
	c5.241,0,9.481-4.241,9.481-9.482c0-5.241-4.241-9.481-9.481-9.481H66.37H55.226c0.963-1.484,1.663-3.153,1.663-5.056V170.829
	h47.407c1.652,0,3.128-0.534,4.48-1.275c8.768,7.46,60.059,48.682,123.52,48.682c54.017,0,99.147-29.834,116.825-43.335
	l43.758,29.835c1.602,1.093,3.472,1.648,5.343,1.648c1.518,0,3.037-0.361,4.426-1.102c3.111-1.639,5.056-4.861,5.056-8.38v-26.074
	h47.407v108.722c0,1.903,0.7,3.571,1.663,5.056H445.63h-18.963c-5.241,0-9.481,4.241-9.481,9.481c0,5.241,4.241,9.482,9.481,9.482
	h9.482V493.2c0,5.241,4.241,9.482,9.481,9.482h37.926c5.241,0,9.481-4.241,9.481-9.482V303.57h9.481
	c5.241,0,9.481-4.241,9.481-9.482C512,288.848,507.759,284.607,502.519,284.607z"/>
<rect x="37.926" y="303.576" style="fill:#DBCF56;" width="18.963" height="180.148"/>
<g>
	<path style="fill:#C59981;" d="M183.784,132.135c8.545,14.587,11.707,27.608,9.013,37.787
		c-2.926,11.056-11.685,15.88-12.222,16.167c-1.098,0.562-2.012,1.333-2.78,2.207c-21.573-8.399-38.895-19.726-48.738-26.957
		C139.778,153.433,159.385,140.644,183.784,132.135z"/>
	<path style="fill:#C59981;" d="M232.296,199.274c-11.428,0-22.498-1.571-32.948-4.122c4.435-4.477,9.164-10.926,11.642-19.869
		c3.977-14.366,1.129-30.641-8.407-48.459c9.49-2.096,19.438-3.402,29.713-3.402c45.87,0,86,25.269,103.241,37.935
		C318.343,174.033,278.315,199.274,232.296,199.274z"/>
	<polygon style="fill:#C59981;" points="388.741,178.959 362.907,161.348 388.741,143.737 	"/>
</g>
<rect x="455.111" y="303.576" style="fill:#DBCF56;" width="18.963" height="180.148"/>
<g>
	<path style="fill:#314E55;" d="M199.111,464.755c-10.454,0-18.963,8.509-18.963,18.963c0,10.454,8.509,18.963,18.963,18.963
		s18.963-8.509,18.963-18.963C218.074,473.264,209.565,464.755,199.111,464.755z"/>
	<path style="fill:#314E55;" d="M256,464.755c-10.454,0-18.963,8.509-18.963,18.963c0,10.454,8.509,18.963,18.963,18.963
		c10.454,0,18.963-8.509,18.963-18.963C274.963,473.264,266.454,464.755,256,464.755z"/>
	<path style="fill:#314E55;" d="M312.889,464.755c-10.454,0-18.963,8.509-18.963,18.963c0,10.454,8.509,18.963,18.963,18.963
		c10.454,0,18.963-8.509,18.963-18.963C331.852,473.264,323.343,464.755,312.889,464.755z"/>
	<path style="fill:#314E55;" d="M213.343,89.922c1.491,0,3-0.352,4.407-1.092c8.843-4.657,22.917-20.074,12.907-45.093
		c-2.083-5.204-2.528-9.518-1.269-12.139c1.241-2.565,4.139-3.546,4.407-3.63c4.982-1.343,7.991-6.435,6.731-11.454
		c-1.269-5.093-6.417-8.204-11.491-6.898c-1.139,0.278-11.278,3.074-16.472,13.231c-3.982,7.787-3.815,17.185,0.481,27.926
		c5.704,14.25-1.833,19.945-4.13,21.278c-4.639,2.444-6.417,8.176-3.972,12.805C206.639,88.079,209.935,89.922,213.343,89.922z"/>
	<path style="fill:#314E55;" d="M266.454,89.922c1.491,0,3-0.352,4.407-1.092c8.843-4.657,22.917-20.074,12.907-45.093
		c-2.083-5.204-2.528-9.518-1.269-12.139c1.241-2.565,4.139-3.546,4.407-3.63c4.982-1.343,7.991-6.435,6.731-11.454
		c-1.269-5.093-6.417-8.204-11.491-6.898c-1.139,0.278-11.278,3.074-16.472,13.231c-3.982,7.787-3.815,17.185,0.481,27.926
		c5.704,14.25-1.833,19.945-4.13,21.278c-4.639,2.444-6.417,8.176-3.972,12.805C259.75,88.079,263.046,89.922,266.454,89.922z"/>
</g>
<g>
</g>
<g>
</g>
<g>
</g>
<g>
</g>
<g>
</g>
<g>
</g>
<g>
</g>
<g>
</g>
<g>
</g>
<g>
</g>
<g>
</g>
<g>
</g>
<g>
</g>
<g>
</g>
<g>
</g>
</svg>
