<?xml version="1.0" encoding="iso-8859-1"?>
<!-- Generator: Adobe Illustrator 19.0.0, SVG Export Plug-In . SVG Version: 6.00 Build 0)  -->
<svg version="1.1" id="Layer_1" xmlns="http://www.w3.org/2000/svg" xmlns:xlink="http://www.w3.org/1999/xlink" x="0px" y="0px"
	 viewBox="0 0 512 512" style="enable-background:new 0 0 512 512;" xml:space="preserve">
<path style="fill:#314E55;" d="M358.128,164.267c1.373,1.374,3.175,2.319,5.193,2.621l93.23,13.977
	c0.463,0.072,0.926,0.104,1.384,0.104c3.426,0,6.63-1.901,8.245-5.01l44.775-86.26c1.865-3.598,1.189-7.991-1.679-10.855
	l-66.262-66.257c-2.886-2.877-7.311-3.544-10.914-1.647l-85.72,45.306c-3.49,1.847-5.432,5.69-4.846,9.598l11.639,77.638
	c-0.546,0.352-1.141,0.597-1.619,1.075L249.698,246.416l-91.978-91.975l13.282-88.597c0.59-3.93-1.384-7.796-4.905-9.629
	l-86.26-44.775c-3.603-1.87-7.991-1.194-10.855,1.679L2.725,79.38c-2.886,2.881-3.553,7.311-1.647,10.914l45.311,85.72
	c1.629,3.077,4.81,4.951,8.214,4.951c0.458,0,0.921-0.032,1.384-0.104l88.593-13.278l91.978,91.975l-29.574,29.575l-13.147-13.146
	c-3.63-3.63-9.511-3.63-13.142,0L55.841,400.846c-3.63,3.63-3.63,9.511,0,13.142L75.553,433.7l-46,46
	c-3.63,3.63-3.63,9.511,0,13.142c1.815,1.815,4.193,2.723,6.571,2.723c2.378,0,4.756-0.908,6.571-2.723l46-46l19.717,19.717
	c1.815,1.815,4.193,2.723,6.571,2.723s4.756-0.908,6.571-2.723L246.412,341.7c1.743-1.743,2.723-4.107,2.723-6.571
	c0-2.464-0.98-4.828-2.723-6.571l-26.287-26.284l29.573-29.574l36.143,36.143l-19.718,19.716c-1.743,1.743-2.723,4.107-2.723,6.571
	c0,2.464,0.98,4.828,2.723,6.571l124.859,124.859c1.815,1.815,4.193,2.723,6.571,2.723c2.378,0,4.756-0.908,6.571-2.723
	l13.149-13.148l45.997,45.998c1.815,1.815,4.193,2.723,6.571,2.723c2.378,0,4.756-0.908,6.571-2.723c3.63-3.63,3.63-9.511,0-13.142
	l-45.997-45.997l26.284-26.282c1.743-1.743,2.723-4.107,2.723-6.571c0-2.464-0.98-4.828-2.723-6.571L331.841,275.987
	c-3.63-3.63-9.511-3.63-13.142,0l-19.716,19.715l-36.144-36.144L358.128,164.267z"/>
<g>
	<path style="fill:#5ECB66;" d="M434.724,30.58l56.596,56.596l-38.581,74.325l-79.866-11.975l50.969-50.969
		c3.63-3.63,3.63-9.511,0-13.142c-3.63-3.63-9.511-3.63-13.142,0l-41.254,41.254l-8.554-57.068L434.724,30.58z"/>
	<path style="fill:#5ECB66;" d="M20.717,87.671l56.596-56.596l74.325,38.581l-10.261,68.439L95.265,91.982
		c-3.63-3.63-9.511-3.63-13.142,0c-3.63,3.63-3.63,9.511,0,13.142l46.115,46.115l-68.496,10.264L20.717,87.671z"/>
</g>
<g>
	<polygon style="fill:#E4AD40;" points="114.982,446.846 75.553,407.417 187.266,295.699 200.409,308.841 200.411,308.844 
		200.416,308.848 226.7,335.129 	"/>
	<polygon style="fill:#E4AD40;" points="325.271,295.699 436.988,407.417 410.719,433.684 410.701,433.696 410.688,433.714 
		397.554,446.846 285.837,335.129 	"/>
</g>
<g>
</g>
<g>
</g>
<g>
</g>
<g>
</g>
<g>
</g>
<g>
</g>
<g>
</g>
<g>
</g>
<g>
</g>
<g>
</g>
<g>
</g>
<g>
</g>
<g>
</g>
<g>
</g>
<g>
</g>
</svg>
