<?xml version="1.0" encoding="iso-8859-1"?>
<!-- Generator: Adobe Illustrator 19.0.0, SVG Export Plug-In . SVG Version: 6.00 Build 0)  -->
<svg version="1.1" id="Layer_1" xmlns="http://www.w3.org/2000/svg" xmlns:xlink="http://www.w3.org/1999/xlink" x="0px" y="0px"
	 viewBox="0 0 512 512" style="enable-background:new 0 0 512 512;" xml:space="preserve">
<path style="fill:#314E55;" d="M46.692,252.583h168.553c20.592,0,37.338-16.746,37.338-37.337V46.692
	c0-20.592-16.746-37.337-37.337-37.337H46.692c-20.592,0-37.337,16.746-37.337,37.337v168.553
	C9.355,235.838,26.101,252.583,46.692,252.583z"/>
<path style="fill:#73C9C9;" d="M28.065,46.692c0-10.268,8.359-18.628,18.628-18.628h168.553c10.269,0,18.628,8.359,18.628,18.628
	v168.553c0,10.269-8.359,18.628-18.628,18.628H46.692c-10.268,0-18.628-8.359-18.628-18.628V46.692z"/>
<path style="fill:#314E55;" d="M88.872,121.614c18.052,0,32.742-14.69,32.742-32.742S106.924,56.13,88.872,56.13
	S56.13,70.82,56.13,88.872S70.82,121.614,88.872,121.614z"/>
<circle style="fill:#D8D8D8;" cx="88.872" cy="88.872" r="14.032"/>
<path style="fill:#314E55;" d="M173.066,121.614c18.052,0,32.742-14.69,32.742-32.742s-14.69-32.742-32.742-32.742
	s-32.742,14.69-32.742,32.742S155.014,121.614,173.066,121.614z"/>
<circle style="fill:#D8D8D8;" cx="173.066" cy="88.872" r="14.032"/>
<path style="fill:#314E55;" d="M88.872,205.809c18.052,0,32.742-14.69,32.742-32.742s-14.69-32.742-32.742-32.742
	s-32.742,14.69-32.742,32.742S70.82,205.809,88.872,205.809z"/>
<circle style="fill:#D8D8D8;" cx="88.872" cy="173.066" r="14.032"/>
<g>
	<path style="fill:#314E55;" d="M173.066,205.809c18.052,0,32.742-14.69,32.742-32.742s-14.69-32.742-32.742-32.742
		s-32.742,14.69-32.742,32.742S155.014,205.809,173.066,205.809z"/>
	<path style="fill:#314E55;" d="M495.811,402.262h-24.465l29.727-29.727c7.044-7.044,10.927-16.417,10.927-26.393
		c0.009-9.985-3.873-19.358-10.927-26.411L381.89,200.547c-7.044-7.044-16.417-10.926-26.393-10.926h-0.009
		c-9.976,0-19.358,3.883-26.402,10.926L209.901,319.73c-7.044,7.044-10.926,16.417-10.926,26.393
		c-0.009,9.985,3.873,19.358,10.926,26.411l29.728,29.727H9.355c-5.171,0-9.355,4.184-9.355,9.355c0,5.171,4.184,9.355,9.355,9.355
		h248.984l70.747,70.747c7.044,7.044,16.417,10.926,26.393,10.926h0.009c9.976,0,19.358-3.883,26.402-10.926l70.747-70.747h43.175
		c5.171,0,9.355-4.184,9.355-9.355C505.166,406.446,500.982,402.262,495.811,402.262z"/>
</g>
<path style="fill:#73C9C9;" d="M368.661,478.49c-7.272,7.254-19.075,7.254-26.347,0L223.13,359.307
	c-7.263-7.263-7.263-19.085,0-26.347l119.184-119.184c3.636-3.627,8.405-5.445,13.174-5.445s9.538,1.818,13.174,5.445
	l119.184,119.184c7.263,7.263,7.263,19.085,0,26.347L368.661,478.49z"/>
<circle style="fill:#D8D8D8;" cx="173.066" cy="173.066" r="14.032"/>
<path style="fill:#314E55;" d="M355.487,252.583c-15.476,0-28.065,12.589-28.065,28.065c0,15.476,12.589,28.065,28.065,28.065
	c15.476,0,28.065-12.589,28.065-28.065C383.552,265.172,370.963,252.583,355.487,252.583z"/>
<circle style="fill:#D8D8D8;" cx="355.487" cy="280.648" r="9.355"/>
<path style="fill:#314E55;" d="M355.487,318.068c-15.476,0-28.065,12.589-28.065,28.065c0,15.476,12.589,28.065,28.065,28.065
	c15.476,0,28.065-12.589,28.065-28.065C383.552,330.657,370.963,318.068,355.487,318.068z"/>
<circle style="fill:#D8D8D8;" cx="355.487" cy="346.133" r="9.355"/>
<path style="fill:#314E55;" d="M355.487,383.552c-15.476,0-28.065,12.589-28.065,28.065c0,15.476,12.589,28.065,28.065,28.065
	c15.476,0,28.065-12.589,28.065-28.065C383.552,396.141,370.963,383.552,355.487,383.552z"/>
<circle style="fill:#D8D8D8;" cx="355.487" cy="411.617" r="9.355"/>
<g>
</g>
<g>
</g>
<g>
</g>
<g>
</g>
<g>
</g>
<g>
</g>
<g>
</g>
<g>
</g>
<g>
</g>
<g>
</g>
<g>
</g>
<g>
</g>
<g>
</g>
<g>
</g>
<g>
</g>
</svg>
