<?xml version="1.0" encoding="iso-8859-1"?>
<!-- Generator: Adobe Illustrator 19.0.0, SVG Export Plug-In . SVG Version: 6.00 Build 0)  -->
<svg version="1.1" id="Layer_1" xmlns="http://www.w3.org/2000/svg" xmlns:xlink="http://www.w3.org/1999/xlink" x="0px" y="0px"
	 viewBox="0 0 512 512" style="enable-background:new 0 0 512 512;" xml:space="preserve">
<path style="fill:#314E55;" d="M467.819,136.828H44.181C19.819,136.828,0,156.638,0,180.991v150.017
	c0,24.353,19.819,44.164,44.181,44.164h423.638c24.362,0,44.181-19.81,44.181-44.164V180.991
	C512,156.638,492.181,136.828,467.819,136.828z"/>
<path style="fill:#5ECB66;" d="M494.345,331.009c0,14.616-11.896,26.509-26.526,26.509H44.181
	c-14.629,0-26.526-11.892-26.526-26.509V180.991c0-14.616,11.896-26.509,26.526-26.509h423.638c14.63,0,26.526,11.892,26.526,26.509
	V331.009z"/>
<path style="fill:#314E55;" d="M401.655,172.138c-46.241,0-83.862,37.621-83.862,83.862s37.621,83.862,83.862,83.862
	s83.862-37.621,83.862-83.862S447.896,172.138,401.655,172.138z"/>
<g>
	<path style="fill:#D8D8D8;" d="M401.655,322.207c-8.648,0-16.89-1.713-24.47-4.742l19.988-31.021
		c1.475,0.217,2.947,0.453,4.482,0.453c17.035,0,30.897-13.862,30.897-30.897s-13.862-30.897-30.897-30.897
		c-17.035,0-30.897,13.862-30.897,30.897c0,9.093,4.023,17.198,10.297,22.858L361.8,308.743
		c-15.971-12.099-26.352-31.207-26.352-52.743c0-36.509,29.698-66.207,66.207-66.207s66.207,29.698,66.207,66.207
		S438.164,322.207,401.655,322.207z"/>
	<path style="fill:#D8D8D8;" d="M401.655,269.241c-1.267,0-2.469-0.235-3.63-0.569c-0.733-0.462-1.532-0.685-2.325-0.911
		c-4.302-2.189-7.286-6.613-7.286-11.762c0-7.302,5.94-13.241,13.241-13.241s13.241,5.94,13.241,13.241
		C414.897,263.302,408.957,269.241,401.655,269.241z"/>
</g>
<path style="fill:#314E55;" d="M110.345,172.138c-46.241,0-83.862,37.621-83.862,83.862s37.621,83.862,83.862,83.862
	s83.862-37.621,83.862-83.862S156.586,172.138,110.345,172.138z"/>
<g>
	<path style="fill:#D8D8D8;" d="M110.345,322.207c-36.509,0-66.207-29.698-66.207-66.207c0-17.284,6.711-32.991,17.594-44.793
		l23.467,26.966c-3.59,5.047-5.751,11.177-5.751,17.828c0,17.035,13.862,30.897,30.897,30.897s30.897-13.862,30.897-30.897
		s-13.862-30.897-30.897-30.897c-3.968,0-7.735,0.817-11.224,2.186l-23.812-27.364c10.176-6.381,22.163-10.133,35.036-10.133
		c36.509,0,66.207,29.698,66.207,66.207S146.854,322.207,110.345,322.207z"/>
	<circle style="fill:#D8D8D8;" cx="110.345" cy="256" r="13.241"/>
</g>
<g>
	<path style="fill:#314E55;" d="M229.517,189.793c-4.879,0-8.828,3.953-8.828,8.828v61.793h-8.828c-4.879,0-8.828,3.953-8.828,8.828
		c0,4.875,3.948,8.828,8.828,8.828h8.828v18.056c0,4.875,3.948,8.828,8.828,8.828s8.828-3.953,8.828-8.828v-97.504
		C238.345,193.746,234.396,189.793,229.517,189.793z"/>
	<path style="fill:#314E55;" d="M256,189.793c-4.879,0-8.828,3.953-8.828,8.828v97.504c0,4.875,3.948,8.828,8.828,8.828
		c4.879,0,8.828-3.953,8.828-8.828v-97.504C264.828,193.746,260.879,189.793,256,189.793z"/>
	<path style="fill:#314E55;" d="M300.138,225.103h-8.828v-26.483c0-4.875-3.948-8.828-8.828-8.828s-8.828,3.953-8.828,8.828v97.504
		c0,4.875,3.948,8.828,8.828,8.828c4.879,0,8.828-3.953,8.828-8.828v-53.366h8.828c4.879,0,8.828-3.953,8.828-8.828
		S305.017,225.103,300.138,225.103z"/>
</g>
<g>
</g>
<g>
</g>
<g>
</g>
<g>
</g>
<g>
</g>
<g>
</g>
<g>
</g>
<g>
</g>
<g>
</g>
<g>
</g>
<g>
</g>
<g>
</g>
<g>
</g>
<g>
</g>
<g>
</g>
</svg>
