<?xml version="1.0" encoding="iso-8859-1"?>
<!-- Generator: Adobe Illustrator 19.0.0, SVG Export Plug-In . SVG Version: 6.00 Build 0)  -->
<svg version="1.1" id="Layer_1" xmlns="http://www.w3.org/2000/svg" xmlns:xlink="http://www.w3.org/1999/xlink" x="0px" y="0px"
	 viewBox="0 0 512 512" style="enable-background:new 0 0 512 512;" xml:space="preserve">
<path style="fill:#314E55;" d="M471.351,235.553C495.965,223.676,512,198.623,512,170.825c0-39.623-32.263-71.86-71.912-71.86
	H188.684c-36.599,0-66.841,27.487-71.288,62.877H8.982c-4.965,0-8.982,4.018-8.982,8.982s4.018,8.982,8.982,8.982h108.414
	c4.446,35.39,34.689,62.877,71.288,62.877h140.915l-14.301,29.307c-1.421,2.904-1.167,6.351,0.658,9.017l15.061,21.974
	c1.746,2.535,4.561,3.904,7.421,3.904c1.746,0,3.518-0.509,5.07-1.57c4.088-2.807,5.132-8.395,2.333-12.491l-12.105-17.658
	l12.588-25.804l31.526,117.628c4.29,16.035,14.579,29.439,28.956,37.719c9.57,5.509,20.184,8.324,30.947,8.324
	c5.403,0,10.851-0.711,16.219-2.149c33.105-8.868,52.833-43,43.974-76.079L471.351,235.553z"/>
<g>
	<path style="fill:#5ECB66;" d="M134.737,170.825c0-29.702,24.173-53.864,53.895-53.892v107.784
		C158.91,224.688,134.737,200.526,134.737,170.825z"/>
	<path style="fill:#5ECB66;" d="M449.324,393.535c-23.535,6.289-47.833-7.684-54.123-31.193l-35.096-130.965
		c-1.053-3.93-4.614-6.658-8.675-6.658H206.596V116.93h233.491c29.746,0,53.947,24.175,53.947,53.895
		c0,22.974-14.605,43.447-36.333,50.956c-4.456,1.544-6.965,6.263-5.746,10.816l28.64,106.86
		C486.886,362.965,472.86,387.228,449.324,393.535z"/>
</g>
<g>
	<path style="fill:#314E55;" d="M305.404,143.877c-4.965,0-8.982,4.018-8.982,8.982v35.93c0,4.965,4.018,8.982,8.982,8.982
		s8.982-4.018,8.982-8.982v-35.93C314.386,147.895,310.368,143.877,305.404,143.877z"/>
	<path style="fill:#314E55;" d="M269.474,143.877c-4.965,0-8.982,4.018-8.982,8.982v35.93c0,4.965,4.018,8.982,8.982,8.982
		c4.965,0,8.982-4.018,8.982-8.982v-35.93C278.456,147.895,274.439,143.877,269.474,143.877z"/>
	<path style="fill:#314E55;" d="M233.544,143.877c-4.965,0-8.982,4.018-8.982,8.982v35.93c0,4.965,4.018,8.982,8.982,8.982
		c4.965,0,8.982-4.018,8.982-8.982v-35.93C242.526,147.895,238.509,143.877,233.544,143.877z"/>
	<path style="fill:#314E55;" d="M467.088,170.825c0-14.86-12.088-26.947-26.947-26.947s-26.947,12.088-26.947,26.947
		c0,14.86,12.088,26.947,26.947,26.947S467.088,185.684,467.088,170.825z"/>
</g>
<circle style="fill:#F28544;" cx="440.14" cy="170.825" r="8.982"/>
<g>
</g>
<g>
</g>
<g>
</g>
<g>
</g>
<g>
</g>
<g>
</g>
<g>
</g>
<g>
</g>
<g>
</g>
<g>
</g>
<g>
</g>
<g>
</g>
<g>
</g>
<g>
</g>
<g>
</g>
</svg>
