<?xml version="1.0" encoding="iso-8859-1"?>
<!-- Generator: Adobe Illustrator 19.0.0, SVG Export Plug-In . SVG Version: 6.00 Build 0)  -->
<svg version="1.1" id="Layer_1" xmlns="http://www.w3.org/2000/svg" xmlns:xlink="http://www.w3.org/1999/xlink" x="0px" y="0px"
	 viewBox="0 0 512 512" style="enable-background:new 0 0 512 512;" xml:space="preserve">
<path style="fill:#314E55;" d="M447.289,189.263c-0.544-43.285-74.231-76.387-174.415-79.754l-3.707-4.412l74.381-88.546
	c1.588-1.888,2.36-4.185,2.36-6.471c0-2.872-1.224-5.724-3.594-7.715c-4.263-3.585-10.611-3.029-14.187,1.234l-72.11,85.844
	l-72.11-85.844c-3.57-4.263-9.918-4.814-14.187-1.234c-2.37,1.991-3.594,4.843-3.594,7.715c0,2.287,0.772,4.583,2.36,6.471
	l74.381,88.546l-3.706,4.411c-100.203,3.361-173.907,36.466-174.45,79.755c-0.003,0.092-0.054,0.171-0.054,0.264v241.908
	C64.657,477.362,146.919,512,256,512s191.343-34.638,191.343-80.565V189.527C447.343,189.434,447.292,189.355,447.289,189.263z"/>
<path style="fill:#FFFFFF;" d="M381.332,251.528c19.064-6.79,34.619-15.191,45.869-24.794v161.625L381.332,251.528z"/>
<path style="fill:#D8D8D8;" d="M221.414,130.635l-42.857,51.02c-1.588,1.888-2.36,4.185-2.36,6.471c0,2.872,1.224,5.724,3.594,7.715
	c1.888,1.588,4.185,2.36,6.471,2.36c2.872,0,5.724-1.224,7.715-3.594l54.726-65.149c2.443-0.037,4.816-0.142,7.296-0.142
	c2.492,0,4.877,0.106,7.331,0.144l54.726,65.148c1.991,2.375,4.843,3.594,7.715,3.594c2.287,0,4.583-0.772,6.471-2.36
	c2.37-1.991,3.594-4.843,3.594-7.715c0-2.287-0.772-4.583-2.36-6.471l-42.855-51.018c81.976,6.24,136.579,33.923,136.579,59.101
	c0,28.038-67.747,59.142-165.578,60.314c-1.025-0.312-2.097-0.494-3.204-0.479c-1.058,0.032-2.079,0.237-3.042,0.578
	c-35.381-0.047-66.875-4.051-92.974-10.412c-0.382-0.106-0.716-0.312-1.116-0.374c-0.149-0.022-0.288,0.023-0.436,0.007
	c-47.17-11.763-76.053-31.346-76.053-49.633C84.799,164.557,139.419,136.869,221.414,130.635z"/>
<g>
	<path style="fill:#FFFFFF;" d="M359.325,258.212l-11.544,185.54l-73.737-173.808C305.659,268.808,334.52,264.669,359.325,258.212z"
		/>
	<path style="fill:#FFFFFF;" d="M244.38,270.073l-59.672,169.397l-13.848-177.11C193.039,266.779,217.802,269.461,244.38,270.073z"
		/>
	<path style="fill:#FFFFFF;" d="M145.967,256.44L84.799,406.753V226.734C98.933,238.801,119.88,248.977,145.967,256.44z"/>
</g>
<g>
	<path style="fill:#E65F58;" d="M90.535,445.683c0.121-0.241,0.332-0.403,0.435-0.656l62.047-152.476l14.869,190.177
		C129.18,474.048,101.729,460.208,90.535,445.683z"/>
	<path style="fill:#E65F58;" d="M189.382,486.822l70.222-199.347l82.986,195.612c-24.826,5.436-54.088,8.771-86.59,8.771
		C231.836,491.859,209.492,489.993,189.382,486.822z"/>
	<path style="fill:#E65F58;" d="M365.894,476.986l10.924-175.556l46.346,138.26c0.244,0.725,0.719,1.281,1.101,1.909
		C417.024,454.665,396.352,467.533,365.894,476.986z"/>
</g>
<g>
</g>
<g>
</g>
<g>
</g>
<g>
</g>
<g>
</g>
<g>
</g>
<g>
</g>
<g>
</g>
<g>
</g>
<g>
</g>
<g>
</g>
<g>
</g>
<g>
</g>
<g>
</g>
<g>
</g>
</svg>
