<?xml version="1.0" encoding="iso-8859-1"?>
<!-- Generator: Adobe Illustrator 19.0.0, SVG Export Plug-In . SVG Version: 6.00 Build 0)  -->
<svg version="1.1" id="Layer_1" xmlns="http://www.w3.org/2000/svg" xmlns:xlink="http://www.w3.org/1999/xlink" x="0px" y="0px"
	 viewBox="0 0 512 512" style="enable-background:new 0 0 512 512;" xml:space="preserve">
<path style="fill:#314E55;" d="M66.343,170.667H18.991C8.519,170.667,0,179.176,0,189.639v132.722
	c0,10.463,8.519,18.972,18.991,18.972h47.352c10.472,0,18.991-8.509,18.991-18.972V189.639
	C85.333,179.176,76.815,170.667,66.343,170.667z"/>
<polygon style="fill:#F28544;" points="66.343,322.37 18.963,322.361 18.963,189.639 18.991,189.63 66.37,189.639 "/>
<path style="fill:#314E55;" d="M493.009,170.667h-47.352c-10.472,0-18.991,8.509-18.991,18.972v132.722
	c0,10.463,8.519,18.972,18.991,18.972h47.352c10.472,0,18.991-8.509,18.991-18.972V189.639
	C512,179.176,503.481,170.667,493.009,170.667z"/>
<polygon style="fill:#F28544;" points="493.037,322.361 493.009,322.37 445.63,322.361 445.657,189.63 493.037,189.639 "/>
<path style="fill:#314E55;" d="M398.194,142.222h-47.352c-10.472,0-18.991,8.519-18.991,18.986v85.31H180.148v-85.31
	c0-10.468-8.519-18.986-18.991-18.986h-47.352c-10.472,0-18.991,8.519-18.991,18.986v189.583c0,10.467,8.519,18.986,18.991,18.986
	h47.352c10.472,0,18.991-8.519,18.991-18.986v-85.31h151.704v85.31c0,10.468,8.519,18.986,18.991,18.986h47.352
	c10.472,0,18.991-8.519,18.991-18.986V161.208C417.185,150.741,408.667,142.222,398.194,142.222z"/>
<g>
	<polygon style="fill:#F28544;" points="113.778,350.792 113.778,161.208 113.806,161.185 161.185,161.208 161.157,350.815 	"/>
	<polygon style="fill:#F28544;" points="398.222,350.792 398.194,350.815 350.815,350.792 350.843,161.185 398.222,161.208 	"/>
</g>
<g>
</g>
<g>
</g>
<g>
</g>
<g>
</g>
<g>
</g>
<g>
</g>
<g>
</g>
<g>
</g>
<g>
</g>
<g>
</g>
<g>
</g>
<g>
</g>
<g>
</g>
<g>
</g>
<g>
</g>
</svg>
