<?xml version="1.0" encoding="iso-8859-1"?>
<!-- Generator: Adobe Illustrator 19.0.0, SVG Export Plug-In . SVG Version: 6.00 Build 0)  -->
<svg version="1.1" id="Layer_1" xmlns="http://www.w3.org/2000/svg" xmlns:xlink="http://www.w3.org/1999/xlink" x="0px" y="0px"
	 viewBox="0 0 512 512" style="enable-background:new 0 0 512 512;" xml:space="preserve">
<path style="fill:#314E55;" d="M487.599,102.853l-51.343-88.93C428.573,0.619,411.481-3.96,398.109,3.737l-40.405,23.332
	c-13.341,7.701-17.943,24.806-10.255,38.125l8.712,15.089c-19.181,8.053-61.629,26.311-84.738,39.654
	c-23.112,13.343-60.149,40.977-76.714,53.564l-8.711-15.089c-7.683-13.309-24.779-17.879-38.147-10.187l-40.405,23.332
	c-6.454,3.728-11.079,9.741-13.018,16.937c-1.944,7.21-0.965,14.734,2.767,21.188h-0.005l51.347,88.925
	c3.723,6.454,9.741,11.065,16.955,12.99c2.399,0.642,4.829,0.956,7.251,0.956c4.843,0,9.627-1.27,13.937-3.755l40.405-23.327
	c6.454-3.728,11.079-9.745,13.018-16.941c1.944-7.21,0.965-14.734-2.763-21.188l-8.712-15.09
	c19.181-8.055,61.63-26.314,84.742-39.657c23.11-13.341,60.149-40.976,76.712-53.561l8.713,15.091
	c5.157,8.93,14.547,13.928,24.201,13.928c4.743,0,9.545-1.206,13.942-3.742l40.405-23.327c6.454-3.728,11.079-9.745,13.018-16.941
	C492.305,116.831,491.327,109.308,487.599,102.853z"/>
<g>
	<path style="fill:#F58CAC;" d="M222.106,263.677c-0.651,2.399-2.189,4.401-4.342,5.644l-40.4,23.327
		c-2.158,1.238-4.666,1.579-7.069,0.933c-2.385-0.637-4.379-2.158-5.608-4.292l-51.347-88.93h-0.005
		c-1.229-2.135-1.552-4.625-0.91-7.009c0.651-2.399,2.189-4.402,4.342-5.644l40.4-23.332c1.47-0.847,3.077-1.252,4.656-1.252
		c3.204,0,6.318,1.652,8.025,4.611l14.016,24.276c0.001,0.002,0.002,0.005,0.002,0.005l23.306,40.366
		c0.004,0.006,0.008,0.009,0.011,0.015l14.012,24.268C222.425,258.797,222.748,261.287,222.106,263.677z"/>
	<path style="fill:#F58CAC;" d="M304.049,176.444c-22.785,13.159-67.159,32.13-84.82,39.527l-0.044-0.077l-15.077-26.115
		c15.24-11.6,53.853-40.539,76.637-53.693c22.785-13.159,67.155-32.126,84.815-39.522l7.563,13.095l7.561,13.096
		C365.445,134.353,326.834,163.295,304.049,176.444z"/>
	<path style="fill:#F58CAC;" d="M472.364,119.189c-0.651,2.399-2.189,4.401-4.342,5.644l-40.405,23.327
		c-4.429,2.549-10.123,1.065-12.672-3.359l-51.347-88.93c-2.549-4.415-1.01-10.091,3.427-12.654l40.4-23.332
		c4.461-2.572,10.136-1.056,12.681,3.359l51.347,88.93C472.683,114.31,473.006,116.8,472.364,119.189z"/>
</g>
<path style="fill:#314E55;" d="M405.501,313.931c-1.42-7.315-5.612-13.637-11.802-17.802c-6.181-4.165-13.619-5.68-20.947-4.247
	l-45.794,8.903c-7.319,1.42-13.65,5.598-17.824,11.771c-4.188,6.186-5.708,13.619-4.283,20.938l3.323,17.098
	c-20.756,1.372-66.841,4.818-93.04,9.911c-26.195,5.089-70.212,19.157-89.972,25.662l-3.323-17.101
	c-2.94-15.102-17.629-24.993-32.749-22.044l-45.798,8.903c-7.319,1.42-13.646,5.598-17.824,11.771
	c-4.188,6.186-5.708,13.619-4.283,20.938l19.595,100.796c1.42,7.315,5.612,13.637,11.803,17.802
	c4.666,3.141,10.045,4.77,15.553,4.77c1.789,0,3.596-0.173,5.394-0.523l45.794-8.903c7.319-1.42,13.65-5.598,17.824-11.771
	c4.188-6.186,5.708-13.619,4.283-20.938l-3.324-17.105c20.755-1.37,66.843-4.816,93.042-9.909
	c26.193-5.093,70.209-19.16,89.97-25.667l3.325,17.11c2.59,13.304,14.306,22.562,27.396,22.562c1.766,0,3.555-0.168,5.353-0.519
	l45.798-8.903c7.319-1.42,13.646-5.598,17.824-11.771c4.188-6.186,5.708-13.619,4.283-20.938L405.501,313.931z"/>
<g>
	<path style="fill:#F58CAC;" d="M121.706,480.352c-1.388,2.057-3.5,3.45-5.94,3.924l-45.798,8.903
		c-2.431,0.46-4.925-0.032-6.982-1.416c-2.048-1.384-3.441-3.473-3.91-5.89L39.481,385.073c-0.469-2.417,0.036-4.875,1.425-6.928
		c1.393-2.053,3.5-3.45,5.94-3.924l45.803-8.903c0.601-0.114,1.197-0.173,1.784-0.173c4.356,0,8.248,3.068,9.108,7.478l5.348,27.519
		l0,0l0.407,2.096l13.835,71.185C123.6,475.842,123.094,478.304,121.706,480.352z"/>
	<path style="fill:#F58CAC;" d="M227.586,424.554c-25.826,5.02-73.959,8.507-93.067,9.754l-4.91-25.258l-0.861-4.432
		c18.179-6.004,64.11-20.796,89.945-25.817c25.826-5.02,73.959-8.511,93.067-9.754l0.506,2.605l5.263,27.081
		C299.35,404.738,253.421,419.529,227.586,424.554z"/>
	<path style="fill:#F58CAC;" d="M405.373,425.214c-1.393,2.053-3.5,3.45-5.94,3.923l-45.803,8.903
		c-5.057,0.942-9.918-2.303-10.892-7.305l-5.348-27.518v-0.01l-8.487-43.657l-5.755-29.615c-0.469-2.417,0.036-4.879,1.425-6.928
		c1.388-2.057,3.5-3.45,5.94-3.924l45.798-8.903c0.596-0.114,1.202-0.173,1.798-0.173c1.834,0,3.628,0.542,5.184,1.588
		c2.048,1.384,3.441,3.473,3.91,5.89l19.595,100.801C407.267,420.703,406.762,423.161,405.373,425.214z"/>
</g>
<g>
</g>
<g>
</g>
<g>
</g>
<g>
</g>
<g>
</g>
<g>
</g>
<g>
</g>
<g>
</g>
<g>
</g>
<g>
</g>
<g>
</g>
<g>
</g>
<g>
</g>
<g>
</g>
<g>
</g>
</svg>
