<?xml version="1.0" encoding="iso-8859-1"?>
<!-- Generator: Adobe Illustrator 19.0.0, SVG Export Plug-In . SVG Version: 6.00 Build 0)  -->
<svg version="1.1" id="Layer_1" xmlns="http://www.w3.org/2000/svg" xmlns:xlink="http://www.w3.org/1999/xlink" x="0px" y="0px"
	 viewBox="0 0 512 512" style="enable-background:new 0 0 512 512;" xml:space="preserve">
<path style="fill:#314E55;" d="M503.018,274.126c4.961,0,8.982-4.022,8.982-8.982v-89.825c0-4.961-4.022-8.982-8.982-8.982h-80.842
	v-26.943c0-2.254-0.851-4.43-2.377-6.088l-58.386-63.333c-3.403-3.693-9.807-3.693-13.211,0l-58.386,63.333
	c-1.526,1.658-2.377,3.833-2.377,6.088v26.943h-62.877v-26.943c0-2.254-0.851-4.43-2.377-6.088l-58.386-63.333
	c-3.403-3.693-9.807-3.693-13.21,0l-58.386,63.333c-1.526,1.658-2.377,3.833-2.377,6.088v26.943H8.982
	c-4.961,0-8.982,4.022-8.982,8.982v89.825c0,4.961,4.022,8.982,8.982,8.982h80.842v17.965H8.982c-4.961,0-8.982,4.022-8.982,8.982
	v89.825c0,4.961,4.022,8.982,8.982,8.982h80.842v35.934c0,4.961,4.022,8.982,8.982,8.982h116.772c4.961,0,8.982-4.022,8.982-8.982
	V399.88h62.877v35.934c0,4.961,4.022,8.982,8.982,8.982h116.772c4.961,0,8.982-4.022,8.982-8.982V399.88h80.842
	c4.961,0,8.982-4.022,8.982-8.982v-89.825c0-4.961-4.022-8.982-8.982-8.982h-80.842v-17.965L503.018,274.126L503.018,274.126z
	 M17.965,256.161v-71.86h71.86v71.86H17.965z M17.965,381.915v-71.86h71.86v71.86H17.965z M494.035,184.301v71.86h-71.86v-71.86
	H494.035z M494.035,310.056v71.86h-71.86v-71.86H494.035L494.035,310.056z M224.561,274.126h62.877v17.965h-62.877V274.126z
	 M287.439,184.301v71.86h-62.877v-71.86H287.439z M224.561,381.915v-71.86h62.877v71.86H224.561z"/>
<g>
	<polygon style="fill:#E4AD40;" points="206.596,426.832 107.789,426.832 107.789,142.902 157.193,89.315 206.596,142.902 	"/>
	<polygon style="fill:#E4AD40;" points="404.211,426.832 305.404,426.832 305.404,142.902 354.807,89.315 404.211,142.902 	"/>
</g>
<path style="fill:#314E55;" d="M332.351,220.231c0,14.86,12.088,26.947,26.947,26.947s26.947-12.088,26.947-26.947
	s-12.088-26.947-26.947-26.947S332.351,205.371,332.351,220.231z"/>
<circle style="fill:#E4AD40;" cx="359.298" cy="220.241" r="8.982"/>
<path style="fill:#314E55;" d="M359.298,319.038c-14.86,0-26.947,12.088-26.947,26.947s12.088,26.947,26.947,26.947
	s26.947-12.088,26.947-26.947S374.158,319.038,359.298,319.038z"/>
<circle style="fill:#E4AD40;" cx="359.298" cy="345.996" r="8.982"/>
<path style="fill:#314E55;" d="M125.754,220.231c0,14.86,12.088,26.947,26.947,26.947c14.86,0,26.947-12.088,26.947-26.947
	s-12.088-26.947-26.947-26.947S125.754,205.371,125.754,220.231z"/>
<circle style="fill:#E4AD40;" cx="152.702" cy="220.241" r="8.982"/>
<path style="fill:#314E55;" d="M152.702,319.038c-14.86,0-26.947,12.088-26.947,26.947s12.088,26.947,26.947,26.947
	c14.86,0,26.947-12.088,26.947-26.947S167.561,319.038,152.702,319.038z"/>
<circle style="fill:#E4AD40;" cx="152.702" cy="345.996" r="8.982"/>
<g>
</g>
<g>
</g>
<g>
</g>
<g>
</g>
<g>
</g>
<g>
</g>
<g>
</g>
<g>
</g>
<g>
</g>
<g>
</g>
<g>
</g>
<g>
</g>
<g>
</g>
<g>
</g>
<g>
</g>
</svg>
