<?xml version="1.0" encoding="iso-8859-1"?>
<!-- Generator: Adobe Illustrator 19.0.0, SVG Export Plug-In . SVG Version: 6.00 Build 0)  -->
<svg version="1.1" id="Layer_1" xmlns="http://www.w3.org/2000/svg" xmlns:xlink="http://www.w3.org/1999/xlink" x="0px" y="0px"
	 viewBox="0 0 511.999 511.999" style="enable-background:new 0 0 511.999 511.999;" xml:space="preserve">
<path style="fill:#314E55;" d="M509.047,456.888L366.42,314.262c-1.184-1.184-2.488-2.161-3.806-3.106
	c33.797-16.332,75.662-10.586,103.668,17.42c3.938,3.938,10.317,3.938,14.255,0c3.938-3.938,3.938-10.317,0-14.255
	c-40.831-40.831-105.812-43.053-149.333-6.766l-60.954-60.953l220.004-220c3.938-3.938,3.938-10.317,0-14.255
	c-3.938-3.938-10.317-3.938-14.255,0l-220.004,220l-220.004-220c-3.938-3.938-10.317-3.938-14.255,0s-3.938,10.317,0,14.255
	l220.004,220l-60.955,60.954c-43.52-36.268-108.492-34.028-149.322,6.764c-3.938,3.938-3.938,10.317,0,14.255
	c3.938,3.938,10.317,3.938,14.255,0c27.985-27.978,69.84-33.739,103.636-17.427c-1.313,0.948-2.605,1.935-3.773,3.103L2.953,456.878
	c-3.938,3.938-3.938,10.317,0,14.255l28.51,28.519c1.89,1.89,4.45,2.953,7.127,2.953s5.237-1.063,7.127-2.953l142.636-142.626
	c1.177-1.179,2.148-2.478,3.088-3.791c16.32,33.797,10.574,75.658-17.421,103.653c-3.938,3.938-3.938,10.317,0,14.255
	c1.969,1.969,4.548,2.953,7.127,2.953s5.159-0.984,7.127-2.953c40.822-40.822,43.052-105.811,6.766-149.333l60.954-60.953
	l60.954,60.953c-36.287,43.521-34.065,108.502,6.766,149.333c1.969,1.969,4.548,2.953,7.127,2.953s5.159-0.984,7.127-2.953
	c3.938-3.938,3.938-10.317,0-14.255c-27.991-27.998-33.738-69.846-17.428-103.64c0.951,1.319,1.942,2.615,3.114,3.788
	l142.616,142.616c1.969,1.969,4.548,2.953,7.127,2.953s5.159-0.984,7.127-2.953l28.519-28.51c1.89-1.89,2.953-4.45,2.953-7.127
	C511.999,461.337,510.937,458.778,509.047,456.888z"/>
<path style="fill:#F58CAC;" d="M174.089,342.771L38.59,478.27l-14.255-14.265l135.499-135.499c1.89-1.89,4.391-2.924,7.039-2.924
	h0.01c2.678,0,5.208,1.063,7.137,2.993C177.948,332.503,177.978,338.873,174.089,342.771z"/>
<path style="fill:#73C9C9;" d="M473.4,478.27L337.911,342.771c0,0,0,0,0-0.01c-1.89-1.88-2.934-4.381-2.934-7.039
	c0.01-2.678,1.073-5.217,2.993-7.147c1.979-1.979,4.568-2.963,7.157-2.963c2.55,0,5.099,0.965,7.039,2.904l135.499,135.499
	L473.4,478.27z"/>
<g>
</g>
<g>
</g>
<g>
</g>
<g>
</g>
<g>
</g>
<g>
</g>
<g>
</g>
<g>
</g>
<g>
</g>
<g>
</g>
<g>
</g>
<g>
</g>
<g>
</g>
<g>
</g>
<g>
</g>
</svg>
