<?xml version="1.0" encoding="iso-8859-1"?>
<!-- Generator: Adobe Illustrator 19.0.0, SVG Export Plug-In . SVG Version: 6.00 Build 0)  -->
<svg version="1.1" id="Layer_1" xmlns="http://www.w3.org/2000/svg" xmlns:xlink="http://www.w3.org/1999/xlink" x="0px" y="0px"
	 viewBox="0 0 512 512" style="enable-background:new 0 0 512 512;" xml:space="preserve">
<path style="fill:#314E55;" d="M247.065,3.34c-3.331-4.453-10.805-4.453-14.136,0L126.886,144.731
	c-2.011,2.675-2.33,6.257-0.837,9.251c1.502,2.995,4.557,4.884,7.905,4.884h17.674v79.533v61.859v35.348v61.859v17.674
	c0,4.884,3.953,8.837,8.837,8.837h65.909c-4.32,15.95,3.34,27.702,9.309,36.789c7.931,12.064,12.712,19.348-2.736,36.478
	c-3.271,3.624-2.986,9.217,0.639,12.479c1.691,1.527,3.806,2.278,5.92,2.278c2.408,0,4.815-0.984,6.559-2.917
	c24.595-27.27,12.919-45.048,4.384-58.027c-6.243-9.503-10.52-16.154-5.252-27.08h74.334c4.884,0,8.837-3.953,8.837-8.837v-97.207
	v-61.859v-35.348v-61.859h17.674c3.348,0,6.403-1.89,7.905-4.884c1.493-2.995,1.174-6.576-0.837-9.251L247.065,3.34z"/>
<polygon style="fill:#E65F58;" points="169.301,341.069 310.693,270.373 310.693,312.469 169.301,383.165 "/>
<polygon style="fill:#73C9C9;" points="310.693,250.611 169.301,321.306 169.301,305.721 310.693,235.025 "/>
<polygon style="fill:#E65F58;" points="310.693,215.263 169.301,285.958 169.301,243.862 310.693,173.166 "/>
<g>
	<polygon style="fill:#73C9C9;" points="169.301,224.1 169.301,158.867 299.767,158.867 	"/>
	<polygon style="fill:#73C9C9;" points="169.301,406.302 169.301,402.927 310.693,332.232 310.693,406.302 	"/>
	<polygon style="fill:#73C9C9;" points="319.53,141.193 160.464,141.193 151.628,141.193 239.997,23.37 328.367,141.193 	"/>
</g>
<g>
	<path style="fill:#314E55;" d="M451.316,85.893c-17.544,0-30.058,5.005-37.177,14.878c-10.131,14.049-4.367,31.922-4.116,32.673
		c1.234,3.711,4.686,6.05,8.388,6.05c0.923,0,1.864-0.147,2.787-0.449c4.634-1.545,7.137-6.541,5.601-11.176
		c-0.034-0.095-3.072-10.175,1.674-16.75c4.496-6.239,14.904-7.551,22.843-7.551c4.884,0,8.837-3.953,8.837-8.837
		S456.201,85.893,451.316,85.893z"/>
	<path style="fill:#314E55;" d="M337.67,43.805c-4.841,0.587-8.302,4.979-7.724,9.829c0.587,4.841,4.997,8.319,9.829,7.724
		c3.055-0.363,10.83-0.095,14.075,3.098c0.544,0.535,2.218,2.183,1.683,7.301c-0.518,4.85,3.003,9.2,7.862,9.709
		c0.311,0.034,0.621,0.052,0.932,0.052c4.47,0,8.302-3.374,8.777-7.913c1.182-11.219-3.072-18.019-6.852-21.738
		C356.155,41.907,339.542,43.598,337.67,43.805z"/>
	<path style="fill:#314E55;" d="M89.682,179.587c-15.301-8.077-32.215,0.112-32.923,0.475c-4.375,2.166-6.162,7.465-3.987,11.84
		c2.158,4.367,7.473,6.17,11.84,3.987c0.104-0.026,9.631-4.453,16.828-0.665c6.8,3.59,9.553,13.713,10.658,21.583
		c0.621,4.41,4.401,7.603,8.742,7.603c0.406,0,0.82-0.026,1.243-0.086c4.833-0.682,8.198-5.152,7.516-9.985
		C107.158,196.967,100.452,185.274,89.682,179.587z"/>
	<path style="fill:#314E55;" d="M101.29,61.807c-4.729,1.139-7.646,5.911-6.524,10.641c0.742,3.167,1.389,10.848-1.372,14.412
		c-0.475,0.604-1.907,2.451-7.033,2.537c-4.876,0.086-8.768,4.116-8.682,8.992c0.086,4.824,4.021,8.682,8.837,8.682
		c0.052,0,0.104,0,0.155,0c11.288-0.198,17.51-5.256,20.746-9.458c8.647-11.236,4.962-27.529,4.513-29.35
		C110.765,63.541,106.019,60.659,101.29,61.807z"/>
</g>
<g>
</g>
<g>
</g>
<g>
</g>
<g>
</g>
<g>
</g>
<g>
</g>
<g>
</g>
<g>
</g>
<g>
</g>
<g>
</g>
<g>
</g>
<g>
</g>
<g>
</g>
<g>
</g>
<g>
</g>
</svg>
