<?xml version="1.0" encoding="iso-8859-1"?>
<!-- Generator: Adobe Illustrator 19.0.0, SVG Export Plug-In . SVG Version: 6.00 Build 0)  -->
<svg version="1.1" id="Layer_1" xmlns="http://www.w3.org/2000/svg" xmlns:xlink="http://www.w3.org/1999/xlink" x="0px" y="0px"
	 viewBox="0 0 512 512" style="enable-background:new 0 0 512 512;" xml:space="preserve">
<path style="fill:#314E55;" d="M506.26,21.964c-47.867-18.52-81.267-21.438-105.134-9.19c-28.809,14.773-37.286,48.128-46.26,83.439
	c-6.83,26.875-13.945,54.521-30.185,75.683l-23.365-23.363c-3.549-3.548-9.356-3.548-12.904,0l-38.822,38.828l0.095,0.095
	c-35.927-5.111-78.164,11.117-114.073,47.026c-3.237,3.236-6.425,6.883-9.564,10.843c-0.028,0.034-0.072,0.048-0.1,0.082
	c-6.033,7.61-12.129,16.85-18.248,27.536c-0.31,0.54-0.626,1.056-0.935,1.602c-0.67,1.186-1.34,2.448-2.011,3.671
	c-0.932,1.697-1.866,3.384-2.784,5.122c-0.497,0.942-0.995,1.931-1.492,2.893c-1.126,2.173-2.245,4.359-3.347,6.583
	c-0.372,0.751-0.743,1.523-1.114,2.285c-1.304,2.668-2.592,5.36-3.862,8.085c-0.203,0.435-0.405,0.873-0.608,1.312
	c-28.054,60.6-47.697,133.259-51.95,149.624L2.673,491.04c-3.565,3.564-3.565,9.339,0,12.903c1.782,1.782,4.117,2.673,6.452,2.673
	s4.67-0.891,6.452-2.673l36.022-36.022c12.806-3.29,88.568-23.34,151.338-52.442c0.26-0.12,0.517-0.241,0.776-0.36
	c2.862-1.332,5.688-2.683,8.486-4.052c0.695-0.339,1.4-0.679,2.086-1.018c2.271-1.125,4.502-2.266,6.719-3.415
	c0.926-0.479,1.878-0.958,2.786-1.437c1.779-0.94,3.51-1.896,5.248-2.852c1.184-0.65,2.408-1.301,3.558-1.95
	c0.655-0.37,1.276-0.75,1.925-1.123c7.343-4.217,13.999-8.424,19.892-12.608c0.159-0.112,0.329-0.222,0.487-0.335
	c1.787-1.277,3.459-2.549,5.107-3.821c0.477-0.366,0.986-0.728,1.454-1.097c0.091-0.072,0.196-0.144,0.286-0.216
	c0.024-0.019,0.033-0.049,0.057-0.068c3.968-3.145,7.621-6.339,10.864-9.582c35.565-35.565,51.806-77.327,47.158-113.024
	c2.485-2.554,5.282-6.273,6.419-7.41l32.376-32.376c1.711-1.711,2.673-4.028,2.673-6.452s-0.962-4.741-2.673-6.452l-21.209-21.207
	c19.591-24.461,27.753-55.916,34.897-84.027c8.297-32.656,15.465-60.848,37.062-71.925c18.698-9.601,48.245-6.325,90.371,9.959
	c4.621,1.808,9.839-0.489,11.644-5.093C513.186,28.935,510.894,23.755,506.26,21.964z"/>
<path style="fill:#E65F58;" d="M241.967,373.123c-2.747,1.899-5.75,3.811-8.839,5.728c-0.649,0.403-1.247,0.814-1.906,1.215
	c-3.372,2.048-6.982,4.108-10.736,6.173c-0.464,0.255-0.899,0.516-1.367,0.771c-4.012,2.18-8.252,4.369-12.682,6.563
	c-0.26,0.129-0.506,0.262-0.767,0.39c-4.717,2.324-9.661,4.655-14.84,6.989l-84.63-84.63c4.695-10.411,9.374-19.892,14.016-28.424
	c0.122-0.224,0.248-0.433,0.371-0.657c2.188-3.999,4.369-7.805,6.539-11.375c0.315-0.517,0.638-0.985,0.954-1.495
	c1.994-3.226,3.981-6.336,5.955-9.193c0.037-0.053,0.074-0.097,0.111-0.149l107.978,107.978
	C242.068,373.045,242.022,373.085,241.967,373.123z"/>
<g>
	<path style="fill:#DBCF56;" d="M98.434,334.368l74.349,74.345c-43.342,17.839-89.162,31.461-112.23,37.884
		C66.972,423.527,80.592,377.711,98.434,334.368z"/>
	<path style="fill:#DBCF56;" d="M301.753,282.888c-3.6,25.691-18.121,51.881-41.99,75.754c-0.984,0.984-2.206,1.945-3.272,2.921
		L145.589,250.662c0.978-1.068,1.941-2.292,2.926-3.277c27.981-27.981,59.928-42.667,87.927-42.667
		c18.094,0,34.545,6.14,47.199,18.794C298.589,238.465,305.023,259.55,301.753,282.888z"/>
</g>
<path style="fill:#FFFFFF;" d="M314.279,237.27c-4.011-9.76-9.851-18.778-17.734-26.661c-7.885-7.882-16.905-13.721-26.665-17.731
	l24.986-24.99l44.4,44.396L314.279,237.27z"/>
<g>
</g>
<g>
</g>
<g>
</g>
<g>
</g>
<g>
</g>
<g>
</g>
<g>
</g>
<g>
</g>
<g>
</g>
<g>
</g>
<g>
</g>
<g>
</g>
<g>
</g>
<g>
</g>
<g>
</g>
</svg>
