<?xml version="1.0" encoding="iso-8859-1"?>
<!-- Generator: Adobe Illustrator 19.0.0, SVG Export Plug-In . SVG Version: 6.00 Build 0)  -->
<svg version="1.1" id="Layer_1" xmlns="http://www.w3.org/2000/svg" xmlns:xlink="http://www.w3.org/1999/xlink" x="0px" y="0px"
	 viewBox="0 0 512 512" style="enable-background:new 0 0 512 512;" xml:space="preserve">
<g>
	<path style="fill:#314E55;" d="M158.237,291.407c55.285,0,100.269-44.984,100.269-100.269c0-5.542-4.485-10.027-10.027-10.027
		c-5.542,0-10.027,4.485-10.027,10.027c0,44.23-35.985,80.215-80.215,80.215s-80.215-35.985-80.215-80.215
		c0-0.352-0.165-0.65-0.2-0.993c22.95-4.584,40.308-24.864,40.308-49.141s-17.357-44.557-40.308-49.141
		c0.035-0.343,0.2-0.64,0.2-0.993V10.027C78.022,4.485,73.537,0,67.995,0S57.968,4.485,57.968,10.027v80.842
		c0,0.352,0.165,0.65,0.2,0.993c-22.95,4.583-40.308,24.864-40.308,49.142s17.357,44.558,40.308,49.141
		c-0.035,0.343-0.2,0.641-0.2,0.993C57.968,246.423,102.952,291.407,158.237,291.407z"/>
	<path style="fill:#73C9C9;" d="M37.914,141.003c0-16.588,13.493-30.081,30.081-30.081s30.081,13.493,30.081,30.081
		s-13.493,30.081-30.081,30.081S37.914,157.591,37.914,141.003z"/>
	<path style="fill:#314E55;" d="M448.666,416.744l42.536-42.546c3.917-3.917,3.917-10.262,0-14.179s-10.262-3.917-14.179,0
		l-40.865,40.873c-41.431-49.93-107.455-79.405-179.257-79.405c-76.446,0-146.35,33.41-186.997,89.361
		c-2.546,3.515-2.546,8.274,0,11.789C110.551,478.59,180.455,512,256.901,512c71.802,0,137.826-29.474,179.257-79.405l40.865,40.873
		c1.958,1.958,4.524,2.938,7.089,2.938s5.131-0.979,7.089-2.938c3.917-3.917,3.917-10.262,0-14.179L448.666,416.744z"/>
	<g>
		<path style="fill:#E4AD40;" d="M90.604,416.744c21.659-27.317,51.417-48.14,85.656-60.886
			c14.22,17.088,22.085,38.594,22.085,60.886c0,22.394-7.875,43.789-22.124,60.872C141.999,464.868,112.255,444.051,90.604,416.744z
			"/>
		<path style="fill:#E4AD40;" d="M256.901,491.946c-20.852,0-41.151-2.698-60.356-7.812c14.113-19.542,21.854-42.971,21.854-67.39
			c0-24.294-7.67-47.861-21.767-67.411c19.18-5.098,39.447-7.791,60.269-7.791c67.31,0,128.872,27.976,166.306,75.202
			C385.772,463.971,324.21,491.946,256.901,491.946z"/>
	</g>
	<rect x="148.21" y="391.677" style="fill:#314E55;" width="20.054" height="20.054"/>
</g>
<g>
</g>
<g>
</g>
<g>
</g>
<g>
</g>
<g>
</g>
<g>
</g>
<g>
</g>
<g>
</g>
<g>
</g>
<g>
</g>
<g>
</g>
<g>
</g>
<g>
</g>
<g>
</g>
<g>
</g>
</svg>
