<?xml version="1.0" encoding="iso-8859-1"?>
<!-- Generator: Adobe Illustrator 19.0.0, SVG Export Plug-In . SVG Version: 6.00 Build 0)  -->
<svg version="1.1" id="Layer_1" xmlns="http://www.w3.org/2000/svg" xmlns:xlink="http://www.w3.org/1999/xlink" x="0px" y="0px"
	 viewBox="0 0 512 512" style="enable-background:new 0 0 512 512;" xml:space="preserve">
<path style="fill:#314E55;" d="M512,402.611c0-2.503-0.994-4.896-2.761-6.663l-33.322-33.318L262.661,149.37
	c-3.534-3.534-9.793-3.534-13.327,0l-99.962,99.971c-3.682,3.682-3.682,9.646,0,13.327l213.256,213.251l33.322,33.318
	c1.841,1.841,4.252,2.761,6.663,2.761c2.411,0,4.823-0.92,6.663-2.761l26.657-26.657l0.002,0.003
	c6.894,6.894,15.711,11.155,24.827,11.983c1.1,0.101,2.191,0.147,3.272,0.147c8.472,0,16.148-3.065,21.877-8.799
	c6.466-6.461,9.535-15.398,8.652-25.154c-0.828-9.112-5.085-17.929-11.983-24.823l-0.003-0.002l26.662-26.662
	C511.006,407.507,512,405.115,512,402.611z"/>
<rect x="251.373" y="171.273" transform="matrix(-0.7071 0.7071 -0.7071 -0.7071 754.7673 312.6473)" style="fill:#DBCF56;" width="122.519" height="282.737"/>
<path style="fill:#D8D8D8;" d="M469.253,449.265c7.225,7.225,8.748,17.901,3.327,23.322c-2.434,2.439-6.024,3.562-10.115,3.203
	c-4.662-0.423-9.471-2.807-13.203-6.535l-0.003-0.002l19.992-19.992L469.253,449.265z"/>
<rect x="374.666" y="421.786" transform="matrix(-0.707 0.7072 -0.7072 -0.707 1052.4154 435.833)" style="fill:#DBA840;" width="122.519" height="28.274"/>
<path style="fill:#314E55;" d="M253.467,122.771l-32.64-64.851l1.849-1.849c3.681-3.681,3.681-9.646,0-13.327L182.695,2.763
	c-3.681-3.682-9.646-3.682-13.327,0L2.761,169.37C0.994,171.137,0,173.53,0,176.033c0,2.503,0.994,4.896,2.761,6.663l39.986,39.981
	c1.841,1.841,4.252,2.761,6.663,2.761s4.823-0.92,6.663-2.761l1.844-1.844l64.842,32.64c1.348,0.672,2.798,1.003,4.234,1.003
	c2.448,0,4.86-0.948,6.668-2.761l118.052-118.047C254.589,130.797,255.298,126.397,253.467,122.771z"/>
<g>
	
		<rect x="4.334" y="93.872" transform="matrix(-0.7071 0.7071 -0.7071 -0.7071 272.1238 112.7228)" style="fill:#DD7E45;" width="216.765" height="37.696"/>
	<polygon style="fill:#DD7E45;" points="125.153,233.575 71.959,206.792 206.795,71.957 233.568,125.155 	"/>
</g>
<path style="fill:#314E55;" d="M292.656,232.682c-16.544-16.539-43.446-16.548-59.981-0.009
	c-16.539,16.539-16.539,43.451,0.005,59.99l39.977,39.972c8.274,8.274,19.135,12.407,29.995,12.407
	c10.861,0,21.721-4.142,29.986-12.407c8.003-7.989,12.411-18.638,12.411-29.977c0.005-11.339-4.404-21.997-12.416-30.004
	L292.656,232.682z"/>
<g>
	<path style="fill:#5ECB66;" d="M246.002,246c9.185-9.194,24.132-9.167,33.327,0.009l9.994,9.993l-0.004,0.002l-33.322,33.318
		l-0.001,0.002l-9.989-9.988C236.817,270.141,236.812,255.185,246.002,246z"/>
	<path style="fill:#5ECB66;" d="M319.31,319.308c-9.19,9.185-24.137,9.185-33.327,0l-16.66-16.658l0.001,0l33.322-33.318
		l0.003-0.005l16.656,16.654c4.445,4.445,6.898,10.373,6.894,16.677C326.199,308.954,323.751,314.872,319.31,319.308z"/>
</g>
<g>
</g>
<g>
</g>
<g>
</g>
<g>
</g>
<g>
</g>
<g>
</g>
<g>
</g>
<g>
</g>
<g>
</g>
<g>
</g>
<g>
</g>
<g>
</g>
<g>
</g>
<g>
</g>
<g>
</g>
</svg>
