<?xml version="1.0" encoding="iso-8859-1"?>
<!-- Generator: Adobe Illustrator 19.0.0, SVG Export Plug-In . SVG Version: 6.00 Build 0)  -->
<svg version="1.1" id="Layer_1" xmlns="http://www.w3.org/2000/svg" xmlns:xlink="http://www.w3.org/1999/xlink" x="0px" y="0px"
	 viewBox="0 0 512 512" style="enable-background:new 0 0 512 512;" xml:space="preserve">
<path style="fill:#314E55;" d="M334.676,317.942L481.09,119.628c15.049-20.38,18.978-40.241,11.054-55.924
	c-7.923-15.712-26.286-24.366-51.708-24.366h-35.151c-28.728,0-54.308,13.527-70.854,34.49C331.911,32.703,297.748,0,256,0
	s-75.911,32.703-78.431,73.828c-16.546-20.964-42.125-34.49-70.854-34.49H71.564c-25.422,0-43.785,8.653-51.708,24.366
	c-7.923,15.683-3.995,35.544,11.054,55.924l146.413,198.315v36.1c0,15.463,4.547,29.855,12.284,42.032l-66.152,58.023
	c-3.352,2.939-4.312,7.76-2.334,11.755l20.13,40.673c1.719,3.467,5.205,5.474,8.826,5.474c1.46,0,2.948-0.326,4.351-1.018
	c4.869-2.411,6.867-8.307,4.456-13.177l-16.778-33.902l60.039-52.663c14.092,13.275,33.013,21.479,53.855,21.479
	c20.562,0,39.249-7.993,53.28-20.955l59.442,52.14l-16.788,33.902c-2.411,4.86-0.413,10.766,4.456,13.177
	c1.402,0.691,2.891,1.018,4.351,1.018c3.621,0,7.107-2.007,8.826-5.474l20.14-40.673c1.978-3.986,1.018-8.816-2.334-11.755
	l-65.388-57.353c7.996-12.313,12.691-26.959,12.691-42.702V317.942z"/>
<g>
	<path style="fill:#D26CBA;" d="M256,157.352c-23.429,0-44.437,10.35-58.863,26.652c1.502-31.211,27.287-56.156,58.863-56.156
		s57.361,24.945,58.863,56.156C300.437,167.702,279.429,157.352,256,157.352z"/>
	<path style="fill:#D26CBA;" d="M314.863,233.177c-14.426-16.303-35.435-26.652-58.863-26.652s-44.437,10.35-58.863,26.652
		c1.502-31.211,27.287-56.156,58.863-56.156S313.361,201.967,314.863,233.177z"/>
	<path style="fill:#D26CBA;" d="M196.993,314.705v-29.504c0-32.538,26.469-59.007,59.007-59.007s59.007,26.469,59.007,59.007v29.504
		v29.504H196.993V314.705z"/>
</g>
<path style="fill:#EAEAEA;" d="M405.285,59.007h35.151c17.354,0,29.801,4.946,34.152,13.561c4.331,8.586,0.941,21.484-9.326,35.381
	L334.676,284.826V129.558C334.676,90.652,366.35,59.007,405.285,59.007z"/>
<path style="fill:#D26CBA;" d="M196.993,78.667c0-32.529,26.469-58.998,59.007-58.998s59.007,26.469,59.007,58.998v50.892v5.433
	C300.578,118.596,279.505,108.18,256,108.18c-23.505,0-44.578,10.416-59.007,26.811v-5.433V78.667z"/>
<path style="fill:#EAEAEA;" d="M37.413,72.568c4.351-8.615,16.797-13.561,34.152-13.561h35.151
	c38.935,0,70.609,31.645,70.609,70.551v155.268L46.738,107.949C36.471,94.052,33.081,81.154,37.413,72.568z"/>
<path style="fill:#D26CBA;" d="M256,413.05c-29.187,0-53.494-21.302-58.191-49.173h116.381c-1.611,9.56-5.661,18.246-11.293,25.666
	c-0.757,0.486-1.537,0.936-2.162,1.648c-0.744,0.848-1.212,1.825-1.614,2.814C288.336,405.631,273.071,413.05,256,413.05z"/>
<g>
</g>
<g>
</g>
<g>
</g>
<g>
</g>
<g>
</g>
<g>
</g>
<g>
</g>
<g>
</g>
<g>
</g>
<g>
</g>
<g>
</g>
<g>
</g>
<g>
</g>
<g>
</g>
<g>
</g>
</svg>
