<?xml version="1.0" encoding="iso-8859-1"?>
<!-- Generator: Adobe Illustrator 19.0.0, SVG Export Plug-In . SVG Version: 6.00 Build 0)  -->
<svg version="1.1" id="Layer_1" xmlns="http://www.w3.org/2000/svg" xmlns:xlink="http://www.w3.org/1999/xlink" x="0px" y="0px"
	 viewBox="0 0 512 512" style="enable-background:new 0 0 512 512;" xml:space="preserve">
<path style="fill:#314E55;" d="M465.4,69.818H46.591C20.9,69.818,0,90.682,0,116.318v279.364c0,25.636,20.9,46.5,46.591,46.5H465.4
	c25.691,0,46.6-20.864,46.6-46.5V116.318C512,90.682,491.091,69.818,465.4,69.818z"/>
<path style="fill:#FFFFFF;" d="M493.382,395.682c0,15.373-12.554,27.882-27.982,27.882H46.591
	c-15.427,0-27.973-12.509-27.973-27.882V116.318c0-15.373,12.545-27.882,27.973-27.882H465.4c15.427,0,27.982,12.509,27.982,27.882
	V395.682z"/>
<path style="fill:#314E55;" d="M465.455,125.673H46.545c-5.145,0-9.309,4.164-9.309,9.309v83.782v83.782v83.782
	c0,5.145,4.164,9.309,9.309,9.309h418.909c5.145,0,9.309-4.164,9.309-9.309v-83.782v-83.782v-83.782
	C474.764,129.836,470.6,125.673,465.455,125.673z"/>
<g>
	<path style="fill:#5ECB66;" d="M251.345,301.224c-16.017-4.162-27.927-18.612-27.927-35.915s11.911-31.752,27.927-35.915V301.224z"
		/>
	<path style="fill:#5ECB66;" d="M269.964,229.394c16.017,4.163,27.927,18.613,27.927,35.915s-11.911,31.752-27.927,35.915V229.394z"
		/>
	<rect x="55.855" y="228.073" style="fill:#5ECB66;" width="27.927" height="65.164"/>
	<path style="fill:#5ECB66;" d="M55.855,311.855h37.236c5.145,0,9.309-4.164,9.309-9.309v-83.782c0-5.145-4.164-9.309-9.309-9.309
		H55.855v-65.164h195.491v66.004c-26.374,4.452-46.545,27.391-46.545,55.014s20.172,50.561,46.545,55.014v56.695H55.855V311.855z"/>
	<path style="fill:#5ECB66;" d="M269.964,377.018v-56.695c26.374-4.452,46.545-27.391,46.545-55.014s-20.172-50.561-46.545-55.014
		v-66.004h186.182v65.164h-37.236c-5.145,0-9.309,4.164-9.309,9.309v83.782c0,5.145,4.164,9.309,9.309,9.309h37.236v65.164H269.964z
		"/>
	<rect x="428.218" y="228.073" style="fill:#5ECB66;" width="27.927" height="65.164"/>
</g>
<g>
</g>
<g>
</g>
<g>
</g>
<g>
</g>
<g>
</g>
<g>
</g>
<g>
</g>
<g>
</g>
<g>
</g>
<g>
</g>
<g>
</g>
<g>
</g>
<g>
</g>
<g>
</g>
<g>
</g>
</svg>
