<?xml version="1.0" encoding="iso-8859-1"?>
<!-- Generator: Adobe Illustrator 19.0.0, SVG Export Plug-In . SVG Version: 6.00 Build 0)  -->
<svg version="1.1" id="Layer_1" xmlns="http://www.w3.org/2000/svg" xmlns:xlink="http://www.w3.org/1999/xlink" x="0px" y="0px"
	 viewBox="0 0 512 512" style="enable-background:new 0 0 512 512;" xml:space="preserve">
<path style="fill:#314E55;" d="M508.33,422.014c-1.282-0.922-21.985-15.543-58.633-30.538c0.237-0.797,0.497-1.59,0.497-2.465
	v-35.309h44.136c2.733,0,5.31-1.267,6.983-3.431c1.673-2.164,2.25-4.978,1.56-7.625l-52.964-203.028
	c-1.017-3.888-4.526-6.599-8.543-6.599s-7.526,2.711-8.543,6.599L379.86,342.646c-0.69,2.646-0.112,5.461,1.56,7.625
	c1.672,2.164,4.25,3.431,6.983,3.431h44.136v31.163c-15.663-5.616-33.553-11.008-53.516-15.443
	c-15.579-3.463-33.189-6.381-52.412-8.312v-51.544h52.964c2.733,0,5.31-1.263,6.983-3.427c1.672-2.159,2.25-4.97,1.56-7.616
	L326.327,60.186c-1.009-3.892-4.517-6.612-8.543-6.612s-7.534,2.72-8.543,6.612l-61.791,238.337c-0.69,2.646-0.112,5.457,1.56,7.616
	c1.672,2.164,4.25,3.427,6.983,3.427h52.964v50.121c-58.446-3.618-130.66,2.978-211.855,33.602v-57.242h70.618
	c2.733,0,5.301-1.263,6.974-3.418s2.258-4.965,1.577-7.608L96.827,16.066c-1.009-3.901-4.526-6.629-8.551-6.629
	s-7.543,2.728-8.551,6.629L0.278,325.021c-0.681,2.642-0.095,5.452,1.577,7.608c1.672,2.155,4.241,3.418,6.974,3.418h70.618v61.791
	c0,0.81,0.257,1.537,0.461,2.28c-10.133,4.189-20.353,8.629-30.736,13.599c-4.396,2.103-6.258,7.375-4.155,11.771
	c2.095,4.392,7.353,6.254,11.775,4.151c29.212-13.978,57.423-24.555,84.584-32.572c0.055,0.037,0.081,0.097,0.137,0.134
	c33.361,21.473,71.618,61.222,76.756,97.764c0.621,4.414,4.396,7.599,8.732,7.599c0.405,0,0.819-0.026,1.241-0.086
	c4.827-0.681,8.189-5.142,7.508-9.97c-5.298-37.654-38.302-76.252-72.212-101.464c16.279-4.032,32.157-7.187,47.532-9.433
	c0.503,1.054,1.212,2.028,2.147,2.845c23.284,20.353,52.74,31.564,81.221,42.408c40.266,15.331,78.308,29.814,95.566,68.166
	c1.474,3.267,4.689,5.207,8.06,5.207c1.207,0,2.44-0.254,3.612-0.78c4.448-2.004,6.431-7.228,4.431-11.676
	c-20.258-45.003-63.532-61.481-105.384-77.415c-23.035-8.767-46.693-17.834-66.132-31.615
	c159.014-15.185,262.075,56.627,263.436,57.606c1.56,1.116,3.353,1.651,5.138,1.651c2.741,0,5.457-1.276,7.172-3.677
	C513.183,430.367,512.286,424.863,508.33,422.014z"/>
<g>
	<polygon style="fill:#5ECB66;" points="441.367,176.815 482.908,336.047 399.825,336.047 	"/>
	<polygon style="fill:#5ECB66;" points="317.785,97.577 368.171,291.91 267.398,291.91 	"/>
	<polygon style="fill:#5ECB66;" points="20.217,318.392 88.275,53.712 156.333,318.392 	"/>
</g>
<g>
</g>
<g>
</g>
<g>
</g>
<g>
</g>
<g>
</g>
<g>
</g>
<g>
</g>
<g>
</g>
<g>
</g>
<g>
</g>
<g>
</g>
<g>
</g>
<g>
</g>
<g>
</g>
<g>
</g>
</svg>
