<?xml version="1.0" encoding="iso-8859-1"?>
<!-- Generator: Adobe Illustrator 19.0.0, SVG Export Plug-In . SVG Version: 6.00 Build 0)  -->
<svg version="1.1" id="Layer_1" xmlns="http://www.w3.org/2000/svg" xmlns:xlink="http://www.w3.org/1999/xlink" x="0px" y="0px"
	 viewBox="0 0 512 512" style="enable-background:new 0 0 512 512;" xml:space="preserve">
<path style="fill:#314E55;" d="M309.255,123.45L369.65,13.154c2.36-4.303,0.781-9.704-3.522-12.06
	c-4.303-2.356-9.709-0.781-12.06,3.522l-61.436,112.196c-0.72,1.31-1.093,2.776-1.093,4.269c0,16.511-11.367,30.304-26.653,34.276
	V14.321c0-4.906-3.974-8.884-8.884-8.884c-4.911,0-8.884,3.978-8.884,8.884v141.037c-15.286-3.973-26.653-17.766-26.653-34.276
	c0-0.152-0.079-0.278-0.086-0.428c-0.028-0.589-0.201-1.149-0.349-1.731c-0.15-0.585-0.268-1.161-0.528-1.694
	c-0.065-0.134-0.057-0.283-0.129-0.415L157.933,4.616c-2.351-4.303-7.748-5.878-12.06-3.522c-4.303,2.355-5.883,7.757-3.523,12.06
	l60.47,110.431c1.181,25.23,19.931,45.887,44.295,50.001v89.651h-35.538h-26.653c-4.911,0-8.884,3.974-8.884,8.884
	s3.974,8.884,8.884,8.884h17.769v177.706C202.694,488.097,226.605,512,256,512s53.307-23.903,53.307-53.289V281.005h18.046
	c4.911,0,8.884-3.974,8.884-8.884s-3.974-8.884-8.884-8.884h-26.931h-35.538v-89.645C289.296,169.47,308.146,148.747,309.255,123.45
	z"/>
<path style="fill:#F28544;" d="M291.538,458.711c0,19.582-15.938,35.52-35.538,35.52s-35.538-15.938-35.538-35.52V281.005h71.075
	V458.711z"/>
<path style="fill:#314E55;" d="M229.347,458.694c0,14.698,11.956,26.653,26.653,26.653c14.698,0,26.653-11.956,26.653-26.653
	S270.698,432.04,256,432.04C241.303,432.04,229.347,443.996,229.347,458.694z"/>
<circle style="fill:#F28544;" cx="256" cy="458.703" r="8.884"/>
<g>
</g>
<g>
</g>
<g>
</g>
<g>
</g>
<g>
</g>
<g>
</g>
<g>
</g>
<g>
</g>
<g>
</g>
<g>
</g>
<g>
</g>
<g>
</g>
<g>
</g>
<g>
</g>
<g>
</g>
</svg>
