<?xml version="1.0" encoding="iso-8859-1"?>
<!-- Generator: Adobe Illustrator 19.0.0, SVG Export Plug-In . SVG Version: 6.00 Build 0)  -->
<svg version="1.1" id="Layer_1" xmlns="http://www.w3.org/2000/svg" xmlns:xlink="http://www.w3.org/1999/xlink" x="0px" y="0px"
	 viewBox="0 0 512 512" style="enable-background:new 0 0 512 512;" xml:space="preserve">
<path style="fill:#314E55;" d="M149.467,164.226h48.302h38.642v38.642c0,5.335,4.325,9.66,9.66,9.66h48.302h48.302h48.302
	c5.335,0,9.66-4.325,9.66-9.66v-48.302v-48.302V57.962c0-5.335-4.325-9.66-9.66-9.66h-48.302h-48.302h-38.642V9.66
	c0-5.335-4.325-9.66-9.66-9.66h-48.302h-48.302h-48.302H33.542c-5.335,0-9.66,4.325-9.66,9.66V502.34c0,5.335,4.325,9.66,9.66,9.66
	h67.623c5.335,0,9.66-4.325,9.66-9.66V164.226H149.467z"/>
<rect x="352.335" y="115.925" style="fill:#5ECB66;" width="28.981" height="28.981"/>
<rect x="304.033" y="115.925" style="fill:#E65F58;" width="28.981" height="28.981"/>
<g>
	<rect x="255.731" y="115.925" style="fill:#5ECB66;" width="28.981" height="28.981"/>
	<rect x="207.429" y="67.623" style="fill:#5ECB66;" width="28.981" height="28.981"/>
</g>
<rect x="159.127" y="67.623" style="fill:#E65F58;" width="28.981" height="28.981"/>
<g>
	<rect x="110.825" y="67.623" style="fill:#5ECB66;" width="28.981" height="28.981"/>
	<rect x="110.825" y="115.925" style="fill:#5ECB66;" width="28.981" height="28.981"/>
	<rect x="159.127" y="115.925" style="fill:#5ECB66;" width="28.981" height="28.981"/>
	<rect x="207.429" y="115.925" style="fill:#5ECB66;" width="28.981" height="28.981"/>
	<rect x="255.731" y="164.226" style="fill:#5ECB66;" width="28.981" height="28.981"/>
	<rect x="304.033" y="164.226" style="fill:#5ECB66;" width="28.981" height="28.981"/>
	<rect x="352.335" y="164.226" style="fill:#5ECB66;" width="28.981" height="28.981"/>
	<rect x="352.335" y="67.623" style="fill:#5ECB66;" width="28.981" height="28.981"/>
	<rect x="304.033" y="67.623" style="fill:#5ECB66;" width="28.981" height="28.981"/>
	<rect x="255.731" y="67.623" style="fill:#5ECB66;" width="28.981" height="28.981"/>
	<rect x="207.429" y="19.321" style="fill:#5ECB66;" width="28.981" height="28.981"/>
	<rect x="159.127" y="19.321" style="fill:#5ECB66;" width="28.981" height="28.981"/>
	<rect x="110.825" y="19.321" style="fill:#5ECB66;" width="28.981" height="28.981"/>
</g>
<polygon style="fill:#E9E7D1;" points="91.505,492.679 43.203,492.679 43.203,19.321 91.505,19.321 91.505,57.962 91.505,106.264 
	91.505,154.566 "/>
<path style="fill:#314E55;" d="M478.458,483.019H130.146c-5.335,0-9.66,4.325-9.66,9.66c0,5.335,4.325,9.66,9.66,9.66h348.311
	c5.335,0,9.66-4.325,9.66-9.66C488.118,487.344,483.792,483.019,478.458,483.019z"/>
<g>
</g>
<g>
</g>
<g>
</g>
<g>
</g>
<g>
</g>
<g>
</g>
<g>
</g>
<g>
</g>
<g>
</g>
<g>
</g>
<g>
</g>
<g>
</g>
<g>
</g>
<g>
</g>
<g>
</g>
</svg>
