<?xml version="1.0" encoding="iso-8859-1"?>
<!-- Generator: Adobe Illustrator 19.0.0, SVG Export Plug-In . SVG Version: 6.00 Build 0)  -->
<svg version="1.1" id="Layer_1" xmlns="http://www.w3.org/2000/svg" xmlns:xlink="http://www.w3.org/1999/xlink" x="0px" y="0px"
	 viewBox="0 0 512 512" style="enable-background:new 0 0 512 512;" xml:space="preserve">
<path style="fill:#314E55;" d="M370.698,114.759H141.302C63.388,114.759,0,178.121,0,256s63.388,141.241,141.302,141.241h229.397
	C448.612,397.241,512,333.879,512,256S448.612,114.759,370.698,114.759z"/>
<path style="fill:#E4AD40;" d="M370.698,379.586H141.302c-68.181,0-123.646-55.44-123.646-123.586s55.465-123.586,123.646-123.586
	h229.397c68.181,0,123.647,55.44,123.647,123.586S438.879,379.586,370.698,379.586z"/>
<path style="fill:#314E55;" d="M370.759,158.897H141.241c-4.879,0-8.828,3.953-8.828,8.828v176.552c0,4.875,3.948,8.828,8.828,8.828
	h229.517c4.879,0,8.828-3.953,8.828-8.828V167.724C379.586,162.849,375.638,158.897,370.759,158.897z"/>
<rect x="150.069" y="176.552" style="fill:#EAEAEA;" width="211.862" height="158.897"/>
<path style="fill:#314E55;" d="M88.276,282.483c-14.603,0-26.483,11.879-26.483,26.483s11.879,26.483,26.483,26.483
	s26.483-11.879,26.483-26.483S102.879,282.483,88.276,282.483z"/>
<circle style="fill:#E4AD40;" cx="88.276" cy="308.966" r="8.828"/>
<path style="fill:#314E55;" d="M423.724,282.483c-14.603,0-26.483,11.879-26.483,26.483s11.879,26.483,26.483,26.483
	c14.603,0,26.483-11.879,26.483-26.483S438.328,282.483,423.724,282.483z"/>
<circle style="fill:#E4AD40;" cx="423.724" cy="308.966" r="8.828"/>
<g>
	<path style="fill:#314E55;" d="M61.793,264.828c0,4.875,3.948,8.828,8.828,8.828s8.828-3.953,8.828-8.828v-17.655h17.655
		c4.879,0,8.828-3.953,8.828-8.828c0-4.875-3.948-8.828-8.828-8.828H79.448v-17.655c0-4.875-3.948-8.828-8.828-8.828
		s-8.828,3.953-8.828,8.828v17.655H44.138c-4.879,0-8.828,3.953-8.828,8.828c0,4.875,3.948,8.828,8.828,8.828h17.655V264.828z"/>
	<path style="fill:#314E55;" d="M435.138,187.966l-13.957,13.957c-3.448,3.448-3.448,9.035,0,12.483
		c1.724,1.724,3.983,2.586,6.241,2.586s4.517-0.862,6.241-2.586l13.957-13.957c3.448-3.448,3.448-9.035,0-12.483
		C444.172,184.518,438.586,184.517,435.138,187.966z"/>
	<path style="fill:#314E55;" d="M482.931,214.448c-3.448-3.448-9.035-3.448-12.483,0l-13.957,13.957
		c-3.448,3.448-3.448,9.035,0,12.483c1.724,1.724,3.983,2.586,6.241,2.586s4.517-0.862,6.241-2.586l13.957-13.957
		C486.379,223.483,486.379,217.897,482.931,214.448z"/>
	<path style="fill:#314E55;" d="M418.595,261.129c2.259,0,4.517-0.862,6.241-2.586l13.957-13.957c3.448-3.448,3.448-9.035,0-12.483
		s-9.035-3.448-12.483,0l-13.957,13.957c-3.448,3.448-3.448,9.035,0,12.483C414.078,260.267,416.336,261.129,418.595,261.129z"/>
</g>
<g>
</g>
<g>
</g>
<g>
</g>
<g>
</g>
<g>
</g>
<g>
</g>
<g>
</g>
<g>
</g>
<g>
</g>
<g>
</g>
<g>
</g>
<g>
</g>
<g>
</g>
<g>
</g>
<g>
</g>
</svg>
