<?xml version="1.0" encoding="iso-8859-1"?>
<!-- Generator: Adobe Illustrator 19.0.0, SVG Export Plug-In . SVG Version: 6.00 Build 0)  -->
<svg version="1.1" id="Layer_1" xmlns="http://www.w3.org/2000/svg" xmlns:xlink="http://www.w3.org/1999/xlink" x="0px" y="0px"
	 viewBox="0 0 512 512" style="enable-background:new 0 0 512 512;" xml:space="preserve">
<path style="fill:#314E55;" d="M394.387,370.595c-5.649-42.741-21.79-76.3-43.178-89.784c-10.388-6.558-21.532-8.176-32.235-4.704
	c-10.982,3.568-19.7,12.067-25.476,24.728h-90.448c-5.771-12.661-14.493-21.16-25.476-24.728
	c-10.694-3.454-21.842-1.854-32.239,4.704c-21.388,13.483-37.529,47.051-43.174,89.784c-2.05,15.494-4.503,28.645-6.667,40.249
	c-6.274,33.612-10.808,57.894,16.592,66.804c28.584,9.26,63.582-19.141,83.645-66.035c12.473,10.519,31.164,16.823,51.642,16.823
	c21.187,0,40.498-6.838,52.941-17.987c17.431,41.648,46.439,68.973,72.838,68.973c3.834,0,7.625-0.577,11.306-1.775
	c27.404-8.91,22.87-33.192,16.596-66.804C398.89,399.24,396.438,386.089,394.387,370.595z"/>
<path style="fill:#E9E7D1;" d="M378.928,460.614c-18.975,6.13-51.135-21.423-67.228-70.958c-0.004-0.017-0.044-0.131-0.048-0.149
	c-1.132-3.515-4.298-5.972-7.983-6.199c-3.537-0.096-7.122,1.836-8.67,5.185c-5.994,12.976-25.576,22.035-47.624,22.035
	c-20.798,0-40.065-8.438-46.85-20.531c-1.736-3.078-5.176-4.967-8.648-4.521c-3.524,0.323-6.523,2.702-7.647,6.06
	c-16.43,48.923-47.694,75.286-66.608,69.078c-10.934-3.55-11.481-9.199-4.525-46.483c2.208-11.822,4.709-25.218,6.816-41.193
	c5.841-44.184,21.895-68.737,34.976-76.982c3.913-2.466,7.8-3.707,11.617-3.707c1.862,0,3.712,0.297,5.535,0.892
	c8.993,2.921,13.942,12.277,16.509,19.604c1.259,3.594,4.648,5.998,8.451,5.998h102.545c3.804,0,7.192-2.405,8.451-5.99
	c2.571-7.336,7.52-16.692,16.513-19.613c5.548-1.819,11.319-0.857,17.151,2.816c13.077,8.246,29.131,32.799,34.976,76.982
	c2.107,15.967,4.608,29.371,6.816,41.193C390.408,451.416,389.858,457.064,378.928,460.614z"/>
<path style="fill:#314E55;" d="M166.461,328.055c-14.812,0-26.862,12.049-26.862,26.862s12.049,26.862,26.862,26.862
	s26.862-12.049,26.862-26.862S181.274,328.055,166.461,328.055z"/>
<circle style="fill:#E9E7D1;" cx="166.452" cy="354.917" r="8.954"/>
<g>
	<path style="fill:#314E55;" d="M332.58,320.046l-17.908,8.954c-4.425,2.212-6.217,7.59-4.005,12.014
		c1.57,3.139,4.731,4.949,8.018,4.949c1.342,0,2.711-0.306,3.996-0.944l17.908-8.954c4.425-2.212,6.217-7.59,4.005-12.014
		C342.386,319.635,337.018,317.851,332.58,320.046z"/>
	<path style="fill:#314E55;" d="M332.58,346.907l-17.908,8.954c-4.425,2.212-6.217,7.59-4.005,12.014
		c1.57,3.139,4.731,4.949,8.018,4.949c1.342,0,2.711-0.306,3.996-0.944l17.908-8.954c4.425-2.212,6.217-7.59,4.005-12.014
		C342.386,346.487,337.018,344.712,332.58,346.907z"/>
	<path style="fill:#314E55;" d="M511.592,156.821c-0.052-0.297-4.883-29.668-4.883-43.659c0-13.982,4.831-43.362,4.91-43.825
		c1.416-9.732-1.132-18.939-7.183-25.943c-6.033-6.978-14.734-10.816-24.509-10.816H32.075c-9.789,0-18.507,3.865-24.549,10.869
		c-6.047,7.013-8.582,16.22-7.118,26.057c0.053,0.297,4.884,29.668,4.884,43.659c0,13.982-4.831,43.362-4.91,43.825
		c-1.417,9.732,1.132,18.939,7.183,25.943c6.033,6.978,14.734,10.816,24.509,10.816h447.85c9.789,0,18.507-3.865,24.549-10.869
		C510.52,175.866,513.056,166.658,511.592,156.821z"/>
</g>
<path style="fill:#E9E7D1;" d="M493.898,159.602c0.665,4.459-0.394,8.578-2.986,11.586c-2.588,2.999-6.492,4.652-10.987,4.652
	H32.075c-4.494,0-8.386-1.644-10.961-4.617c-2.597-3.008-3.668-7.144-3.034-11.481c0.206-1.259,5.12-31.129,5.12-46.579
	s-4.914-45.32-5.098-46.439c-0.665-4.459,0.394-8.578,2.986-11.586c2.588-2.999,6.492-4.652,10.987-4.652h447.85
	c4.494,0,8.385,1.644,10.961,4.617c2.597,3.008,3.668,7.144,3.034,11.481c-0.205,1.259-5.12,31.129-5.12,46.579
	S493.715,158.483,493.898,159.602z"/>
<g>
	<path style="fill:#314E55;" d="M229.139,86.301H59.015c-4.945,0-8.954,4.005-8.954,8.954s4.009,8.954,8.954,8.954h170.123
		c4.945,0,8.954-4.005,8.954-8.954S234.083,86.301,229.139,86.301z"/>
	<path style="fill:#314E55;" d="M435.077,86.301c-14.812,0-26.862,12.049-26.862,26.862s12.049,26.862,26.862,26.862
		c14.812,0,26.862-12.049,26.862-26.862S449.89,86.301,435.077,86.301z"/>
</g>
<circle style="fill:#E65F58;" cx="435.068" cy="113.162" r="8.954"/>
<path style="fill:#314E55;" d="M363.446,86.301c-14.812,0-26.862,12.049-26.862,26.862s12.049,26.862,26.862,26.862
	s26.862-12.049,26.862-26.862S378.259,86.301,363.446,86.301z"/>
<circle style="fill:#5ECB66;" cx="363.437" cy="113.162" r="8.954"/>
<g>
</g>
<g>
</g>
<g>
</g>
<g>
</g>
<g>
</g>
<g>
</g>
<g>
</g>
<g>
</g>
<g>
</g>
<g>
</g>
<g>
</g>
<g>
</g>
<g>
</g>
<g>
</g>
<g>
</g>
</svg>
