<?xml version="1.0" encoding="iso-8859-1"?>
<!-- Generator: Adobe Illustrator 19.0.0, SVG Export Plug-In . SVG Version: 6.00 Build 0)  -->
<svg version="1.1" id="Layer_1" xmlns="http://www.w3.org/2000/svg" xmlns:xlink="http://www.w3.org/1999/xlink" x="0px" y="0px"
	 viewBox="0 0 512 512" style="enable-background:new 0 0 512 512;" xml:space="preserve">
<g>
	<path style="fill:#314E55;" d="M466.348,214.857H301.714v-27.429c0-5.049-4.089-9.143-9.143-9.143h-27.429v-55.612
		c0-1.538-0.475-2.922-1.146-4.194c0.671-1.272,1.146-2.656,1.146-4.194c0-30.25-24.607-54.857-54.857-54.857
		c-1.703,0-3.207,0.59-4.571,1.4c-1.364-0.809-2.868-1.4-4.571-1.4H100.571c-5.053,0-9.143,4.094-9.143,9.143
		s4.089,9.143,9.143,9.143h100.571c1.703,0,3.207-0.59,4.571-1.4c1.364,0.809,2.868,1.4,4.571,1.4
		c20.17,0,36.571,16.406,36.571,36.571c0,1.538,0.475,2.922,1.146,4.194c-0.671,1.272-1.146,2.656-1.146,4.194v55.612h-27.429
		c-5.053,0-9.143,4.094-9.143,9.143v27.429H45.643C20.473,214.857,0,235.326,0,260.482v146.464
		c0,25.156,20.473,45.625,45.643,45.625h420.705c25.17,0,45.652-20.469,45.652-45.625V260.482
		C512,235.326,491.518,214.857,466.348,214.857z"/>
	<rect x="228.571" y="196.571" style="fill:#314E55;" width="54.857" height="18.286"/>
</g>
<path style="fill:#EAEAEA;" d="M493.714,406.947c0,15.076-12.277,27.339-27.366,27.339H45.643c-15.08,0-27.357-12.263-27.357-27.339
	V260.482c0-15.076,12.277-27.339,27.357-27.339h173.786h73.143h173.777c15.089,0,27.366,12.263,27.366,27.339V406.947z"/>
<path style="fill:#314E55;" d="M141.652,306.286h-4.509v-4.513c0-17.679-14.357-32.058-32-32.058s-32,14.379-32,32.058v4.513h-4.509
	c-17.678,0-32.062,14.357-32.062,32c0,17.643,14.384,32,32.062,32h4.509v4.513c0,17.679,14.357,32.058,32,32.058
	s32-14.379,32-32.058v-4.513h4.509c17.678,0,32.062-14.357,32.062-32C173.714,320.643,159.33,306.286,141.652,306.286z"/>
<path style="fill:#E65F58;" d="M141.652,352H128c-5.053,0-9.143,4.094-9.143,9.143v13.656c0,7.594-6.152,13.772-13.714,13.772
	c-7.563,0-13.714-6.178-13.714-13.772v-13.656c0-5.049-4.089-9.143-9.143-9.143H68.634c-7.598,0-13.777-6.152-13.777-13.714
	c0-7.563,6.179-13.714,13.777-13.714h13.652c5.053,0,9.143-4.094,9.143-9.143v-13.656c0-7.594,6.152-13.772,13.714-13.772
	c7.563,0,13.714,6.179,13.714,13.772v13.656c0,5.049,4.089,9.143,9.143,9.143h13.652c7.598,0,13.777,6.152,13.777,13.714
	C155.429,345.848,149.25,352,141.652,352z"/>
<path style="fill:#314E55;" d="M429.714,292.571c0-17.643-14.357-32-32-32c-17.643,0-32,14.357-32,32s14.357,32,32,32
	C415.357,324.571,429.714,310.214,429.714,292.571z"/>
<circle style="fill:#5ECB66;" cx="397.714" cy="292.571" r="13.714"/>
<path style="fill:#314E55;" d="M352,342.857c-17.643,0-32,14.357-32,32c0,17.643,14.357,32,32,32c17.643,0,32-14.357,32-32
	C384,357.214,369.643,342.857,352,342.857z"/>
<circle style="fill:#5ECB66;" cx="352" cy="374.857" r="13.714"/>
<path style="fill:#314E55;" d="M443.429,342.857c-17.643,0-32,14.357-32,32c0,17.643,14.357,32,32,32s32-14.357,32-32
	C475.429,357.214,461.072,342.857,443.429,342.857z"/>
<circle style="fill:#5ECB66;" cx="443.429" cy="374.857" r="13.714"/>
<g>
	<path style="fill:#314E55;" d="M240.393,290.679l-18.286,18.286c-3.571,3.571-3.571,9.357,0,12.928
		c1.786,1.786,4.125,2.679,6.464,2.679s4.679-0.893,6.464-2.679l18.286-18.286c3.571-3.571,3.571-9.357,0-12.928
		C249.75,287.107,243.964,287.107,240.393,290.679z"/>
	<path style="fill:#314E55;" d="M295.25,290.679l-18.286,18.286c-3.571,3.571-3.571,9.357,0,12.928
		c1.786,1.786,4.125,2.679,6.464,2.679s4.679-0.893,6.464-2.679l18.286-18.286c3.571-3.571,3.571-9.357,0-12.928
		C304.607,287.107,298.822,287.107,295.25,290.679z"/>
</g>
<g>
</g>
<g>
</g>
<g>
</g>
<g>
</g>
<g>
</g>
<g>
</g>
<g>
</g>
<g>
</g>
<g>
</g>
<g>
</g>
<g>
</g>
<g>
</g>
<g>
</g>
<g>
</g>
<g>
</g>
</svg>
