<?xml version="1.0" encoding="iso-8859-1"?>
<!-- Generator: Adobe Illustrator 19.0.0, SVG Export Plug-In . SVG Version: 6.00 Build 0)  -->
<svg version="1.1" id="Layer_1" xmlns="http://www.w3.org/2000/svg" xmlns:xlink="http://www.w3.org/1999/xlink" x="0px" y="0px"
	 viewBox="0 0 512 512" style="enable-background:new 0 0 512 512;" xml:space="preserve">
<path style="fill:#314E55;" d="M463.679,120.755h-68.01c-0.008,0-0.016,0-0.025,0H48.321C21.679,120.755,0,142.415,0,169.047V380.01
	c0,3.547,1.943,6.811,5.066,8.5c3.104,1.67,6.896,1.528,9.877-0.415l113.519-74.132h255.028l113.491,75.66
	c1.613,1.075,3.481,1.623,5.358,1.623c1.566,0,3.132-0.377,4.557-1.142c3.142-1.679,5.104-4.953,5.104-8.519V169.047
	C512,142.415,490.321,120.755,463.679,120.755z M435.17,325.197l21.271-39.884l25.043,16.695l-22.372,39.151L435.17,325.197z
	 M399.535,301.439l23.653-38.295l17.093,11.396l-21.271,39.883L399.535,301.439z M345.384,294.642L359.737,256h45.16l-23.867,38.642
	H345.384z M300.607,294.642L304.9,256h34.222l-14.353,38.642H300.607z M182.4,294.642L168.048,256h29.391l4.294,38.642H182.4z
	 M135.8,294.642L111.933,256h35.499l14.353,38.642H135.8z M92.844,314.148l-21.124-39.609l20.514-13.676l23.627,38.254
	L92.844,314.148z M52.505,340.49l-21.99-38.482l25.043-16.695l21.037,39.445L52.505,340.49z M190.999,198.038l4.294,38.642h-34.421
	l-14.352-38.642H190.999z M139.342,178.717l-14.352-38.642h59.569l4.293,38.642H139.342z M360.651,198.038l-14.353,38.642h-39.251
	l4.294-38.642H360.651z M313.488,178.717l4.293-38.642h64.399l-14.353,38.642H313.488z M489.398,155.946
	c2.028,3.953,3.281,8.363,3.281,13.101v7.245l-11.826,22.174l-13.025-7.598L489.398,155.946z M488.459,225.281l4.22,2.462v54.675
	l-1.587,2.777l-25.515-17.01L488.459,225.281z M449.417,257.41l-16.07-10.713l24.321-39.377l14.083,8.215L449.417,257.41z
	 M440.697,198.038l-23.973,38.814c-0.153-0.021-0.305,0.016-0.459,0.002c-0.301-0.028-0.56-0.175-0.869-0.175h-48.483l14.353-38.642
	H440.697z M287.602,236.679H260.83v-38.642h31.066L287.602,236.679z M241.509,236.679h-26.772l-4.294-38.642h31.066V236.679z
	 M140.257,236.679h-33.992c-1.765,0-3.328,0.6-4.751,1.425c-0.267-0.158-0.569-0.217-0.848-0.348l-24.532-39.719h49.771
	L140.257,236.679z M82.075,244.416L62.583,257.41l-22.334-41.876l17.633-10.286L82.075,244.416z M46.423,268.184l-25.515,17.01
	l-1.587-2.776v-54.675l4.22-2.462L46.423,268.184z M216.884,256h24.626v38.642h-20.332L216.884,256z M260.83,256h24.626
	l-4.293,38.642H260.83V256z M475.055,142.41l-22.425,36.307h-64.188l14.353-38.642h60.885
	C467.717,140.075,471.559,140.913,475.055,142.41z M298.337,140.075l-4.294,38.642H260.83v-38.642H298.337z M241.509,178.717
	h-33.213l-4.294-38.642h37.506V178.717z M104.375,140.075l14.353,38.642H67.623c-0.221,0-0.406,0.111-0.623,0.126
	c-0.62,0.038-1.205,0.206-1.816,0.366c-0.198,0.053-0.412,0.057-0.604,0.122l-23.594-38.2c2.357-0.62,4.786-1.055,7.336-1.055
	H104.375z M24.994,151.998l22.729,36.799l-16.576,9.669l-11.826-22.174v-7.245C19.321,162.656,21.47,156.795,24.994,151.998z
	 M19.321,321.356l16.981,29.716L19.321,362.16V321.356z M475.225,351.901l17.454-30.545v42.182L475.225,351.901z"/>
<g>
</g>
<g>
</g>
<g>
</g>
<g>
</g>
<g>
</g>
<g>
</g>
<g>
</g>
<g>
</g>
<g>
</g>
<g>
</g>
<g>
</g>
<g>
</g>
<g>
</g>
<g>
</g>
<g>
</g>
</svg>
