<?xml version="1.0" encoding="iso-8859-1"?>
<!-- Generator: Adobe Illustrator 19.0.0, SVG Export Plug-In . SVG Version: 6.00 Build 0)  -->
<svg version="1.1" id="Layer_1" xmlns="http://www.w3.org/2000/svg" xmlns:xlink="http://www.w3.org/1999/xlink" x="0px" y="0px"
	 viewBox="0 0 512 512" style="enable-background:new 0 0 512 512;" xml:space="preserve">
<path style="fill:#314E55;" d="M256,365.088c-28.877,0-57.819,1.272-85.333,3.764V191.236l174.343-73.408
	c3.519-1.481,5.806-4.926,5.806-8.741s-2.287-7.259-5.806-8.741L170.667,26.94V14.171c0-5.236-4.241-9.481-9.481-9.481
	c-5.241,0-9.481,4.245-9.481,9.481v19.065V184.94v185.84C66.802,380.503,0,402.577,0,436.199c0,46.685,128.787,71.111,256,71.111
	s256-24.426,256-71.111S383.213,365.088,256,365.088z"/>
<polygon style="fill:#E65F58;" points="316.898,109.088 170.667,170.662 170.667,47.514 "/>
<path style="fill:#5ECB66;" d="M256,488.347c-144.695,0-237.037-30.884-237.037-52.148c0-15.561,49.502-36.262,132.741-46.252
	v35.806c-2.425-0.539-4.166-1.211-5.139-1.752c-1.167-3.912-4.796-6.764-9.083-6.764c-5.241,0-9.481,4.245-9.481,9.481
	c0,11.343,13.333,18.963,33.185,18.963s33.185-7.62,33.185-18.963c0-5.236-4.241-9.481-9.481-9.481
	c-4.287,0-7.917,2.852-9.083,6.764c-0.973,0.542-2.714,1.213-5.139,1.752V387.91c25.79-2.435,54.35-3.859,85.333-3.859
	c144.695,0,237.037,30.884,237.037,52.148S400.695,488.347,256,488.347z"/>
<g>
</g>
<g>
</g>
<g>
</g>
<g>
</g>
<g>
</g>
<g>
</g>
<g>
</g>
<g>
</g>
<g>
</g>
<g>
</g>
<g>
</g>
<g>
</g>
<g>
</g>
<g>
</g>
<g>
</g>
</svg>
