<?xml version="1.0" encoding="iso-8859-1"?>
<!-- Generator: Adobe Illustrator 19.0.0, SVG Export Plug-In . SVG Version: 6.00 Build 0)  -->
<svg version="1.1" id="Layer_1" xmlns="http://www.w3.org/2000/svg" xmlns:xlink="http://www.w3.org/1999/xlink" x="0px" y="0px"
	 viewBox="0 0 512 512" style="enable-background:new 0 0 512 512;" xml:space="preserve">
<path style="fill:#314E55;" d="M367.101,405.38c-15.175-3.459-30.584-3.596-31.231-3.596c-0.023,0-0.041,0-0.06,0
	c-3.821,0-7.298,2.395-8.734,5.936c-0.339,0.835-8.546,20.396-34.782,26.194c-11.285,2.486-25.909-3.45-41.424-9.716
	c-21.932-8.872-46.792-18.909-69.939-7.147c-19.781,10.074-27.786,31.938-21.414,58.48c3.046,12.707,12.115,34.204,26.777,34.204
	c6.89,0,37.64,0.67,64.77,1.257c24.263,0.523,46.892,1.009,51.448,1.009c16.23,0,46.594-32.369,63.71-67.921
	c5.794-12.037,6.266-13.212,7.606-24.231l0.509-4.129C374.941,410.921,371.812,406.453,367.101,405.38z"/>
<path style="fill:#81A4E3;" d="M349.293,435.932c-16.519,34.305-40.91,56.003-46.782,57.278c-4.519,0-26.969-0.486-51.039-1.009
	c-27.235-0.587-55.356-1.202-64.049-1.257c-3.798-2.908-11.468-17.469-11.184-33.185c0.206-11.533,4.656-19.597,13.216-23.955
	c15.542-7.89,34.396-0.266,54.37,7.808c17.487,7.074,35.575,14.377,52.521,10.652c26.336-5.817,39.566-22.322,45.048-31.46
	c3.436,0.202,8.129,0.596,13.18,1.349C353.921,426.317,353.059,428.106,349.293,435.932z"/>
<g>
	<path style="fill:#314E55;" d="M498.608,0.546c-4.895-1.748-10.257,0.839-11.982,5.734L355.27,378.8
		c-1.729,4.899,0.839,10.267,5.734,11.992c1.032,0.358,2.087,0.532,3.124,0.532c3.872,0,7.5-2.413,8.858-6.266L504.342,12.529
		C506.072,7.634,503.503,2.271,498.608,0.546z"/>
	<path style="fill:#314E55;" d="M63.489,397.618c-31.084,0-56.37,25.286-56.37,56.37s25.286,56.37,56.37,56.37
		s56.37-25.286,56.37-56.37S94.573,397.618,63.489,397.618z"/>
</g>
<path style="fill:#D8D8D8;" d="M63.489,491.568c-20.721,0-37.58-16.854-37.58-37.58s16.859-37.58,37.58-37.58
	s37.58,16.854,37.58,37.58S84.21,491.568,63.489,491.568z"/>
<g>
</g>
<g>
</g>
<g>
</g>
<g>
</g>
<g>
</g>
<g>
</g>
<g>
</g>
<g>
</g>
<g>
</g>
<g>
</g>
<g>
</g>
<g>
</g>
<g>
</g>
<g>
</g>
<g>
</g>
</svg>
