<?xml version="1.0" encoding="iso-8859-1"?>
<!-- Generator: Adobe Illustrator 19.0.0, SVG Export Plug-In . SVG Version: 6.00 Build 0)  -->
<svg version="1.1" id="Layer_1" xmlns="http://www.w3.org/2000/svg" xmlns:xlink="http://www.w3.org/1999/xlink" x="0px" y="0px"
	 viewBox="0 0 512 512" style="enable-background:new 0 0 512 512;" xml:space="preserve">
<path style="fill:#314E55;" d="M497.692,296.589l-43.795-43.795c-1.935-1.94-4.695-2.908-7.377-2.534
	c-2.717,0.334-5.129,1.905-6.535,4.257c-1.397,2.348-3.081,4.504-5.008,6.427c-12.533,12.537-32.729,12.698-45.045,0.399
	c-12.307-12.307-12.125-32.512,0.391-45.036c1.953-1.94,4.105-3.619,6.423-4.995c2.361-1.402,3.94-3.815,4.279-6.535
	c0.339-2.725-0.59-5.451-2.534-7.39l-14.234-14.234c-39.49-39.495-104.168-39.087-144.153,0.92l-6.483,6.483
	c-0.969,0.97-1.601,2.12-2.029,3.331L130.388,92.684l6.284-6.284c1.727-1.727,2.664-4.088,2.604-6.531
	c-0.065-2.272-1.066-4.379-2.666-5.979l6.346-6.346c3.472-3.472,3.472-9.096,0-12.567c-3.472-3.472-9.096-3.472-12.568,0
	l-6.973,6.974l-13.268-11.873l7.673-7.677c3.472-3.472,3.472-9.1,0-12.567c-3.472-3.472-9.096-3.472-12.567,0l-8.371,8.373
	L83.617,26.338l9.069-9.072c3.472-3.472,3.472-9.1,0-12.567c-3.472-3.472-9.096-3.472-12.567,0l-9.766,9.77l-13.633-12.2
	c-3.515-3.146-8.879-3.003-12.212,0.338L2.604,44.506c-3.333,3.333-3.489,8.697-0.338,12.212l12.2,13.634l-9.761,9.761
	c-3.472,3.472-3.472,9.096,0,12.567c1.736,1.736,4.01,2.604,6.284,2.604s4.548-0.868,6.284-2.604l9.064-9.063l11.874,13.27
	l-8.37,8.37c-3.472,3.472-3.472,9.096,0,12.567c1.736,1.736,4.01,2.604,6.284,2.604c2.274,0,4.548-0.868,6.284-2.604l7.673-7.672
	l11.871,13.266l-6.976,6.974c-3.472,3.467-3.472,9.096,0,12.567c1.736,1.736,4.01,2.604,6.284,2.604s4.548-0.868,6.284-2.604
	l6.349-6.347c1.604,1.597,3.704,2.602,5.984,2.662c0.078,0.004,0.165,0.004,0.243,0.004c2.352,0,4.617-0.933,6.284-2.604
	l6.284-6.284l100.63,100.627c-0.152,0.132-0.345,0.181-0.489,0.326l-8.74,8.744c-19.355,19.355-30.117,44.993-30.316,72.202
	c-0.2,27.261,10.242,52.822,29.388,71.964l14.234,14.23c1.935,1.935,4.643,2.882,7.386,2.534c2.725-0.338,5.129-1.918,6.535-4.274
	c1.38-2.313,3.055-4.474,4.991-6.41c6.084-6.084,14.138-9.469,22.67-9.53c8.549-0.295,16.43,3.181,22.375,9.131
	c12.307,12.307,12.125,32.512-0.391,45.036c-1.953,1.94-4.105,3.619-6.423,4.995c-2.361,1.402-3.94,3.815-4.279,6.535
	c-0.338,2.725,0.59,5.451,2.534,7.39l43.795,43.795c9.547,9.547,22.106,14.312,34.726,14.312c12.819,0,25.69-4.917,35.507-14.737
	l130.449-130.444C516.743,347.336,516.934,315.831,497.692,296.589z"/>
<g>
	<polygon style="fill:#D8D8D8;" points="51.129,21.119 117.465,80.477 111.547,86.394 111.537,86.4 98.969,98.97 80.474,117.463 
		21.117,51.128 	"/>
	<polygon style="fill:#D8D8D8;" points="111.537,111.537 117.821,105.251 256.08,243.511 243.513,256.079 105.253,117.823 	"/>
</g>
<path style="fill:#E4AD40;" d="M484.7,354.249L354.251,484.694c-12.559,12.55-32.781,12.737-45.097,0.425l-36.618-36.622
	c0.33-0.312,0.66-0.634,0.981-0.955c19.459-19.459,19.632-50.943,0.399-70.176c-9.33-9.335-21.663-14.503-35.064-14.338
	c-13.236,0.091-25.708,5.325-35.125,14.742c-0.321,0.321-0.634,0.642-0.946,0.972l-7.056-7.056
	c-15.753-15.753-24.345-36.8-24.18-59.266c0.165-22.51,9.078-43.735,25.109-59.765l8.74-8.744c0.144-0.144,0.193-0.338,0.326-0.49
	l31.51,31.51c1.736,1.736,4.01,2.604,6.284,2.604c2.274,0,4.548-0.868,6.284-2.604l25.135-25.135c3.472-3.472,3.472-9.096,0-12.567
	l-32.076-32.076c1.211-0.427,2.361-1.059,3.331-2.029l6.483-6.483c33.059-33.068,86.445-33.48,119.018-0.92l7.056,7.06
	c-0.33,0.312-0.66,0.634-0.981,0.955c-19.459,19.459-19.632,50.943-0.399,70.176c19.242,19.242,50.739,19.059,70.171-0.395
	c0.33-0.321,0.651-0.651,0.963-0.985l36.626,36.626C497.441,321.468,497.25,341.699,484.7,354.249z"/>
<path style="fill:#314E55;" d="M274.932,274.93c-17.324,17.324-17.324,45.518,0,62.842c8.662,8.666,20.04,12.997,31.427,12.997
	c11.378,0,22.757-4.331,31.419-12.997c17.324-17.324,17.324-45.518,0-62.842C320.446,257.598,292.247,257.615,274.932,274.93z"/>
<path style="fill:#EAEAEA;" d="M325.21,325.204c-10.389,10.393-27.305,10.402-37.711,0c-10.389-10.398-10.389-27.309,0-37.707
	c5.199-5.195,12.029-7.794,18.86-7.794c6.822,0,13.652,2.599,18.851,7.794C335.599,297.895,335.599,314.807,325.21,325.204z"/>
<g>
</g>
<g>
</g>
<g>
</g>
<g>
</g>
<g>
</g>
<g>
</g>
<g>
</g>
<g>
</g>
<g>
</g>
<g>
</g>
<g>
</g>
<g>
</g>
<g>
</g>
<g>
</g>
<g>
</g>
</svg>
