<?xml version="1.0" encoding="iso-8859-1"?>
<!-- Generator: Adobe Illustrator 19.0.0, SVG Export Plug-In . SVG Version: 6.00 Build 0)  -->
<svg version="1.1" id="Layer_1" xmlns="http://www.w3.org/2000/svg" xmlns:xlink="http://www.w3.org/1999/xlink" x="0px" y="0px"
	 viewBox="0 0 512 512" style="enable-background:new 0 0 512 512;" xml:space="preserve">
<path style="fill:#314E55;" d="M171.298,373.977l-28.776-107.376c-4.168-15.575-14.162-28.595-28.133-36.668
	c-13.962-8.073-30.235-10.211-45.747-6.052c-15.566,4.168-28.577,14.153-36.623,28.106c-7.255,12.59-9.657,27.056-7,41.211
	l-18.143,4.861c-4.947,1.323-7.883,6.415-6.56,11.362L29.13,416.96c0.634,2.374,2.193,4.403,4.322,5.636
	c1.423,0.816,3.026,1.241,4.639,1.241c0.806,0,1.613-0.109,2.401-0.317l19.699-5.278c10.54,19.445,30.896,31.744,52.912,31.744
	c5.146-0.009,10.374-0.671,15.575-2.066C160.788,439.312,179.905,406.142,171.298,373.977z"/>
<g>
	<polygon style="fill:#E9E7D1;" points="20.64,313.579 29.6,311.178 39.422,347.835 53.609,400.796 44.65,403.197 	"/>
	<path style="fill:#E9E7D1;" d="M123.875,429.998c-22.264,5.924-45.169-7.314-51.157-29.581l-15.112-56.404l-13.662-51
		c-2.899-10.809-1.423-22.089,4.15-31.757c5.572-9.659,14.578-16.563,25.351-19.453c3.579-0.961,7.212-1.432,10.827-1.432
		c7.239,0,14.388,1.903,20.839,5.627c9.676,5.599,16.599,14.615,19.489,25.406l28.776,107.376
		C159.338,401.059,146.11,424.036,123.875,429.998z"/>
</g>
<path style="fill:#314E55;" d="M512,424.933c0-22.509-13.746-42.701-34.369-51.284l17.209-64.229
	c1.323-4.947-1.613-10.039-6.56-11.362l-18.143-4.861c2.658-14.155,0.255-28.621-7-41.211
	c-8.046-13.953-21.057-23.938-36.623-28.106c-15.539-4.159-31.784-2.021-45.747,6.052c-13.971,8.073-23.965,21.093-28.133,36.668
	l-28.776,107.376c-8.607,32.165,10.51,65.335,42.621,73.943c5.201,1.395,10.429,2.066,15.575,2.066
	c22.015-0.007,42.373-12.302,52.912-31.744l19.699,5.278c0.788,0.208,1.595,0.317,2.401,0.317c1.613,0,3.216-0.426,4.639-1.241
	c2.129-1.232,3.688-3.262,4.322-5.636l6.753-25.204c12.488,6.207,20.664,19.003,20.664,33.177c0,0.481,0.203,0.894,0.273,1.355
	c-0.07,0.461-0.273,0.874-0.273,1.355c0,20.468-16.644,37.112-37.112,37.112H297.291c-4.146-15.963-18.538-27.834-35.768-27.834
	H205.8c-20.45,0-37.085,16.644-37.085,37.112c0,20.468,16.635,37.112,37.085,37.112h55.722c17.23,0,31.622-11.871,35.768-27.834
	h159.042c30.697,0,55.668-24.971,55.668-55.668c0-0.481-0.203-0.894-0.273-1.355C511.797,425.827,512,425.414,512,424.933z"/>
<g>
	<path style="fill:#E9E7D1;" d="M371.281,429.998c-22.234-5.962-35.463-28.939-29.501-51.219l28.776-107.376
		c2.89-10.791,9.812-19.806,19.489-25.406c6.451-3.724,13.6-5.627,20.839-5.627c3.615,0,7.248,0.471,10.827,1.432
		c10.773,2.89,19.779,9.795,25.351,19.453c5.572,9.668,7.049,20.948,4.15,31.757l-13.662,51l-15.112,56.403
		C416.45,422.683,393.482,435.922,371.281,429.998z"/>
	<polygon style="fill:#E9E7D1;" points="450.506,403.197 441.547,400.796 455.735,347.835 465.556,311.178 474.517,313.579 	"/>
</g>
<path style="fill:#5ECB66;" d="M261.522,492.588H205.8c-10.22,0-18.529-8.327-18.529-18.556s8.308-18.556,18.529-18.556h55.722
	c10.22,0,18.529,8.327,18.529,18.556S271.743,492.588,261.522,492.588z"/>
<path style="fill:#314E55;" d="M20.268,246.722c5.128,0,9.278-4.15,9.278-9.278c0-120.224,97.808-218.032,218.032-218.032
	S465.61,117.22,465.61,237.444c0,5.128,4.15,9.278,9.278,9.278s9.278-4.15,9.278-9.278c0-130.453-106.135-236.588-236.588-236.588
	S10.99,106.991,10.99,237.444C10.99,242.572,15.14,246.722,20.268,246.722z"/>
<g>
</g>
<g>
</g>
<g>
</g>
<g>
</g>
<g>
</g>
<g>
</g>
<g>
</g>
<g>
</g>
<g>
</g>
<g>
</g>
<g>
</g>
<g>
</g>
<g>
</g>
<g>
</g>
<g>
</g>
</svg>
