<?xml version="1.0" encoding="iso-8859-1"?>
<!-- Generator: Adobe Illustrator 19.0.0, SVG Export Plug-In . SVG Version: 6.00 Build 0)  -->
<svg version="1.1" id="Layer_1" xmlns="http://www.w3.org/2000/svg" xmlns:xlink="http://www.w3.org/1999/xlink" x="0px" y="0px"
	 viewBox="0 0 512 512" style="enable-background:new 0 0 512 512;" xml:space="preserve">
<path style="fill:#314E55;" d="M481.017,229.517h-28.215c-4.332-32.351-16.469-62.246-34.468-87.748l18.622-18.622
	c12.078-12.078,12.108-31.707,0.065-43.75c-5.845-5.845-13.586-9.06-21.815-9.06c-0.034,0-0.069,0-0.104,0
	c-8.233,0.026-15.987,3.267-21.841,9.121L375.36,97.36c-25.446-19.193-55.63-32.414-88.463-37.565V35.397
	c0-17.086-13.862-30.983-30.896-30.983s-30.897,13.897-30.897,30.983v24.399c-32.833,5.151-63.017,18.371-88.463,37.565
	l-17.903-17.903c-5.836-5.836-13.599-9.06-21.858-9.078c-0.026-0.009-0.056-0.009-0.086-0.009c-8.25,0-15.996,3.207-21.81,9.026
	c-5.866,5.862-9.082,13.647-9.056,21.914c0.026,8.233,3.263,15.991,9.116,21.836l18.622,18.622
	c-17.999,25.502-30.136,55.397-34.468,87.748H30.983C13.901,229.517,0,243.379,0,260.414s13.901,30.897,30.983,30.897h29.603
	c5.619,31.171,18.492,59.845,36.869,84.17c-0.197,0.165-0.442,0.232-0.627,0.416l-21.785,21.784
	c-12.078,12.078-12.108,31.707-0.065,43.75c5.845,5.845,13.586,9.06,21.815,9.06c0.034,0,0.069,0,0.104,0
	c8.233-0.026,15.987-3.267,21.841-9.121l21.785-21.784c0.419-0.419,0.647-0.963,0.969-1.449
	c24.529,17.375,53.121,29.372,84.083,34.152c-0.213,0.759-0.471,1.504-0.471,2.331v21.983c0,17.086,13.862,30.983,30.897,30.983
	s30.897-13.897,30.897-30.983v-21.983c0-0.827-0.258-1.572-0.47-2.331c30.962-4.78,59.554-16.777,84.083-34.152
	c0.323,0.487,0.55,1.03,0.969,1.449l21.784,21.784c5.836,5.836,13.599,9.06,21.858,9.078c0.026,0.009,0.056,0.009,0.086,0.009
	c8.25-0.009,15.996-3.207,21.806-9.026c5.871-5.862,9.086-13.647,9.06-21.914c-0.03-8.233-3.263-15.991-9.116-21.836l-21.784-21.784
	c-0.185-0.185-0.43-0.251-0.627-0.416c18.376-24.324,31.249-52.999,36.869-84.17h29.603c17.082,0,30.982-13.862,30.982-30.897
	S498.099,229.517,481.017,229.517z M256,128c32.117,0,61.43,11.978,83.928,31.59l-50.139,50.139
	c-9.491-6.95-21.15-11.108-33.789-11.108s-24.297,4.157-33.789,11.108l-50.139-50.139C194.569,139.978,223.883,128,256,128z
	 M128,256c0-32.117,11.978-61.431,31.59-83.928l50.139,50.139c-6.95,9.491-11.108,21.15-11.108,33.789s4.157,24.297,11.108,33.789
	l-50.139,50.139C139.978,317.43,128,288.117,128,256z M256,384c-32.117,0-61.431-11.978-83.928-31.59l50.139-50.139
	c9.491,6.95,21.15,11.108,33.789,11.108s24.297-4.157,33.789-11.108l50.139,50.139C317.43,372.022,288.117,384,256,384z
	 M352.41,339.928l-50.139-50.139c6.95-9.491,11.108-21.15,11.108-33.789s-4.157-24.297-11.108-33.789l50.139-50.139
	C372.022,194.569,384,223.883,384,256S372.022,317.43,352.41,339.928z"/>
<path style="fill:#73C9C9;" d="M256,75.034c-99.784,0-180.966,81.181-180.966,180.966S156.216,436.966,256,436.966
	S436.966,355.784,436.966,256S355.784,75.034,256,75.034z M256,128c32.117,0,61.43,11.978,83.928,31.59l-50.139,50.139
	c-9.491-6.95-21.15-11.108-33.789-11.108s-24.297,4.157-33.789,11.108l-50.139-50.139C194.569,139.978,223.883,128,256,128z
	 M128,256c0-32.117,11.978-61.431,31.59-83.928l50.139,50.139c-6.95,9.491-11.108,21.15-11.108,33.789s4.157,24.297,11.108,33.789
	l-50.139,50.139C139.978,317.43,128,288.117,128,256z M256,384c-32.117,0-61.431-11.978-83.928-31.59l50.139-50.139
	c9.491,6.95,21.15,11.108,33.789,11.108s24.297-4.157,33.789-11.108l50.139,50.139C317.43,372.022,288.117,384,256,384z
	 M352.41,339.928l-50.139-50.139c6.95-9.491,11.108-21.15,11.108-33.789s-4.157-24.297-11.108-33.789l50.139-50.139
	C372.022,194.569,384,223.883,384,256S372.022,317.43,352.41,339.928z"/>
<path style="fill:#314E55;" d="M256,110.345c-80.315,0-145.655,65.345-145.655,145.655S175.685,401.655,256,401.655
	S401.655,336.31,401.655,256S336.315,110.345,256,110.345z M256,128c32.117,0,61.43,11.978,83.928,31.59l-50.139,50.139
	c-9.491-6.95-21.15-11.108-33.789-11.108s-24.297,4.157-33.789,11.108l-50.139-50.139C194.569,139.978,223.883,128,256,128z
	 M128,256c0-32.117,11.978-61.431,31.59-83.928l50.139,50.139c-6.95,9.491-11.108,21.15-11.108,33.789s4.157,24.297,11.108,33.789
	l-50.139,50.139C139.978,317.43,128,288.117,128,256z M256,384c-32.117,0-61.431-11.978-83.928-31.59l50.139-50.139
	c9.491,6.95,21.15,11.108,33.789,11.108s24.297-4.157,33.789-11.108l50.139,50.139C317.43,372.022,288.117,384,256,384z
	 M352.41,339.928l-50.139-50.139c6.95-9.491,11.108-21.15,11.108-33.789s-4.157-24.297-11.108-33.789l50.139-50.139
	C372.022,194.569,384,223.883,384,256S372.022,317.43,352.41,339.928z"/>
<path style="fill:#F28544;" d="M216.276,256c0-21.905,17.819-39.724,39.724-39.724s39.724,17.819,39.724,39.724
	S277.905,295.724,256,295.724S216.276,277.905,216.276,256z"/>
<g>
	<path style="fill:#D8D8D8;" d="M405.746,91.94c2.534-2.534,5.875-3.931,9.414-3.948c0.017,0,0.03,0,0.043,0
		c3.513,0,6.823,1.379,9.332,3.888c5.16,5.164,5.134,13.586-0.06,18.784l-15.543,15.543l-18.728-18.724L405.746,91.94z"/>
	<path style="fill:#D8D8D8;" d="M242.759,57.379V35.397c0-7.345,5.94-13.328,13.241-13.328c7.302,0,13.241,5.983,13.241,13.328
		v21.983H242.759z"/>
	<path style="fill:#D8D8D8;" d="M87.522,110.664c-2.53-2.534-3.931-5.871-3.94-9.405c-0.013-3.535,1.366-6.862,3.888-9.379
		c2.478-2.483,5.789-3.853,9.328-3.853c0.013,0,0.022,0,0.034,0c3.565,0.017,6.91,1.405,9.422,3.914l15.543,15.543l-18.728,18.724
		l-15.543-15.543H87.522z"/>
	<path style="fill:#D8D8D8;" d="M52.966,273.655H30.983c-7.349,0-13.328-5.94-13.328-13.241c0-7.302,5.978-13.241,13.328-13.241
		h21.983V273.655z"/>
	<path style="fill:#D8D8D8;" d="M106.254,428.888c-2.534,2.534-5.875,3.931-9.414,3.948c-0.017,0-0.03,0-0.043,0
		c-3.513,0-6.823-1.379-9.332-3.888c-5.16-5.164-5.134-13.586,0.06-18.784l15.543-15.543l18.728,18.724L106.254,428.888z"/>
	<path style="fill:#D8D8D8;" d="M269.241,476.603c0,7.345-5.94,13.328-13.241,13.328c-7.302,0-13.241-5.983-13.241-13.328v-21.983
		h26.483V476.603z"/>
	<path style="fill:#D8D8D8;" d="M424.474,410.164c2.53,2.534,3.931,5.871,3.944,9.414c0.013,3.526-1.366,6.854-3.888,9.371
		c-2.487,2.491-5.965,3.879-9.362,3.853c-3.565-0.017-6.91-1.405-9.422-3.914l-15.543-15.543l18.728-18.724L424.474,410.164z"/>
	<path style="fill:#D8D8D8;" d="M481.017,273.655h-21.983v-26.483h21.983c7.349,0,13.328,5.94,13.328,13.241
		C494.345,267.716,488.366,273.655,481.017,273.655z"/>
</g>
<g>
</g>
<g>
</g>
<g>
</g>
<g>
</g>
<g>
</g>
<g>
</g>
<g>
</g>
<g>
</g>
<g>
</g>
<g>
</g>
<g>
</g>
<g>
</g>
<g>
</g>
<g>
</g>
<g>
</g>
</svg>
