<?xml version="1.0" encoding="iso-8859-1"?>
<!-- Generator: Adobe Illustrator 19.0.0, SVG Export Plug-In . SVG Version: 6.00 Build 0)  -->
<svg version="1.1" id="Layer_1" xmlns="http://www.w3.org/2000/svg" xmlns:xlink="http://www.w3.org/1999/xlink" x="0px" y="0px"
	 viewBox="0 0 512 512" style="enable-background:new 0 0 512 512;" xml:space="preserve">
<g>
	<path style="fill:#314E55;" d="M178.166,1.655c-5.392-1.1-10.663,2.355-11.782,7.748L64.869,500.018
		c-1.115,5.383,2.351,10.658,7.743,11.778c0.681,0.136,1.363,0.204,2.03,0.204c4.628,0,8.775-3.241,9.753-7.952L185.909,13.432
		C187.024,8.05,183.559,2.774,178.166,1.655z"/>
	<path style="fill:#314E55;" d="M326.212,9.402c-1.119-5.392-6.385-8.857-11.782-7.748c-5.392,1.119-8.857,6.395-7.743,11.778
		l101.515,490.615c0.978,4.711,5.125,7.952,9.753,7.952c0.667,0,1.348-0.068,2.03-0.204c5.392-1.119,8.858-6.395,7.743-11.778
		L326.212,9.402z"/>
	<path style="fill:#314E55;" d="M248.525,0c-5.504,0-9.967,4.458-9.967,9.967v464.851c0,5.509,4.463,9.967,9.967,9.967
		s9.967-4.458,9.967-9.967V9.967C258.492,4.458,254.029,0,248.525,0z"/>
	<path style="fill:#314E55;" d="M507.669,220.483c0-27.565-19.409-80.282-49.835-80.282c-30.427,0-49.835,52.716-49.835,80.282
		c0,25.718,17.15,47.234,39.868,52.184v86.148c0,5.509,4.463,9.967,9.967,9.967c5.504,0,9.967-4.458,9.967-9.967v-86.148
		C490.518,267.717,507.669,246.201,507.669,220.483z"/>
</g>
<path style="fill:#5ECB66;" d="M457.833,253.81c-16.489,0-29.901-14.951-29.901-33.327c0-22.387,16.995-60.348,29.901-60.348
	s29.901,37.961,29.901,60.348C487.734,238.859,474.322,253.81,457.833,253.81z"/>
<path style="fill:#314E55;" d="M94.035,88.555c0-24.548-17.467-71.483-44.852-71.483S4.331,64.007,4.331,88.555
	c0,22.721,14.951,41.704,34.885,46.564v74.189c0,5.509,4.463,9.967,9.967,9.967s9.967-4.458,9.967-9.967v-74.189
	C79.084,130.259,94.035,111.276,94.035,88.555z"/>
<path style="fill:#5ECB66;" d="M24.266,88.555c0-20.236,15.135-51.548,24.918-51.548s24.918,31.313,24.918,51.548
	c0,15.389-11.179,27.916-24.918,27.916S24.266,103.944,24.266,88.555z"/>
<g>
</g>
<g>
</g>
<g>
</g>
<g>
</g>
<g>
</g>
<g>
</g>
<g>
</g>
<g>
</g>
<g>
</g>
<g>
</g>
<g>
</g>
<g>
</g>
<g>
</g>
<g>
</g>
<g>
</g>
</svg>
