<?xml version="1.0" encoding="iso-8859-1"?>
<!-- Generator: Adobe Illustrator 19.0.0, SVG Export Plug-In . SVG Version: 6.00 Build 0)  -->
<svg version="1.1" id="Layer_1" xmlns="http://www.w3.org/2000/svg" xmlns:xlink="http://www.w3.org/1999/xlink" x="0px" y="0px"
	 viewBox="0 0 512 512" style="enable-background:new 0 0 512 512;" xml:space="preserve">
<path style="fill:#314E55;" d="M506.764,287.366l-129.808-65.946c-3.757-1.925-8.364-1.14-11.279,1.953
	c-2.916,3.075-3.458,7.691-1.346,11.363l61.012,105.671c0.02,0.035,0.058,0.055,0.079,0.089
	c23.658,41.112,9.514,93.817-31.571,117.543c-19.904,11.494-43.117,14.578-65.357,8.607c-22.213-5.953-40.79-20.203-52.284-40.126
	c-0.007-0.012-0.02-0.019-0.027-0.03l-134.427-232.85c6.982-6.162,12.02-14.226,14.486-23.429
	c3.308-12.345,1.617-25.24-4.775-36.305c-1.165-2.016-2.594-3.802-4.008-5.6c8.701-21.718,7.111-46.436-4.627-66.766
	c-10.223-17.708-26.726-30.38-46.481-35.669c-19.746-5.28-40.369-2.57-58.087,7.644c-36.557,21.1-49.126,68.011-28.025,104.577
	c11.78,20.382,32.322,34.033,55.49,37.365c0.853,2.131,1.69,4.271,2.859,6.294c8.849,15.335,24.969,23.913,41.519,23.913
	c5.036,0,10.097-0.899,15.023-2.541l134.494,232.964c0.016,0.028,0.04,0.045,0.056,0.073c14.057,24.313,36.734,41.706,63.862,48.969
	c9.074,2.43,18.269,3.635,27.418,3.635c18.241,0,36.239-4.785,52.462-14.148c47.461-27.411,65.458-86.444,42.889-135.263
	l60.903-35.167c3.037-1.757,4.878-5.037,4.785-8.541C511.903,292.131,509.894,288.954,506.764,287.366z M26.815,128.523
	c-15.83-27.427-6.401-62.61,21.017-78.431c13.279-7.672,28.735-9.709,43.565-5.738c14.811,3.972,27.193,13.475,34.856,26.754
	c7.75,13.416,9.595,29.389,5.496,44.135c-2.955-1.5-6.06-2.747-9.337-3.626c-12.363-3.336-25.24-1.607-36.305,4.775
	c-11.074,6.392-18.989,16.709-22.297,29.053c-0.877,3.271-1.35,6.579-1.53,9.883C47.465,151.513,34.587,141.982,26.815,128.523z"/>
<path style="fill:#F28544;" d="M85.164,172.182c-3.831-6.644-4.85-14.372-2.869-21.783c1.981-7.401,6.738-13.597,13.382-17.428
	c4.513-2.607,9.438-3.841,14.307-3.841c9.924,0,19.596,5.149,24.904,14.344c3.831,6.644,4.85,14.372,2.869,21.783
	c-1.933,7.231-6.533,13.259-12.925,17.108c-0.172,0.086-0.363,0.082-0.532,0.18c-0.165,0.096-0.255,0.259-0.412,0.363
	C110.234,190.447,92.986,185.721,85.164,172.182z"/>
<polygon style="fill:#81A4E3;" points="437.136,322.549 397.028,253.079 482.355,296.439 "/>
<g>
</g>
<g>
</g>
<g>
</g>
<g>
</g>
<g>
</g>
<g>
</g>
<g>
</g>
<g>
</g>
<g>
</g>
<g>
</g>
<g>
</g>
<g>
</g>
<g>
</g>
<g>
</g>
<g>
</g>
</svg>
