<?xml version="1.0" encoding="iso-8859-1"?>
<!-- Generator: Adobe Illustrator 19.0.0, SVG Export Plug-In . SVG Version: 6.00 Build 0)  -->
<svg version="1.1" id="Layer_1" xmlns="http://www.w3.org/2000/svg" xmlns:xlink="http://www.w3.org/1999/xlink" x="0px" y="0px"
	 viewBox="0 0 512 512" style="enable-background:new 0 0 512 512;" xml:space="preserve">
<path style="fill:#314E55;" d="M375.692,387.942c-1.708-1.778-4.065-2.783-6.53-2.783h-36.284c-4.8,0-8.768,3.742-9.047,8.534
	c-2.079,35.86-31.874,63.947-67.831,63.947s-65.752-28.087-67.831-63.947c-0.279-4.791-4.247-8.534-9.047-8.534h-4.663V9.06
	c0-5.003-4.057-9.06-9.06-9.06c-5.003,0-9.06,4.057-9.06,9.06v376.099h-13.502c-2.464,0-4.822,1.004-6.53,2.783
	c-1.712,1.774-2.619,4.172-2.522,6.636C136.379,460.422,190.062,512,256,512s119.621-51.578,122.214-117.423
	C378.311,392.113,377.404,389.716,375.692,387.942z"/>
<path style="fill:#E4AD40;" d="M256,493.88c-52.985,0-96.683-39.094-103.319-90.601H171c6.538,41.275,42.35,72.481,85,72.481
	c42.65,0,78.462-31.206,85-72.481h18.319C352.684,454.786,308.985,493.88,256,493.88z"/>
<g>
</g>
<g>
</g>
<g>
</g>
<g>
</g>
<g>
</g>
<g>
</g>
<g>
</g>
<g>
</g>
<g>
</g>
<g>
</g>
<g>
</g>
<g>
</g>
<g>
</g>
<g>
</g>
<g>
</g>
</svg>
