<?xml version="1.0" encoding="utf-8"?>
<!-- Generator: Adobe Illustrator 21.1.0, SVG Export Plug-In . SVG Version: 6.00 Build 0)  -->
<svg version="1.1" id="Layer_1" xmlns="http://www.w3.org/2000/svg" xmlns:xlink="http://www.w3.org/1999/xlink" x="0px" y="0px"
	 viewBox="0 0 500 500" style="enable-background:new 0 0 500 500;" xml:space="preserve">
<style type="text/css">
	.st0{enable-background:new    ;}
</style>
<g id="_x32_-user_-_single_add" class="st0">
	<g id="_x32_-user_-_single_add_1_">
		<g>
			<path d="M342.4,327.9c-19.1-20.9-42.7-37.5-69.5-48.1c42.8-24.1,71.8-69.9,71.8-122.6c0-77.6-63-140.6-140.6-140.6
				c-77.7,0-140.6,63-140.6,140.6c0,52.7,29,98.5,71.8,122.6C65.8,307.3,16.6,374.9,16.6,454.1v31.3h31.3v-31.3
				c0-86.3,70-156.2,156.2-156.2c46.6,0,88,20.8,116.6,53.2C326.9,342.4,334.3,334.8,342.4,327.9z M94.7,157.2
				c0-60.4,49-109.4,109.4-109.4c60.4,0,109.4,49,109.4,109.4c0,60.4-49,109.4-109.4,109.4C143.7,266.6,94.7,217.6,94.7,157.2z
				 M469.7,391.6h-46.9v-46.9c0-8.6-7-15.6-15.6-15.6s-15.6,7-15.6,15.6v46.9h-46.9c-8.6,0-15.6,7-15.6,15.6c0,8.6,7,15.6,15.6,15.6
				h46.9v46.9c0,8.6,7,15.6,15.6,15.6s15.6-7,15.6-15.6v-46.9h46.9c8.6,0,15.6-7,15.6-15.6C485.4,398.6,478.4,391.6,469.7,391.6z"/>
		</g>
	</g>
</g>
<g id="Layer_1_1_">
</g>
</svg>
