<?xml version="1.0" encoding="utf-8"?>
<!-- Generator: Adobe Illustrator 21.1.0, SVG Export Plug-In . SVG Version: 6.00 Build 0)  -->
<svg version="1.1" id="Arrow_1_" xmlns="http://www.w3.org/2000/svg" xmlns:xlink="http://www.w3.org/1999/xlink" x="0px" y="0px"
	 viewBox="0 0 500 500" style="enable-background:new 0 0 500 500;" xml:space="preserve">
<g>
	<g>
		<path d="M318.2,60.6v281.2c-15.2-5.2-19.2-8.4-30.3-8.4c-33.5,0-60.6,27.1-60.6,60.6s27.1,60.6,60.6,60.6s60.6-27.1,60.6-60.6
			V272.7c0,0,15.2-30.3,15.2-60.6s0-60.6,0-90.9S318.2,60.6,318.2,60.6z M287.9,424.3c-16.7,0-30.3-13.6-30.3-30.3
			c0-16.7,13.6-30.3,30.3-30.3c16.7,0,30.3,13.6,30.3,30.3C318.2,410.7,304.6,424.3,287.9,424.3z"/>
		<path d="M193,194.1c21.4,21.4,42.9,42.9,64.3,64.3c21.4,21.4,53.5,32.1,53.5,32.1l85.7,85.7c23.7,23.7,62,23.7,85.7,0
			s23.7-62,0-85.7s-62-23.7-85.7,0c-7.8,7.8-12.8,17.4-15.5,27.4L182.3,119C182.3,119,171.5,172.6,193,194.1z M418,354.8
			c-11.8-11.8-11.8-31,0-42.9c11.8-11.8,31-11.8,42.9,0c11.8,11.8,11.8,31,0,42.9C449,366.6,429.8,366.6,418,354.8z"/>
	</g>
	<g>
		<path d="M181.8,45.4h-30.3c-4.2,0-7.6,3.4-7.6,7.6s3.4,7.6,7.6,7.6h30.3c4.2,0,7.6-3.4,7.6-7.6S186,45.4,181.8,45.4L181.8,45.4z
			 M121.2,45.4H90.9c-4.2,0-7.6,3.4-7.6,7.6s3.4,7.6,7.6,7.6h30.3c4.2,0,7.6-3.4,7.6-7.6S125.4,45.4,121.2,45.4L121.2,45.4z
			 M60.6,45.4H30.3l0,0c-4.2,0-7.6,3.4-7.6,7.6s3.4,7.6,7.6,7.6h30.3c4.2,0,7.6-3.4,7.6-7.6S64.8,45.4,60.6,45.4L60.6,45.4z
			 M11.2,55.9c-2.5,0-4.9,1.2-6.4,3.5c-0.9,1.4-1.7,2.9-2.4,4.4l0,0c0,0.1-0.1,0.2-0.1,0.2l0,0c0,0,0,0,0,0.1l0,0c0,0,0,0.1-0.1,0.1
			l0,0v0.1l0,0l0,0l0,0v0.1l0,0l0,0l0,0l0,0l0,0l0,0l0,0l0,0l0,0l0,0l0,0l0,0l0,0l0,0l0,0l0,0l0,0l0,0l0,0l0,0l0,0l0,0l0,0l0,0l0,0
			l0,0l0,0l0,0l0,0l0,0l0,0l0,0l0,0l0,0l0,0l0,0l0,0l0,0l0,0l0,0l0,0l0,0l0,0l0,0l0,0l0,0l0,0l0,0l0,0l0,0l0,0l0,0l0,0l0,0l0,0l0,0
			l0,0l0,0l0,0l0,0l0,0l0,0l0,0l0,0l0,0l0,0l0,0l0,0l0,0l0,0l0,0l0,0l0,0l0,0c0,0,0,0,0,0.1l0,0l0,0l0,0l0,0l0,0l0,0l0,0l0,0l0,0
			l0,0l0,0l0,0l0,0v0.1l0,0l0,0l0,0v0.1l0,0l0,0l0,0l0,0l0,0l0,0l0,0v0.1l0,0v0.1l0,0l0,0l0,0c0,0.1,0,0.2-0.1,0.2l0,0
			c0,0,0,0,0,0.1l0,0v0.1l0,0c0,0.1,0,0.2-0.1,0.2l0,0c-0.9,2.3-1,2.4-1,2.5l0,0c-0.1,0.3-0.2,0.5-0.2,0.8l0,0
			c0,0.2-0.1,0.3-0.1,0.5l0,0c0,0.1,0,0.1,0,0.2l0,0v0.1l0,0v0.1l0,0v0.1l0,0l0,0l0,0c0,0,0,0,0,0.1l0,0V70l0,0v0.1l0,0l0,0l0,0v0.1
			l0,0v0.1l0,0l0,0l0,0v0.1l0,0v0.1l0,0l0,0l0,0v0.1l0,0v0.1l0,0c0,0,0,0,0,0.1l0,0l0,0l0,0v0.1l0,0l0,0l0,0l0,0l0,0l0,0l0,0V71l0,0
			v0.1l0,0v0.1l0,0l0,0l0,0v0.1l0,0v0.1l0,0l0,0l0,0v0.1l0,0c0,0.1,0,0.1,0,0.2l0,0v0.1l0,0l0,0l0,0c0,0,0,0,0,0.1l0,0V72l0,0l0,0
			l0,0v0.1l0,0l0,0l0,0l0,0l0,0l0,0l0,0v0.1l0,0l0,0l0,0l0,0l0,0l0,0l0,0v0.1l0,0l0,0l0,0l0,0l0,0l0,0l0,0l0,0l0,0l0,0l0,0l0,0l0,0
			v0.1l0,0l0,0l0,0l0,0l0,0l0,0l0,0v0.1l0,0l0,0l0,0l0,0l0,0l0,0l0,0v0.1l0,0l0,0l0,0c0,0,0,0,0,0.1l0,0l0,0l0,0l0,0l0,0l0,0l0,0
			l0,0l0,0v0.1l0,0l0,0l0,0l0,0l0,0l0,0l0,0l0,0l0,0l0,0l0,0l0,0l0,0l0,0l0,0l0,0l0,0l0,0l0,0l0,0l0,0l0,0l0,0l0,0l0,0l0,0l0,0l0,0
			l0,0l0,0l0,0l0,0l0,0l0,0l0,0l0,0l0,0l0,0l0,0l0,0l0,0l0,0l0,0l0,0l0,0l0,0l0,0l0,0l0,0l0,0l0,0l0,0l0,0l0,0l0,0l0,0l0,0l0,0l0,0
			l0,0v13c0,4.2,3.4,7.6,7.6,7.6s7.6-3.4,7.6-7.6v-13c0-2.9,0.8-5.7,2.4-8.2c2.3-3.5,1.2-8.2-2.3-10.5C14,56.3,12.6,55.9,11.2,55.9
			L11.2,55.9z M7.6,111.5c-4.2,0-7.6,3.4-7.6,7.6v30.3c0,4.2,3.4,7.6,7.6,7.6s7.6-3.4,7.6-7.6v-30.3
			C15.2,114.9,11.8,111.5,7.6,111.5L7.6,111.5z M7.6,172.1c-4.2,0-7.6,3.4-7.6,7.6V210c0,4.2,3.4,7.6,7.6,7.6s7.6-3.4,7.6-7.6v-30.3
			C15.2,175.5,11.8,172.1,7.6,172.1L7.6,172.1z M7.6,232.7c-4.2,0-7.6,3.4-7.6,7.6v17.3c0,0,0,0,0,0.1l0,0l0,0l0,0l0,0l0,0l0,0l0,0
			l0,0l0,0l0,0l0,0l0,0l0,0l0,0l0,0l0,0l0,0l0,0l0,0l0,0l0,0l0,0l0,0l0,0l0,0c0,0,0,0,0,0.1l0,0l0,0l0,0l0,0l0,0l0,0l0,0l0,0l0,0
			l0,0l0,0l0,0l0,0l0,0l0,0l0,0l0,0l0,0l0,0l0,0l0,0l0,0l0,0l0,0l0,0l0,0l0,0l0,0l0,0l0,0l0,0l0,0l0,0l0,0l0,0l0,0l0,0l0,0l0,0l0,0
			l0,0l0,0l0,0l0,0l0,0l0,0l0,0l0,0l0,0l0,0v0.1l0,0l0,0l0,0l0,0l0,0l0,0l0,0l0,0l0,0l0,0l0,0l0,0l0,0l0,0l0,0l0,0l0,0l0,0l0,0l0,0
			l0,0l0,0l0,0c0,0.1,0,0.2,0,0.2l0,0l0,0l0,0l0,0l0,0l0,0l0,0l0,0l0,0l0,0l0,0l0,0l0,0l0,0l0,0l0,0l0,0c0,0.1,0,0.3,0,0.4l0,0l0,0
			l0,0l0,0l0,0c0,0,0,0,0,0.1l0,0l0,0l0,0c0,0.2,0.1,0.4,0.1,0.6l0,0l0,0l0,0c0.4,2.9,1.3,5.6,2.4,8.2c1.3,2.8,4,4.4,6.9,4.4
			c1,0,2.1-0.2,3.2-0.7c3.8-1.7,5.5-6.2,3.7-10c-0.9-2-1.4-4.1-1.4-6.3v-17.3C15.2,236.1,11.8,232.7,7.6,232.7L7.6,232.7z
			 M27.1,272.5c-3.7,0-7,2.7-7.5,6.5c-0.6,4.1,2.3,7.9,6.4,8.5c0.8,0.1,1.6,0.2,2.5,0.3l0,0l0,0l0,0h0.1l0,0l0,0l0,0c0,0,0,0,0.1,0
			l0,0l0,0l0,0h0.1l0,0l0,0l0,0l0,0l0,0l0,0l0,0l0,0c0,0,0,0,0.1,0l0,0l0,0l0,0l0,0l0,0l0,0l0,0c0,0,0,0,0.1,0l0,0l0,0l0,0l0,0l0,0
			l0,0l0,0c0,0,0,0,0.1,0l0,0l0,0l0,0c0,0,0,0,0.1,0l0,0c0,0,0,0,0.1,0l0,0c0,0,0,0,0.1,0l0,0c0,0,0,0,0.1,0l0,0c0,0,0,0,0.1,0l0,0
			l0,0h26c4.2,0,7.6-3.4,7.6-7.6s-3.4-7.6-7.6-7.6h-26c-0.7,0-1.5-0.1-2.2-0.2C27.8,272.5,27.4,272.5,27.1,272.5L27.1,272.5z
			 M116.9,272.7H86.6c-4.2,0-7.6,3.4-7.6,7.6s3.4,7.6,7.6,7.6h30.3c4.2,0,7.6-3.4,7.6-7.6S121.1,272.7,116.9,272.7L116.9,272.7z
			 M177.5,272.7h-30.3c-4.2,0-7.6,3.4-7.6,7.6s3.4,7.6,7.6,7.6h30.3c4.2,0,7.6-3.4,7.6-7.6S181.7,272.7,177.5,272.7L177.5,272.7z
			 M238.1,272.7h-30.3c-4.2,0-7.6,3.4-7.6,7.6s3.4,7.6,7.6,7.6h30.3c4.2,0,7.6-3.4,7.6-7.6S242.3,272.7,238.1,272.7L238.1,272.7z
			 M265.2,241.3c-4.2,0-7.6,3.4-7.6,7.6v8.7c0,4.7-2,8-3.7,9.9c-2.7,3.2-2.4,7.9,0.8,10.7c1.4,1.2,3.2,1.8,5,1.8
			c2.1,0,4.2-0.9,5.7-2.6c1.6-1.9,3-3.9,4.1-6.1l0,0c0.1-0.1,0.1-0.3,0.2-0.4l0,0l0,0l0,0l0,0l0,0c0-0.1,0.1-0.2,0.1-0.2l0,0l0,0
			l0,0l0,0l0,0l0,0l0,0l0,0l0,0l0,0l0,0c0,0,0-0.1,0.1-0.2l0,0l0,0l0,0l0,0l0,0l0,0l0,0l0,0l0,0l0,0l0,0l0,0l0,0v-0.1l0,0l0,0l0,0
			l0,0l0,0l0,0l0,0l0,0l0,0l0,0l0,0l0,0l0,0l0,0l0,0c0,0,0-0.1,0.1-0.1l0,0l0,0l0,0l0,0l0,0l0,0l0,0l0,0l0,0l0,0l0,0l0,0l0,0l0,0
			l0,0v-0.1l0,0l0,0l0,0l0,0l0,0l0,0l0,0l0,0l0,0l0,0l0,0l0,0l0,0l0,0l0,0v-0.1l0,0l0,0l0,0l0,0l0,0l0,0l0,0l0,0l0,0l0,0l0,0l0,0
			l0,0c0-0.1,0-0.1,0.1-0.2l0,0l0,0l0,0l0,0l0,0l0,0l0,0l0,0l0,0l0,0l0,0l0,0l0,0v-0.1l0,0l0,0l0,0l0,0l0,0l0,0l0,0l0,0l0,0l0,0l0,0
			l0,0l0,0l0,0l0,0v-0.1l0,0l0,0l0,0l0,0l0,0l0,0l0,0l0,0l0,0l0,0l0,0l0,0l0,0v-0.1l0,0l0,0l0,0l0,0l0,0l0,0l0,0l0,0l0,0l0,0l0,0
			l0,0l0,0l0,0l0,0l0,0l0,0l0,0l0,0l0,0l0,0l0,0l0,0l0,0l0,0l0,0l0,0l0,0l0,0l0,0l0,0l0,0l0,0l0,0l0,0v-0.1l0,0l0,0l0,0l0,0l0,0l0,0
			l0,0l0,0l0,0l0,0l0,0l0,0l0,0l0,0l0,0v-0.1l0,0v0.1l0,0l0,0l0,0l0,0l0,0l0,0l0,0l0,0l0,0l0,0l0,0l0,0l0,0v-0.1l0,0l0,0l0,0l0,0
			l0,0l0,0l0,0l0,0l0,0l0,0l0,0l0,0l0,0l0,0l0,0l0,0l0,0v-0.1l0,0l0,0l0,0l0,0l0,0l0,0l0,0l0,0l0,0l0,0l0,0l0,0l0,0l0,0l0,0l0,0l0,0
			l0,0l0,0l0,0l0,0l0,0l0,0l0,0l0,0l0,0l0,0l0,0l0,0l0,0l0,0l0,0l0,0l0,0l0,0v-0.1l0,0l0,0l0,0l0,0l0,0l0,0l0,0l0,0l0,0l0,0l0,0l0,0
			l0,0l0,0l0,0l0,0l0,0l0,0l0,0l0,0l0,0l0,0l0,0l0,0l0,0l0,0l0,0l0,0l0,0l0,0l0,0l0,0l0,0l0,0l0,0v-0.1l0,0l0,0l0,0l0,0l0,0l0,0l0,0
			l0,0l0,0l0,0l0,0l0,0l0,0l0,0l0,0l0,0l0,0V269l0,0l0,0l0,0l0,0l0,0l0,0l0,0l0,0l0,0l0,0l0,0l0,0l0,0l0,0l0,0l0,0l0,0l0,0l0,0l0,0
			l0,0l0,0l0,0l0,0l0,0l0,0l0,0l0,0l0,0l0,0l0,0l0,0l0,0l0,0l0,0v-0.1l0,0l0,0l0,0l0,0l0,0l0,0l0,0l0,0l0,0l0,0l0,0l0,0l0,0l0,0l0,0
			l0,0l0,0l0,0l0,0l0,0l0,0l0,0l0,0l0,0l0,0l0,0l0,0l0,0l0,0l0,0l0,0l0,0l0,0l0,0l0,0l0,0l0,0l0,0v0.1l0,0l0,0l0,0l0,0l0,0l0,0l0,0
			l0,0l0,0l0,0l0,0l0,0l0,0l0,0v-0.1l0,0l0,0l0,0l0,0l0,0l0,0l0,0l0,0l0,0l0,0l0,0l0,0l0,0l0,0l0,0l0,0l0,0l0,0l0,0l0,0l0,0l0,0l0,0
			l0,0l0,0l0,0l0,0l0,0l0,0l0,0l0,0l0,0l0,0l0,0l0,0l0,0l0,0l0,0l0,0l0,0l0,0l0,0l0,0l0,0l0,0l0,0l0,0l0,0l0,0l0,0l0,0l0,0l0,0l0,0
			l0,0v-0.1l0,0l0,0l0,0l0,0l0,0l0,0l0,0l0,0l0,0l0,0l0,0l0,0l0,0l0,0l0,0l0,0l0,0l0,0l0,0l0,0l0,0l0,0l0,0l0,0l0,0l0,0l0,0l0,0l0,0
			l0,0l0,0l0,0l0,0l0,0l0,0l0,0l0,0l0,0l0,0l0,0l0,0l0,0l0,0l0,0l0,0l0,0l0,0l0,0l0,0l0,0l0,0l0,0l0,0l0,0l0,0l0,0l0,0v-8.7
			C272.7,244.7,269.3,241.3,265.2,241.3L265.2,241.3z M265.2,180.7c-4.2,0-7.6,3.4-7.6,7.6v30.3c0,4.2,3.4,7.6,7.6,7.6
			s7.6-3.4,7.6-7.6v-30.3C272.7,184.1,269.3,180.7,265.2,180.7L265.2,180.7z M265.2,120.1c-4.2,0-7.6,3.4-7.6,7.6V158
			c0,4.2,3.4,7.6,7.6,7.6s7.6-3.4,7.6-7.6v-30.3C272.7,123.5,269.3,120.1,265.2,120.1L265.2,120.1z M264.2,61.7
			c-0.7,0-1.4,0.1-2.2,0.3c-4,1.2-6.3,5.4-5.1,9.4c0.4,1.4,0.6,2.8,0.6,4.3v21.6c0,4.2,3.4,7.6,7.6,7.6s7.6-3.4,7.6-7.6V75.7l0,0
			l0,0l0,0l0,0l0,0l0,0l0,0l0,0v-0.1l0,0l0,0l0,0l0,0l0,0l0,0l0,0l0,0l0,0l0,0l0,0l0,0l0,0l0,0l0,0l0,0l0,0l0,0l0,0l0,0l0,0l0,0l0,0
			l0,0l0,0l0,0l0,0l0,0l0,0l0,0l0,0l0,0l0,0l0,0l0,0l0,0l0,0l0,0l0,0l0,0l0,0l0,0l0,0l0,0l0,0l0,0l0,0l0,0l0,0l0,0l0,0l0,0l0,0l0,0
			l0,0l0,0l0,0l0,0l0,0l0,0l0,0l0,0l0,0l0,0l0,0l0,0l0,0l0,0l0,0l0,0l0,0l0,0l0,0l0,0l0,0l0,0v-0.1l0,0l0,0l0,0c0,0,0,0,0-0.1l0,0
			l0,0l0,0v-0.1l0,0l0,0l0,0v-0.1l0,0c0-0.1,0-0.2,0-0.2l0,0c-0.2-2-0.5-3.9-1.1-5.8C270.5,63.9,267.5,61.7,264.2,61.7L264.2,61.7z
			 M242.4,45.4h-30.3c-4.2,0-7.6,3.4-7.6,7.6s3.4,7.6,7.6,7.6h30.3l0,0c1.5,0,2.9,0.2,4.2,0.6c0.7,0.2,1.4,0.3,2.1,0.3
			c3.3,0,6.3-2.2,7.3-5.5c1.2-4-1.1-8.2-5.1-9.4c-1.5-0.4-3.1-0.8-4.7-1l0,0c-0.1,0-0.3,0-0.4,0l0,0h-0.1l0,0h-0.1l0,0l0,0l0,0l0,0
			l0,0l0,0l0,0l0,0l0,0l0,0l0,0h-0.1l0,0l0,0l0,0l0,0l0,0l0,0l0,0h-0.1l0,0l0,0l0,0l0,0l0,0l0,0l0,0l0,0l0,0l0,0l0,0h-0.1l0,0l0,0
			l0,0l0,0l0,0l0,0l0,0h-0.1l0,0l0,0l0,0l0,0l0,0l0,0l0,0l0,0l0,0l0,0l0,0l0,0l0,0l0,0l0,0l0,0l0,0l0,0l0,0l0,0l0,0l0,0l0,0l0,0l0,0
			l0,0l0,0l0,0l0,0l0,0l0,0l0,0l0,0l0,0l0,0l0,0l0,0l0,0l0,0l0,0l0,0l0,0l0,0l0,0l0,0l0,0l0,0l0,0l0,0l0,0l0,0l0,0l0,0l0,0l0,0l0,0
			l0,0l0,0l0,0l0,0l0,0l0,0l0,0l0,0l0,0l0,0l0,0l0,0l0,0l0,0l0,0l0,0l0,0l0,0l0,0l0,0l0,0l0,0l0,0l0,0l0,0l0,0l0,0
			C242.6,45.4,242.5,45.4,242.4,45.4L242.4,45.4C242.5,45.4,242.5,45.4,242.4,45.4C242.5,45.4,242.5,45.4,242.4,45.4
			C242.5,45.4,242.5,45.4,242.4,45.4L242.4,45.4z"/>
	</g>
</g>
</svg>
