<?xml version="1.0" encoding="iso-8859-1"?>
<!-- Generator: Adobe Illustrator 19.0.0, SVG Export Plug-In . SVG Version: 6.00 Build 0)  -->
<svg version="1.1" id="Layer_1" xmlns="http://www.w3.org/2000/svg" xmlns:xlink="http://www.w3.org/1999/xlink" x="0px" y="0px"
	 viewBox="0 0 512 512" style="enable-background:new 0 0 512 512;" xml:space="preserve">
<path style="fill:#314E55;" d="M447.488,403.228l11.799-11.799c3.661-3.661,3.661-9.591,0-13.251l-33.129-33.137l6.626-6.626
	c1.757-1.757,2.746-4.136,2.746-6.626c0-2.489-0.988-4.869-2.746-6.625l-212.05-212.041c-3.661-3.661-9.591-3.661-13.251,0
	l-99.404-99.404C99.239,4.878,87.479,0,74.96,0S50.672,4.869,41.822,13.718c-18.266,18.276-18.266,48,0,66.257l99.404,99.404
	c-3.661,3.661-3.661,9.591,0,13.251l212.04,212.05c1.757,1.757,4.137,2.746,6.626,2.746c2.489,0,4.869-0.988,6.626-2.746
	l6.626-6.626l33.137,33.129c1.83,1.83,4.228,2.746,6.626,2.746s4.795-0.915,6.626-2.746l12.456-12.456
	c18.61,2.18,33.146,17.859,33.146,37.046c0,20.673-16.811,37.485-37.485,37.485H184c-5.18,0-9.371,4.191-9.371,9.371
	S178.821,512,184,512h243.65c31.005,0,56.227-25.221,56.227-56.227C483.877,431.758,468.718,411.272,447.488,403.228z"/>
<g>
	<path style="fill:#EAEAEA;" d="M55.074,26.969c5.308-5.308,12.373-8.227,19.886-8.227c7.513,0,14.569,2.919,19.868,8.227
		l6.635,6.635L61.708,73.359l-6.635-6.635C44.119,55.769,44.119,37.933,55.074,26.969z"/>
	
		<rect x="83.291" y="59.871" transform="matrix(-0.7071 0.7071 -0.7071 -0.7071 249.0735 63.4275)" style="fill:#EAEAEA;" width="56.219" height="46.855"/>
	
		<rect x="129.672" y="106.248" transform="matrix(-0.7071 0.7071 -0.7071 -0.7071 361.0444 109.8022)" style="fill:#EAEAEA;" width="56.219" height="46.855"/>
</g>
<polygon style="fill:#F28544;" points="161.103,186.005 214.109,132.999 412.907,331.788 406.281,338.414 366.518,378.177 
	359.892,384.803 "/>
<path style="fill:#EAEAEA;" d="M386.395,384.803l26.512-26.512l26.503,26.512l-15.623,15.623c-2.05,0.936-3.692,2.577-4.628,4.628
	l-6.252,6.252L386.395,384.803z"/>
<g>
</g>
<g>
</g>
<g>
</g>
<g>
</g>
<g>
</g>
<g>
</g>
<g>
</g>
<g>
</g>
<g>
</g>
<g>
</g>
<g>
</g>
<g>
</g>
<g>
</g>
<g>
</g>
<g>
</g>
</svg>
