<?xml version="1.0" encoding="iso-8859-1"?>
<!-- Generator: Adobe Illustrator 19.0.0, SVG Export Plug-In . SVG Version: 6.00 Build 0)  -->
<svg version="1.1" id="Layer_1" xmlns="http://www.w3.org/2000/svg" xmlns:xlink="http://www.w3.org/1999/xlink" x="0px" y="0px"
	 viewBox="0 0 512 512" style="enable-background:new 0 0 512 512;" xml:space="preserve">
<g>
	<path style="fill:#314E55;" d="M265.143,146.286c0-5.049-4.089-9.143-9.143-9.143c-25.205,0-45.714-20.509-45.714-45.714
		c0-5.049-4.089-9.143-9.143-9.143S192,86.379,192,91.429c0,35.29,28.714,64,64,64C261.053,155.429,265.143,151.335,265.143,146.286
		z"/>
	<path style="fill:#314E55;" d="M416.985,429.139c4.707-11.202,4.808-23.564,0.256-34.836
		c-4.571-11.321-13.286-20.183-24.527-24.955c-11.232-4.772-23.661-4.888-34.982-0.308c-10.867,4.393-19.364,12.661-24.261,23.253
		c-10.123-2.28-20.762-4.062-31.757-5.423V173.061c0-0.807-0.267-1.536-0.494-2.276c27.557-15.766,46.208-45.397,46.208-79.357
		C347.429,41.013,306.411,0,256,0s-91.429,41.013-91.429,91.429c0,33.96,18.652,63.592,46.209,79.357
		c-0.226,0.74-0.494,1.469-0.494,2.276v213.809C125.439,397.366,64,436.47,64,484.571c0,5.049,4.089,9.143,9.143,9.143h36.571v9.143
		c0,5.049,4.089,9.143,9.143,9.143s9.143-4.094,9.143-9.143v-9.143h256v9.143c0,5.049,4.089,9.143,9.143,9.143
		s9.143-4.094,9.143-9.143v-9.143h36.571c5.053,0,9.143-4.094,9.143-9.143C448,463.922,436.604,444.944,416.985,429.139z"/>
</g>
<g>
	<path style="fill:#D8D8D8;" d="M364.58,385.995c6.795-2.75,14.25-2.679,20.991,0.183c6.75,2.866,11.973,8.183,14.714,14.973
		c2.231,5.529,2.505,11.48,1.022,17.145c-14.065-8.491-30.815-15.691-49.69-21.266C354.661,392.093,359.106,388.21,364.58,385.995z"
		/>
	<path style="fill:#D8D8D8;" d="M182.857,91.429c0-40.33,32.813-73.143,73.143-73.143s73.143,32.813,73.143,73.143
		S296.33,164.571,256,164.571S182.857,131.759,182.857,91.429z"/>
</g>
<path style="fill:#E4AD40;" d="M228.571,182.857h54.857v202.239C274.462,384.449,265.359,384,256,384
	c-9.359,0-18.462,0.449-27.429,1.096V182.857z"/>
<path style="fill:#5ECB66;" d="M83.402,475.429c9.955-40.491,84.946-73.143,172.598-73.143s162.643,32.652,172.598,73.143H83.402z"
	/>
<g>
</g>
<g>
</g>
<g>
</g>
<g>
</g>
<g>
</g>
<g>
</g>
<g>
</g>
<g>
</g>
<g>
</g>
<g>
</g>
<g>
</g>
<g>
</g>
<g>
</g>
<g>
</g>
<g>
</g>
</svg>
