<?xml version="1.0" encoding="iso-8859-1"?>
<!-- Generator: Adobe Illustrator 19.0.0, SVG Export Plug-In . SVG Version: 6.00 Build 0)  -->
<svg version="1.1" id="Layer_1" xmlns="http://www.w3.org/2000/svg" xmlns:xlink="http://www.w3.org/1999/xlink" x="0px" y="0px"
	 viewBox="0 0 512 512" style="enable-background:new 0 0 512 512;" xml:space="preserve">
<path style="fill:#314E55;" d="M463.826,268.17h-46.533c-0.429-0.729-0.834-1.474-1.482-2.081
	c-0.825-0.767-50.551-47.764-85.907-104.444c58.686,13.678,112.505,17.056,141.299-23.723c14.437-20.46,13.894-44.836-1.526-68.648
	c-28.49-43.99-99.766-76.885-146.67-67.739c-24.001,4.7-39.681,20.213-44.153,43.69c-5.362,28.159,2.024,58.876,15.451,88.517
	c-5.384-1.499-10.781-3.016-16.156-4.524c-44.219-12.444-89.889-25.364-126.312-23.591c-22.515,1.076-40.118,10.001-52.319,26.537
	C70.981,170.825,81.306,240.807,86.816,268.17H39.381c-4.987,0-9.031,4.039-9.031,9.031v45.154c0,4.992,4.044,9.031,9.031,9.031
	h18.061V471.3c0,22.445,18.229,40.7,40.638,40.7s40.638-18.255,40.638-40.7V331.386h18.061c4.987,0,9.031-4.039,9.031-9.031v-45.154
	c0-4.992-4.044-9.031-9.031-9.031h-51.488c-4.618-21.843-16.553-91.015,8.769-125.301c8.942-12.109,21.58-18.388,38.632-19.199
	c33.411-1.676,77.731,10.874,120.561,22.929c10.658,2.998,21.36,6.015,32,8.846c27.342,49.377,67.435,92.951,86.916,112.725h-45.744
	c-4.987,0-9.031,4.039-9.031,9.031v45.154c0,4.992,4.044,9.031,9.031,9.031h18.061V471.3c0,22.445,18.229,40.7,40.638,40.7
	s40.638-18.255,40.638-40.7V331.386h18.061c4.987,0,9.031-4.039,9.031-9.031v-45.154C472.856,272.209,468.813,268.17,463.826,268.17
	z M296.598,48.611c3.126-16.43,12.902-26.025,29.879-29.35c39.205-7.673,103.871,22.506,128.04,59.829
	c11.465,17.7,12.113,33.989,1.931,48.408c-25.055,35.506-80.024,27.692-139.033,12.461
	C301.224,109.145,291.206,76.92,296.598,48.611z"/>
<path style="fill:#5ECB66;" d="M120.658,471.3c0,12.479-10.129,22.638-22.577,22.638s-22.577-10.16-22.577-22.638V331.385h45.154
	V471.3z"/>
<polygon style="fill:#D26CBA;" points="147.75,313.324 129.689,313.324 66.474,313.324 48.412,313.324 48.412,286.232 
	147.75,286.232 "/>
<path style="fill:#5ECB66;" d="M427.703,471.3c0,12.479-10.129,22.638-22.577,22.638c-12.448,0-22.577-10.16-22.577-22.638V331.385
	h45.154V471.3z"/>
<polygon style="fill:#D26CBA;" points="454.795,313.324 436.733,313.324 373.518,313.324 355.457,313.324 355.457,286.232 
	454.795,286.232 "/>
<g>
</g>
<g>
</g>
<g>
</g>
<g>
</g>
<g>
</g>
<g>
</g>
<g>
</g>
<g>
</g>
<g>
</g>
<g>
</g>
<g>
</g>
<g>
</g>
<g>
</g>
<g>
</g>
<g>
</g>
</svg>
