<?xml version="1.0" encoding="iso-8859-1"?>
<!-- Generator: Adobe Illustrator 19.0.0, SVG Export Plug-In . SVG Version: 6.00 Build 0)  -->
<svg version="1.1" id="Layer_1" xmlns="http://www.w3.org/2000/svg" xmlns:xlink="http://www.w3.org/1999/xlink" x="0px" y="0px"
	 viewBox="0 0 512 512" style="enable-background:new 0 0 512 512;" xml:space="preserve">
<path style="fill:#314E55;" d="M77.669,324.752c-17.206,0-31.208,14.015-31.208,31.239v124.771
	c0,17.224,14.002,31.239,31.208,31.239s31.208-14.015,31.208-31.239V355.991C108.877,338.767,94.875,324.752,77.669,324.752z"/>
<path style="fill:#E4AD40;" d="M91.043,480.762c0,7.393-6,13.405-13.375,13.405s-13.375-6.013-13.375-13.405V355.991
	c0-7.393,6-13.405,13.375-13.405s13.375,6.013,13.375,13.405V480.762z"/>
<path style="fill:#314E55;" d="M434.332,324.752c-17.206,0-31.208,14.015-31.208,31.239v124.771
	c0,17.224,14.002,31.239,31.208,31.239c17.206,0,31.208-14.015,31.208-31.239V355.991
	C465.54,338.767,451.538,324.752,434.332,324.752z"/>
<path style="fill:#E4AD40;" d="M447.707,480.762c0,7.393-6,13.405-13.375,13.405c-7.375,0-13.375-6.013-13.375-13.405V355.991
	c0-7.393,6-13.405,13.375-13.405c7.375,0,13.375,6.013,13.375,13.405V480.762z"/>
<path style="fill:#314E55;" d="M424.566,151.667c-11.176,33.916-24.898,75.634-0.894,130.501
	c-11.949,4.378-20.548,15.763-20.548,29.21c0,4.924,3.992,8.917,8.917,8.917c4.924,0,8.917-3.992,8.917-8.917
	c0-7.375,6-13.375,13.375-13.375c7.375,0,13.375,6,13.375,13.375c0,4.924,3.992,8.917,8.917,8.917c4.924,0,8.917-3.992,8.917-8.917
	c0-14.135-9.51-25.97-22.423-29.793c-25.358-51.941-12.804-90.376-1.615-124.336c16.779-50.922,31.269-94.895-94.861-145.338
	c-9.683-3.871-90.711-25.47-124.963,1.249c-8.838,6.888-12.125,14.555-15.304,21.969c-5.373,12.53-11.459,26.732-51.196,46.573
	c-11.233,5.608-20.728,9.051-29.105,12.095c-26.332,9.557-43.725,15.869-69.896,68.207c-13.636,27.268-0.2,50.243,10.593,68.703
	c12.8,21.895,18.765,34.082,3.331,50.386c-0.039,0.041-0.049,0.098-0.087,0.139c-13.497,3.437-23.554,15.595-23.554,30.145
	c0,4.924,3.992,8.917,8.917,8.917s8.917-3.992,8.917-8.917c0-7.375,6-13.375,13.375-13.375s13.375,6,13.375,13.375
	c0,4.924,3.992,8.917,8.917,8.917s8.917-3.992,8.917-8.917c0-12.469-7.404-23.175-18.002-28.169
	c13.845-22.901,1.487-44.063-8.708-61.502c-10.384-17.759-19.353-33.098-10.036-51.728c22.988-45.976,36.145-50.752,60.03-59.421
	c8.825-3.204,18.834-6.835,30.986-12.905c45.584-22.757,53.365-40.913,59.621-55.498c2.804-6.539,4.658-10.863,9.874-14.933
	c23.989-18.695,93.115-4.458,107.378,1.249C450.589,72.689,440.793,102.417,424.566,151.667z"/>
<g>
</g>
<g>
</g>
<g>
</g>
<g>
</g>
<g>
</g>
<g>
</g>
<g>
</g>
<g>
</g>
<g>
</g>
<g>
</g>
<g>
</g>
<g>
</g>
<g>
</g>
<g>
</g>
<g>
</g>
</svg>
