<?xml version="1.0" encoding="iso-8859-1"?>
<!-- Generator: Adobe Illustrator 19.0.0, SVG Export Plug-In . SVG Version: 6.00 Build 0)  -->
<svg version="1.1" id="Layer_1" xmlns="http://www.w3.org/2000/svg" xmlns:xlink="http://www.w3.org/1999/xlink" x="0px" y="0px"
	 viewBox="0 0 512 512" style="enable-background:new 0 0 512 512;" xml:space="preserve">
<path style="fill:#314E55;" d="M503.172,70.62H8.828C3.948,70.62,0,74.573,0,79.448v79.448v150.069c0,4.875,3.948,8.828,8.828,8.828
	h141.746L72.267,427.422c-2.836,3.966-1.914,9.478,2.052,12.315c3.974,2.827,9.474,1.918,12.31-2.056l85.638-119.888h167.465
	l85.638,119.888c1.724,2.414,4.431,3.698,7.19,3.698c1.776,0,3.569-0.535,5.121-1.642c3.966-2.836,4.888-8.349,2.052-12.315
	l-78.307-109.629h141.746c4.879,0,8.828-3.953,8.828-8.828V158.896V79.448C512,74.573,508.052,70.62,503.172,70.62z"/>
<rect x="17.655" y="88.275" style="fill:#81A4E3;" width="476.69" height="61.793"/>
<path style="fill:#EAEAEA;" d="M494.345,300.138H344.276H167.724H17.655V167.724h26.483v70.543c0,4.875,3.948,8.828,8.828,8.828
	s8.828-3.953,8.828-8.828v-70.543h35.31v70.543c0,4.875,3.948,8.828,8.828,8.828c4.879,0,8.828-3.953,8.828-8.828v-70.543h8.828
	v70.543c0,4.875,3.948,8.828,8.828,8.828c4.879,0,8.828-3.953,8.828-8.828v-70.543h8.828v70.543c0,4.875,3.948,8.828,8.828,8.828
	s8.828-3.953,8.828-8.828v-70.543h52.966v70.543c0,4.875,3.948,8.828,8.828,8.828s8.828-3.953,8.828-8.828v-70.543h8.828v70.543
	c0,4.875,3.948,8.828,8.828,8.828c4.879,0,8.828-3.953,8.828-8.828v-70.543h35.31v70.543c0,4.875,3.948,8.828,8.828,8.828
	s8.828-3.953,8.828-8.828v-70.543h8.828v70.543c0,4.875,3.948,8.828,8.828,8.828s8.828-3.953,8.828-8.828v-70.543h44.138v70.543
	c0,4.875,3.948,8.828,8.828,8.828c4.879,0,8.828-3.953,8.828-8.828v-70.543h8.828v70.543c0,4.875,3.948,8.828,8.828,8.828
	c4.879,0,8.828-3.953,8.828-8.828v-70.543h8.828v70.543c0,4.875,3.948,8.828,8.828,8.828c4.879,0,8.828-3.953,8.828-8.828v-70.543
	h35.31V300.138z"/>
<g>
	<path style="fill:#314E55;" d="M441.379,132.413h26.483c4.879,0,8.828-3.953,8.828-8.828s-3.948-8.828-8.828-8.828h-26.483
		c-4.879,0-8.828,3.953-8.828,8.828S436.5,132.413,441.379,132.413z"/>
	<path style="fill:#314E55;" d="M114.759,132.413c4.879,0,8.828-3.953,8.828-8.828s-3.948-8.828-8.828-8.828H52.966
		c-4.879,0-8.828,3.953-8.828,8.828s3.948,8.828,8.828,8.828H114.759z"/>
</g>
<g>
</g>
<g>
</g>
<g>
</g>
<g>
</g>
<g>
</g>
<g>
</g>
<g>
</g>
<g>
</g>
<g>
</g>
<g>
</g>
<g>
</g>
<g>
</g>
<g>
</g>
<g>
</g>
<g>
</g>
</svg>
