<?xml version="1.0" encoding="iso-8859-1"?>
<!-- Generator: Adobe Illustrator 19.0.0, SVG Export Plug-In . SVG Version: 6.00 Build 0)  -->
<svg version="1.1" id="Layer_1" xmlns="http://www.w3.org/2000/svg" xmlns:xlink="http://www.w3.org/1999/xlink" x="0px" y="0px"
	 viewBox="0 0 512 512" style="enable-background:new 0 0 512 512;" xml:space="preserve">
<path style="fill:#314E55;" d="M129.261,396.676V160.829c0-5.545-4.496-10.041-10.041-10.041H19.241
	c-3.368,0-6.511,1.687-8.374,4.496c-1.858,2.809-2.187,6.364-0.873,9.463l99.978,235.846c1.598,3.771,5.281,6.124,9.242,6.124
	c0.662,0,1.334-0.064,2.005-0.201C125.897,405.565,129.261,401.451,129.261,396.676z"/>
<polygon style="fill:#73C9C9;" points="109.178,347.258 34.406,170.871 109.178,170.871 "/>
<path style="fill:#314E55;" d="M147.779,406.516c0.672,0.137,1.344,0.201,2.005,0.201c3.962,0,7.644-2.358,9.242-6.124
	l99.978-235.846c1.314-3.099,0.986-6.653-0.873-9.463c-1.863-2.809-5.006-4.496-8.374-4.496H149.78
	c-5.545,0-10.041,4.496-10.041,10.041v235.846C139.739,401.451,143.102,405.565,147.779,406.516z"/>
<polygon style="fill:#F28544;" points="159.821,170.871 234.593,170.871 159.821,347.258 "/>
<path style="fill:#314E55;" d="M149.78,140.575h99.978c3.893,0,7.433-2.251,9.09-5.771c1.652-3.525,1.123-7.688-1.363-10.684
	L157.507,3.623c-2.706-3.256-7.168-4.457-11.135-3.03c-3.981,1.437-6.634,5.212-6.634,9.443v120.497
	C139.739,136.079,144.235,140.575,149.78,140.575z"/>
<polygon style="fill:#73C9C9;" points="159.821,37.866 228.381,120.492 159.821,120.492 "/>
<path style="fill:#314E55;" d="M19.241,140.575h99.978c5.545,0,10.041-4.496,10.041-10.041V10.036c0-4.231-2.652-8.007-6.634-9.443
	c-3.957-1.427-8.428-0.225-11.135,3.03L11.514,124.12c-2.486,2.996-3.015,7.159-1.363,10.684
	C11.808,138.324,15.348,140.575,19.241,140.575z"/>
<polygon style="fill:#F28544;" points="109.178,37.866 109.178,120.492 40.619,120.492 "/>
<path style="fill:#314E55;" d="M491.282,147.851c-83.867,12.449-123.066,26.398-139.81,49.756
	c-14.469,20.186-10.159,43.921-4.702,73.972c6.443,35.493,14.459,79.66-2.143,140.869c-12.89,47.525-37.778,74.811-71.977,78.905
	c-48.555,5.795-105.214-34.316-127.842-75.423c-2.667-4.854-8.767-6.629-13.64-3.957c-4.854,2.672-6.629,8.781-3.952,13.64
	C151.138,469.079,208.175,512,263.045,512c4.011,0,8.017-0.23,11.993-0.706c29.982-3.589,69.756-22.74,88.976-93.589
	c17.788-65.588,8.958-114.211,2.515-149.709c-4.79-26.369-8.247-45.417,1.265-58.689c12.836-17.901,50.648-30.34,126.44-41.588
	c5.486-0.814,9.272-5.923,8.458-11.409C501.877,150.827,496.788,147.047,491.282,147.851z"/>
<g>
</g>
<g>
</g>
<g>
</g>
<g>
</g>
<g>
</g>
<g>
</g>
<g>
</g>
<g>
</g>
<g>
</g>
<g>
</g>
<g>
</g>
<g>
</g>
<g>
</g>
<g>
</g>
<g>
</g>
</svg>
