<?xml version="1.0" encoding="iso-8859-1"?>
<!-- Generator: Adobe Illustrator 19.0.0, SVG Export Plug-In . SVG Version: 6.00 Build 0)  -->
<svg version="1.1" id="Layer_1" xmlns="http://www.w3.org/2000/svg" xmlns:xlink="http://www.w3.org/1999/xlink" x="0px" y="0px"
	 viewBox="0 0 512 512" style="enable-background:new 0 0 512 512;" xml:space="preserve">
<path style="fill:#314E55;" d="M133.393,219.506c15.916-8.654,58.205-27.21,89.111-24.913
	c-50.582,51.114-77.839,86.703-77.839,121.815c0,12.354,1.185,23.029,2.241,32.446c1.811,16.286,2.601,25.733-2.181,30.48
	c-4.43,4.395-10.568,12.873-16.406,22.677c-1.614,2.717-1.648,6.091-0.086,8.842c1.562,2.747,4.481,4.447,7.641,4.447h226.932
	c3.554,0,6.765-2.146,8.121-5.434c1.365-3.288,0.601-7.07-1.914-9.581c-15.324-15.277-30.322-44.281-14.766-95.695
	c26.132-86.38,22.827-192.502-46.203-221.364C246.627,57.54,200.939,64.391,199.016,64.691c-1.648,0.262-3.185,0.992-4.438,2.095
	L93.259,156.309c-3.202,2.833-3.906,7.559-1.665,11.199l30.116,48.882C124.165,220.369,129.281,221.742,133.393,219.506z"/>
<path style="fill:#E4AD40;" d="M204.15,81.788c9.744-0.914,48.204-2.79,97.112,17.655c56.342,23.565,60.841,118.479,36.159,200.057
	c-14.345,47.41-4.885,78.994,7.211,98.219H152.194c2.069-2.777,3.76-4.76,4.911-5.906c11.049-10.958,9.297-26.69,7.271-44.903
	c-0.996-8.962-2.129-19.123-2.129-30.502c0-31.33,30.785-67.97,83.968-120.664c2.103-2.09,3.013-5.095,2.421-8.001
	s-2.61-5.318-5.366-6.413c-35.954-14.324-90.931,9.293-110.839,18.947l-21.986-35.692L204.15,81.788z"/>
<path style="fill:#314E55;" d="M371.597,424.091H125.452c-4.859,0-8.791,3.936-8.791,8.791v70.327c0,4.855,3.932,8.791,8.791,8.791
	h246.145c4.859,0,8.791-3.936,8.791-8.791v-70.327C380.388,428.027,376.456,424.091,371.597,424.091z"/>
<rect x="134.244" y="441.676" style="fill:#E4AD40;" width="228.563" height="52.745"/>
<g>
	<path style="fill:#314E55;" d="M418.625,207.83c10.885-66.734-7.057-119.583-53.338-157.086
		C310.619,6.447,218.598,0.266,214.7,0.026c-2.447-0.193-4.799,0.708-6.559,2.369c-1.769,1.661-2.773,3.979-2.773,6.404v40.01
		c0,4.855,3.932,8.791,8.791,8.791c4.859,0,8.791-3.936,8.791-8.791V18.458c24.321,2.734,90.553,12.954,131.262,45.946
		c41.027,33.241,56.857,80.543,47.054,140.594c-3.357,20.599-10.654,44.65-17.702,67.91c-9.091,29.983-17.676,58.304-17.676,78.354
		c0,37.168,22.441,58.995,23.394,59.905c1.7,1.618,3.872,2.421,6.044,2.421c2.309,0,4.61-0.906,6.344-2.7
		c3.357-3.485,3.245-9.04-0.223-12.414c-0.73-0.717-17.977-17.826-17.977-47.212c0-17.444,8.216-44.551,16.921-73.254
		C407.61,254.201,415.071,229.58,418.625,207.83z"/>
	<path style="fill:#314E55;" d="M189.469,140.568c1.425,0,2.876-0.348,4.215-1.077l29.326-16.045
		c4.258-2.331,5.82-7.675,3.485-11.933c-2.327-4.262-7.675-5.82-11.933-3.494l-29.326,16.045c-4.258,2.331-5.82,7.675-3.485,11.933
		C183.348,138.916,186.362,140.568,189.469,140.568z"/>
</g>
<g>
</g>
<g>
</g>
<g>
</g>
<g>
</g>
<g>
</g>
<g>
</g>
<g>
</g>
<g>
</g>
<g>
</g>
<g>
</g>
<g>
</g>
<g>
</g>
<g>
</g>
<g>
</g>
<g>
</g>
</svg>
