<?xml version="1.0" encoding="iso-8859-1"?>
<!-- Generator: Adobe Illustrator 19.0.0, SVG Export Plug-In . SVG Version: 6.00 Build 0)  -->
<svg version="1.1" id="Layer_1" xmlns="http://www.w3.org/2000/svg" xmlns:xlink="http://www.w3.org/1999/xlink" x="0px" y="0px"
	 viewBox="0 0 512 512" style="enable-background:new 0 0 512 512;" xml:space="preserve">
<path style="fill:#314E55;" d="M441.891,77.627c-0.109-0.129-0.158-0.29-0.276-0.415c-0.852-0.9-1.785-1.717-2.65-2.603
	c-2.526-2.594-5.115-5.137-7.769-7.63c-1.216-1.141-2.415-2.296-3.654-3.412c-3.762-3.393-7.633-6.694-11.636-9.878
	c-0.855-0.679-1.744-1.317-2.608-1.984c-3.42-2.645-6.926-5.207-10.514-7.691c-1.204-0.833-2.406-1.666-3.625-2.478
	c-4.423-2.948-8.923-5.817-13.591-8.512c-4.679-2.701-9.427-5.17-14.204-7.532c-1.283-0.635-2.574-1.244-3.866-1.856
	c-3.986-1.885-7.998-3.66-12.04-5.315c-0.98-0.402-1.944-0.839-2.929-1.228c-4.766-1.88-9.567-3.584-14.394-5.149
	c-1.591-0.517-3.196-0.979-4.796-1.464c-3.466-1.046-6.941-2.011-10.43-2.897c-1.218-0.311-2.409-0.716-3.632-1.009
	c-0.171-0.041-0.34-0.002-0.511-0.033c-80.529-18.968-166.005,3.936-226.26,60.628c-0.132,0.111-0.297,0.161-0.424,0.281
	c-0.923,0.874-1.761,1.831-2.67,2.719c-2.552,2.487-5.054,5.035-7.508,7.646c-1.168,1.245-2.351,2.473-3.494,3.742
	c-3.378,3.747-6.664,7.601-9.834,11.587c-0.698,0.88-1.353,1.792-2.04,2.682c-2.629,3.402-5.176,6.887-7.646,10.455
	c-0.836,1.208-1.671,2.413-2.486,3.636c-2.947,4.422-5.816,8.923-8.51,13.59c-2.683,4.647-5.137,9.362-7.485,14.106
	c-0.678,1.369-1.328,2.748-1.98,4.127c-1.807,3.828-3.51,7.68-5.103,11.56c-0.465,1.128-0.967,2.24-1.414,3.374
	c-1.843,4.682-3.517,9.399-5.056,14.14c-0.557,1.71-1.054,3.435-1.573,5.157c-0.996,3.317-1.92,6.644-2.771,9.982
	c-0.329,1.286-0.757,2.546-1.065,3.837c-0.043,0.179-0.002,0.355-0.033,0.534C2.453,270.843,25.355,356.31,82.033,416.557
	c0.113,0.134,0.164,0.3,0.285,0.429c0.878,0.927,1.839,1.769,2.731,2.682c2.481,2.546,5.023,5.042,7.628,7.491
	c1.25,1.172,2.482,2.36,3.756,3.506c3.746,3.377,7.598,6.664,11.584,9.832c0.872,0.692,1.778,1.342,2.659,2.023
	c3.408,2.635,6.901,5.187,10.477,7.662c1.206,0.834,2.41,1.669,3.631,2.482c4.422,2.947,8.923,5.817,13.59,8.51
	c5.038,2.908,10.142,5.599,15.292,8.114c1.869,0.913,3.788,1.694,5.675,2.558c3.309,1.514,6.613,3.042,9.96,4.397
	c2.396,0.972,4.835,1.812,7.258,2.707c2.868,1.058,5.73,2.137,8.62,3.082c2.758,0.905,5.548,1.69,8.335,2.496
	c2.56,0.738,5.118,1.484,7.691,2.135c1.158,0.295,2.29,0.681,3.452,0.958c0.502,0.119,0.998,0.143,1.494,0.176
	c18.338,4.241,36.915,6.443,55.405,6.443c62.289,0,123.326-23.637,169.593-67.049c0.222-0.173,0.493-0.249,0.702-0.445
	c0.693-0.657,1.32-1.378,2.006-2.042c1.95-1.886,3.825-3.865,5.719-5.823c2.015-2.087,4.058-4.143,5.998-6.3
	c2.133-2.367,4.161-4.854,6.211-7.317c1.592-1.915,3.24-3.78,4.775-5.744c2.378-3.04,4.623-6.222,6.874-9.397
	c1.089-1.538,2.253-3.016,3.309-4.579c3.245-4.807,6.355-9.747,9.298-14.845c2.699-4.676,5.167-9.419,7.526-14.192
	c0.645-1.302,1.263-2.613,1.883-3.925c1.87-3.957,3.631-7.939,5.274-11.95c0.414-1.009,0.864-2.003,1.264-3.017
	c1.869-4.741,3.563-9.517,5.12-14.319c0.532-1.635,1.007-3.285,1.504-4.929c1.024-3.401,1.971-6.812,2.842-10.235
	c0.319-1.249,0.735-2.471,1.035-3.725c0.041-0.174,0.002-0.345,0.033-0.52C521.487,223.36,498.581,137.881,441.891,77.627z
	 M383.105,253.639c-0.213,4.003-0.634,7.961-1.229,11.877c-0.209,1.356-0.482,2.7-0.737,4.048c-0.56,2.986-1.234,5.942-2.018,8.869
	c-0.428,1.588-0.865,3.174-1.359,4.747c-0.882,2.818-1.909,5.594-3.003,8.35c-0.56,1.412-1.063,2.84-1.678,4.236
	c-1.796,4.071-3.762,8.091-6.027,12.012c-2.276,3.945-4.815,7.726-7.515,11.383c-0.66,0.898-1.386,1.734-2.069,2.61
	c-2.168,2.773-4.425,5.474-6.821,8.047c-0.787,0.847-1.598,1.668-2.408,2.491c-2.495,2.531-5.1,4.948-7.804,7.249
	c-0.788,0.67-1.561,1.359-2.366,2.008c-3.198,2.581-6.52,5.001-9.964,7.237c-10.568,6.858-22.214,12.158-34.736,15.514
	c-12.578,3.369-25.373,4.591-38.014,3.913c-3.969-0.214-7.891-0.629-11.774-1.218c-1.385-0.213-2.758-0.492-4.136-0.754
	c-2.945-0.553-5.859-1.219-8.747-1.991c-1.627-0.437-3.25-0.885-4.861-1.391c-2.763-0.867-5.486-1.876-8.191-2.946
	c-1.46-0.577-2.935-1.098-4.378-1.733c-4.059-1.792-8.067-3.753-11.974-6.011c-3.938-2.271-7.711-4.805-11.362-7.498
	c-0.934-0.686-1.803-1.441-2.714-2.151c-2.726-2.134-5.382-4.352-7.913-6.705c-0.891-0.827-1.754-1.679-2.619-2.532
	c-2.473-2.441-4.835-4.987-7.087-7.629c-0.719-0.845-1.458-1.673-2.153-2.537c-2.496-3.096-4.831-6.315-7.004-9.642
	c-6.94-10.636-12.306-22.365-15.689-34.989c-3.388-12.639-4.603-25.496-3.903-38.193c0.215-3.893,0.619-7.744,1.196-11.553
	c0.218-1.423,0.504-2.835,0.774-4.25c0.548-2.906,1.205-5.783,1.965-8.633c0.443-1.651,0.898-3.3,1.412-4.935
	c0.86-2.738,1.86-5.435,2.919-8.115c0.584-1.479,1.111-2.973,1.755-4.433c1.791-4.054,3.749-8.057,6.004-11.961
	c2.64-4.573,5.578-8.862,8.699-12.954c1.125-1.474,2.401-2.818,3.591-4.238c2.134-2.544,4.279-5.075,6.589-7.408
	c1.395-1.414,2.899-2.709,4.36-4.051c2.378-2.175,4.779-4.316,7.303-6.278c1.438-1.123,2.937-2.158,4.425-3.214
	c20.607-14.571,45.225-22.504,70.326-22.504c2.213,0,4.429,0.089,6.646,0.211c3.748,0.209,7.454,0.607,11.124,1.152
	c1.206,0.179,2.411,0.368,3.615,0.584c3.667,0.659,7.293,1.479,10.873,2.475c1.107,0.307,2.207,0.651,3.308,0.99
	c3.741,1.159,7.444,2.452,11.076,3.983c0.687,0.289,1.365,0.621,2.049,0.923c3.991,1.77,7.936,3.691,11.782,5.912
	c3.945,2.275,7.725,4.814,11.38,7.513c0.901,0.663,1.74,1.391,2.62,2.077c2.771,2.166,5.469,4.421,8.04,6.815
	c0.848,0.788,1.668,1.599,2.492,2.409c2.529,2.493,4.944,5.095,7.244,7.798c0.673,0.792,1.365,1.567,2.017,2.376
	c2.579,3.196,4.998,6.517,7.233,9.959c6.858,10.569,12.159,22.215,15.515,34.737C382.547,228.252,383.773,241.023,383.105,253.639z"
	/>
<path style="fill:#E4AD40;" d="M487.253,289.158l-86.048-41.878c-0.003-12.088-1.446-24.248-4.657-36.237
	c-3.213-11.994-8.046-23.253-14.092-33.728l53.582-79.29C480.948,150.567,499.873,221.199,487.253,289.158z"/>
<g>
	<path style="fill:#5ECB66;" d="M482.873,308.33c-1.103,3.967-2.314,7.902-3.631,11.805c-0.498,1.479-1.065,2.944-1.594,4.417
		c-1.013,2.809-2.06,5.607-3.183,8.378c-0.61,1.508-1.245,3.01-1.89,4.51c-1.231,2.86-2.527,5.694-3.875,8.508
		c-0.607,1.269-1.192,2.543-1.825,3.804c-2.024,4.034-4.136,8.031-6.402,11.958c-2.263,3.919-4.665,7.74-7.142,11.505
		c-0.681,1.037-1.391,2.049-2.088,3.073c-1.958,2.874-3.97,5.705-6.051,8.481c-0.671,0.898-1.34,1.798-2.023,2.685
		c-5.715,7.397-11.842,14.45-18.407,21.079c-0.042,0.043-0.086,0.083-0.128,0.126l-76.74-51.857c0.24-0.188,0.454-0.409,0.692-0.599
		c6.691-5.315,12.922-11.211,18.556-17.723c0.118-0.137,0.219-0.288,0.337-0.425c2.747-3.2,5.388-6.505,7.855-9.971
		c2.609-3.651,5.048-7.427,7.295-11.32c2.243-3.885,4.29-7.875,6.144-11.95c5.471-11.966,9.105-24.512,11.003-37.307
		c0.042-0.285,0.122-0.563,0.163-0.849l83.23,40.5C483.061,307.55,482.98,307.942,482.873,308.33z"/>
	<path style="fill:#5ECB66;" d="M201.608,468.273c-8.945-2.447-17.727-5.474-26.325-9c-1.077-0.442-2.146-0.907-3.218-1.366
		c-3.157-1.351-6.283-2.782-9.383-4.276c-1.13-0.545-2.265-1.074-3.388-1.639c-4.024-2.021-8.013-4.127-11.929-6.389
		c-3.904-2.252-7.708-4.645-11.458-7.109c-1.091-0.716-2.157-1.464-3.234-2.197c-2.79-1.903-5.54-3.857-8.238-5.876
		c-0.976-0.729-1.954-1.454-2.917-2.197c-7.325-5.665-14.312-11.736-20.882-18.235c-0.076-0.076-0.15-0.155-0.226-0.23
		l51.853-76.735c0.228,0.291,0.495,0.55,0.726,0.839c8.006,10.05,17.363,19.036,28.013,26.612c3.647,2.605,7.419,5.04,11.307,7.284
		c3.538,2.043,7.16,3.859,10.817,5.572c0.743,0.347,1.488,0.682,2.237,1.016c7.715,3.45,15.655,6.173,23.752,8.151
		c0.182,0.044,0.363,0.084,0.545,0.127c4.212,1.011,8.457,1.854,12.736,2.463l-40.515,83.258
		C201.791,468.319,201.699,468.298,201.608,468.273z"/>
	<path style="fill:#5ECB66;" d="M124.185,226.561c-0.049,0.328-0.141,0.649-0.188,0.977l-83.274-40.523
		c0.027-0.099,0.05-0.199,0.077-0.298c2.444-8.927,5.463-17.691,8.982-26.274c0.451-1.098,0.925-2.19,1.393-3.282
		c1.342-3.133,2.761-6.236,4.244-9.313c0.553-1.147,1.09-2.298,1.663-3.438c2.019-4.018,4.122-8.001,6.381-11.913
		c2.593-4.491,5.324-8.853,8.17-13.1c0.709-1.059,1.491-2.062,2.217-3.108c2.2-3.167,4.416-6.317,6.75-9.342
		c0.838-1.088,1.744-2.118,2.601-3.19c2.339-2.919,4.691-5.823,7.151-8.603c0.819-0.927,1.691-1.803,2.525-2.717
		c2.13-2.329,4.298-4.613,6.512-6.84l76.652,51.797c-1.731,1.359-3.327,2.88-4.993,4.32c-1.447,1.245-2.928,2.435-4.328,3.745
		c-1.668,1.567-3.217,3.252-4.807,4.9c-1.579,1.633-3.2,3.209-4.707,4.929c-1.563,1.786-2.979,3.691-4.451,5.555
		c-1.335,1.691-2.734,3.309-3.998,5.076c-2.665,3.715-5.163,7.553-7.451,11.52c-2.244,3.886-4.293,7.878-6.149,11.955
		C129.707,201.315,126.088,213.814,124.185,226.561z"/>
	<path style="fill:#5ECB66;" d="M281.529,109.129l40.493-83.215c3.375,0.915,6.732,1.942,10.08,3.019
		c1.03,0.332,2.079,0.607,3.105,0.955c3.34,1.127,6.646,2.422,9.953,3.713c1.405,0.549,2.834,1.029,4.228,1.606
		c3.188,1.317,6.335,2.804,9.485,4.276c1.428,0.668,2.886,1.262,4.302,1.96c4.513,2.224,8.984,4.602,13.402,7.153
		c3.913,2.259,7.728,4.658,11.487,7.13c1.211,0.797,2.385,1.629,3.577,2.446c2.537,1.738,5.041,3.517,7.501,5.351
		c1.335,0.996,2.661,1.999,3.969,3.02c2.331,1.818,4.611,3.696,6.867,5.6c1.213,1.024,2.452,2.024,3.639,3.071
		c3.096,2.726,6.118,5.532,9.061,8.422c0.28,0.275,0.539,0.567,0.818,0.843l-51.826,76.696c-0.188-0.24-0.409-0.454-0.599-0.692
		c-5.315-6.692-11.212-12.923-17.725-18.558c-0.11-0.095-0.231-0.176-0.341-0.271c-3.223-2.771-6.558-5.432-10.052-7.919
		c-3.651-2.609-7.427-5.048-11.32-7.295c-3.976-2.296-8.069-4.374-12.243-6.262c-1.797-0.814-3.633-1.444-5.449-2.176
		c-2.402-0.967-4.781-1.985-7.23-2.817c-1.95-0.662-3.925-1.154-5.89-1.725c-2.427-0.707-4.837-1.454-7.297-2.029
		c-1.664-0.386-3.338-0.638-5.009-0.961C286.187,110.015,283.876,109.464,281.529,109.129z"/>
</g>
<g>
	<path style="fill:#E4AD40;" d="M262.358,17.934c13.882,0,27.827,1.318,41.664,3.888l-41.912,86.117
		c-24.505,0.018-48.631,6.479-69.861,18.716l-79.377-53.64C154.716,37.243,208.042,17.934,262.358,17.934z"/>
	<path style="fill:#E4AD40;" d="M36.563,204.983l86.167,41.936c0.005,12.087,1.449,24.247,4.663,36.236
		c3.212,11.994,8.043,23.251,14.086,33.724l-53.656,79.4c-22.04-25.69-38.235-56.19-47.254-89.853
		C31.546,272.763,30.321,238.252,36.563,204.983z"/>
	<path style="fill:#E4AD40;" d="M219.85,472.503l41.862-86.014c0.01,0,0.02,0.001,0.031,0.001c12.096-0.009,24.28-1.598,36.28-4.81
		c11.994-3.213,23.252-8.047,33.727-14.092l79.402,53.657c-25.692,22.043-56.194,38.24-89.858,47.259
		C287.632,477.523,253.12,478.746,219.85,472.503z"/>
</g>
<g>
	<path style="fill:#314E55;" d="M320.978,199.71c-5.021-2.589-49.763-24.833-74.974-7.865c-11.824,7.962-16.88,22.331-15.028,42.723
		c5.407,59.48-38.29,68.223-40.107,68.557c-4.889,0.843-8.172,5.486-7.33,10.384c0.755,4.371,4.547,7.461,8.848,7.461
		c0.5,0,1.018-0.044,1.536-0.132c0.614-0.105,61.894-11.543,54.96-87.904c-1.211-13.343,1.194-22.156,7.154-26.167
		c13.861-9.375,46.401,3.634,56.698,8.919c4.398,2.265,9.831,0.536,12.105-3.871C327.114,207.4,325.384,201.984,320.978,199.71z"/>
	<path style="fill:#314E55;" d="M75.998,433.023c-25.272,0.851-73.06,16.591-73.06,69.988c0,4.968,4.02,8.989,8.989,8.989
		s8.989-4.02,8.989-8.989c0-49.236,53.345-51.931,55.715-52.028c4.951-0.176,8.831-4.328,8.655-9.287
		C85.128,436.728,80.791,432.462,75.998,433.023z"/>
</g>
<g>
</g>
<g>
</g>
<g>
</g>
<g>
</g>
<g>
</g>
<g>
</g>
<g>
</g>
<g>
</g>
<g>
</g>
<g>
</g>
<g>
</g>
<g>
</g>
<g>
</g>
<g>
</g>
<g>
</g>
</svg>
