<?xml version="1.0" encoding="iso-8859-1"?>
<!-- Generator: Adobe Illustrator 19.0.0, SVG Export Plug-In . SVG Version: 6.00 Build 0)  -->
<svg version="1.1" id="Layer_1" xmlns="http://www.w3.org/2000/svg" xmlns:xlink="http://www.w3.org/1999/xlink" x="0px" y="0px"
	 viewBox="0 0 512 512" style="enable-background:new 0 0 512 512;" xml:space="preserve">
<path style="fill:#314E55;" d="M416,246.857h-36.571v-82.286c0-25.205-20.5-45.714-45.705-45.714h-54.866V18.286H288
	c5.053,0,9.143-4.089,9.143-9.143S293.053,0,288,0H178.286c-5.053,0-9.143,4.089-9.143,9.143s4.089,9.143,9.143,9.143h9.143v100.571
	h-54.866c-25.205,0-45.705,20.509-45.705,45.714v292.571c0,25.205,20.5,45.714,45.705,45.714H160c0,5.053,4.089,9.143,9.143,9.143
	s9.143-4.089,9.143-9.143h100.571c0,5.053,4.089,9.143,9.143,9.143c5.053,0,9.143-4.089,9.143-9.143h36.58
	c25.205,0,45.705-20.509,45.705-45.714V347.429H416c5.053,0,9.143-4.089,9.143-9.143V256
	C425.143,250.947,421.054,246.857,416,246.857z M205.714,18.286h54.857v100.571h-54.857V18.286z M406.857,329.143h-27.429v-64
	h27.429V329.143z"/>
<path style="fill:#E4AD40;" d="M132.563,484.571c-15.116,0-27.42-12.304-27.42-27.429V164.571c0-15.125,12.304-27.429,27.42-27.429
	h201.161c15.116,0,27.42,12.304,27.42,27.429V256v82.286v118.857c0,15.125-12.304,27.429-27.42,27.429H132.563z"/>
<g>
	<path style="fill:#314E55;" d="M297.196,283.429H169.089c-20.134,0-36.518,16.402-36.518,36.571v100.571
		c0,20.17,16.384,36.571,36.518,36.571c5.053,0,9.143-4.089,9.143-9.143s-4.089-9.143-9.143-9.143
		c-10.054,0-18.232-8.205-18.232-18.286V320c0-10.08,8.179-18.286,18.232-18.286h128.107c10.053,0,18.232,8.205,18.232,18.286
		v100.571c0,10.08-8.178,18.286-18.232,18.286c-5.053,0-9.143,4.089-9.143,9.143s4.089,9.143,9.143,9.143
		c20.134,0,36.518-16.402,36.518-36.571V320C333.714,299.83,317.33,283.429,297.196,283.429z"/>
	<path style="fill:#314E55;" d="M278.857,310.857h-91.429c-5.053,0-9.143,4.089-9.143,9.143c0,5.054,4.089,9.143,9.143,9.143h91.429
		c5.053,0,9.143-4.089,9.143-9.143C288,314.947,283.911,310.857,278.857,310.857z"/>
</g>
<g>
</g>
<g>
</g>
<g>
</g>
<g>
</g>
<g>
</g>
<g>
</g>
<g>
</g>
<g>
</g>
<g>
</g>
<g>
</g>
<g>
</g>
<g>
</g>
<g>
</g>
<g>
</g>
<g>
</g>
</svg>
