<?xml version="1.0" encoding="iso-8859-1"?>
<!-- Generator: Adobe Illustrator 19.0.0, SVG Export Plug-In . SVG Version: 6.00 Build 0)  -->
<svg version="1.1" id="Layer_1" xmlns="http://www.w3.org/2000/svg" xmlns:xlink="http://www.w3.org/1999/xlink" x="0px" y="0px"
	 viewBox="0 0 512 512" style="enable-background:new 0 0 512 512;" xml:space="preserve">
<path style="fill:#314E55;" d="M390.427,266.462L505.364,67.934c2.898-4.995,1.184-11.388-3.806-14.275
	c-4.979-2.893-11.377-1.189-14.275,3.806L374.247,252.71c-17.136-19.732-39.091-35.074-64.041-44.313L421.774,15.69
	c2.898-4.995,1.184-11.388-3.806-14.275c-4.979-2.893-11.388-1.199-14.275,3.806L289.618,202.259
	c-10.843-2.383-22.069-3.724-33.618-3.724c-11.548,0-22.775,1.342-33.618,3.724L108.308,5.221c-2.888-4.99-9.296-6.714-14.275-3.806
	c-4.99,2.888-6.704,9.28-3.806,14.275l111.568,192.707c-24.949,9.242-46.905,24.581-64.041,44.313L24.717,57.465
	c-2.898-4.995-9.296-6.704-14.275-3.806c-4.99,2.888-6.704,9.28-3.806,14.275l114.937,198.528c0.816,1.408,2.837,3.924,2.65,4.214
	c-15.738,24.427-24.956,53.435-24.956,84.591C99.267,441.69,169.573,512,256,512s156.733-70.31,156.733-156.733
	c0-30.971-9.109-59.82-24.678-84.158C387.776,270.673,389.61,267.871,390.427,266.462z"/>
<path style="fill:#DBCF56;" d="M256,491.102c-74.897,0-135.835-60.933-135.835-135.835S181.103,219.432,256,219.432
	s135.835,60.933,135.835,135.835S330.897,491.102,256,491.102z"/>
<path style="fill:#314E55;" d="M256,240.33c-63.377,0-114.937,51.561-114.937,114.937S192.623,470.205,256,470.205
	s114.937-51.561,114.937-114.937S319.377,240.33,256,240.33z"/>
<path style="fill:#E4AD40;" d="M256,449.307c-51.857,0-94.04-42.188-94.04-94.04s42.183-94.04,94.04-94.04s94.04,42.188,94.04,94.04
	S307.856,449.307,256,449.307z"/>
<path style="fill:#314E55;" d="M260.969,289.59c-3.367-1.826-7.469-1.658-10.683,0.439l-28.561,18.648
	c-4.827,3.158-6.194,9.633-3.031,14.464c3.143,4.832,9.622,6.178,14.459,3.036l12.398-8.097v89.432
	c0,5.77,4.674,10.449,10.449,10.449c5.775,0,10.449-4.678,10.449-10.449V298.778C266.449,294.942,264.347,291.416,260.969,289.59z"
	/>
<g>
</g>
<g>
</g>
<g>
</g>
<g>
</g>
<g>
</g>
<g>
</g>
<g>
</g>
<g>
</g>
<g>
</g>
<g>
</g>
<g>
</g>
<g>
</g>
<g>
</g>
<g>
</g>
<g>
</g>
</svg>
