<?xml version="1.0" encoding="iso-8859-1"?>
<!-- Generator: Adobe Illustrator 19.0.0, SVG Export Plug-In . SVG Version: 6.00 Build 0)  -->
<svg version="1.1" id="Layer_1" xmlns="http://www.w3.org/2000/svg" xmlns:xlink="http://www.w3.org/1999/xlink" x="0px" y="0px"
	 viewBox="0 0 512.001 512.001" style="enable-background:new 0 0 512.001 512.001;" xml:space="preserve">
<path style="fill:#314E55;" d="M482.065,26.766c-11.918-15.819-30.174-25.264-51.42-26.603
	c-20.657-1.312-41.841,5.312-59.508,18.622c-17.926,13.507-30.174,32.28-34.476,52.857c-0.478,2.266,0.066,4.554,1.248,6.52
	l-22.057,16.628c-0.043,0.032-0.06,0.082-0.101,0.114c-0.052,0.041-0.123,0.048-0.175,0.091L131.256,245.338
	c-3.812,3.107-4.481,8.668-1.527,12.587l0.002,0.002l-21.9,16.504c-4.035,3.044-4.839,8.775-1.803,12.802l5.499,7.297
	l-65.704,49.515c-1.36,1.026-2.205,2.404-2.808,3.872c-1.575,0.175-3.128,0.607-4.485,1.628
	c-24.157,18.202-29.004,52.661-10.802,76.818c10.775,14.292,27.219,21.818,43.868,21.818c11.489,0,23.077-3.589,32.941-11.025
	c16.122-12.141,39.083-8.882,51.215,7.195c5.874,7.802,8.365,17.426,7.008,27.094c-1.366,9.677-6.41,18.238-14.203,24.112
	c-4.035,3.035-4.839,8.766-1.803,12.802c1.794,2.384,4.535,3.642,7.311,3.642c1.91,0,3.848-0.598,5.49-1.839
	c24.157-18.193,28.995-52.652,10.802-76.809c-18.193-24.148-52.652-28.986-76.818-10.802c-7.802,5.883-17.435,8.418-27.094,7.008
	c-9.668-1.357-18.238-6.401-24.112-14.194c-12.132-16.105-8.909-39.083,7.195-51.215c1.345-1.011,2.187-2.37,2.791-3.818
	c1.579-0.173,3.145-0.656,4.503-1.681l65.709-49.519l5.503,7.302c1.794,2.384,4.535,3.642,7.311,3.642
	c1.91,0,3.848-0.598,5.49-1.839l21.906-16.508l0.001,0.002c1.794,2.384,4.535,3.642,7.311,3.642c1.803,0,3.624-0.536,5.204-1.634
	l195.317-135.737c0.043-0.03,0.064-0.081,0.106-0.112c0.056-0.041,0.123-0.052,0.179-0.094l22.063-16.627
	c1.565,1.675,3.612,2.83,5.914,2.995c2,0.152,3.99,0.223,5.99,0.223c19.033,0,38.119-6.57,54.321-18.792
	c17.667-13.31,29.852-31.807,34.316-52.072C498.036,62.743,493.983,42.585,482.065,26.766z"/>
<g>
	
		<rect x="129.785" y="276.185" transform="matrix(-0.7984 0.6021 -0.6021 -0.7984 421.6415 429.4836)" style="fill:#D8D8D8;" width="18.28" height="18.28"/>
	<polygon style="fill:#D8D8D8;" points="367.164,147.693 350.658,125.79 334.154,103.886 348.752,92.884 381.759,136.687 	"/>
</g>
<polygon style="fill:#E4AD40;" points="172.053,283.707 149.628,253.953 319.763,115.177 352.342,158.408 "/>
<path style="fill:#5ECB66;" d="M475.602,79.597c-3.517,16.006-13.266,30.709-27.46,41.395
	c-13.025,9.838-28.245,15.114-43.314,15.114c-0.205,0-0.411,0-0.616-0.009l-48.706-64.632c4.062-14.712,13.409-28.112,26.629-38.074
	c14.185-10.695,31.048-15.997,47.358-14.98c15.837,1,29.317,7.874,37.967,19.354C476.119,49.254,479.012,64.108,475.602,79.597z"/>
<g>
	
		<rect x="418.116" y="36.044" transform="matrix(-0.7986 0.6018 -0.6018 -0.7986 795.6708 -175.8613)" style="fill:#314E55;" width="18.282" height="18.282"/>
	
		<rect x="440.095" y="65.24" transform="matrix(-0.7986 0.6018 -0.6018 -0.7986 852.7734 -136.5765)" style="fill:#314E55;" width="18.282" height="18.282"/>
	
		<rect x="399.885" y="72.629" transform="matrix(-0.7986 0.6018 -0.6018 -0.7986 784.898 -99.0877)" style="fill:#314E55;" width="18.282" height="18.282"/>
	<path style="fill:#314E55;" d="M456.783,304.551l-99.082-27.665c-1.505-0.426-2.993-0.323-4.426,0.002
		c-4.808,0.272-8.644,4.165-8.644,9.041v89.026c-7.608-3.961-17.005-6.369-27.424-6.369c-25.63,0-45.707,14.051-45.707,31.995
		c0,17.944,20.077,31.995,45.707,31.995c25.63,0,45.707-14.051,45.707-31.995c0-0.927-0.272-1.793-0.377-2.698
		c0.134-0.624,0.377-1.208,0.377-1.872v-98.693l82.272,22.973v82.089c-7.608-3.961-17.005-6.369-27.424-6.369
		c-25.63,0-45.707,14.051-45.707,31.995S392.133,460,417.763,460c25.63,0,45.707-14.051,45.707-31.995
		c0-0.927-0.272-1.793-0.377-2.698c0.134-0.624,0.377-1.208,0.377-1.872v-110.08C463.47,309.256,460.738,305.65,456.783,304.551z"/>
</g>
<g>
	<path style="fill:#D8D8D8;" d="M317.208,414.293c-15.694,0-27.424-7.24-27.424-13.712c0-6.472,11.73-13.712,27.424-13.712
		c15.694,0,27.424,7.24,27.424,13.712C344.632,407.053,332.902,414.293,317.208,414.293z"/>
	<path style="fill:#D8D8D8;" d="M417.763,441.717c-15.694,0-27.424-7.24-27.424-13.712c0-6.472,11.73-13.712,27.424-13.712
		c15.694,0,27.424,7.24,27.424,13.712C445.187,434.477,433.457,441.717,417.763,441.717z"/>
</g>
<g>
</g>
<g>
</g>
<g>
</g>
<g>
</g>
<g>
</g>
<g>
</g>
<g>
</g>
<g>
</g>
<g>
</g>
<g>
</g>
<g>
</g>
<g>
</g>
<g>
</g>
<g>
</g>
<g>
</g>
</svg>
