<?xml version="1.0" encoding="iso-8859-1"?>
<!-- Generator: Adobe Illustrator 19.0.0, SVG Export Plug-In . SVG Version: 6.00 Build 0)  -->
<svg version="1.1" id="Layer_1" xmlns="http://www.w3.org/2000/svg" xmlns:xlink="http://www.w3.org/1999/xlink" x="0px" y="0px"
	 viewBox="0 0 512 512" style="enable-background:new 0 0 512 512;" xml:space="preserve">
<path style="fill:#314E55;" d="M511.393,487.03l-90.289-233.451c-1.079-2.785-3.465-4.851-6.377-5.517
	c-2.93-0.658-5.965,0.158-8.14,2.202l-30.509,28.557l-24.745-45.39c-1.404-2.575-3.965-4.298-6.877-4.627
	c-2.965-0.342-5.807,0.785-7.737,2.978l-31.553,35.689l-58.412-96.245c-1.632-2.697-4.263-4.18-7.737-4.32
	c-3.167,0.022-6.079,1.706-7.684,4.43l-87.798,149.377l-25.07-36.846c-1.798-2.632-4.877-4.14-8.009-3.912
	c-3.167,0.206-6,2.07-7.43,4.904L0.973,486.21c-1.412,2.785-1.281,6.101,0.351,8.763c1.64,2.658,4.535,4.281,7.658,4.281h494.034
	c2.965,0,5.737-1.461,7.412-3.904C512.104,492.907,512.463,489.793,511.393,487.03z"/>
<path style="fill:#EAEAEA;" d="M160.724,481.289l72.082-133.956l37.5,47.675c0.128,0.162,0.316,0.235,0.452,0.385l-10.004,17.33
	c-2.483,4.298-1.009,9.79,3.289,12.272c1.412,0.816,2.956,1.202,4.482,1.202c3.105,0,6.123-1.61,7.79-4.491l45.439-78.71
	c2.483-4.298,1.009-9.79-3.289-12.272c-4.29-2.483-9.79-1.009-12.272,3.289l-25.822,44.73l-41.915-53.291
	c-1.868-2.381-4.886-3.658-7.833-3.395c-3.018,0.259-5.702,2.022-7.14,4.693l-83.16,154.539H23.605l88.561-174.741l24.491,36
	c1.737,2.544,4.377,4.044,7.728,3.925c3.079-0.101,5.886-1.772,7.447-4.425L239.2,193.403l56.939,93.815
	c1.474,2.439,4.035,4.031,6.877,4.285c2.79,0.211,5.632-0.864,7.526-3l31.149-35.228l24.167,44.329
	c1.333,2.443,3.71,4.127,6.456,4.57c2.737,0.439,5.544-0.417,7.57-2.311l29.263-27.39l80.763,208.815L160.724,481.289
	L160.724,481.289z"/>
<path style="fill:#314E55;" d="M103.298,183.412c47.052,0,85.333-38.281,85.333-85.333s-38.281-85.333-85.333-85.333
	S17.964,51.027,17.964,98.079S56.245,183.412,103.298,183.412z"/>
<path style="fill:#E4AD40;" d="M103.298,30.711c37.149,0,67.368,30.219,67.368,67.368s-30.219,67.368-67.368,67.368
	s-67.368-30.219-67.368-67.368S66.148,30.711,103.298,30.711z"/>
<path style="fill:#314E55;" d="M103.298,147.483c27.237,0,49.403-22.162,49.403-49.403c0-4.961-4.018-8.982-8.982-8.982
	c-4.965,0-8.982,4.022-8.982,8.982c0,17.333-14.105,31.439-31.439,31.439c-4.965,0-8.982,4.022-8.982,8.982
	C94.315,143.461,98.332,147.483,103.298,147.483z"/>
<g>
</g>
<g>
</g>
<g>
</g>
<g>
</g>
<g>
</g>
<g>
</g>
<g>
</g>
<g>
</g>
<g>
</g>
<g>
</g>
<g>
</g>
<g>
</g>
<g>
</g>
<g>
</g>
<g>
</g>
</svg>
