<?xml version="1.0" encoding="iso-8859-1"?>
<!-- Generator: Adobe Illustrator 19.0.0, SVG Export Plug-In . SVG Version: 6.00 Build 0)  -->
<svg version="1.1" id="Layer_1" xmlns="http://www.w3.org/2000/svg" xmlns:xlink="http://www.w3.org/1999/xlink" x="0px" y="0px"
	 viewBox="0 0 512 512" style="enable-background:new 0 0 512 512;" xml:space="preserve">
<path style="fill:#314E55;" d="M405.291,0c-79.319,0-79.319,53.766-79.319,105.758c0,18.55,3.625,35.977,9.942,51.15
	c-6.83,9.841-14.764,20.235-17.878,22.876c-9.089,2.659-34.538,13.641-46.992,19.098c-8.839-11.369-30.442-33.617-64.205-33.617
	c-22.48,0-41.467,9.958-54.773,19.83l13.203-68.948c15.311,5.439,43.549,11.903,60.229-6.317
	c11.473-12.548,16.705-28.092,14.347-42.655c-1.79-11.077-7.832-20.226-16.559-25.097c-15.871-8.839-69.352,4.123-91.618,10.096
	c-2.35,0.628-4.329,2.203-5.482,4.355L28.432,239.153c-2.212,4.14-0.792,9.286,3.227,11.705c0,0,48.516,29.211,85.455,51.597
	c19.219,11.636,44.428,13.203,68.819,14.726c24.753,1.541,48.137,2.995,59.162,14.846c23.462,25.209,56.718,91.454,52.191,170.652
	c-0.284,4.863,3.434,9.028,8.288,9.304c0.172,0.009,0.344,0.017,0.516,0.017c4.639,0,8.521-3.623,8.787-8.305
	c4.854-84.715-31.354-156.262-56.873-183.683c-15.819-16.989-42.611-18.659-70.979-20.423c-22.257-1.386-45.271-2.823-60.771-12.213
	c-28.325-17.162-63.457-38.334-78.329-47.293l91.996-171.857c31.328-8.159,67.889-14.287,74.774-10.758
	c4.002,2.229,6.825,6.799,7.755,12.523c1.489,9.209-2.143,19.399-9.966,27.946c-14.012,15.32-49.548-1.756-49.91-1.936
	c-2.444-1.231-5.362-1.239-7.841-0.009c-2.47,1.222-4.235,3.529-4.751,6.231l-20.286,105.974c-0.757,3.985,1.291,7.97,4.966,9.665
	c3.675,1.687,8.047,0.68,10.578-2.504c0.258-0.318,26.362-32.464,61.598-32.464c34.203,0,53.404,31.182,53.585,31.466
	c2.29,3.856,7.083,5.371,11.154,3.555c16.766-7.453,45.675-19.83,51.846-21.336c2.356-0.57,6.932-1.723,21.687-22.109
	c14.558,22.635,36.112,37.05,60.179,37.05c43.739,0,79.319-47.44,79.319-105.758C484.61,53.766,484.61,0,405.291,0z"/>
<path style="fill:#E9E7D1;" d="M405.291,193.89c-34.013,0-61.692-39.539-61.692-88.132c0-54.962,0-88.132,61.692-88.132
	s61.692,33.17,61.692,88.132C466.983,154.351,439.304,193.89,405.291,193.89z"/>
<g>
	<path style="fill:#314E55;" d="M436.481,284.045c-4.622-0.189-8.977,3.529-9.201,8.409l-0.895,19.623
		c-32.602,7.376-89.234,19.167-107.032,19.167c-15.294,0-30.803-23.599-47.216-48.593c-4.613-7.014-9.33-14.184-14.235-21.147
		c-1.343-1.919-3.4-3.219-5.706-3.615c-2.315-0.396-4.682,0.138-6.593,1.498c-44.359,31.466-82.865-14.408-84.483-16.378
		c-3.073-3.77-8.615-4.346-12.385-1.257c-3.778,3.072-4.346,8.624-1.274,12.394c16.284,20.01,57.2,49.092,100.801,24.417
		c3.107,4.587,6.145,9.218,9.14,13.771c19.107,29.073,37.155,56.537,61.951,56.537c25.803,0,113.788-20.243,117.515-21.103
		c3.856-0.895,6.644-4.243,6.825-8.194l1.196-26.328C445.114,288.391,441.344,284.268,436.481,284.045z"/>
	<path style="fill:#314E55;" d="M334.785,308.72c4.871,0,8.813-3.942,8.813-8.813s-3.942-8.813-8.813-8.813h-11.671
		c-4.871,0-8.813,3.942-8.813,8.813s3.942,8.813,8.813,8.813H334.785z"/>
</g>
<g>
</g>
<g>
</g>
<g>
</g>
<g>
</g>
<g>
</g>
<g>
</g>
<g>
</g>
<g>
</g>
<g>
</g>
<g>
</g>
<g>
</g>
<g>
</g>
<g>
</g>
<g>
</g>
<g>
</g>
</svg>
