<?xml version="1.0" encoding="iso-8859-1"?>
<!-- Generator: Adobe Illustrator 19.0.0, SVG Export Plug-In . SVG Version: 6.00 Build 0)  -->
<svg version="1.1" id="Layer_1" xmlns="http://www.w3.org/2000/svg" xmlns:xlink="http://www.w3.org/1999/xlink" x="0px" y="0px"
	 viewBox="0 0 512 512" style="enable-background:new 0 0 512 512;" xml:space="preserve">
<path style="fill:#314E55;" d="M256,30.793c-145.942,0-256,108.952-256,253.442c0,37.846,7.616,61.24,23.962,73.606
	c9.341,7.067,20.529,9.846,33.37,9.846c14.85,0,32.026-3.799,50.976-8.911v42.017c0,44.337,36.106,80.414,80.486,80.414h134.414
	c44.38,0,80.486-36.077,80.486-80.414V358.82c34.242,9.244,64.048,14.413,84.375-0.998C504.394,345.447,512,322.062,512,284.235
	C512,139.745,401.942,30.793,256,30.793z"/>
<g>
	<path style="fill:#E4AD40;" d="M466.361,212.101l-23.495-35.058l25.906,2.146c9.695,20.032,16.594,41.833,20.315,64.978
		c-0.491,0.128-0.991,0.109-1.471,0.319l-34.106,15.029l13.933-38.587C468.51,217.976,468.106,214.707,466.361,212.101z"/>
	<path style="fill:#E4AD40;" d="M43.764,220.928l13.928,38.596l-34.106-15.039c-0.228-0.1-0.47-0.071-0.701-0.152
		c3.718-23.234,10.642-45.114,20.379-65.213l25.073-2.077l-23.49,35.058C43.101,214.707,42.697,217.976,43.764,220.928z"/>
</g>
<path style="fill:#D8D8D8;" d="M384,400.793c0,33.481-27.274,60.721-60.793,60.721H188.793c-33.519,0-60.793-27.24-60.793-60.721
	v-46.606c3.668-0.952,7.413-1.952,11.231-2.961c34.856-9.269,74.365-19.769,116.769-19.769s81.913,10.5,116.769,19.769
	c3.817,1.01,7.563,2.01,11.231,2.961V400.793z"/>
<path style="fill:#E65F58;" d="M476.173,342.13c-14.803,11.221-43.053,4.539-75.721-4.625c-1.247-0.352-2.499-0.411-3.711-0.282
	c-0.167-0.052-0.301-0.165-0.472-0.208c-5.933-1.5-12.087-3.135-18.442-4.827c-34.241-9.096-76.851-20.423-121.827-20.423
	s-87.586,11.327-121.827,20.423c-5.847,1.557-11.477,3.041-16.968,4.441c-1.151-0.096-2.332-0.059-3.513,0.28
	c-33.774,9.538-62.942,16.5-77.846,5.231c-10.87-8.222-16.154-27.164-16.154-57.904c0-6.621,0.32-13.137,0.814-19.588l50.282,22.165
	c1.274,0.567,2.63,0.836,3.971,0.836c2.447,0,4.861-0.913,6.716-2.644c2.885-2.692,3.885-6.836,2.543-10.548l-20.043-55.529
	l32.096-47.904c2.106-3.144,2.226-7.212,0.308-10.471c-1.913-3.26-5.49-5.106-9.298-4.827l-32.394,2.68
	C95.569,92.599,168.826,50.486,256,50.486c87.205,0,160.484,42.143,201.357,107.99l-33.237-2.75
	c-3.759-0.298-7.385,1.577-9.303,4.827c-1.913,3.26-1.793,7.327,0.313,10.471l32.101,47.904l-20.048,55.529
	c-1.341,3.711-0.341,7.856,2.538,10.548c1.861,1.731,4.274,2.644,6.721,2.644c1.341,0,2.697-0.269,3.971-0.836l51.056-22.505
	c0.511,6.562,0.838,13.19,0.838,19.928C492.308,314.957,487.029,333.899,476.173,342.13z"/>
<path style="fill:#314E55;" d="M305.231,345.197c-16.288,0-29.538,13.24-29.538,29.519v39.423c0,16.279,13.25,29.519,29.538,29.519
	c16.289,0,29.538-13.24,29.538-29.519v-39.423C334.769,358.438,321.519,345.197,305.231,345.197z"/>
<path style="fill:#73C9C9;" d="M315.077,414.14c0,5.51-4.327,9.827-9.846,9.827c-5.519,0-9.846-4.317-9.846-9.827v-39.423
	c0-5.51,4.327-9.827,9.846-9.827c5.519,0,9.846,4.317,9.846,9.827V414.14z"/>
<path style="fill:#314E55;" d="M206.769,345.197c-16.288,0-29.538,13.24-29.538,29.519v39.423c0,16.279,13.25,29.519,29.538,29.519
	s29.538-13.24,29.538-29.519v-39.423C236.308,358.438,223.058,345.197,206.769,345.197z"/>
<path style="fill:#73C9C9;" d="M216.615,414.14c0,5.51-4.327,9.827-9.846,9.827s-9.846-4.317-9.846-9.827v-39.423
	c0-5.51,4.327-9.827,9.846-9.827s9.846,4.317,9.846,9.827V414.14z"/>
<path style="fill:#314E55;" d="M341.692,150.534l-53.111-7.721l-23.75-48.125c-3.317-6.731-14.346-6.731-17.663,0l-23.75,48.125
	l-53.111,7.721c-3.712,0.539-6.793,3.135-7.952,6.702c-1.159,3.558-0.192,7.471,2.49,10.087l38.433,37.461l-9.072,52.904
	c-0.63,3.692,0.889,7.423,3.918,9.625c3.034,2.221,7.062,2.51,10.37,0.75L256,243.092l47.505,24.971
	c1.442,0.76,3.014,1.135,4.582,1.135c2.038,0,4.072-0.635,5.789-1.885c3.029-2.202,4.548-5.933,3.918-9.625l-9.072-52.904
	l38.433-37.462c2.683-2.615,3.649-6.529,2.49-10.087C348.486,153.669,345.404,151.072,341.692,150.534z"/>
<path style="fill:#E4AD40;" d="M291.264,194.303c-2.317,2.26-3.375,5.519-2.832,8.712l6.577,38.336l-34.428-18.096
	c-1.433-0.76-3.01-1.135-4.582-1.135s-3.149,0.375-4.582,1.135l-34.428,18.096l6.577-38.337c0.543-3.192-0.514-6.452-2.832-8.712
	l-27.856-27.154l38.49-5.596c3.212-0.462,5.981-2.481,7.418-5.385L256,121.293l17.212,34.875c1.438,2.904,4.207,4.923,7.418,5.385
	l38.49,5.596L291.264,194.303z"/>
<g>
</g>
<g>
</g>
<g>
</g>
<g>
</g>
<g>
</g>
<g>
</g>
<g>
</g>
<g>
</g>
<g>
</g>
<g>
</g>
<g>
</g>
<g>
</g>
<g>
</g>
<g>
</g>
<g>
</g>
</svg>
