<?xml version="1.0" encoding="iso-8859-1"?>
<!-- Generator: Adobe Illustrator 19.0.0, SVG Export Plug-In . SVG Version: 6.00 Build 0)  -->
<svg version="1.1" id="Layer_1" xmlns="http://www.w3.org/2000/svg" xmlns:xlink="http://www.w3.org/1999/xlink" x="0px" y="0px"
	 viewBox="0 0 512 512" style="enable-background:new 0 0 512 512;" xml:space="preserve">
<path style="fill:#314E55;" d="M182.105,317.713h43.506c4.874,0,8.825-3.947,8.825-8.825c0-97.329-49.488-176.507-110.317-176.507
	S13.803,211.559,13.803,308.888c0,4.878,3.952,8.825,8.825,8.825h46.919l-54.159,54.159c-3.447,3.447-3.447,9.032,0,12.479
	l61.64,61.64c1.724,1.724,3.982,2.586,6.24,2.586s4.516-0.862,6.24-2.586c3.447-3.447,3.447-9.032,0-12.479l-55.4-55.4
	l60.399-60.399h62.639l60.399,60.399l-55.4,55.4c-3.447,3.447-3.447,9.032,0,12.479c1.724,1.724,3.982,2.586,6.24,2.586
	s4.516-0.862,6.24-2.586l61.64-61.64c3.447-3.447,3.447-9.032,0-12.479L182.105,317.713z"/>
<path style="fill:#E4AD40;" d="M124.119,150.031c49.367,0,89.844,66.526,92.524,150.031H31.596
	C34.276,216.557,74.753,150.031,124.119,150.031z"/>
<path style="fill:#314E55;" d="M440.936,185.333h49.436c4.874,0,8.825-3.947,8.825-8.825C499.197,79.178,449.71,0,388.88,0
	S278.563,79.178,278.563,176.507c0,4.878,3.952,8.825,8.825,8.825h44.023l-55.676,55.676c-3.447,3.447-3.447,9.032,0,12.479
	l61.64,61.64c1.724,1.724,3.982,2.586,6.24,2.586c2.258,0,4.516-0.862,6.24-2.586c3.447-3.447,3.447-9.032,0-12.48l-55.4-55.4
	l60.95-60.95c0.285-0.285,0.403-0.653,0.641-0.965h60.254c0.238,0.312,0.356,0.68,0.641,0.965l60.95,60.95l-55.4,55.4
	c-3.447,3.447-3.447,9.032,0,12.48c1.724,1.724,3.982,2.586,6.24,2.586c2.258,0,4.516-0.862,6.24-2.586l61.64-61.64
	c3.447-3.447,3.447-9.032,0-12.479L440.936,185.333z"/>
<path style="fill:#E4AD40;" d="M388.88,17.651c49.367,0,89.844,66.526,92.524,150.031H296.356
	C299.036,84.177,339.513,17.651,388.88,17.651z"/>
<path style="fill:#314E55;" d="M86.944,204.5c-14.6,0-26.476,11.876-26.476,26.476s11.876,26.476,26.476,26.476
	s26.476-11.876,26.476-26.476S101.543,204.5,86.944,204.5z"/>
<circle style="fill:#E4AD40;" cx="86.942" cy="230.982" r="8.825"/>
<path style="fill:#314E55;" d="M347.292,73.645c-14.6,0-26.476,11.876-26.476,26.476s11.876,26.476,26.476,26.476
	s26.476-11.876,26.476-26.476S361.891,73.645,347.292,73.645z"/>
<circle style="fill:#E4AD40;" cx="347.284" cy="100.124" r="8.825"/>
<path style="fill:#314E55;" d="M166.372,204.5c-14.6,0-26.476,11.876-26.476,26.476s11.876,26.476,26.476,26.476
	s26.476-11.876,26.476-26.476S180.972,204.5,166.372,204.5z"/>
<circle style="fill:#E4AD40;" cx="166.364" cy="230.982" r="8.825"/>
<path style="fill:#314E55;" d="M426.72,73.645c-14.6,0-26.476,11.876-26.476,26.476s11.876,26.476,26.476,26.476
	s26.476-11.876,26.476-26.476S441.32,73.645,426.72,73.645z"/>
<circle style="fill:#E4AD40;" cx="426.712" cy="100.124" r="8.825"/>
<path style="fill:#314E55;" d="M384.467,211.671c-4.874,0-8.825,3.947-8.825,8.825v282.679c0,4.878,3.952,8.825,8.825,8.825
	c4.874,0,8.825-3.947,8.825-8.825V220.496C393.293,215.618,389.341,211.671,384.467,211.671z"/>
<g>
</g>
<g>
</g>
<g>
</g>
<g>
</g>
<g>
</g>
<g>
</g>
<g>
</g>
<g>
</g>
<g>
</g>
<g>
</g>
<g>
</g>
<g>
</g>
<g>
</g>
<g>
</g>
<g>
</g>
</svg>
