<?xml version="1.0" encoding="iso-8859-1"?>
<!-- Generator: Adobe Illustrator 19.0.0, SVG Export Plug-In . SVG Version: 6.00 Build 0)  -->
<svg version="1.1" id="Layer_1" xmlns="http://www.w3.org/2000/svg" xmlns:xlink="http://www.w3.org/1999/xlink" x="0px" y="0px"
	 viewBox="0 0 512 512" style="enable-background:new 0 0 512 512;" xml:space="preserve">
<path style="fill:#314E55;" d="M512,50.973c0-3.294-1.49-6.412-4.055-8.482c-2.57-2.075-5.943-2.868-9.147-2.171l-327.448,70.897
	c-5.018,1.085-8.593,5.523-8.593,10.653v54.492v76.282v120.89c-18.568-11.525-47.542-16.274-79.357-11.246
	c-23.295,3.693-44.584,12.116-59.946,23.721c-17.325,13.09-25.498,28.925-23.019,44.584c3.985,25.147,35.145,41.339,75.111,41.333
	c7.997,0,16.352-0.649,24.902-2.001c23.295-3.693,44.584-12.116,59.946-23.721c17.325-13.09,25.498-28.925,23.019-44.584
	c-0.106-0.668-0.333-1.293-0.477-1.947c0.935-1.61,1.616-3.376,1.616-5.369V261.288l305.653-71.32v118.485
	c-18.542-11.757-47.767-16.625-79.884-11.549c-23.295,3.693-44.584,12.116-59.946,23.721c-17.325,13.09-25.498,28.925-23.019,44.584
	c3.985,25.147,35.145,41.339,75.111,41.333c7.997,0,16.352-0.649,24.902-2.001c23.295-3.693,44.584-12.116,59.946-23.721
	c17.325-13.09,25.498-28.925,23.019-44.584c-0.048-0.303-0.162-0.585-0.217-0.889c1.089-1.697,1.883-3.597,1.883-5.763L512,50.973
	L512,50.973z M184.552,162.631V130.66l305.653-66.177v26.829L184.552,162.631z"/>
<path style="fill:#DBCF56;" d="M147.257,428.816c-12.558,9.487-30.393,16.442-50.214,19.581
	c-41.264,6.518-72.658-5.938-75.079-21.215c-1.144-7.226,4.188-15.894,14.627-23.785c12.558-9.487,30.394-16.442,50.214-19.581
	c7.7-1.219,15.058-1.777,21.944-1.777c30.01,0,51.166,10.567,53.135,22.992C163.028,412.257,157.697,420.925,147.257,428.816z"/>
<polygon style="fill:#D8D8D8;" points="489.678,167.716 184.552,238.91 184.552,185.009 489.678,113.814 "/>
<path style="fill:#DBCF56;" d="M474.178,363.432c-12.558,9.487-30.393,16.442-50.214,19.581
	c-41.254,6.523-72.663-5.938-75.079-21.215c-1.144-7.226,4.188-15.894,14.627-23.785c12.558-9.487,30.393-16.442,50.214-19.581
	c7.7-1.219,15.058-1.777,21.944-1.777c30.01,0,51.166,10.567,53.135,22.992C489.95,346.873,484.618,355.541,474.178,363.432z"/>
<g>
</g>
<g>
</g>
<g>
</g>
<g>
</g>
<g>
</g>
<g>
</g>
<g>
</g>
<g>
</g>
<g>
</g>
<g>
</g>
<g>
</g>
<g>
</g>
<g>
</g>
<g>
</g>
<g>
</g>
</svg>
