<?xml version="1.0" encoding="iso-8859-1"?>
<!-- Generator: Adobe Illustrator 19.0.0, SVG Export Plug-In . SVG Version: 6.00 Build 0)  -->
<svg version="1.1" id="Layer_1" xmlns="http://www.w3.org/2000/svg" xmlns:xlink="http://www.w3.org/1999/xlink" x="0px" y="0px"
	 viewBox="0 0 512 512" style="enable-background:new 0 0 512 512;" xml:space="preserve">
<path style="fill:#314E55;" d="M426.756,89.698c-22.451-14.511-40.626-22.421-41.391-22.753c-3.16-1.358-6.843-1.046-9.741,0.845
	c-2.898,1.912-4.649,5.142-4.649,8.614V319.6c-21.671-16.748-56.798-20.069-90.021-5.973c-21.002,8.916-38.281,23.428-48.646,40.857
	c-10.979,18.456-13.032,37.999-5.807,55.026c7.236,17.037,22.723,29.123,43.615,34.054c6.632,1.56,13.555,2.325,20.63,2.325
	c14.008,0,28.6-3.029,42.558-8.946c37.88-16.076,61.117-49.673,58.276-80.293c0-0.01,0.006-0.017,0.006-0.027V92.958
	c6.591,3.482,14.944,8.212,23.981,14.048c48.395,31.277,98.832,81.785,64.335,144.821c-2.737,5.001-0.906,11.261,4.086,13.988
	c4.991,2.757,11.261,0.896,13.988-4.086C530.821,201.703,505.532,140.608,426.756,89.698z"/>
<path style="fill:#5ECB66;" d="M325.253,417.964c-17.007,7.236-34.9,9.178-50.407,5.535c-14.34-3.381-24.766-11.201-29.365-22.039
	c-4.609-10.838-2.989-23.78,4.539-36.439c8.141-13.696,21.989-25.198,38.985-32.414c11.764-5.001,23.75-7.376,34.799-7.376
	c20.882,0,38.452,8.494,44.983,23.88C378.78,372.649,359.247,403.543,325.253,417.964z"/>
<g>
	<path style="fill:#314E55;" d="M10.305,143.426h298.841c5.696,0,10.305-4.609,10.305-10.305s-4.609-10.305-10.305-10.305H10.305
		C4.609,122.816,0,127.426,0,133.121S4.609,143.426,10.305,143.426z"/>
	<path style="fill:#314E55;" d="M10.305,194.951h298.841c5.696,0,10.305-4.609,10.305-10.305c0-5.696-4.609-10.305-10.305-10.305
		H10.305C4.609,174.341,0,178.95,0,184.646C0,190.341,4.609,194.951,10.305,194.951z"/>
	<path style="fill:#314E55;" d="M10.305,246.475h298.841c5.696,0,10.305-4.609,10.305-10.305s-4.609-10.305-10.305-10.305H10.305
		C4.609,225.865,0,230.474,0,236.17S4.609,246.475,10.305,246.475z"/>
	<path style="fill:#314E55;" d="M10.305,297.999h237.233c5.696,0,10.305-4.609,10.305-10.305c0-5.696-4.609-10.305-10.305-10.305
		H10.305C4.609,277.389,0,281.999,0,287.694C0,293.39,4.609,297.999,10.305,297.999z"/>
	<path style="fill:#314E55;" d="M185.488,328.914H10.305C4.609,328.914,0,333.523,0,339.219c0,5.696,4.609,10.305,10.305,10.305
		h175.183c5.696,0,10.305-4.609,10.305-10.305C195.792,333.523,191.183,328.914,185.488,328.914z"/>
	<path style="fill:#314E55;" d="M185.488,380.438H10.305C4.609,380.438,0,385.047,0,390.743s4.609,10.305,10.305,10.305h175.183
		c5.696,0,10.305-4.609,10.305-10.305C195.792,385.047,191.183,380.438,185.488,380.438z"/>
</g>
<g>
</g>
<g>
</g>
<g>
</g>
<g>
</g>
<g>
</g>
<g>
</g>
<g>
</g>
<g>
</g>
<g>
</g>
<g>
</g>
<g>
</g>
<g>
</g>
<g>
</g>
<g>
</g>
<g>
</g>
</svg>
