<?xml version="1.0" encoding="iso-8859-1"?>
<!-- Generator: Adobe Illustrator 19.0.0, SVG Export Plug-In . SVG Version: 6.00 Build 0)  -->
<svg version="1.1" id="Layer_1" xmlns="http://www.w3.org/2000/svg" xmlns:xlink="http://www.w3.org/1999/xlink" x="0px" y="0px"
	 viewBox="0 0 512 512" style="enable-background:new 0 0 512 512;" xml:space="preserve">
<path style="fill:#314E55;" d="M462.714,352.982L361.403,89.059c-1.698-4.421-6.643-6.626-11.068-4.928l-14.205,5.452
	l-10.302-17.993c1.052-1.364,2.027-2.807,2.81-4.413l3.719-7.621c3.02-6.187,3.451-13.172,1.221-19.668
	c-2.229-6.492-6.86-11.725-13.038-14.737L274.344,2.619c-6.203-3.02-13.193-3.443-19.685-1.192
	c-6.463,2.246-11.683,6.885-14.699,13.063l-3.719,7.621c-2.052,4.206-2.808,8.778-2.447,13.315l-9.49,2.347
	c-0.253-0.333-0.433-0.704-0.704-1.026l-5.455-6.5c-4.426-5.275-10.629-8.512-17.464-9.115c-6.831-0.632-13.503,1.489-18.765,5.911
	c0,0,0,0-0.004,0L142.54,60.088c-5.287,4.434-8.517,10.646-9.098,17.493c-0.577,6.818,1.539,13.477,5.956,18.74l1.227,1.464
	l-6.299,7.563l-0.976-0.519c-12.52-6.668-28.139-1.907-34.789,10.6v0.004l-24.131,45.389c-3.242,6.09-3.907,13.059-1.882,19.626
	c2.016,6.538,6.471,11.917,12.545,15.146l0.437,0.232c-2.959,8.566-4.568,13.483-5.413,16.341H57.283
	c-4.731,0-8.567,3.836-8.567,8.567v282.699c0,4.731,3.836,8.567,8.567,8.567h59.967c4.731,0,8.567-3.836,8.567-8.567V220.734
	c0-4.731-3.836-8.567-8.567-8.567H98.072c0.912-2.727,2.075-6.134,3.397-9.959c1.058,0.133,2.112,0.384,3.169,0.384
	c9.211,0,18.125-4.948,22.734-13.615l24.135-45.393c5.037-9.472,3.492-20.705-2.988-28.5l4.777-5.734
	c3.549,1.729,7.407,2.666,11.304,2.666c5.827,0,11.683-1.966,16.485-5.99l39.374-33.045c5.287-4.434,8.517-10.646,9.098-17.493
	c0.039-0.458-0.032-0.904-0.018-1.36l11.432-2.827c2.039,2.088,4.38,3.897,7.082,5.215l46.205,22.538
	c3.61,1.761,7.433,2.593,11.202,2.593c2.018-0.001,4.007-0.291,5.952-0.753l8.533,14.902l-17.597,6.753
	c-2.121,0.816-3.832,2.439-4.756,4.513c-0.924,2.075-0.987,4.434-0.172,6.555l76.732,199.894c-0.134,1.297-0.064,2.623,0.435,3.924
	c0.498,1.298,1.337,2.329,2.301,3.202l21.843,56.902c1.309,3.409,4.555,5.501,7.998,5.501c1.021,0,2.058-0.184,3.07-0.573
	l47.987-18.417c2.121-0.816,3.832-2.439,4.756-4.513C463.467,357.461,463.53,355.102,462.714,352.982z M136.382,135.54
	l-24.135,45.389c-1.046,1.964-2.781,3.293-4.733,3.98c1.774-5.03,3.541-10.013,5.126-14.454c1.59-4.455-0.732-9.357-5.191-10.947
	c-4.43-1.573-9.353,0.732-10.947,5.191c-1.916,5.368-3.587,10.075-5.103,14.362c-1.105-1.02-2.03-2.205-2.48-3.666
	c-0.674-2.175-0.448-4.493,0.636-6.529l24.131-45.393c1.793-3.364,5.515-4.925,9.101-4.271l-7.746,9.299
	c-3.029,3.635-2.535,9.039,1.1,12.068c1.602,1.33,3.547,1.983,5.48,1.983c2.455,0,4.894-1.05,6.588-3.083l8.783-10.543
	C137.666,131.033,137.522,133.394,136.382,135.54z M209.446,59.854l-39.374,33.045c-1.341,1.124-2.939,1.607-4.56,1.786
	l8.484-10.186c3.029-3.635,2.535-9.039-1.1-12.068c-3.639-3.024-9.039-2.539-12.068,1.1l-8.904,10.689
	c-0.98-1.573-1.567-3.336-1.406-5.193c0.192-2.267,1.267-4.333,3.037-5.814l39.378-33.045h-0.004
	c1.757-1.472,3.974-2.175,6.249-1.97c2.28,0.201,4.359,1.288,5.844,3.058l0.892,1.065l-12.019,2.972
	c-4.593,1.134-7.395,5.781-6.258,10.374c0.966,3.903,4.463,6.509,8.307,6.509c0.682,0,1.376-0.079,2.066-0.251l12.201-3.017
	C209.936,59.212,209.766,59.586,209.446,59.854z M264.512,45.479l9.619-2.378c4.593-1.134,7.395-5.781,6.258-10.374
	c-1.138-4.597-5.806-7.4-10.374-6.258l-18.768,4.641c0.141-0.496,0.165-1.013,0.396-1.487l3.719-7.621
	c1.012-2.083,2.761-3.643,4.919-4.392c0.908-0.314,1.845-0.473,2.782-0.473c1.288,0,2.573,0.297,3.769,0.883l46.201,22.533h0.004
	c2.054,1.004,3.597,2.744,4.338,4.902c0.745,2.171,0.598,4.509-0.418,6.588l-1.067,2.188l-5.308-9.269
	c-2.347-4.103-7.588-5.534-11.691-3.175c-4.103,2.351-5.526,7.584-3.175,11.691l5.737,10.018L264.512,45.479z"/>
<g>
	<rect x="65.85" y="452.041" style="fill:#EA86A5;" width="42.833" height="42.833"/>
	<rect x="65.85" y="229.308" style="fill:#EA86A5;" width="42.833" height="205.6"/>
	
		<rect x="351.353" y="102.658" transform="matrix(-0.9336 0.3584 -0.3584 -0.9336 785.2702 260.5728)" style="fill:#EA86A5;" width="34.268" height="200.808"/>
	
		<rect x="401.997" y="311.2" transform="matrix(-0.9336 0.3584 -0.3584 -0.9336 930.4862 497.5646)" style="fill:#EA86A5;" width="34.268" height="47.632"/>
</g>
<g>
</g>
<g>
</g>
<g>
</g>
<g>
</g>
<g>
</g>
<g>
</g>
<g>
</g>
<g>
</g>
<g>
</g>
<g>
</g>
<g>
</g>
<g>
</g>
<g>
</g>
<g>
</g>
<g>
</g>
</svg>
