<?xml version="1.0" encoding="iso-8859-1"?>
<!-- Generator: Adobe Illustrator 19.0.0, SVG Export Plug-In . SVG Version: 6.00 Build 0)  -->
<svg version="1.1" id="Layer_1" xmlns="http://www.w3.org/2000/svg" xmlns:xlink="http://www.w3.org/1999/xlink" x="0px" y="0px"
	 viewBox="0 0 512 512" style="enable-background:new 0 0 512 512;" xml:space="preserve">
<path style="fill:#314E55;" d="M11.366,398.299c0.595-0.096,59.901-9.419,121.231-9.419s120.636,9.323,121.231,9.419
	c0.518,0.082,1.026,0.12,1.544,0.12c0.304,0,0.588-0.129,0.889-0.158c0.221-0.019,0.434,0.074,0.655,0.038
	c0.595-0.096,59.901-9.419,121.231-9.419s120.636,9.323,121.231,9.419c0.518,0.082,1.026,0.12,1.544,0.12
	c2.321,0,4.585-0.825,6.379-2.35c2.187-1.866,3.443-4.599,3.443-7.472V64.188c0-4.829-3.511-8.944-8.287-9.702
	c-2.484-0.393-61.608-9.659-124.31-9.659c-58.091,0-113.022,7.94-122.775,9.424c-9.753-1.484-64.684-9.424-122.775-9.424
	c-62.702,0-121.825,9.266-124.31,9.659C3.511,55.244,0,59.359,0,64.188v324.409c0,2.873,1.256,5.606,3.443,7.472
	C5.64,397.934,8.518,398.75,11.366,398.299z"/>
<g>
	<path style="fill:#E4AD40;" d="M491.1,72.691v304.563c-20.44-2.762-65.55-8.019-112.953-8.019s-92.513,5.256-112.953,8.019V72.691
		c18.493-2.537,65.243-8.22,112.953-8.22S472.607,70.154,491.1,72.691z"/>
	<path style="fill:#E4AD40;" d="M19.644,72.691c18.493-2.537,65.243-8.22,112.953-8.22s94.46,5.683,112.953,8.22v304.563
		c-20.44-2.762-65.55-8.019-112.953-8.019s-92.513,5.256-112.953,8.019V72.691z"/>
</g>
<g>
	<path style="fill:#314E55;" d="M502.178,418.063h-217.34c-5.429,0-9.822,4.398-9.822,9.822c0,10.834-8.815,19.644-19.644,19.644
		c-10.58,0-19.177-8.426-19.57-18.915c0.02-0.254,0.147-0.47,0.147-0.729c0-5.424-4.393-9.822-9.822-9.822H9.822
		c-5.429,0-9.822,4.398-9.822,9.822s4.393,9.822,9.822,9.822h207.657c4.392,16.896,19.637,29.466,37.893,29.466
		c18.272,0,33.677-12.541,38.041-29.466h208.765c5.429,0,9.822-4.398,9.822-9.822S507.607,418.063,502.178,418.063z"/>
	<path style="fill:#314E55;" d="M49.11,123.403h166.974c5.429,0,9.822-4.398,9.822-9.822s-4.393-9.822-9.822-9.822H49.11
		c-5.429,0-9.822,4.398-9.822,9.822S43.681,123.403,49.11,123.403z"/>
	<path style="fill:#314E55;" d="M294.66,172.513h166.974c5.429,0,9.822-4.398,9.822-9.822s-4.393-9.822-9.822-9.822H294.66
		c-5.429,0-9.822,4.398-9.822,9.822S289.231,172.513,294.66,172.513z"/>
	<path style="fill:#314E55;" d="M49.11,172.513h166.974c5.429,0,9.822-4.398,9.822-9.822s-4.393-9.822-9.822-9.822H49.11
		c-5.429,0-9.822,4.398-9.822,9.822S43.681,172.513,49.11,172.513z"/>
	<path style="fill:#314E55;" d="M294.66,221.623h166.974c5.429,0,9.822-4.398,9.822-9.822s-4.393-9.822-9.822-9.822H294.66
		c-5.429,0-9.822,4.398-9.822,9.822S289.231,221.623,294.66,221.623z"/>
	<path style="fill:#314E55;" d="M225.906,211.801c0-5.424-4.393-9.822-9.822-9.822H49.11c-5.429,0-9.822,4.398-9.822,9.822
		s4.393,9.822,9.822,9.822h166.974C221.513,221.623,225.906,217.225,225.906,211.801z"/>
	<path style="fill:#314E55;" d="M294.66,270.733h166.974c5.429,0,9.822-4.398,9.822-9.822s-4.393-9.822-9.822-9.822H294.66
		c-5.429,0-9.822,4.398-9.822,9.822S289.231,270.733,294.66,270.733z"/>
</g>
<g>
</g>
<g>
</g>
<g>
</g>
<g>
</g>
<g>
</g>
<g>
</g>
<g>
</g>
<g>
</g>
<g>
</g>
<g>
</g>
<g>
</g>
<g>
</g>
<g>
</g>
<g>
</g>
<g>
</g>
</svg>
