<?xml version="1.0" encoding="iso-8859-1"?>
<!-- Generator: Adobe Illustrator 19.0.0, SVG Export Plug-In . SVG Version: 6.00 Build 0)  -->
<svg version="1.1" id="Layer_1" xmlns="http://www.w3.org/2000/svg" xmlns:xlink="http://www.w3.org/1999/xlink" x="0px" y="0px"
	 viewBox="0 0 512 512" style="enable-background:new 0 0 512 512;" xml:space="preserve">
<path style="fill:#314E55;" d="M139.997,353.831c55.087,0,105.253-32.488,127.793-82.768c1.039-2.31,1.094-4.94,0.155-7.287
	c-0.939-2.347-2.798-4.215-5.14-5.172l-98.134-40.103l101.406-41.443c4.667-1.905,6.973-7.164,5.223-11.885
	c-20.243-54.631-73.015-91.335-131.302-91.335C62.798,73.838,0,136.64,0,213.835S62.798,353.831,139.997,353.831z"/>
<path style="fill:#5ECB66;" d="M139.997,92.504c47.495,0,90.752,28.118,110.348,70.819L136.47,209.861
	c-3.509,1.435-5.806,4.849-5.806,8.64s2.297,7.205,5.806,8.64l109.983,44.948c-21.154,38.609-61.95,63.076-106.456,63.076
	c-66.9,0-121.331-54.427-121.331-121.331S73.097,92.504,139.997,92.504z"/>
<g>
	<path style="fill:#314E55;" d="M111.997,153.169c5.159,0,9.333-4.179,9.333-9.333c0-7.72,6.28-14,14-14s14,6.28,14,14
		c0,5.154,4.174,9.333,9.333,9.333s9.333-4.179,9.333-9.333c0-18.01-14.656-32.666-32.666-32.666s-32.666,14.656-32.666,32.666
		C102.664,148.99,106.839,153.169,111.997,153.169z"/>
	<path style="fill:#314E55;" d="M502.667,195.168H297.493c-5.159,0-9.333,4.179-9.333,9.333c0,5.154,4.174,9.333,9.333,9.333
		h195.841v205.661H26.678c-5.159,0-9.333,4.179-9.333,9.333s4.174,9.333,9.333,9.333h475.989c5.159,0,9.333-4.179,9.333-9.333
		V204.501C512,199.347,507.826,195.168,502.667,195.168z"/>
</g>
<g>
</g>
<g>
</g>
<g>
</g>
<g>
</g>
<g>
</g>
<g>
</g>
<g>
</g>
<g>
</g>
<g>
</g>
<g>
</g>
<g>
</g>
<g>
</g>
<g>
</g>
<g>
</g>
<g>
</g>
</svg>
