<?xml version="1.0" encoding="iso-8859-1"?>
<!-- Generator: Adobe Illustrator 19.0.0, SVG Export Plug-In . SVG Version: 6.00 Build 0)  -->
<svg version="1.1" id="Layer_1" xmlns="http://www.w3.org/2000/svg" xmlns:xlink="http://www.w3.org/1999/xlink" x="0px" y="0px"
	 viewBox="0 0 512 512" style="enable-background:new 0 0 512 512;" xml:space="preserve">
<path style="fill:#314E55;" d="M478.929,252.001c-31.384-44.815-72.747-99.075-114.364-121.059
	c-27.99-14.783-70.57-17.981-90.557,2.638c-7.51,7.743-17.483,25.348,0.085,56.248c0.009,0.022,0.022,0.045,0.036,0.063
	l26.807,46.302c3.135,7.68,3.502,11.442,3.466,12.929c-6.767,1.133-28.921-7.542-43.834-13.395
	c-32.432-12.728-65.962-25.889-87.713-16.015c-7.81,3.551-13.323,9.682-16.377,18.227c-5.231,14.617-2.042,33.655,9.485,56.58
	c36.767,73.118,148.001,169.389,182.005,179.734c16.207,4.935,31.859,7.358,46.678,7.358c37.945,0,70.4-15.912,92.5-46.378
	C523.126,385.644,519.745,310.296,478.929,252.001z"/>
<path style="fill:#E9E7D1;" d="M472.301,424.462c-25.849,35.625-69.226,47.381-118.994,32.244
	c-30.001-9.131-137.427-103.75-170.952-170.428c-9.055-18.007-12.033-32.589-8.607-42.159c1.362-3.798,3.489-6.247,6.7-7.707
	c2.821-1.281,6.31-1.845,10.282-1.845c16.686,0,41.998,9.938,63.136,18.236c30.645,12.033,52.791,20.739,63.991,9.306
	c8.625-8.791,4.017-23.323-0.197-33.494c-0.157-0.372-0.336-0.73-0.537-1.079l-27.099-46.803
	c-6.104-10.743-11.541-25.419-2.848-34.385c11.93-12.298,44.73-11.912,68.819,0.815c38.151,20.153,77.708,72.236,107.906,115.362
	C500.304,314.514,503.757,381.103,472.301,424.462z"/>
<path style="fill:#314E55;" d="M36.687,343.131h36.687c4.962,0,9.024-3.945,9.167-8.903l9.172-311.837
	c0.072-2.477-0.86-4.881-2.588-6.659c-1.724-1.778-4.098-2.781-6.579-2.781h-55.03c-2.481,0-4.855,1.003-6.579,2.781
	c-1.729,1.778-2.66,4.183-2.588,6.659l9.172,311.837C27.663,339.185,31.725,343.131,36.687,343.131z"/>
<polygon style="fill:#D8D8D8;" points="73.1,31.294 64.466,324.787 45.594,324.787 36.96,31.294 "/>
<path style="fill:#314E55;" d="M412.725,233.071c0-20.229-16.458-36.687-36.687-36.687c-20.229,0-36.687,16.458-36.687,36.687
	s16.458,36.687,36.687,36.687C396.267,269.757,412.725,253.3,412.725,233.071z"/>
<circle style="fill:#E4AD40;" cx="376.039" cy="233.071" r="18.343"/>
<path style="fill:#314E55;" d="M421.897,269.757c-20.229,0-36.687,16.458-36.687,36.687c0,20.229,16.458,36.687,36.687,36.687
	c20.229,0,36.687-16.458,36.687-36.687C458.584,286.215,442.126,269.757,421.897,269.757z"/>
<circle style="fill:#E65F58;" cx="421.897" cy="306.444" r="18.343"/>
<path style="fill:#314E55;" d="M394.382,361.474c-20.229,0-36.687,16.458-36.687,36.687c0,20.229,16.458,36.687,36.687,36.687
	c20.229,0,36.687-16.458,36.687-36.687C431.069,377.932,414.611,361.474,394.382,361.474z"/>
<circle style="fill:#F28544;" cx="394.382" cy="398.161" r="18.343"/>
<path style="fill:#314E55;" d="M302.665,315.616c-20.229,0-36.687,16.458-36.687,36.687c0,20.229,16.458,36.687,36.687,36.687
	c20.229,0,36.687-16.458,36.687-36.687C339.352,332.074,322.894,315.616,302.665,315.616z"/>
<circle style="fill:#5ECB66;" cx="302.665" cy="352.302" r="18.343"/>
<path style="fill:#314E55;" d="M55.03,352.302c-30.345,0-55.03,24.685-55.03,55.03c0,27.748,42.974,82.169,47.874,88.282
	c1.742,2.172,4.371,3.435,7.156,3.435c2.785,0,5.414-1.263,7.156-3.435c4.899-6.113,47.874-60.534,47.874-88.282
	C110.06,376.987,85.375,352.302,55.03,352.302z"/>
<path style="fill:#F28544;" d="M55.03,474.884c-16.431-21.953-36.687-53.597-36.687-67.551c0-20.229,16.458-36.687,36.687-36.687
	s36.687,16.458,36.687,36.687C91.717,421.287,71.461,452.931,55.03,474.884z"/>
<g>
</g>
<g>
</g>
<g>
</g>
<g>
</g>
<g>
</g>
<g>
</g>
<g>
</g>
<g>
</g>
<g>
</g>
<g>
</g>
<g>
</g>
<g>
</g>
<g>
</g>
<g>
</g>
<g>
</g>
</svg>
