<?xml version="1.0" encoding="iso-8859-1"?>
<!-- Generator: Adobe Illustrator 19.0.0, SVG Export Plug-In . SVG Version: 6.00 Build 0)  -->
<svg version="1.1" id="Layer_1" xmlns="http://www.w3.org/2000/svg" xmlns:xlink="http://www.w3.org/1999/xlink" x="0px" y="0px"
	 viewBox="0 0 512 512" style="enable-background:new 0 0 512 512;" xml:space="preserve">
<path style="fill:#314E55;" d="M256,0C125.296,0,18.963,106.333,18.963,237.037c0,5.241,4.245,9.481,9.481,9.481
	s9.481-4.241,9.481-9.481c0-26.139,21.269-47.407,47.407-47.407s47.407,21.269,47.407,47.407c0,5.241,4.245,9.481,9.481,9.481
	c5.236,0,9.481-4.241,9.481-9.481c0-26.139,21.269-47.407,47.407-47.407s47.407,21.269,47.407,47.407
	c0,5.241,4.245,9.481,9.481,9.481s9.481-4.241,9.481-9.481c0-26.139,21.269-47.407,47.407-47.407
	c26.139,0,47.407,21.269,47.407,47.407c0,5.241,4.245,9.481,9.481,9.481s9.482-4.241,9.482-9.481
	c0-26.139,21.269-47.407,47.407-47.407c26.139,0,47.407,21.269,47.407,47.407c0,5.241,4.245,9.481,9.482,9.481
	c5.236,0,9.481-4.241,9.481-9.481C493.037,106.333,386.704,0,256,0z"/>
<path style="fill:#F28544;" d="M426.667,170.667c-24.111,0-45.264,12.926-56.889,32.213c-11.625-19.287-32.778-32.213-56.889-32.213
	S267.625,183.593,256,202.88c-11.625-19.287-32.778-32.213-56.889-32.213s-45.264,12.926-56.889,32.213
	c-11.625-19.287-32.778-32.213-56.889-32.213c-15.519,0-29.815,5.352-41.13,14.315C67.607,89.787,153.69,18.963,256,18.963
	s188.393,70.824,211.796,166.019C456.481,176.018,442.185,170.667,426.667,170.667z"/>
<path style="fill:#314E55;" d="M293.926,450.37c0-18.296-14.889-33.185-33.185-33.185s-33.185,14.889-33.185,33.185
	c0,18.296,14.889,33.185,33.185,33.185S293.926,468.667,293.926,450.37z"/>
<circle style="fill:#D8D8D8;" cx="260.741" cy="450.37" r="14.222"/>
<g>
	<path style="fill:#314E55;" d="M315.667,457.889l-37.926,37.926c-3.704,3.704-3.704,9.704,0,13.407
		c1.852,1.852,4.278,2.778,6.704,2.778c2.426,0,4.852-0.926,6.704-2.778l37.926-37.926c3.704-3.704,3.704-9.704,0-13.407
		C325.37,454.185,319.37,454.185,315.667,457.889z"/>
	<path style="fill:#314E55;" d="M205.815,457.889c-3.704-3.704-9.704-3.704-13.407,0c-3.703,3.704-3.704,9.704,0,13.407
		l37.926,37.926c1.852,1.852,4.278,2.778,6.704,2.778c2.426,0,4.852-0.926,6.704-2.778c3.704-3.704,3.704-9.704,0-13.407
		L205.815,457.889z"/>
	<path style="fill:#314E55;" d="M210.653,429.222c2.514,0,5.028-1,6.894-2.972c3.593-3.806,3.426-9.806-0.38-13.398L53.921,258.593
		c-3.801-3.593-9.806-3.426-13.407,0.38c-3.593,3.806-3.426,9.806,0.38,13.398L204.139,426.63
		C205.972,428.361,208.315,429.222,210.653,429.222z"/>
	<path style="fill:#314E55;" d="M464.829,258.593l-163.25,154.259c-3.806,3.593-3.972,9.593-0.38,13.398
		c1.866,1.972,4.38,2.972,6.894,2.972c2.338,0,4.681-0.861,6.514-2.593l163.25-154.259c3.806-3.593,3.972-9.593,0.38-13.398
		C474.634,255.167,468.639,255,464.829,258.593z"/>
	<path style="fill:#314E55;" d="M142.926,251.463c-4.366,2.889-5.565,8.768-2.676,13.139l90.88,137.444
		c1.824,2.759,4.838,4.25,7.917,4.25c1.796,0,3.611-0.509,5.222-1.574c4.366-2.889,5.565-8.768,2.676-13.139l-90.88-137.445
		C153.18,249.769,147.301,248.574,142.926,251.463z"/>
	<path style="fill:#314E55;" d="M279.694,406.296c3.079,0,6.093-1.491,7.917-4.25l90.88-137.445c2.889-4.37,1.69-10.25-2.676-13.139
		c-4.375-2.889-10.245-1.694-13.139,2.676l-90.88,137.444c-2.889,4.37-1.69,10.25,2.676,13.139
		C276.083,405.787,277.898,406.296,279.694,406.296z"/>
	<path style="fill:#314E55;" d="M256,385.02c5.236,0,9.481-4.241,9.481-9.481V273.566c0-5.241-4.245-9.482-9.481-9.482
		s-9.481,4.241-9.481,9.482v101.972C246.519,380.779,250.764,385.02,256,385.02z"/>
</g>
<g>
</g>
<g>
</g>
<g>
</g>
<g>
</g>
<g>
</g>
<g>
</g>
<g>
</g>
<g>
</g>
<g>
</g>
<g>
</g>
<g>
</g>
<g>
</g>
<g>
</g>
<g>
</g>
<g>
</g>
</svg>
