<?xml version="1.0" encoding="iso-8859-1"?>
<!-- Generator: Adobe Illustrator 19.0.0, SVG Export Plug-In . SVG Version: 6.00 Build 0)  -->
<svg version="1.1" id="Layer_1" xmlns="http://www.w3.org/2000/svg" xmlns:xlink="http://www.w3.org/1999/xlink" x="0px" y="0px"
	 viewBox="0 0 512 512" style="enable-background:new 0 0 512 512;" xml:space="preserve">
<path style="fill:#314E55;" d="M8.826,344.262h494.27c4.874,0,8.826-3.948,8.826-8.826V141.259c0-4.878-3.952-8.826-8.826-8.826
	H8.826c-4.874,0-8.826,3.948-8.826,8.826v194.177C0,340.315,3.952,344.262,8.826,344.262z"/>
<rect x="17.652" y="150.085" style="fill:#5ECB66;" width="476.617" height="176.525"/>
<g>
	<path style="fill:#314E55;" d="M140.776,185.838c-3.448-3.448-9.033-3.448-12.481,0l-31.207,31.203l-31.207-31.203
		c-3.448-3.448-9.033-3.448-12.481,0c-3.448,3.448-3.448,9.033,0,12.481l31.206,31.202l-31.206,31.202
		c-3.448,3.448-3.448,9.033,0,12.481c1.724,1.724,3.982,2.586,6.24,2.586s4.517-0.862,6.24-2.586l31.207-31.203l31.207,31.203
		c1.724,1.724,3.982,2.586,6.24,2.586s4.517-0.862,6.24-2.586c3.448-3.448,3.448-9.033,0-12.481l-31.206-31.202l31.206-31.202
		C144.224,194.871,144.224,189.286,140.776,185.838z"/>
	<path style="fill:#314E55;" d="M246.691,185.838c-3.448-3.448-9.033-3.448-12.481,0l-31.207,31.203l-31.207-31.203
		c-3.448-3.448-9.033-3.448-12.481,0c-3.448,3.448-3.448,9.033,0,12.481l31.206,31.202l-31.206,31.202
		c-3.448,3.448-3.448,9.033,0,12.481c1.724,1.724,3.982,2.586,6.24,2.586s4.517-0.862,6.24-2.586l31.207-31.203l31.207,31.203
		c1.724,1.724,3.982,2.586,6.24,2.586s4.517-0.862,6.24-2.586c3.448-3.448,3.448-9.033,0-12.481l-31.206-31.202l31.206-31.202
		C250.139,194.871,250.139,189.286,246.691,185.838z"/>
	<path style="fill:#314E55;" d="M132.394,291.305h-70.61c-4.874,0-8.826,3.948-8.826,8.826c0,4.878,3.952,8.826,8.826,8.826h70.61
		c4.874,0,8.826-3.948,8.826-8.826C141.22,295.253,137.268,291.305,132.394,291.305z"/>
	<path style="fill:#314E55;" d="M238.309,291.305h-70.61c-4.874,0-8.826,3.948-8.826,8.826c0,4.878,3.952,8.826,8.826,8.826h70.61
		c4.874,0,8.826-3.948,8.826-8.826C247.135,295.253,243.183,291.305,238.309,291.305z"/>
	<path style="fill:#314E55;" d="M344.224,291.305h-70.61c-4.874,0-8.826,3.948-8.826,8.826c0,4.878,3.952,8.826,8.826,8.826h70.61
		c4.874,0,8.826-3.948,8.826-8.826C353.05,295.253,349.098,291.305,344.224,291.305z"/>
	<path style="fill:#314E55;" d="M450.139,291.305h-70.61c-4.874,0-8.826,3.948-8.826,8.826c0,4.878,3.952,8.826,8.826,8.826h70.61
		c4.874,0,8.826-3.948,8.826-8.826C458.965,295.253,455.013,291.305,450.139,291.305z"/>
	<path style="fill:#314E55;" d="M503.174,361.915H8.826c-4.874,0-8.826,3.948-8.826,8.826c0,4.879,3.952,8.826,8.826,8.826h494.348
		c4.874,0,8.826-3.948,8.826-8.826C512,365.863,508.048,361.915,503.174,361.915z"/>
</g>
<g>
</g>
<g>
</g>
<g>
</g>
<g>
</g>
<g>
</g>
<g>
</g>
<g>
</g>
<g>
</g>
<g>
</g>
<g>
</g>
<g>
</g>
<g>
</g>
<g>
</g>
<g>
</g>
<g>
</g>
</svg>
