<?xml version="1.0" encoding="iso-8859-1"?>
<!-- Generator: Adobe Illustrator 19.0.0, SVG Export Plug-In . SVG Version: 6.00 Build 0)  -->
<svg version="1.1" id="Layer_1" xmlns="http://www.w3.org/2000/svg" xmlns:xlink="http://www.w3.org/1999/xlink" x="0px" y="0px"
	 viewBox="0 0 512 512" style="enable-background:new 0 0 512 512;" xml:space="preserve">
<path style="fill:#314E55;" d="M352.404,93.896L262.219,2.516c-0.109-0.111-0.25-0.168-0.364-0.273
	c-0.319-0.292-0.672-0.531-1.035-0.774c-0.363-0.242-0.717-0.478-1.107-0.662c-0.14-0.067-0.249-0.176-0.394-0.236
	c-0.259-0.107-0.534-0.115-0.799-0.194c-0.416-0.127-0.823-0.243-1.252-0.306C256.841,0.01,256.426,0,256,0
	c-0.426,0-0.841,0.01-1.267,0.071c-0.43,0.063-0.837,0.179-1.252,0.306c-0.264,0.079-0.54,0.087-0.799,0.194
	c-0.145,0.06-0.254,0.168-0.394,0.236c-0.391,0.185-0.746,0.42-1.109,0.663c-0.362,0.244-0.714,0.481-1.032,0.773
	c-0.114,0.104-0.256,0.162-0.365,0.273l-90.185,91.379c-2.926,2.964-3.353,7.584-1.015,11.034l60.106,88.812l-20.507,31.119
	c-0.786,1.194-1.201,2.546-1.342,3.92c-6.489,5.334-10.72,13.318-10.72,22.354v119.441c0,0.294,0.139,0.543,0.167,0.83
	c-0.028,0.287-0.167,0.535-0.167,0.83v69.925c0,38.511,31.35,69.84,69.882,69.84s69.882-31.328,69.882-69.84v-69.925
	c0-0.294-0.139-0.543-0.167-0.83c0.028-0.287,0.167-0.535,0.167-0.83V251.135c0-9.036-4.231-17.02-10.72-22.354
	c-0.142-1.373-0.556-2.725-1.342-3.92l-20.507-31.119l60.106-88.812C355.756,101.48,355.33,96.86,352.404,93.896z"/>
<path style="fill:#FFFFFF;" d="M247.097,371.406c0.028-0.287,0.167-0.535,0.167-0.83v-61.147h17.471v61.147
	c0,0.294,0.139,0.543,0.168,0.83c-0.028,0.287-0.168,0.535-0.168,0.83v43.676h-17.471v-43.676
	C247.265,371.941,247.126,371.692,247.097,371.406z"/>
<path style="fill:#EA86A5;" d="M273.471,291.958h-34.941c-4.828,0-8.735,3.911-8.735,8.735v61.147h-26.206V251.135
	c0-6.389,5.204-11.589,11.593-11.589h81.637c6.389,0,11.593,5.199,11.593,11.589v110.705h-26.206v-61.147
	C282.206,295.87,278.299,291.958,273.471,291.958z"/>
<path style="fill:#D8D8D8;" d="M177.067,101.07l70.198-71.128v190.991H221.69l14.792-22.448c1.945-2.952,1.919-6.777-0.06-9.704
	L177.067,101.07z"/>
<path style="fill:#EA86A5;" d="M308.412,442.16c0,28.876-23.51,52.369-52.412,52.369c-28.902,0-52.412-23.493-52.412-52.369v-61.19
	h26.206v43.676c0,4.824,3.907,8.735,8.735,8.735h34.941c4.828,0,8.735-3.911,8.735-8.735v-43.676h26.206V442.16z"/>
<path style="fill:#D8D8D8;" d="M275.578,188.781c-1.979,2.926-2.005,6.752-0.06,9.704l14.792,22.448h-25.575V29.942l70.198,71.128
	L275.578,188.781z"/>
<g>
</g>
<g>
</g>
<g>
</g>
<g>
</g>
<g>
</g>
<g>
</g>
<g>
</g>
<g>
</g>
<g>
</g>
<g>
</g>
<g>
</g>
<g>
</g>
<g>
</g>
<g>
</g>
<g>
</g>
</svg>
