<?xml version="1.0" encoding="iso-8859-1"?>
<!-- Generator: Adobe Illustrator 19.0.0, SVG Export Plug-In . SVG Version: 6.00 Build 0)  -->
<svg version="1.1" id="Layer_1" xmlns="http://www.w3.org/2000/svg" xmlns:xlink="http://www.w3.org/1999/xlink" x="0px" y="0px"
	 viewBox="0 0 512 512" style="enable-background:new 0 0 512 512;" xml:space="preserve">
<path style="fill:#314E55;" d="M390.982,158.255c-1.432,0-3.55,0.159-6.259,0.382c-17.323,1.418-57.8,4.791-95.145-28.914
	c-14.318-12.927-25.532-30.214-36.373-46.927C229.768,46.668,205.532,9.309,148.945,9.309C66.818,9.309,0,76.127,0,158.255v232.727
	c0,5.141,4.168,9.309,9.309,9.309v93.091c0,5.141,4.168,9.309,9.309,9.309h474.764c5.141,0,9.309-4.168,9.309-9.309v-93.091
	c5.141,0,9.309-4.168,9.309-9.309V279.273C512,212.541,457.714,158.255,390.982,158.255z"/>
<path style="fill:#5ECB66;" d="M18.618,158.255c0-71.864,58.464-130.327,130.327-130.327c46.473,0,66.014,30.123,88.641,65
	c11.496,17.723,23.382,36.05,39.518,50.614c43.318,39.104,91.141,35.146,109.159,33.65c2.041-0.168,3.636-0.318,4.718-0.318
	c56.464,0,102.4,45.936,102.4,102.4v102.4H18.618V158.255z"/>
<path style="fill:#EAEAEA;" d="M484.073,484.073H27.927v-83.782h37.236v46.568c0,5.141,4.168,9.309,9.309,9.309
	s9.309-4.168,9.309-9.309v-46.568h9.309v46.568c0,5.141,4.168,9.309,9.309,9.309c5.141,0,9.309-4.168,9.309-9.309v-46.568h9.309
	v46.568c0,5.141,4.168,9.309,9.309,9.309s9.309-4.168,9.309-9.309v-46.568h55.855v46.568c0,5.141,4.168,9.309,9.309,9.309
	s9.309-4.168,9.309-9.309v-46.568h9.309v46.568c0,5.141,4.168,9.309,9.309,9.309s9.309-4.168,9.309-9.309v-46.568h37.236v46.568
	c0,5.141,4.168,9.309,9.309,9.309c5.141,0,9.309-4.168,9.309-9.309v-46.568h9.309v46.568c0,5.141,4.168,9.309,9.309,9.309
	c5.141,0,9.309-4.168,9.309-9.309v-46.568h46.545v46.568c0,5.141,4.168,9.309,9.309,9.309c5.141,0,9.309-4.168,9.309-9.309v-46.568
	h9.309v46.568c0,5.141,4.168,9.309,9.309,9.309c5.141,0,9.309-4.168,9.309-9.309v-46.568h9.309v46.568
	c0,5.141,4.168,9.309,9.309,9.309c5.141,0,9.309-4.168,9.309-9.309v-46.568h37.236V484.073z"/>
<g>
	<path style="fill:#314E55;" d="M59.268,88.795c-14.209,16.773-22.032,38.132-22.032,60.145c0,5.141,4.168,9.309,9.309,9.309
		s9.309-4.168,9.309-9.309c0-17.609,6.259-34.695,17.623-48.109c3.323-3.923,2.836-9.8-1.086-13.123
		C68.464,84.382,62.582,84.864,59.268,88.795z"/>
	<path style="fill:#314E55;" d="M46.545,186.182c-5.141,0-9.309,4.168-9.309,9.309v74.473c0,5.141,4.168,9.309,9.309,9.309
		s9.309-4.168,9.309-9.309v-74.473C55.855,190.35,51.686,186.182,46.545,186.182z"/>
</g>
<g>
</g>
<g>
</g>
<g>
</g>
<g>
</g>
<g>
</g>
<g>
</g>
<g>
</g>
<g>
</g>
<g>
</g>
<g>
</g>
<g>
</g>
<g>
</g>
<g>
</g>
<g>
</g>
<g>
</g>
</svg>
