<?xml version="1.0" encoding="iso-8859-1"?>
<!-- Generator: Adobe Illustrator 19.0.0, SVG Export Plug-In . SVG Version: 6.00 Build 0)  -->
<svg version="1.1" id="Layer_1" xmlns="http://www.w3.org/2000/svg" xmlns:xlink="http://www.w3.org/1999/xlink" x="0px" y="0px"
	 viewBox="0 0 512 512" style="enable-background:new 0 0 512 512;" xml:space="preserve">
<path style="fill:#314E55;" d="M502.519,37.926H9.481C4.241,37.926,0,42.171,0,47.407v322.37v94.815
	c0,5.236,4.241,9.481,9.481,9.481h493.037c5.241,0,9.481-4.245,9.481-9.481v-94.815V47.407
	C512,42.171,507.759,37.926,502.519,37.926z"/>
<g>
	<path style="fill:#EAEAEA;" d="M18.963,56.889h474.074v303.407h-259.62L150.704,194.87c-3.222-6.426-13.741-6.426-16.963,0
		L51.028,360.296H18.963V56.889z"/>
	<path style="fill:#EAEAEA;" d="M114.017,276.722l20.279,26.301c1.657,2.153,4.167,3.486,6.88,3.667
		c0.213,0.018,0.417,0.023,0.63,0.023c2.491,0,4.889-0.982,6.676-2.745l23.787-23.562l39.944,79.891H72.232L114.017,276.722z"/>
	<path style="fill:#EAEAEA;" d="M123.333,258.089l18.889-37.779l21.119,42.24l-20.582,20.39l-18.62-24.153
		C123.913,258.493,123.586,258.348,123.333,258.089z"/>
</g>
<polygon style="fill:#D8D8D8;" points="493.037,455.111 18.963,455.111 18.963,379.259 56.889,379.259 227.556,379.259 
	493.037,379.259 "/>
<path style="fill:#314E55;" d="M331.852,265.481c36.593,0,66.37-29.773,66.37-66.37s-29.778-66.37-66.37-66.37
	s-66.37,29.773-66.37,66.37S295.259,265.481,331.852,265.481z"/>
<path style="fill:#E4AD40;" d="M331.852,151.704c26.139,0,47.407,21.269,47.407,47.407s-21.269,47.407-47.407,47.407
	c-26.139,0-47.407-21.269-47.407-47.407S305.713,151.704,331.852,151.704z"/>
<g>
	<path style="fill:#314E55;" d="M331.852,113.778c5.241,0,9.481-4.245,9.481-9.481V85.333c0-5.236-4.241-9.481-9.481-9.481
		c-5.241,0-9.482,4.245-9.482,9.481v18.963C322.37,109.532,326.611,113.778,331.852,113.778z"/>
	<path style="fill:#314E55;" d="M331.852,284.444c-5.241,0-9.482,4.245-9.482,9.481v18.963c0,5.236,4.241,9.481,9.482,9.481
		c5.241,0,9.481-4.245,9.481-9.481v-18.963C341.333,288.69,337.093,284.444,331.852,284.444z"/>
	<path style="fill:#314E55;" d="M218.074,208.593h18.963c5.241,0,9.481-4.245,9.481-9.481s-4.241-9.481-9.481-9.481h-18.963
		c-5.241,0-9.481,4.245-9.481,9.481S212.833,208.593,218.074,208.593z"/>
	<path style="fill:#314E55;" d="M426.667,208.593h18.963c5.241,0,9.481-4.245,9.481-9.481s-4.241-9.481-9.481-9.481h-18.963
		c-5.241,0-9.481,4.245-9.481,9.481S421.426,208.593,426.667,208.593z"/>
</g>
<g>
</g>
<g>
</g>
<g>
</g>
<g>
</g>
<g>
</g>
<g>
</g>
<g>
</g>
<g>
</g>
<g>
</g>
<g>
</g>
<g>
</g>
<g>
</g>
<g>
</g>
<g>
</g>
<g>
</g>
</svg>
