<?xml version="1.0" encoding="iso-8859-1"?>
<!-- Generator: Adobe Illustrator 19.0.0, SVG Export Plug-In . SVG Version: 6.00 Build 0)  -->
<svg version="1.1" id="Layer_1" xmlns="http://www.w3.org/2000/svg" xmlns:xlink="http://www.w3.org/1999/xlink" x="0px" y="0px"
	 viewBox="0 0 512 512" style="enable-background:new 0 0 512 512;" xml:space="preserve">
<path style="fill:#314E55;" d="M303.407,0c-88.88,0-161.185,80.815-161.185,180.148c0,35.644,9.296,70.107,26.88,99.662
	c1.708,2.875,4.806,4.634,8.148,4.634h252.315c3.343,0,6.44-1.759,8.148-4.634c17.583-29.555,26.88-64.018,26.88-99.662
	C464.593,80.815,392.287,0,303.407,0z"/>
<path style="fill:#E4AD40;" d="M424.074,265.481H182.741c-14.121-25.574-21.556-54.954-21.556-85.333
	c0-88.88,63.801-161.185,142.222-161.185S445.63,91.269,445.63,180.148C445.63,210.528,438.194,239.907,424.074,265.481z"/>
<path style="fill:#314E55;" d="M408.333,293.926H198.482c-3.768,0-7.181,2.236-8.69,5.69c-1.509,3.454-0.824,7.477,1.741,10.241
	c18.463,19.903,40.527,34.259,64.468,42.463v150.199c0,5.236,4.245,9.481,9.482,9.481h75.852c5.236,0,9.481-4.245,9.481-9.481
	V352.32c23.941-8.204,46.005-22.56,64.468-42.463c2.565-2.764,3.25-6.787,1.741-10.241
	C415.514,296.162,412.102,293.926,408.333,293.926z"/>
<rect x="274.963" y="360.296" style="fill:#D8D8D8;" width="56.889" height="132.741"/>
<path style="fill:#E4AD40;" d="M303.407,341.333c-29.134,0-57.106-9.968-80.69-28.444h161.38
	C360.514,331.366,332.542,341.333,303.407,341.333z"/>
<g>
	<rect x="293.926" y="455.111" style="fill:#314E55;" width="18.963" height="18.963"/>
	<path style="fill:#314E55;" d="M104.296,322.37c-31.37,0-56.889,25.518-56.889,56.889s25.518,56.889,56.889,56.889
		s56.889-25.518,56.889-56.889S135.667,322.37,104.296,322.37z"/>
</g>
<path style="fill:#D8D8D8;" d="M104.296,417.185c-20.912,0-37.926-17.014-37.926-37.926c0-20.912,17.014-37.926,37.926-37.926
	s37.926,17.014,37.926,37.926C142.222,400.171,125.208,417.185,104.296,417.185z"/>
<g>
</g>
<g>
</g>
<g>
</g>
<g>
</g>
<g>
</g>
<g>
</g>
<g>
</g>
<g>
</g>
<g>
</g>
<g>
</g>
<g>
</g>
<g>
</g>
<g>
</g>
<g>
</g>
<g>
</g>
</svg>
