<?xml version="1.0" encoding="iso-8859-1"?>
<!-- Generator: Adobe Illustrator 19.0.0, SVG Export Plug-In . SVG Version: 6.00 Build 0)  -->
<svg version="1.1" id="Layer_1" xmlns="http://www.w3.org/2000/svg" xmlns:xlink="http://www.w3.org/1999/xlink" x="0px" y="0px"
	 viewBox="0 0 512 512" style="enable-background:new 0 0 512 512;" xml:space="preserve">
<path style="fill:#314E55;" d="M508.786,78.669c-2.044-1.871-4.692-2.763-7.541-2.514c-3.588,0.336-88.635,8.904-149.149,59.439
	c-49.652,41.468-137.069,148.525-166.294,184.917l-31.394-63.584c-1.996-4.039-6.409-6.208-10.919-5.248l-131.475,28.87
	c-3.761,0.825-6.697,3.78-7.503,7.561c-0.969,4.567-22.998,112.42,39.933,158.542c26.635,19.525,55.495,27.556,82.994,27.556
	c32.238,0,62.605-11.043,85.315-27.527c19.458-14.133,54.2-66.097,94.43-126.256c32.718-48.923,66.548-99.515,88.462-122.926
	c44.567-47.628,106.769-53.692,107.383-53.749c5.076-0.451,8.971-4.701,8.971-9.787V85.932C512,83.169,510.829,80.53,508.786,78.669
	z"/>
<g>
	<path style="fill:#E4AD40;" d="M381.292,184.066c-23.008,24.591-57.289,75.855-90.449,125.44
		c-35.894,53.682-73.015,109.196-89.643,121.266c-27.086,19.669-88.136,41.813-145.148,0.029
		c-45.018-32.996-36.843-110.137-33.38-132.473l117.525-25.81l34.829,70.559c1.487,3.022,4.423,5.076,7.781,5.421
		c3.329,0.403,6.639-1.027,8.731-3.675c1.151-1.459,115.74-146.203,173.145-194.147c19.671-16.426,42.577-28.062,64.041-36.288
		l11.939,27.316C421.306,150.642,400.074,163.997,381.292,184.066z"/>
	<path style="fill:#E4AD40;" d="M492.35,125.414c-7.633,1.309-19.526,3.901-33.501,8.851l-11.507-26.328
		c18.683-5.827,34.956-9.079,45.008-10.721V125.414z"/>
</g>
<g>
	<path style="fill:#314E55;" d="M41.143,207.246c-4.586,2.898-5.968,8.961-3.08,13.557c1.871,2.965,5.066,4.586,8.328,4.586
		c1.785,0,3.598-0.489,5.229-1.506c1.717-1.084,41.756-27.345,7.014-96.522c-9.374-18.671-11.83-34.896-7.292-48.213
		c5.335-15.678,19.026-22.5,19.314-22.643c4.883-2.303,6.995-8.117,4.721-13.02c-2.274-4.922-8.117-7.062-13.049-4.778
		c-0.864,0.403-21.214,10.074-29.446,33.696c-6.486,18.585-3.723,40.048,8.194,63.785C67.433,188.662,42.113,206.594,41.143,207.246
		z"/>
	<path style="fill:#314E55;" d="M90.268,207.246c-4.586,2.898-5.968,8.961-3.08,13.557c1.871,2.965,5.066,4.586,8.328,4.586
		c1.785,0,3.598-0.489,5.229-1.506c1.717-1.084,41.756-27.345,7.014-96.522c-9.374-18.671-11.83-34.896-7.292-48.213
		c5.335-15.678,19.026-22.5,19.314-22.643c4.883-2.303,6.995-8.117,4.721-13.02c-2.274-4.922-8.117-7.062-13.049-4.778
		c-0.864,0.403-21.214,10.074-29.446,33.696c-6.486,18.585-3.723,40.048,8.194,63.785
		C116.557,188.662,91.237,206.594,90.268,207.246z"/>
</g>
<g>
</g>
<g>
</g>
<g>
</g>
<g>
</g>
<g>
</g>
<g>
</g>
<g>
</g>
<g>
</g>
<g>
</g>
<g>
</g>
<g>
</g>
<g>
</g>
<g>
</g>
<g>
</g>
<g>
</g>
</svg>
