<?xml version="1.0" encoding="iso-8859-1"?>
<!-- Generator: Adobe Illustrator 19.0.0, SVG Export Plug-In . SVG Version: 6.00 Build 0)  -->
<svg version="1.1" id="Layer_1" xmlns="http://www.w3.org/2000/svg" xmlns:xlink="http://www.w3.org/1999/xlink" x="0px" y="0px"
	 viewBox="0 0 512 512" style="enable-background:new 0 0 512 512;" xml:space="preserve">
<path style="fill:#314E55;" d="M439.632,192.648c-1.792-2.484-4.662-3.951-7.717-3.951H283.527
	c0.118-2.663,2.31-44.387,23.729-65.023c98.254-17.632,96.15-107.693,96.114-108.621c-0.176-4.754-3.835-8.65-8.58-9.11
	c-29.79-2.902-54.091,4.183-72.153,21.084c-31.44,29.402-32.677,78.302-32.637,87.194c-3.117,3.584-5.847,7.468-8.249,11.517
	l-9.787-16.678c-0.074-0.125-0.203-0.193-0.282-0.316C266.198,9.007,176.501,0.113,175.574,0.032
	c-4.624-0.385-9.045,2.763-10.085,7.41c-6.519,29.233-2.433,54.193,12.137,74.182c24.365,33.43,69.989,41.367,81.342,42.857
	l12.605,21.481c0.198,0.337,0.471,0.594,0.702,0.896c-6.984,20.87-7.729,40.192-7.768,41.499c-0.004,0.121,0.058,0.221,0.058,0.339
	H80.085c-3.055,0-5.925,1.467-7.717,3.951c-1.783,2.479-2.275,5.664-1.3,8.566l19.018,57.054c1.291,3.882,4.922,6.5,9.017,6.5
	h10.212l18.342,238.452c0.381,4.954,4.513,8.78,9.481,8.78h237.723c4.968,0,9.1-3.826,9.481-8.78l18.342-238.452h10.212
	c4.095,0,7.726-2.619,9.017-6.5l19.018-57.054C441.907,198.312,441.415,195.127,439.632,192.648z"/>
<g>
	<path style="fill:#5ECB66;" d="M192.939,70.351c-9.741-13.414-13.26-30.184-10.503-49.945
		c19.102,4.309,63.897,21.042,69.878,83.584C236.769,100.646,208.567,91.852,192.939,70.351z"/>
	<path style="fill:#5ECB66;" d="M335.693,40.858c11.775-10.985,27.412-16.525,46.588-16.525c0.548,0,1.105,0.005,1.653,0.014
		c-2.052,19.505-13.418,66.001-74.4,79.535C310.964,88.04,316.257,58.98,335.693,40.858z"/>
</g>
<g>
	<polygon style="fill:#D26CBA;" points="366.058,492.982 145.942,492.982 128.391,264.768 383.609,264.768 	"/>
	<polygon style="fill:#D26CBA;" points="406.044,245.75 393.879,245.75 118.121,245.75 105.956,245.75 93.281,207.715 
		418.72,207.715 	"/>
</g>
<g>
</g>
<g>
</g>
<g>
</g>
<g>
</g>
<g>
</g>
<g>
</g>
<g>
</g>
<g>
</g>
<g>
</g>
<g>
</g>
<g>
</g>
<g>
</g>
<g>
</g>
<g>
</g>
<g>
</g>
</svg>
