<?xml version="1.0" encoding="iso-8859-1"?>
<!-- Generator: Adobe Illustrator 19.0.0, SVG Export Plug-In . SVG Version: 6.00 Build 0)  -->
<svg version="1.1" id="Layer_1" xmlns="http://www.w3.org/2000/svg" xmlns:xlink="http://www.w3.org/1999/xlink" x="0px" y="0px"
	 viewBox="0 0 512 512" style="enable-background:new 0 0 512 512;" xml:space="preserve">
<path style="fill:#314E55;" d="M509.759,457.509l-96.604-115.924c-1.835-2.198-4.552-3.472-7.42-3.472H154.566
	c-2.868,0-5.585,1.273-7.42,3.472L50.542,457.509c-2.401,2.887-2.92,6.896-1.33,10.283c1.59,3.396,5,5.566,8.75,5.566h444.377
	c3.75,0,7.16-2.17,8.75-5.566C512.678,464.405,512.159,460.396,509.759,457.509z"/>
<polygon style="fill:#81A4E3;" points="78.589,454.037 159.089,357.434 401.212,357.434 481.711,454.037 "/>
<path style="fill:#314E55;" d="M57.962,405.736c5.335,0,9.66-4.321,9.66-9.66v-57.962c0-5.34-4.325-9.66-9.66-9.66
	s-9.66,4.321-9.66,9.66v19.321H19.321v-77.283h29.67c4.126,0,7.587-2.608,8.972-6.249v44.89c0,5.34,4.325,9.66,9.66,9.66h425.056
	c5.335,0,9.66-4.321,9.66-9.66V212.528c0-5.34-4.325-9.66-9.66-9.66h-86.943V48.302c0-5.34-4.325-9.66-9.66-9.66H164.226
	c-5.335,0-9.66,4.321-9.66,9.66v154.566H67.623c-5.335,0-9.66,4.321-9.66,9.66v54.551c-1.384-3.641-4.846-6.249-8.972-6.249H9.66
	c-5.335,0-9.66,4.321-9.66,9.66v96.604c0,5.34,4.325,9.66,9.66,9.66h38.641v19.321C48.302,401.415,52.627,405.736,57.962,405.736z"
	/>
<rect x="173.886" y="57.963" style="fill:#EAEAEA;" width="212.528" height="144.905"/>
<polygon style="fill:#81A4E3;" points="77.283,222.189 164.226,222.189 396.075,222.189 483.018,222.189 483.018,309.132 
	77.283,309.132 "/>
<g>
	<path style="fill:#314E55;" d="M444.377,251.17h-96.604c-5.335,0-9.66,4.321-9.66,9.66c0,5.34,4.325,9.66,9.66,9.66h96.604
		c5.335,0,9.66-4.321,9.66-9.66C454.037,255.491,449.711,251.17,444.377,251.17z"/>
	<path style="fill:#314E55;" d="M202.868,106.264h115.924c5.335,0,9.66-4.321,9.66-9.66s-4.325-9.66-9.66-9.66H202.868
		c-5.335,0-9.66,4.321-9.66,9.66S197.533,106.264,202.868,106.264z"/>
	<path style="fill:#314E55;" d="M347.773,125.585H202.868c-5.335,0-9.66,4.321-9.66,9.66s4.325,9.66,9.66,9.66h144.905
		c5.335,0,9.66-4.321,9.66-9.66S353.108,125.585,347.773,125.585z"/>
	<path style="fill:#314E55;" d="M318.792,425.056h-86.943c-5.335,0-9.66,4.321-9.66,9.66s4.325,9.66,9.66,9.66h86.943
		c5.335,0,9.66-4.321,9.66-9.66S324.127,425.056,318.792,425.056z"/>
	<path style="fill:#314E55;" d="M367.094,425.056h-19.321c-5.335,0-9.66,4.321-9.66,9.66s4.325,9.66,9.66,9.66h19.321
		c5.335,0,9.66-4.321,9.66-9.66S372.429,425.056,367.094,425.056z"/>
	<path style="fill:#314E55;" d="M202.868,425.056h-19.321c-5.335,0-9.66,4.321-9.66,9.66s4.325,9.66,9.66,9.66h19.321
		c5.335,0,9.66-4.321,9.66-9.66S208.202,425.056,202.868,425.056z"/>
	<path style="fill:#314E55;" d="M164.226,396.075h-9.66c-5.335,0-9.66,4.321-9.66,9.66s4.325,9.66,9.66,9.66h9.66
		c5.335,0,9.66-4.321,9.66-9.66S169.561,396.075,164.226,396.075z"/>
	<path style="fill:#314E55;" d="M173.886,386.415h9.66c5.335,0,9.66-4.321,9.66-9.66s-4.325-9.66-9.66-9.66h-9.66
		c-5.335,0-9.66,4.321-9.66,9.66S168.552,386.415,173.886,386.415z"/>
	<path style="fill:#314E55;" d="M251.169,386.415h9.66c5.335,0,9.66-4.321,9.66-9.66s-4.325-9.66-9.66-9.66h-9.66
		c-5.335,0-9.66,4.321-9.66,9.66S245.834,386.415,251.169,386.415z"/>
	<path style="fill:#314E55;" d="M347.773,376.754c0-5.34-4.325-9.66-9.66-9.66h-9.66c-5.335,0-9.66,4.321-9.66,9.66
		s4.325,9.66,9.66,9.66h9.66C343.448,386.415,347.773,382.094,347.773,376.754z"/>
	<path style="fill:#314E55;" d="M231.849,376.754c0-5.34-4.325-9.66-9.66-9.66h-9.66c-5.335,0-9.66,4.321-9.66,9.66
		s4.325,9.66,9.66,9.66h9.66C227.523,386.415,231.849,382.094,231.849,376.754z"/>
	<path style="fill:#314E55;" d="M289.811,386.415h9.66c5.335,0,9.66-4.321,9.66-9.66s-4.325-9.66-9.66-9.66h-9.66
		c-5.335,0-9.66,4.321-9.66,9.66S284.476,386.415,289.811,386.415z"/>
	<path style="fill:#314E55;" d="M367.094,386.415h9.66c5.335,0,9.66-4.321,9.66-9.66s-4.325-9.66-9.66-9.66h-9.66
		c-5.335,0-9.66,4.321-9.66,9.66S361.759,386.415,367.094,386.415z"/>
	<path style="fill:#314E55;" d="M202.868,396.075h-9.66c-5.335,0-9.66,4.321-9.66,9.66s4.325,9.66,9.66,9.66h9.66
		c5.335,0,9.66-4.321,9.66-9.66S208.202,396.075,202.868,396.075z"/>
	<path style="fill:#314E55;" d="M222.188,405.736c0,5.34,4.325,9.66,9.66,9.66h9.66c5.335,0,9.66-4.321,9.66-9.66
		s-4.325-9.66-9.66-9.66h-9.66C226.514,396.075,222.188,400.396,222.188,405.736z"/>
	<path style="fill:#314E55;" d="M260.83,405.736c0,5.34,4.325,9.66,9.66,9.66h9.66c5.335,0,9.66-4.321,9.66-9.66
		s-4.325-9.66-9.66-9.66h-9.66C265.155,396.075,260.83,400.396,260.83,405.736z"/>
	<path style="fill:#314E55;" d="M318.792,396.075h-9.66c-5.335,0-9.66,4.321-9.66,9.66s4.325,9.66,9.66,9.66h9.66
		c5.335,0,9.66-4.321,9.66-9.66S324.127,396.075,318.792,396.075z"/>
	<path style="fill:#314E55;" d="M338.113,405.736c0,5.34,4.325,9.66,9.66,9.66h9.66c5.335,0,9.66-4.321,9.66-9.66
		s-4.325-9.66-9.66-9.66h-9.66C342.438,396.075,338.113,400.396,338.113,405.736z"/>
	<path style="fill:#314E55;" d="M376.754,405.736c0,5.34,4.325,9.66,9.66,9.66h19.321c5.335,0,9.66-4.321,9.66-9.66
		s-4.325-9.66-9.66-9.66h-19.321C381.079,396.075,376.754,400.396,376.754,405.736z"/>
</g>
<g>
</g>
<g>
</g>
<g>
</g>
<g>
</g>
<g>
</g>
<g>
</g>
<g>
</g>
<g>
</g>
<g>
</g>
<g>
</g>
<g>
</g>
<g>
</g>
<g>
</g>
<g>
</g>
<g>
</g>
</svg>
