<?xml version="1.0" encoding="iso-8859-1"?>
<!-- Generator: Adobe Illustrator 19.0.0, SVG Export Plug-In . SVG Version: 6.00 Build 0)  -->
<svg version="1.1" id="Layer_1" xmlns="http://www.w3.org/2000/svg" xmlns:xlink="http://www.w3.org/1999/xlink" x="0px" y="0px"
	 viewBox="0 0 512 512" style="enable-background:new 0 0 512 512;" xml:space="preserve">
<path style="fill:#314E55;" d="M485.009,136.345c-12.958,0-24.82-0.356-34.788-0.825l41.085-23.761
	c3.56-2.061,5.415-6.174,4.6-10.208L476.905,7.695c-0.74-3.631-3.495-6.512-7.093-7.406c-3.598-0.904-7.383,0.361-9.725,3.218
	c-1.115,1.354-112.414,136.038-192.718,168.311C180.317,206.798,87.121,295.039,87.121,370.635c0,13.98,5.393,26.075,15.888,36.027
	l-84.294,84.289c-3.748,3.748-3.748,9.819,0,13.567c1.874,1.874,4.329,2.811,6.783,2.811s4.91-0.937,6.783-2.811l86.637-86.633
	c31.616,16.964,80.606,20.251,113.38,20.251c18.898,0,32.38-1.077,33.983-1.209c2.071-0.173,4.029-1.012,5.575-2.394l62.69-55.752
	c3.008-2.665,4.029-6.919,2.567-10.662c-1.443-3.682-4.994-6.1-8.938-6.1c-0.056,0-0.113,0-0.178,0
	c-0.309,0.033-28.839,0.347-57.659-12.25c43.989-12.194,94.584-6.793,95.183-6.737c3.008,0.361,6.165-0.829,8.236-3.167
	l54.473-61.458c2.221-2.497,2.97-5.968,1.996-9.163c-0.975-3.195-3.532-5.65-6.774-6.488l-39.173-10.133l64.115-10.958
	c2.492-0.426,4.722-1.827,6.193-3.893c1.63-2.295,40.017-56.596,40.017-91.834C494.603,140.641,490.312,136.345,485.009,136.345z"/>
<path style="fill:#81A4E3;" d="M441.189,223.429l-104.253,17.816c-4.451,0.764-7.777,4.535-7.964,9.055s2.802,8.559,7.186,9.693
	l67.319,17.418l-40.85,46.093c-17.343-1.401-75.199-4.127-119.581,15.628c-3.195,1.419-5.359,4.455-5.659,7.931
	c-0.3,3.481,1.302,6.844,4.197,8.793c21.831,14.686,46.135,20.88,63.468,23.484l-43.521,38.71
	c-33.374,2.324-115.73,2.028-144.925-24.838c-6.933-6.376-10.297-13.759-10.297-22.575c0-66.836,88.653-149.038,168.217-181.016
	c68.958-27.71,155.156-121.572,187.49-158.764L475.724,98.6l-62.25,36.006c-3.588,2.08-5.444,6.235-4.582,10.302
	c0.862,4.062,4.244,7.107,8.376,7.547c1.068,0.112,24.285,2.539,57.059,3.003C469.653,178.095,451.027,208.986,441.189,223.429z"/>
<g>
	<path style="fill:#314E55;" d="M327.848,492.812H85.509c-5.303,0-9.594,4.296-9.594,9.594S80.206,512,85.509,512h242.338
		c5.303,0,9.594-4.296,9.594-9.594S333.151,492.812,327.848,492.812z"/>
	<path style="fill:#314E55;" d="M423.79,492.812h-47.971c-5.303,0-9.594,4.296-9.594,9.594s4.291,9.594,9.594,9.594h47.971
		c5.303,0,9.594-4.296,9.594-9.594S429.093,492.812,423.79,492.812z"/>
</g>
<g>
</g>
<g>
</g>
<g>
</g>
<g>
</g>
<g>
</g>
<g>
</g>
<g>
</g>
<g>
</g>
<g>
</g>
<g>
</g>
<g>
</g>
<g>
</g>
<g>
</g>
<g>
</g>
<g>
</g>
</svg>
