<?xml version="1.0" encoding="iso-8859-1"?>
<!-- Generator: Adobe Illustrator 19.0.0, SVG Export Plug-In . SVG Version: 6.00 Build 0)  -->
<svg version="1.1" id="Layer_1" xmlns="http://www.w3.org/2000/svg" xmlns:xlink="http://www.w3.org/1999/xlink" x="0px" y="0px"
	 viewBox="0 0 512 512" style="enable-background:new 0 0 512 512;" xml:space="preserve">
<path style="fill:#314E55;" d="M479.418,363.055H293.236V9.309c0-5.141-4.164-9.309-9.309-9.309h-55.855
	c-5.145,0-9.309,4.168-9.309,9.309v353.745H32.582c-5.145,0-9.309,4.164-9.309,9.309v55.855c0,5.145,4.164,9.309,9.309,9.309h9.309
	v65.164c0,5.145,4.164,9.309,9.309,9.309s9.309-4.164,9.309-9.309v-65.164h18.618v65.164c0,5.145,4.164,9.309,9.309,9.309
	c5.145,0,9.309-4.164,9.309-9.309v-65.164h18.618v65.164c0,5.145,4.164,9.309,9.309,9.309s9.309-4.164,9.309-9.309v-65.164H153.6
	v65.164c0,5.145,4.164,9.309,9.309,9.309s9.309-4.164,9.309-9.309v-65.164h18.618v65.164c0,5.145,4.164,9.309,9.309,9.309
	s9.309-4.164,9.309-9.309v-65.164h18.618v65.164c0,5.145,4.164,9.309,9.309,9.309c5.145,0,9.309-4.164,9.309-9.309v-65.164h18.618
	v65.164c0,5.145,4.164,9.309,9.309,9.309c5.145,0,9.309-4.164,9.309-9.309v-65.164h18.618v65.164c0,5.145,4.164,9.309,9.309,9.309
	c5.145,0,9.309-4.164,9.309-9.309v-65.164h18.618v65.164c0,5.145,4.164,9.309,9.309,9.309c5.145,0,9.309-4.164,9.309-9.309v-65.164
	h18.618v65.164c0,5.145,4.164,9.309,9.309,9.309s9.309-4.164,9.309-9.309v-65.164h18.618v65.164c0,5.145,4.164,9.309,9.309,9.309
	s9.309-4.164,9.309-9.309v-65.164h18.618v65.164c0,5.145,4.164,9.309,9.309,9.309s9.309-4.164,9.309-9.309v-65.164h9.309
	c5.145,0,9.309-4.164,9.309-9.309v-55.855C488.727,367.218,484.564,363.055,479.418,363.055z"/>
<g>
	<rect x="237.382" y="18.618" style="fill:#81A4E3;" width="37.236" height="344.436"/>
	<polygon style="fill:#81A4E3;" points="470.109,418.909 41.891,418.909 41.891,381.673 228.073,381.673 283.927,381.673 
		470.109,381.673 	"/>
</g>
<g>
</g>
<g>
</g>
<g>
</g>
<g>
</g>
<g>
</g>
<g>
</g>
<g>
</g>
<g>
</g>
<g>
</g>
<g>
</g>
<g>
</g>
<g>
</g>
<g>
</g>
<g>
</g>
<g>
</g>
</svg>
