<?xml version="1.0" encoding="iso-8859-1"?>
<!-- Generator: Adobe Illustrator 19.0.0, SVG Export Plug-In . SVG Version: 6.00 Build 0)  -->
<svg version="1.1" id="Layer_1" xmlns="http://www.w3.org/2000/svg" xmlns:xlink="http://www.w3.org/1999/xlink" x="0px" y="0px"
	 viewBox="0 0 512 512" style="enable-background:new 0 0 512 512;" xml:space="preserve">
<path style="fill:#314E55;" d="M511.906,87.698c-0.045-0.841-0.211-1.664-0.499-2.473c-0.085-0.236-0.136-0.475-0.239-0.702
	c-0.05-0.111-0.061-0.232-0.116-0.341c-0.407-0.806-0.946-1.513-1.557-2.142c-0.133-0.137-0.295-0.228-0.437-0.358
	c-0.62-0.561-1.305-1.02-2.055-1.386c-0.259-0.127-0.507-0.241-0.779-0.343c-0.97-0.362-1.983-0.616-3.052-0.616h-70.621h-79.448
	h-70.621h-79.448h-70.621H8.828C3.948,79.338,0,83.291,0,88.166V255.89c0,0.166,0.085,0.304,0.094,0.467
	c0.045,0.844,0.211,1.667,0.5,2.477c0.084,0.235,0.135,0.472,0.238,0.697c0.05,0.111,0.061,0.232,0.116,0.342
	c0.407,0.806,0.946,1.513,1.557,2.142c0.133,0.136,0.294,0.228,0.436,0.358c0.62,0.561,1.306,1.022,2.057,1.386
	c0.258,0.127,0.505,0.241,0.777,0.343c0.97,0.362,1.983,0.616,3.053,0.616h70.621h8.828v150.069H70.621
	c-4.879,0-8.828,3.953-8.828,8.828s3.948,8.828,8.828,8.828H95.94c0.398,0.052,0.751,0.22,1.164,0.22
	c0.413,0,0.767-0.168,1.164-0.22h25.318c4.879,0,8.828-3.953,8.828-8.828s-3.948-8.828-8.828-8.828h-17.655V264.718h52.966h70.621
	h79.448h70.621h26.483v150.069h-17.655c-4.879,0-8.828,3.953-8.828,8.828s3.948,8.828,8.828,8.828h25.319
	c0.398,0.052,0.751,0.22,1.164,0.22s0.767-0.168,1.164-0.22h25.318c4.879,0,8.828-3.953,8.828-8.828s-3.948-8.828-8.828-8.828
	h-17.655V264.718h79.448c4.879,0,8.828-3.953,8.828-8.828V88.166C512,88,511.915,87.862,511.906,87.698z"/>
<g>
	<polygon style="fill:#DBCF56;" points="246.984,247.063 357.561,96.994 415.085,96.994 304.508,247.063 	"/>
	<polygon style="fill:#DBCF56;" points="96.915,247.063 207.492,96.994 265.016,96.994 154.439,247.063 	"/>
	<polygon style="fill:#DBCF56;" points="114.947,96.994 17.655,229.032 17.655,96.994 	"/>
</g>
<g>
	<polygon style="fill:#F28544;" points="26.293,247.063 136.871,96.994 185.569,96.994 74.991,247.063 	"/>
	<polygon style="fill:#F28544;" points="176.362,247.063 286.94,96.994 335.638,96.994 225.06,247.063 	"/>
	<polygon style="fill:#F28544;" points="326.431,247.063 437.009,96.994 485.707,96.994 375.129,247.063 	"/>
</g>
<polygon style="fill:#DBCF56;" points="397.053,247.063 494.345,115.024 494.345,247.063 "/>
<g>
</g>
<g>
</g>
<g>
</g>
<g>
</g>
<g>
</g>
<g>
</g>
<g>
</g>
<g>
</g>
<g>
</g>
<g>
</g>
<g>
</g>
<g>
</g>
<g>
</g>
<g>
</g>
<g>
</g>
</svg>
