<?xml version="1.0" encoding="iso-8859-1"?>
<!-- Generator: Adobe Illustrator 19.0.0, SVG Export Plug-In . SVG Version: 6.00 Build 0)  -->
<svg version="1.1" id="Layer_1" xmlns="http://www.w3.org/2000/svg" xmlns:xlink="http://www.w3.org/1999/xlink" x="0px" y="0px"
	 viewBox="0 0 512 512" style="enable-background:new 0 0 512 512;" xml:space="preserve">
<path style="fill:#314E55;" d="M454.089,394.985c-0.633-1.838-1.346-3.516-2.162-4.943c-4.547-7.962-13.336-16.119-21.645-22.738
	c20.125-6.495,37.423-18.105,50.462-34.23c20.979-25.958,28.25-60.219,20.479-96.5l-37.33-174.215
	c14.549-12.695,26.86-32.704,14.981-56.462c-2.635-5.271-9.037-7.396-14.313-4.771c-5.271,2.635-7.406,9.042-4.771,14.313
	c9.513,19.027-12.746,33.787-19.853,37.896H240c-5.891,0-10.667,4.771-10.667,10.667v42.667H208
	c-5.891,0-10.667,4.771-10.667,10.667v32c0,5.896,4.776,10.667,10.667,10.667h21.333v37.776l-1.323-0.703
	c-2.484-1.333-5.406-1.604-8.125-0.781c-2.703,0.823-4.969,2.687-6.297,5.187l-15.026,28.261
	c-2.674,5.036-0.845,11.171,3.973,14.071c-44.106,10.613-110.712,24.75-111.999,25.044c-22.609,6.125-39.354,19.979-47.146,38.99
	c-7.729,18.865-5.578,40.25,6.062,60.198c1.911,3.281,5.422,5.292,9.214,5.292h7.194l-3.065,10.728
	c-31.79,0.651-57.462,26.668-57.462,58.606c0,32.344,26.318,58.667,58.667,58.667c30.548,0,55.689-23.482,58.397-53.333h11.207
	c2.708,29.852,27.848,53.333,58.397,53.333s55.689-23.482,58.397-53.333h11.207c2.708,29.852,27.848,53.333,58.397,53.333
	s55.689-23.482,58.397-53.333h12.57c-0.945,1.592-1.633,3.347-1.633,5.333C389.334,485.677,415.651,512,448,512
	s58.667-26.323,58.667-58.667C506.667,423.046,483.587,398.042,454.089,394.985z M346.667,384.667h-206.12l1.851-11.333h204.269
	V384.667z"/>
<g>
	<rect x="218.667" y="128" style="fill:#E9E7D1;" width="106.667" height="10.667"/>
	
		<rect x="266.688" y="197.34" transform="matrix(-0.4695 0.8829 -0.8829 -0.4695 621.0599 128.1773)" style="fill:#E9E7D1;" width="10.667" height="106.668"/>
</g>
<path style="fill:#E4AD40;" d="M63.13,315.938c5.219-12.729,16.932-22.146,32.411-26.354c3.949-0.845,96.093-20.401,134.913-30.802
	l85.535,45.479c1.552,0.833,3.276,1.25,5.005,1.25c1.047,0,2.099-0.156,3.12-0.469c2.703-0.823,4.969-2.687,6.297-5.187
	l15.026-28.261c2.766-5.208,0.792-11.667-4.406-14.427l-90.365-48.048V160H336c5.891,0,10.667-4.771,10.667-10.667v-32
	c0-5.896-4.776-10.667-10.667-10.667h-85.333v-32h194.042l35.651,166.385c6.401,29.844,0.646,57.761-16.203,78.604
	C447.297,340.51,421.187,352,390.635,352h-33.302h-224h-26.667H65.109C59.349,339.573,58.619,326.948,63.13,315.938z"/>
<path style="fill:#F28544;" d="M106.666,373.333h14.12l-3.313,20.281c-0.505,3.083,0.37,6.239,2.401,8.625
	c2.026,2.385,4.995,3.761,8.125,3.761h229.334c5.891,0,10.667-4.771,10.667-10.667v-22h22.635h11.599
	c10.5,6.823,26.396,18.938,31.172,27.292c1.953,3.417,3.307,14.677,3.771,26.042H72.807l15.237-53.333L106.666,373.333
	L106.666,373.333z"/>
<g>
	<path style="fill:#D8D8D8;" d="M64,480c-20.583,0-37.333-16.75-37.333-37.333c0-18.016,12.832-33.093,29.835-36.575l-8.09,28.314
		c-0.922,3.219-0.276,6.677,1.739,9.354c2.016,2.667,5.167,4.239,8.516,4.239h42.128C98.178,466.044,82.757,480,64,480z"/>
	<path style="fill:#D8D8D8;" d="M192,480c-18.757,0-34.178-13.956-36.794-32h73.589C226.178,466.044,210.757,480,192,480z"/>
	<path style="fill:#D8D8D8;" d="M320,480c-18.757,0-34.178-13.956-36.794-32h73.589C354.178,466.044,338.757,480,320,480z"/>
	<path style="fill:#D8D8D8;" d="M448,490.667c-20.583,0-37.333-16.75-37.333-37.333c0-1.986-0.689-3.742-1.633-5.333H448
		c5.839,0,10.589-4.687,10.667-10.531c0.047-3.717,0.006-11.497-0.647-19.929c15.701,4.412,27.314,18.704,27.314,35.794
		C485.333,473.917,468.584,490.667,448,490.667z"/>
</g>
<g>
</g>
<g>
</g>
<g>
</g>
<g>
</g>
<g>
</g>
<g>
</g>
<g>
</g>
<g>
</g>
<g>
</g>
<g>
</g>
<g>
</g>
<g>
</g>
<g>
</g>
<g>
</g>
<g>
</g>
</svg>
