<?xml version="1.0" encoding="iso-8859-1"?>
<!-- Generator: Adobe Illustrator 19.0.0, SVG Export Plug-In . SVG Version: 6.00 Build 0)  -->
<svg version="1.1" id="Layer_1" xmlns="http://www.w3.org/2000/svg" xmlns:xlink="http://www.w3.org/1999/xlink" x="0px" y="0px"
	 viewBox="0 0 512 512" style="enable-background:new 0 0 512 512;" xml:space="preserve">
<g>
	<path style="fill:#314E55;" d="M469.749,437.652c-5.132,0-9.293,4.157-9.293,9.293c0,25.62-20.847,46.467-46.467,46.467
		s-46.467-20.847-46.467-46.467c0-5.137-4.161-9.293-9.293-9.293c-5.132,0-9.293,4.157-9.293,9.293
		c0,25.62-20.847,46.467-46.467,46.467c-25.62,0-46.467-20.847-46.467-46.467c0-5.137-4.161-9.293-9.293-9.293
		c-5.132,0-9.293,4.157-9.293,9.293c0,25.62-20.847,46.467-46.467,46.467s-46.467-20.847-46.467-46.467
		c0-5.137-4.161-9.293-9.293-9.293c-5.132,0-9.293,4.157-9.293,9.293c0,25.62-20.847,46.467-46.467,46.467
		s-46.467-20.847-46.467-46.467c0-5.137-4.161-9.293-9.293-9.293s-9.293,4.157-9.293,9.293C14.37,482.813,43.553,512,79.424,512
		c23.678,0,44.38-12.759,55.761-31.72c11.38,18.961,32.082,31.72,55.761,31.72s44.38-12.759,55.761-31.72
		c11.38,18.961,32.082,31.72,55.761,31.72s44.38-12.759,55.761-31.72c11.38,18.961,32.082,31.72,55.761,31.72
		c35.872,0,65.054-29.187,65.054-65.054C479.042,441.809,474.881,437.652,469.749,437.652z"/>
	<path style="fill:#314E55;" d="M496.681,331.331c-1.561-3.186-4.801-5.2-8.345-5.2H42.25c-3.326,0-6.394,1.779-8.055,4.656
		c-1.656,2.886-1.652,6.425,0.018,9.303l43.168,74.348c1.661,2.868,4.724,4.629,8.036,4.629h345.359c2.877,0,5.59-1.334,7.347-3.603
		l57.557-74.348C497.856,338.311,498.242,334.517,496.681,331.331z"/>
</g>
<polygon style="fill:#73C9C9;" points="426.222,400.479 90.769,400.479 58.391,344.718 469.39,344.718 "/>
<path style="fill:#314E55;" d="M280.431,306.873c0.463,0.181,22.88,8.876,51.554,8.876c30.607,0,68.344-9.91,94.105-50.633
	c21.468-33.934,4.592-88.905-50.166-163.37c-39.37-53.537-85.075-98.634-85.529-99.079c-2.673-2.623-6.643-3.394-10.11-1.942
	c-3.453,1.443-5.699,4.819-5.699,8.567v288.95C274.586,302.044,276.901,305.457,280.431,306.873z"/>
<path style="fill:#81A4E3;" d="M293.173,32.045c54.413,57.285,148.6,173.517,117.207,223.142
	c-35.513,56.151-97.763,42.438-117.207,36.43V32.045z"/>
<path style="fill:#314E55;" d="M141.678,106.628l95.734,30.257v7.77l-68.281,36.303c-3.281,1.743-5.209,5.273-4.901,8.976
	c0.309,3.703,2.791,6.861,6.312,8.041l66.869,22.39v68.593c0,5.137,4.161,9.293,9.293,9.293c5.132,0,9.293-4.157,9.293-9.293
	v-75.282v-63.439v-20.157V46.438v-8.576c0-5.137-4.161-9.293-9.293-9.293c-5.132,0-9.293,4.157-9.293,9.293v2.845l-97.105,48.759
	c-3.381,1.697-5.396,5.273-5.096,9.039C135.516,102.281,138.071,105.494,141.678,106.628z"/>
<g>
	<polygon style="fill:#F28544;" points="196.949,187.22 237.413,165.701 237.413,200.76 	"/>
	<polygon style="fill:#F28544;" points="237.413,61.504 237.413,117.392 169.1,95.81 	"/>
</g>
<g>
</g>
<g>
</g>
<g>
</g>
<g>
</g>
<g>
</g>
<g>
</g>
<g>
</g>
<g>
</g>
<g>
</g>
<g>
</g>
<g>
</g>
<g>
</g>
<g>
</g>
<g>
</g>
<g>
</g>
</svg>
