<?xml version="1.0" encoding="iso-8859-1"?>
<!-- Generator: Adobe Illustrator 19.0.0, SVG Export Plug-In . SVG Version: 6.00 Build 0)  -->
<svg version="1.1" id="Layer_1" xmlns="http://www.w3.org/2000/svg" xmlns:xlink="http://www.w3.org/1999/xlink" x="0px" y="0px"
	 viewBox="0 0 512 512" style="enable-background:new 0 0 512 512;" xml:space="preserve">
<path style="fill:#314E55;" d="M510.949,340.235c-1.605-3.077-4.786-5.009-8.259-5.009H9.31c-3.473,0-6.655,1.932-8.259,5.009
	c-1.6,3.082-1.359,6.795,0.632,9.636l65.163,93.091c1.741,2.491,4.591,3.973,7.627,3.973h363.054c3.036,0,5.886-1.482,7.627-3.973
	l65.164-93.091C512.308,347.031,512.549,343.317,510.949,340.235z"/>
<polygon style="fill:#D8D8D8;" points="432.681,428.317 79.318,428.317 27.187,353.844 484.813,353.844 "/>
<path style="fill:#314E55;" d="M98.709,318.144h0.009l143.327-0.164c5.136-0.005,9.3-4.173,9.3-9.309V10.945
	c0-4.345-3.005-8.109-7.241-9.077c-4.241-0.941-8.577,1.127-10.455,5.041L90.323,304.799c-1.391,2.886-1.2,6.286,0.509,8.995
	C92.537,316.503,95.509,318.144,98.709,318.144z"/>
<polygon style="fill:#73C9C9;" points="232.727,51.763 232.727,299.372 113.527,299.508 "/>
<path style="fill:#314E55;" d="M279.536,317.126c7.482-0.059,131.931,0,131.931,0h0.005c3.291,0,6.332-1.736,8.009-4.564
	c1.677-2.832,1.736-6.341,0.15-9.223L287.618,62.822c-2.045-3.727-6.323-5.582-10.473-4.541c-4.118,1.054-6.996,4.768-6.996,9.018
	v240.518c0,2.482,0.991,4.864,2.755,6.609C274.668,316.176,277.459,317.049,279.536,317.126z"/>
<path style="fill:#73C9C9;" d="M288.768,103.608l106.972,194.89c-19.259-0.005-52.518-0.018-78.618-0.018
	c-11.409,0-21.45,0-28.354,0.009V103.608z"/>
<path style="fill:#314E55;" d="M460.845,465.08c-0.232,0.127-23.873,12.291-53.573,12.291c-13.745,0-23.545-1.591-34.891-3.432
	c-14.636-2.377-31.232-5.068-60.1-5.068c-30.85,0-49.268,6.504-64.068,11.732c-10.245,3.618-18.336,6.477-28.209,6.477
	c-9,0-17.195-3.254-27.568-7.373c-16.673-6.623-39.509-15.691-78.909-15.691c-68.282,0-75.804,31.995-76.436,35.645
	c-0.855,4.923,2.373,9.445,7.259,10.496c0.632,0.136,1.259,0.2,1.882,0.2c4.204,0,8.05-2.959,9.136-7.173
	c0.054-0.205,5.9-20.55,58.159-20.55c35.836,0,55.909,7.973,72.036,14.377c11.741,4.659,21.877,8.686,34.441,8.686
	c13.064,0,23.432-3.664,34.409-7.541c14.164-5,30.209-10.668,57.868-10.668c27.368,0,43.173,2.564,57.118,4.827
	c11.636,1.891,22.627,3.673,37.873,3.673c34.477,0,61.123-13.841,62.241-14.427c4.541-2.395,6.282-8.009,3.895-12.559
	C471.018,464.453,465.399,462.708,460.845,465.08z"/>
<g>
</g>
<g>
</g>
<g>
</g>
<g>
</g>
<g>
</g>
<g>
</g>
<g>
</g>
<g>
</g>
<g>
</g>
<g>
</g>
<g>
</g>
<g>
</g>
<g>
</g>
<g>
</g>
<g>
</g>
</svg>
