<?xml version="1.0" encoding="iso-8859-1"?>
<!-- Generator: Adobe Illustrator 19.0.0, SVG Export Plug-In . SVG Version: 6.00 Build 0)  -->
<svg version="1.1" id="Layer_1" xmlns="http://www.w3.org/2000/svg" xmlns:xlink="http://www.w3.org/1999/xlink" x="0px" y="0px"
	 viewBox="0 0 512 512" style="enable-background:new 0 0 512 512;" xml:space="preserve">
<path style="fill:#314E55;" d="M502.314,42.884c-0.843-2.732-2.982-4.871-5.718-5.718L377.963,0.387
	c-3.211-0.995-6.739-0.038-9.013,2.482L139.753,257.421l-8.643-13.075c-1.478-2.241-3.914-3.668-6.591-3.867
	c-2.643-0.216-5.295,0.851-7.09,2.846l-88.772,98.586c-27.863,30.946-25.351,78.801,5.591,106.672h0.004l48.905,44.034
	C97.581,505.604,115.663,512,133.686,512c20.649,0,41.213-8.404,56.076-24.906l54.221-60.215c2.643-2.94,2.969-7.285,0.788-10.589
	l-15.192-22.983l45.838-57.877c1.161-1.466,1.817-3.262,1.872-5.125l1.309-42.637l41.167-10.996c1.804-0.474,3.405-1.525,4.562-2.99
	l18.484-23.339c1.237-1.559,1.898-3.494,1.876-5.481l-0.398-36.147l37.846-10.67c1.754-0.496,3.312-1.533,4.448-2.965l21.941-27.71
	c1.262-1.588,1.923-3.566,1.872-5.591l-0.923-38.418l34.568-4.719c2.219-0.301,4.236-1.453,5.625-3.206l51.163-64.599
	C502.607,48.594,503.161,45.62,502.314,42.884z M144.14,459.977c-2.317,2.575-5.515,4.092-9.001,4.278
	c-3.486,0.136-6.786-0.991-9.336-3.278l-64.548-58.114c-5.307-4.786-5.718-13.012-0.919-18.349
	c4.799-5.328,13.029-5.769,18.336-0.991l64.543,58.114C148.528,446.414,148.939,454.64,144.14,459.977z"/>
<path style="fill:#E4AD40;" d="M209.609,394.56l-78.393-117.912c-0.44-0.661-0.706-1.387-0.945-2.114l-7.45-11.271l-81.27,90.254
	c-21.462,23.847-19.527,60.706,4.312,82.172h-0.004l48.905,44.034c23.855,21.466,60.685,19.569,82.105-4.236l49.731-55.225
	L209.609,394.56z M144.14,459.977c-2.317,2.575-5.515,4.092-9.001,4.278c-3.486,0.136-6.786-0.991-9.336-3.278l-64.548-58.114
	c-5.307-4.786-5.718-13.012-0.919-18.349c4.799-5.328,13.029-5.769,18.336-0.991l64.543,58.114
	C148.528,446.414,148.939,454.64,144.14,459.977z"/>
<path style="fill:#314E55;" d="M154.826,428.743l-64.548-58.114c-12.411-11.182-31.624-10.149-42.836,2.279
	c-11.199,12.444-10.212,31.666,2.203,42.848h0.004l64.548,58.114c5.583,5.032,12.711,7.751,20.217,7.751
	c0.542,0,1.084-0.017,1.626-0.042c8.12-0.424,15.575-3.973,20.992-9.996C168.232,459.147,167.245,439.926,154.826,428.743z
	 M144.14,459.977c-2.317,2.575-5.515,4.092-9.001,4.278c-3.486,0.136-6.786-0.991-9.336-3.278l-64.548-58.114
	c-5.307-4.786-5.718-13.012-0.919-18.349c4.799-5.328,13.029-5.769,18.336-0.991l64.543,58.114
	C148.528,446.414,148.939,454.64,144.14,459.977z"/>
<path style="fill:#EAEAEA;" d="M438.232,101.925l-38.791,5.295c-4.375,0.597-7.603,4.388-7.497,8.802l1.034,43.039l-18.256,23.051
	l-41.535,11.707c-3.77,1.063-6.362,4.524-6.32,8.442l0.436,39.718l-14.791,18.675l-44.623,11.919
	c-3.702,0.983-6.315,4.287-6.434,8.116l-1.419,46.22l-40.527,51.167l-69.873-105.704L378.128,18.601l101.242,31.387L438.232,101.925
	z"/>
<g>
</g>
<g>
</g>
<g>
</g>
<g>
</g>
<g>
</g>
<g>
</g>
<g>
</g>
<g>
</g>
<g>
</g>
<g>
</g>
<g>
</g>
<g>
</g>
<g>
</g>
<g>
</g>
<g>
</g>
</svg>
