<?xml version="1.0" encoding="iso-8859-1"?>
<!-- Generator: Adobe Illustrator 19.0.0, SVG Export Plug-In . SVG Version: 6.00 Build 0)  -->
<svg version="1.1" id="Layer_1" xmlns="http://www.w3.org/2000/svg" xmlns:xlink="http://www.w3.org/1999/xlink" x="0px" y="0px"
	 viewBox="0 0 512 512" style="enable-background:new 0 0 512 512;" xml:space="preserve">
<path style="fill:#314E55;" d="M481.627,0H30.373c-4.792,0-8.678,3.881-8.678,8.678v225.627v30.373
	c0,21.534,17.492,39.051,38.987,39.051h143.535l-82.501,44.424c-4.22,2.28-5.797,7.542-3.525,11.754
	c1.568,2.915,4.559,4.568,7.648,4.568c1.39,0,2.797-0.33,4.106-1.034l110.894-59.712h6.484v34.712c0,4.797,3.886,8.678,8.678,8.678
	c4.792,0,8.678-3.881,8.678-8.678v-34.712h6.484l110.894,59.712c1.309,0.703,2.716,1.034,4.106,1.034
	c3.089,0,6.08-1.652,7.648-4.568c2.271-4.212,0.695-9.475-3.525-11.754l-82.501-44.424h143.535
	c21.496,0,38.987-17.517,38.987-39.051v-30.373V8.678C490.305,3.881,486.42,0,481.627,0z"/>
<rect x="39.051" y="17.356" style="fill:#73C9C9;" width="433.898" height="208.271"/>
<path style="fill:#D8D8D8;" d="M472.949,264.678c0,11.966-9.703,21.695-21.631,21.695H60.682c-11.928,0-21.631-9.729-21.631-21.695
	v-21.695h433.898V264.678z"/>
<g>
	<rect x="247.322" y="260.339" style="fill:#314E55;" width="17.356" height="17.356"/>
	<path style="fill:#314E55;" d="M317.919,380.119c-37.797-20.475-86.042-20.475-123.839,0c-4.119,2.229-5.725,7.322-3.631,11.508
		l57.788,115.576c1.47,2.941,4.475,4.797,7.763,4.797s6.292-1.856,7.763-4.797l57.788-115.576
		C323.644,387.441,322.038,382.348,317.919,380.119z"/>
</g>
<path style="fill:#5ECB66;" d="M256,483.915l-46.127-92.254c28.848-12.898,63.407-12.898,92.254,0L256,483.915z"/>
<g>
</g>
<g>
</g>
<g>
</g>
<g>
</g>
<g>
</g>
<g>
</g>
<g>
</g>
<g>
</g>
<g>
</g>
<g>
</g>
<g>
</g>
<g>
</g>
<g>
</g>
<g>
</g>
<g>
</g>
</svg>
