<?xml version="1.0" encoding="iso-8859-1"?>
<!-- Generator: Adobe Illustrator 19.0.0, SVG Export Plug-In . SVG Version: 6.00 Build 0)  -->
<svg version="1.1" id="Layer_1" xmlns="http://www.w3.org/2000/svg" xmlns:xlink="http://www.w3.org/1999/xlink" x="0px" y="0px"
	 viewBox="0 0 512 512" style="enable-background:new 0 0 512 512;" xml:space="preserve">
<path style="fill:#314E55;" d="M490.577,21.417c-13.782-13.792-32.135-21.403-51.67-21.413c-0.02,0-0.031,0-0.051,0
	c-19.526,0-37.878,7.59-51.66,21.382L217.249,191.333c-13.792,13.792-21.392,32.145-21.392,51.681
	c0.004,8.495,1.526,16.737,4.288,24.511L74.377,393.291l-7.386-7.386c-2.346-2.356-5.631-3.468-8.957-2.938
	c-3.275,0.49-6.131,2.52-7.672,5.458L1.202,481.911c-2.132,4.05-1.377,9.018,1.857,12.252l14.782,14.772
	c2.01,2.01,4.683,3.061,7.386,3.061c1.663,0,3.326-0.388,4.866-1.204l93.476-49.161c2.938-1.54,4.968-4.397,5.458-7.672
	c0.5-3.285-0.592-6.61-2.938-8.957l-7.386-7.386l125.769-125.769c7.761,2.756,15.992,4.276,24.478,4.28c0.02,0,0.031,0,0.051,0
	c19.526,0,37.878-7.59,51.66-21.382l169.946-169.946C504.4,111.007,512,92.654,512,73.118
	C511.99,53.582,504.39,35.22,490.577,21.417z"/>
<path style="fill:#D8D8D8;" d="M96.545,430.231c-4.081,4.081-4.081,10.691,0,14.772l4.744,4.744l-74.114,38.98l-3.907-3.897
	l38.98-74.124l4.744,4.744c4.081,4.081,10.691,4.081,14.772,0l128.12-128.12l14.782,14.782L96.545,430.231z"/>
<path style="fill:#EA86A5;" d="M475.836,110.027L305.89,279.973c-9.844,9.844-22.943,15.262-36.889,15.262c-0.01,0-0.031,0-0.041,0
	c-13.956-0.01-27.065-5.437-36.909-15.292c-9.865-9.865-15.302-22.974-15.302-36.939c0-13.945,5.427-27.054,15.272-36.899
	L401.967,36.158c9.844-9.845,22.943-15.262,36.888-15.262c0.01,0,0.031,0,0.041,0c13.956,0.01,27.065,5.437,36.909,15.292
	c9.865,9.865,15.302,22.974,15.302,36.939C491.107,87.074,485.68,100.183,475.836,110.027z"/>
<path style="fill:#314E55;" d="M261.595,220.856c-4.081-4.081-10.691-4.081-14.772,0c-4.08,4.081-4.081,10.691,0,14.772
	l29.543,29.543c2.04,2.04,4.713,3.06,7.386,3.06c2.673,0,5.346-1.02,7.386-3.06c4.081-4.081,4.081-10.691,0-14.772L261.595,220.856z
	"/>
<g>
</g>
<g>
</g>
<g>
</g>
<g>
</g>
<g>
</g>
<g>
</g>
<g>
</g>
<g>
</g>
<g>
</g>
<g>
</g>
<g>
</g>
<g>
</g>
<g>
</g>
<g>
</g>
<g>
</g>
</svg>
