<?xml version="1.0" encoding="iso-8859-1"?>
<!-- Generator: Adobe Illustrator 19.0.0, SVG Export Plug-In . SVG Version: 6.00 Build 0)  -->
<svg version="1.1" id="Layer_1" xmlns="http://www.w3.org/2000/svg" xmlns:xlink="http://www.w3.org/1999/xlink" x="0px" y="0px"
	 viewBox="0 0 512 512" style="enable-background:new 0 0 512 512;" xml:space="preserve">
<path style="fill:#314E55;" d="M506.5,163.241c-15.09-47.932-60.258-82.47-134.75-102.774
	c-66.256-14.196-90.595-14.362-91.599-14.362c-3.556,0-6.808,1.999-8.411,5.168c-1.612,3.169-1.299,6.974,0.801,9.848l49.535,67.536
	l-4.063,24.385c-0.525,3.132,0.571,6.32,2.902,8.476c2.349,2.165,5.62,3.012,8.687,2.22c0.728-0.175,72.778-17.854,111.802-0.525
	c13.035,5.785,19.724,16.112,18.36,28.31c-1.87,16.665-19.318,36.555-54.095,43.427c-60.949,12.142-119.273-30.871-119.863-31.304
	c-2.082-1.566-4.735-2.174-7.315-1.741c-2.57,0.461-4.846,1.971-6.264,4.164l-49.452,76.417
	c-26.615,3.224-156.593,23.022-210.025,107.619c-5.159,8.181-20.875,33.054-7.462,48.734c14.215,16.619,55.459,8.153,90.282-3.132
	l-15.154,13.772c-2.884,2.626-3.86,6.753-2.451,10.382c1.4,3.639,4.901,6.034,8.798,6.034h127.352
	c90.687,0,145.593-4.321,219.504-93.009C463.92,336.517,531.687,243.287,506.5,163.241z"/>
<path style="fill:#C59981;" d="M419.12,360.801c-68.651,82.396-117.504,86.228-205.004,86.228H111.168l33.828-30.751
	c3.409-3.105,4.081-8.218,1.575-12.096c-2.487-3.869-7.434-5.389-11.663-3.547c-47.472,20.516-106.495,36.214-115.284,25.942
	c-1.621-1.898-1.529-9.59,9.084-26.394c53.423-84.598,198.979-99.273,200.444-99.42c2.874-0.267,5.472-1.842,7.038-4.265
	l46.642-72.087c19.65,12.465,70.963,40.056,126.505,29.056c47.158-9.332,66.744-38.075,69.176-59.844
	c2.275-20.313-9.01-38.572-29.443-47.656c-33.929-15.071-85.565-8.135-110.171-3.492l2.441-14.638
	c0.415-2.506-0.193-5.076-1.695-7.13l-39.531-53.893c13.865,1.76,35.597,5.214,67.177,11.976
	c67.389,18.379,108.172,48.697,121.208,90.116C510.903,240.081,447.448,326.816,419.12,360.801z"/>
<g>
	<path style="fill:#314E55;" d="M133.931,333.827c-10.401,0-18.867,8.466-18.867,18.867c0,10.401,8.466,18.867,18.867,18.867
		s18.867-8.466,18.867-18.867C152.798,342.293,144.332,333.827,133.931,333.827z"/>
	<path style="fill:#314E55;" d="M359,324.486l-66.035,9.434c-5.159,0.737-8.742,5.518-8.006,10.677
		c0.737,5.159,5.509,8.733,10.677,8.005l48.209-6.891l-10.815,21.631c-2.331,4.662-0.442,10.327,4.219,12.658
		c1.354,0.673,2.791,0.995,4.21,0.995c3.464,0,6.79-1.907,8.448-5.214l18.867-37.734c1.566-3.141,1.262-6.891-0.783-9.738
		C365.937,325.471,362.556,323.997,359,324.486z"/>
</g>
<g>
</g>
<g>
</g>
<g>
</g>
<g>
</g>
<g>
</g>
<g>
</g>
<g>
</g>
<g>
</g>
<g>
</g>
<g>
</g>
<g>
</g>
<g>
</g>
<g>
</g>
<g>
</g>
<g>
</g>
</svg>
