<?xml version="1.0" encoding="iso-8859-1"?>
<!-- Generator: Adobe Illustrator 19.0.0, SVG Export Plug-In . SVG Version: 6.00 Build 0)  -->
<svg version="1.1" id="Layer_1" xmlns="http://www.w3.org/2000/svg" xmlns:xlink="http://www.w3.org/1999/xlink" x="0px" y="0px"
	 viewBox="0 0 512 512" style="enable-background:new 0 0 512 512;" xml:space="preserve">
<path style="fill:#314E55;" d="M508.069,131.757c-1.228-0.819-30.336-19.966-58.72-13.543
	c-13.875,3.121-25.043,11.586-33.194,25.172c-26.84,44.741-76.871,42.854-97.112,39.94c-13.022-1.853-23.099-13.621-32.849-25
	c-11.582-13.5-23.578-27.491-41.017-23.405c-20.306,4.707-29.72,21.069-38.026,35.491c-7.573,13.164-14.728,25.586-29.284,31.043
	c-34.323,12.871-97.276,27.034-98.082,27.215c-42.078,10.319-76.729,52.164-78.884,95.267l-0.888,17.759
	c-0.004,0.073,0.034,0.14,0.033,0.213C0.044,341.989,0,342.056,0,342.136v44.138c0,4.879,3.953,8.828,8.828,8.828h494.345
	c4.875,0,8.828-3.948,8.828-8.828v-44.138V139.101C512,136.153,510.526,133.395,508.069,131.757z"/>
<path style="fill:#EA86A5;" d="M18.53,324.817c1.759-35.138,31.125-70.578,65.289-78.957c1.433-0.32,20.646-4.649,43.543-10.666
	l15.815,19.769c1.741,2.181,4.306,3.31,6.897,3.31c1.935,0,3.884-0.629,5.509-1.931c3.81-3.052,4.427-8.603,1.379-12.414
	l-11.03-13.788c5.384-1.523,10.768-3.101,15.993-4.709l16.563,20.704c1.741,2.181,4.306,3.31,6.897,3.31
	c1.935,0,3.884-0.629,5.509-1.931c3.81-3.052,4.427-8.603,1.379-12.414l-12.464-15.58c1.433-0.511,2.898-1.022,4.257-1.532
	c20.496-7.69,30-24.198,38.388-38.767c8.612-14.957,14.509-24.276,26.716-27.112c6.578-1.474,13.302,5.681,23.621,17.707
	c11.323,13.216,24.155,28.19,43.754,30.991c18.539,2.664,81.56,6.983,114.75-48.336c5.638-9.397,12.789-14.957,21.866-17.017
	c15.884-3.603,33.504,4.491,41.185,8.69v189.164H18.108L18.53,324.817z"/>
<g>
	<polygon style="fill:#D8D8D8;" points="275.605,377.446 284.433,350.964 389.407,350.964 380.579,377.446 	"/>
	<polygon style="fill:#D8D8D8;" points="187.329,377.446 196.157,350.964 265.821,350.964 256.993,377.446 	"/>
	<polygon style="fill:#D8D8D8;" points="116.708,377.446 125.536,350.964 177.545,350.964 168.717,377.446 	"/>
	<polygon style="fill:#D8D8D8;" points="63.743,377.446 72.57,350.964 106.924,350.964 98.097,377.446 	"/>
	<polygon style="fill:#D8D8D8;" points="17.655,350.964 53.959,350.964 45.131,377.446 17.655,377.446 	"/>
	<polygon style="fill:#D8D8D8;" points="494.345,377.446 399.191,377.446 408.019,350.964 494.345,350.964 	"/>
</g>
<path style="fill:#314E55;" d="M419.31,227.377c-17.035,0-30.897,13.862-30.897,30.897c0,17.035,13.862,30.897,30.897,30.897
	c17.035,0,30.897-13.862,30.897-30.897S436.345,227.377,419.31,227.377z"/>
<circle style="fill:#EA86A5;" cx="419.31" cy="258.272" r="13.241"/>
<g>
	<path style="fill:#314E55;" d="M338.035,234.377l-44.138,44.138c-3.448,3.448-3.448,9.035,0,12.483
		c1.724,1.724,3.983,2.586,6.241,2.586s4.517-0.862,6.241-2.586l44.138-44.138c3.448-3.448,3.448-9.035,0-12.483
		S341.483,230.929,338.035,234.377z"/>
	<path style="fill:#314E55;" d="M315.207,229.964c-3.448-3.448-9.035-3.448-12.483,0l-44.138,44.138
		c-3.448,3.448-3.448,9.035,0,12.483c1.724,1.724,3.983,2.586,6.241,2.586c2.259,0,4.517-0.862,6.241-2.586l44.138-44.138
		C318.655,238.998,318.655,233.412,315.207,229.964z"/>
	<path style="fill:#314E55;" d="M279.897,229.964c-3.448-3.448-9.035-3.448-12.483,0l-44.138,44.138
		c-3.448,3.448-3.448,9.035,0,12.483c1.724,1.724,3.983,2.586,6.241,2.586s4.517-0.862,6.241-2.586l44.138-44.138
		C283.345,238.998,283.345,233.412,279.897,229.964z"/>
	<path style="fill:#314E55;" d="M247.172,209.722c9.737,0,17.655-7.922,17.655-17.655c0-9.733-7.918-17.655-17.655-17.655
		s-17.655,7.922-17.655,17.655C229.517,201.8,237.435,209.722,247.172,209.722z"/>
</g>
<g>
</g>
<g>
</g>
<g>
</g>
<g>
</g>
<g>
</g>
<g>
</g>
<g>
</g>
<g>
</g>
<g>
</g>
<g>
</g>
<g>
</g>
<g>
</g>
<g>
</g>
<g>
</g>
<g>
</g>
</svg>
