<?xml version="1.0" encoding="iso-8859-1"?>
<!-- Generator: Adobe Illustrator 19.0.0, SVG Export Plug-In . SVG Version: 6.00 Build 0)  -->
<svg version="1.1" id="Layer_1" xmlns="http://www.w3.org/2000/svg" xmlns:xlink="http://www.w3.org/1999/xlink" x="0px" y="0px"
	 viewBox="0 0 512 512" style="enable-background:new 0 0 512 512;" xml:space="preserve">
<path style="fill:#314E55;" d="M400.127,109.968c-0.836-4.391-4.677-7.568-9.145-7.568h-83.782V60.568
	C307.199,27.173,280.054,0,246.69,0s-60.509,27.173-60.509,60.568V102.4h-74.473c-4.55,0-8.436,3.291-9.182,7.777L37.363,501.159
	c-0.45,2.7,0.309,5.459,2.077,7.55c1.768,2.086,4.368,3.291,7.105,3.291h418.909c2.773,0,5.405-1.236,7.173-3.373
	c1.768-2.141,2.491-4.955,1.973-7.677L400.127,109.968z M204.8,60.568c0-23.132,18.791-41.95,41.891-41.95
	s41.891,18.818,41.891,41.95V102.4H204.8V60.568z"/>
<path style="fill:#F28544;" d="M57.536,493.382l62.059-372.364h66.586v21.207c-5.538,3.23-9.309,9.168-9.309,16.03
	c0,10.268,8.35,18.618,18.618,18.618c10.268,0,18.618-8.35,18.618-18.618c0-6.861-3.771-12.8-9.309-16.03v-21.207h83.782v21.207
	c-5.538,3.23-9.309,9.168-9.309,16.03c0,10.268,8.35,18.618,18.618,18.618s18.618-8.35,18.618-18.618
	c0-6.861-3.771-12.8-9.309-16.03v-21.207h76.077l70.927,372.364H57.536z"/>
<path style="fill:#314E55;" d="M251.345,390.982v74.473c0,5.141,4.168,9.309,9.309,9.309H409.6c5.141,0,9.309-4.168,9.309-9.309
	v-74.473c0-5.141-4.168-9.309-9.309-9.309H260.654C255.513,381.673,251.345,385.841,251.345,390.982z"/>
<rect x="269.964" y="400.291" style="fill:#D8D8D8;" width="130.327" height="55.855"/>
<g>
</g>
<g>
</g>
<g>
</g>
<g>
</g>
<g>
</g>
<g>
</g>
<g>
</g>
<g>
</g>
<g>
</g>
<g>
</g>
<g>
</g>
<g>
</g>
<g>
</g>
<g>
</g>
<g>
</g>
</svg>
