<?xml version="1.0" encoding="iso-8859-1"?>
<!-- Generator: Adobe Illustrator 19.0.0, SVG Export Plug-In . SVG Version: 6.00 Build 0)  -->
<svg version="1.1" id="Layer_1" xmlns="http://www.w3.org/2000/svg" xmlns:xlink="http://www.w3.org/1999/xlink" x="0px" y="0px"
	 viewBox="0 0 512 512" style="enable-background:new 0 0 512 512;" xml:space="preserve">
<path style="fill:#314E55;" d="M497.105,15.097c-19.867-19.867-52.179-19.862-72.026-0.005L309.818,130.353l-7.203-7.203
	c-3.979-3.979-10.426-3.979-14.405,0s-3.979,10.426,0,14.405l14.405,14.405l7.21,7.21l-95.224,95.22
	c-55.491-40.9-118.585-39.903-163.524,5.046c-25.9,25.9-44.912,73.642-49.607,124.598C-3.599,438.96,6.04,495.109,6.453,497.471
	c0.746,4.283,4.129,7.62,8.421,8.307c2,0.323,38.182,6.024,81.208,6.024c14.341,0,29.447-0.637,44.295-2.313
	c45.205-5.109,87.222-23.185,112.391-48.359c44.95-44.946,45.942-108.034,5.051-163.518l95.221-95.225l7.2,7.2l14.41,14.41
	c1.99,1.99,4.596,2.985,7.203,2.985s5.213-0.995,7.203-2.985c3.979-3.979,3.979-10.426,0-14.405l-7.208-7.208L497.109,87.127
	C516.967,67.276,516.962,34.959,497.105,15.097z"/>
<g>
	<path style="fill:#E4AD40;" d="M250.419,323.751l-59.012-1.525l3.929-56.141c10.144,6.616,19.574,14.301,27.872,22.575l0.336,0.338
		C233.669,299.152,242.985,310.948,250.419,323.751z"/>
	<path style="fill:#E4AD40;" d="M238.364,446.725c-22.016,22.016-59.501,37.913-100.274,42.519
		c-45.22,5.128-94.459-0.174-112.68-2.557c-2.383-16.758-7.436-59.759-3.656-100.782c4.283-46.434,21.041-89.371,43.728-112.063
		c34.913-34.919,75.289-34.416,110.188-18.584l-5.328,76.164c-0.194,2.775,0.751,5.506,2.621,7.561
		c1.87,2.059,4.502,3.263,7.277,3.333l79.995,2.067C272.667,377.39,270.685,414.403,238.364,446.725z"/>
</g>
<g>
	<path style="fill:#D8D8D8;" d="M244.989,281.632l-7.07-7.071c-0.047-0.047-0.086-0.095-0.132-0.142s-0.096-0.085-0.142-0.132
		l-7.065-7.066l93.649-93.644l14.405,14.405L244.989,281.632z"/>
	<path style="fill:#D8D8D8;" d="M482.705,72.723L367.443,187.979l-43.221-43.221L439.484,29.497
		c11.908-11.908,31.298-11.913,43.216,0.005C494.613,41.42,494.618,60.809,482.705,72.723z"/>
</g>
<g>
</g>
<g>
</g>
<g>
</g>
<g>
</g>
<g>
</g>
<g>
</g>
<g>
</g>
<g>
</g>
<g>
</g>
<g>
</g>
<g>
</g>
<g>
</g>
<g>
</g>
<g>
</g>
<g>
</g>
</svg>
