<?xml version="1.0" encoding="iso-8859-1"?>
<!-- Generator: Adobe Illustrator 19.0.0, SVG Export Plug-In . SVG Version: 6.00 Build 0)  -->
<svg version="1.1" id="Layer_1" xmlns="http://www.w3.org/2000/svg" xmlns:xlink="http://www.w3.org/1999/xlink" x="0px" y="0px"
	 viewBox="0 0 512 512" style="enable-background:new 0 0 512 512;" xml:space="preserve">
<path style="fill:#314E55;" d="M472.944,287.135L217.312,40.275C166.478-8.806,85.15-7.365,36.02,43.504
	C12.218,68.152-0.567,100.583,0.019,134.821c0.586,34.247,14.471,66.195,39.101,89.984l255.632,246.86
	c24.062,23.234,55.571,35.947,88.955,35.947c0.778,0,1.557-0.009,2.331-0.018c34.252-0.608,66.217-14.511,90.011-39.159
	C525.174,417.566,523.778,336.233,472.944,287.135z"/>
<path style="fill:#C59981;" d="M462.87,455.714c-20.398,21.123-47.797,33.039-77.155,33.558
	c-29.201,0.492-57.132-10.414-78.233-30.794L51.851,211.618c-21.109-20.38-33.013-47.765-33.514-77.11
	c-0.501-29.353,10.458-57.15,30.861-78.282c21.548-22.313,50.32-33.531,79.123-33.531c27.479,0,54.985,10.217,76.26,30.767
	l255.632,246.861C503.783,342.397,504.977,412.108,462.87,455.714z"/>
<path style="fill:#314E55;" d="M192.029,68.859c-3.579-3.579-9.376-3.579-12.954,0l-32.386,32.386
	c-3.579,3.579-3.579,9.376,0,12.954l12.959,12.96c-0.001,0.001-0.003,0.002-0.003,0.002l-32.391,32.387l-12.955-12.954
	c-3.579-3.579-9.376-3.579-12.954,0l-32.391,32.386c-1.718,1.718-2.684,4.044-2.684,6.477s0.966,4.759,2.684,6.477l51.823,51.827
	c1.718,1.718,4.048,2.684,6.477,2.684s4.759-0.966,6.477-2.684l32.391-32.395c3.579-3.579,3.579-9.376,0-12.954l-25.912-25.91
	l32.39-32.385l0.003-0.004l25.911,25.913c1.718,1.718,4.048,2.684,6.477,2.684c2.429,0,4.759-0.966,6.477-2.684l32.391-32.395
	c1.718-1.718,2.684-4.044,2.684-6.477c0-2.433-0.966-4.759-2.684-6.477L192.029,68.859z"/>
<g>
	
		<rect x="103.792" y="167.673" transform="matrix(-0.7071 0.7071 -0.7071 -0.7071 338.6381 250.0439)" style="fill:#D8D8D8;" width="27.483" height="54.967"/>
	
		<rect x="181.522" y="89.942" transform="matrix(-0.7071 0.7071 -0.7071 -0.7071 416.3687 62.386)" style="fill:#D8D8D8;" width="27.483" height="54.967"/>
</g>
<path style="fill:#314E55;" d="M399.323,276.149c-3.435-3.435-9.519-3.435-12.954,0l-32.386,32.395
	c-3.579,3.579-3.579,9.376,0,12.954l12.955,12.954l0,0l-32.391,32.386l0,0l-12.954-12.955c-3.435-3.435-9.519-3.435-12.954,0
	l-32.391,32.395c-3.579,3.579-3.579,9.376,0,12.954l51.823,51.818c1.789,1.789,4.133,2.684,6.477,2.684s4.688-0.895,6.477-2.684
	l32.391-32.386c1.718-1.718,2.684-4.044,2.684-6.477s-0.966-4.759-2.684-6.477L347.5,379.795l0.001-0.001l32.391-32.386l0.001-0.001
	l25.912,25.91c1.789,1.789,4.133,2.684,6.477,2.684s4.688-0.895,6.477-2.684l32.391-32.386c1.718-1.718,2.684-4.044,2.684-6.477
	s-0.966-4.759-2.684-6.477L399.323,276.149z"/>
<g>
	
		<rect x="311.09" y="375.012" transform="matrix(-0.7071 0.7071 -0.7071 -0.7071 839.1284 457.4113)" style="fill:#D8D8D8;" width="27.483" height="54.967"/>
	
		<rect x="388.822" y="297.283" transform="matrix(-0.7071 0.7071 -0.7071 -0.7071 916.8646 269.7558)" style="fill:#D8D8D8;" width="27.483" height="54.967"/>
</g>
<g>
	<path style="fill:#314E55;" d="M163.924,361.552c-3.579-3.579-9.376-3.579-12.954,0c-3.579,3.579-3.579,9.376,0,12.954
		l94.551,94.546c1.789,1.789,4.133,2.684,6.477,2.684c2.344,0,4.688-0.895,6.477-2.684c3.579-3.579,3.579-9.376,0-12.954
		L163.924,361.552z"/>
	<path style="fill:#314E55;" d="M53.922,302.031c-3.579-3.579-9.376-3.579-12.954,0c-3.578,3.579-3.579,9.376,0,12.954L160,434.019
		c1.789,1.789,4.133,2.684,6.477,2.684s4.688-0.895,6.477-2.684c3.579-3.579,3.579-9.376,0-12.954L53.922,302.031z"/>
	<path style="fill:#314E55;" d="M329.662,118.136c1.789,1.789,4.133,2.684,6.477,2.684s4.688-0.895,6.477-2.684
		c3.579-3.579,3.579-9.376,0-12.954l-68.825-68.826c-3.579-3.579-9.376-3.579-12.954,0c-3.578,3.579-3.579,9.376,0,12.954
		L329.662,118.136z"/>
	<path style="fill:#314E55;" d="M421.274,163.879c1.789,1.789,4.133,2.684,6.477,2.684s4.688-0.895,6.477-2.684
		c3.579-3.579,3.579-9.376,0-12.955l-68.825-68.825c-3.579-3.579-9.376-3.579-12.954,0c-3.578,3.579-3.579,9.376,0,12.954
		L421.274,163.879z"/>
</g>
<g>
</g>
<g>
</g>
<g>
</g>
<g>
</g>
<g>
</g>
<g>
</g>
<g>
</g>
<g>
</g>
<g>
</g>
<g>
</g>
<g>
</g>
<g>
</g>
<g>
</g>
<g>
</g>
<g>
</g>
</svg>
