<?xml version="1.0" encoding="iso-8859-1"?>
<!-- Generator: Adobe Illustrator 19.0.0, SVG Export Plug-In . SVG Version: 6.00 Build 0)  -->
<svg version="1.1" id="Layer_1" xmlns="http://www.w3.org/2000/svg" xmlns:xlink="http://www.w3.org/1999/xlink" x="0px" y="0px"
	 viewBox="0 0 512 512" style="enable-background:new 0 0 512 512;" xml:space="preserve">
<g>
	<path style="fill:#314E55;" d="M357.903,400.155c-20.737,0-39.016,10.646-49.709,26.747
		c-10.692-16.101-28.972-26.747-49.709-26.747s-39.016,10.646-49.709,26.747c-10.692-16.101-28.972-26.747-49.709-26.747
		s-39.016,10.646-49.709,26.747c-10.692-16.101-28.972-26.747-49.709-26.747c-32.893,0-59.65,26.757-59.65,59.65
		c0,5.495,4.451,9.942,9.942,9.942s9.942-4.447,9.942-9.942c0-21.932,17.84-39.767,39.767-39.767s39.767,17.835,39.767,39.767
		c0,5.495,4.451,9.942,9.942,9.942c5.49,0,9.942-4.447,9.942-9.942c0-21.932,17.84-39.767,39.767-39.767
		s39.767,17.835,39.767,39.767c0,5.495,4.451,9.942,9.942,9.942s9.942-4.447,9.942-9.942c0-21.932,17.84-39.767,39.767-39.767
		s39.767,17.835,39.767,39.767c0,5.495,4.451,9.942,9.942,9.942s9.942-4.447,9.942-9.942c0-21.932,17.84-39.767,39.767-39.767
		c21.927,0,39.767,17.835,39.767,39.767c0,5.495,4.451,9.942,9.942,9.942s9.942-4.447,9.942-9.942
		C417.553,426.912,390.796,400.155,357.903,400.155z"/>
	<path style="fill:#314E55;" d="M97.747,385.388c-5.413,0.913-9.053,6.049-8.131,11.466c0.825,4.845,5.029,8.272,9.791,8.272
		c0.553,0,1.112-0.048,1.68-0.146l233.631-39.767c2.971-0.505,5.553-2.33,7.019-4.971c1.364-2.447,13.024-24.486,2.65-42.107
		c-6.791-11.544-20.641-17.398-41.165-17.398c-5.49,0-9.942,4.447-9.942,9.942c0,5.495,4.451,9.942,9.942,9.942
		c12.587,0,21.116,2.689,24.01,7.563c2.986,5.029,0.995,13.068-1.029,18.311L97.747,385.388z"/>
	<path style="fill:#314E55;" d="M139.184,141.67c27.408,0,49.709-22.301,49.709-49.709s-22.301-49.709-49.709-49.709
		S89.476,64.554,89.476,91.961S111.777,141.67,139.184,141.67z"/>
</g>
<path style="fill:#E4AD40;" d="M139.184,62.136c16.447,0,29.825,13.379,29.825,29.825s-13.379,29.825-29.825,29.825
	s-29.825-13.379-29.825-29.825S122.738,62.136,139.184,62.136z"/>
<path style="fill:#314E55;" d="M511.781,134.641c-1.141-5.379-6.432-8.806-11.786-7.67l-157.731,33.458l-61.667-35.167
	c-3.18-1.796-7.112-1.718-10.218,0.223c-3.102,1.952-4.883,5.456-4.626,9.107l1.572,22.504l-93.815,4.467
	c-0.184,0.009-0.334,0.111-0.516,0.13c-5.868-6.217-14.71-9.331-23.625-7.285c-13.34,3.097-21.689,16.485-18.612,29.845
	l38.005,164.612c2.655,11.495,12.922,19.301,24.252,19.301c1.84,0,3.709-0.204,5.578-0.631c13.34-3.097,21.689-16.485,18.612-29.845
	l-28.533-123.584l81.218-20.304l1.407,20.131c0.257,3.66,2.505,6.883,5.849,8.379c1.301,0.583,2.689,0.874,4.068,0.874
	c2.16,0,4.306-0.709,6.078-2.078l51.451-39.746c0.446-0.032,0.891-0.044,1.34-0.138l164.039-34.796
	C509.49,145.282,512.922,140.01,511.781,134.641z"/>
<g>
	<path style="fill:#D8D8D8;" d="M194.116,348.155c-2.704,0.631-5.345-1.029-5.976-3.757l-38.005-164.612
		c-0.631-2.738,1.005-5.379,3.709-6c2.743-0.592,5.349,1.029,5.976,3.757l38.005,164.612
		C198.456,344.893,196.82,347.524,194.116,348.155z"/>
	<polygon style="fill:#D8D8D8;" points="181.054,181.113 252.251,177.723 184.199,194.735 	"/>
	<path style="fill:#D8D8D8;" d="M289.835,194.019l-1.822-26.095c0.093-0.629,0.319-1.217,0.288-1.876
		c-0.04-0.8-0.356-1.498-0.575-2.236l-0.843-12.075l33.185,18.932L289.835,194.019z"/>
</g>
<g>
</g>
<g>
</g>
<g>
</g>
<g>
</g>
<g>
</g>
<g>
</g>
<g>
</g>
<g>
</g>
<g>
</g>
<g>
</g>
<g>
</g>
<g>
</g>
<g>
</g>
<g>
</g>
<g>
</g>
</svg>
