<?xml version="1.0" encoding="iso-8859-1"?>
<!-- Generator: Adobe Illustrator 19.0.0, SVG Export Plug-In . SVG Version: 6.00 Build 0)  -->
<svg version="1.1" id="Layer_1" xmlns="http://www.w3.org/2000/svg" xmlns:xlink="http://www.w3.org/1999/xlink" x="0px" y="0px"
	 viewBox="0 0 512 512" style="enable-background:new 0 0 512 512;" xml:space="preserve">
<path style="fill:#314E55;" d="M462.493,302.202c-3.448-3.448-9.035-3.448-12.483,0c-3.448,3.448-3.448,9.039,0,12.483
	c13.34,13.34,20.685,31.073,20.685,49.935c0,18.866-7.345,36.599-20.685,49.94c-27.535,27.535-72.336,27.535-99.871,0
	L237.783,302.206l62.421-62.421l43.694,43.694c1.724,1.724,3.983,2.586,6.241,2.586c2.259,0,4.517-0.862,6.241-2.586l37.453-37.453
	c3.448-3.448,3.448-9.035,0-12.483L162.877,2.586c-3.448-3.448-9.035-3.448-12.483,0l-37.453,37.453
	c-3.448,3.448-3.448,9.035,0,12.483l31.209,31.209l-62.422,62.423l-24.968-24.968c-3.448-3.448-9.035-3.448-12.483,0
	c-3.448,3.448-3.448,9.035,0,12.483L219.053,308.44l0.005,0.008c0.002,0.002,0.005,0.002,0.005,0.002l118.594,118.593
	c17.211,17.211,39.81,25.815,62.418,25.815c22.603,0,45.211-8.608,62.418-25.815c16.677-16.672,25.858-38.84,25.858-62.423
	C488.351,341.043,479.17,318.875,462.493,302.202z M156.633,96.213l131.088,131.088L225.3,289.723L94.212,158.636L156.633,96.213z"
	/>
<polygon style="fill:#D8D8D8;" points="156.636,21.31 375.11,239.784 350.14,264.754 162.886,77.5 162.877,77.487 162.868,77.483 
	131.666,46.28 "/>
<g>
	<path style="fill:#314E55;" d="M38.717,232.103c-3.448-3.448-9.035-3.448-12.483,0s-3.448,9.035,0,12.483l220.69,220.69
		c1.724,1.724,3.983,2.586,6.241,2.586c2.259,0,4.517-0.862,6.241-2.586c3.448-3.448,3.448-9.035,0-12.483L38.717,232.103z"/>
	<path style="fill:#314E55;" d="M277.062,408.655c-3.448-3.448-9.035-3.448-12.483,0c-3.448,3.448-3.448,9.035,0,12.483
		l88.276,88.276c1.724,1.724,3.983,2.586,6.241,2.586s4.517-0.862,6.241-2.586c3.448-3.448,3.448-9.035,0-12.483L277.062,408.655z"
		/>
</g>
<g>
</g>
<g>
</g>
<g>
</g>
<g>
</g>
<g>
</g>
<g>
</g>
<g>
</g>
<g>
</g>
<g>
</g>
<g>
</g>
<g>
</g>
<g>
</g>
<g>
</g>
<g>
</g>
<g>
</g>
</svg>
