<?xml version="1.0" encoding="iso-8859-1"?>
<!-- Generator: Adobe Illustrator 19.0.0, SVG Export Plug-In . SVG Version: 6.00 Build 0)  -->
<svg version="1.1" id="Layer_1" xmlns="http://www.w3.org/2000/svg" xmlns:xlink="http://www.w3.org/1999/xlink" x="0px" y="0px"
	 viewBox="0 0 512 512" style="enable-background:new 0 0 512 512;" xml:space="preserve">
<path style="fill:#314E55;" d="M156.956,263.991c5.43-9.912,24.553-38.206,40.658-38.206c14.294,0,32.487,23.368,40.623,38.145
	c13.496,25.583,40.189,41.474,69.689,41.474c43.184,0,78.32-34.25,78.32-76.351c0-39.798-30.623-72.487-72.009-76.075
	l-234.088-0.237c-40.57,3.868-71.167,36.675-71.167,76.311c0,42.101,35.136,76.351,78.32,76.351
	C116.829,305.404,143.548,289.483,156.956,263.991z"/>
<path style="fill:#73C9C9;" d="M87.303,287.439c-33.281,0-60.355-26.193-60.355-58.386c0-30.325,23.605-55.443,54.044-58.386
	l232.452,0.241c31.263,2.737,54.838,27.732,54.838,58.145c0,32.193-27.074,58.386-60.355,58.386
	c-22.838,0-43.461-12.241-53.825-31.943c-0.026-0.048-0.048-0.092-0.075-0.136c-2.662-4.864-26.89-47.54-56.412-47.54
	s-53.75,42.675-56.487,47.676C130.763,275.197,110.141,287.439,87.303,287.439z"/>
<g>
	<path style="fill:#314E55;" d="M79.176,193.079c-4.193-2.649-9.741-1.39-12.395,2.798l-15.825,25.057
		c-2.649,4.197-1.395,9.746,2.798,12.395c1.491,0.939,3.149,1.386,4.789,1.386c2.978,0,5.895-1.483,7.605-4.184l15.825-25.057
		C84.623,201.276,83.369,195.728,79.176,193.079z"/>
	<path style="fill:#314E55;" d="M501.32,111.522c-1.688-2.346-4.399-3.732-7.285-3.732h-89.825c-2.886,0-5.597,1.386-7.285,3.732
		c-1.689,2.342-2.149,5.351-1.237,8.092l17.965,53.895c1.224,3.667,4.653,6.14,8.522,6.14h17.965v197.614
		c0,64.39-52.382,116.772-116.772,116.772c-61.358,0-111.702-47.594-116.317-107.789h44.457c4.961,0,8.982-4.022,8.982-8.982
		v-44.912c0-4.961-4.022-8.982-8.982-8.982H143.719c-4.961,0-8.982,4.022-8.982,8.982v44.912c0,4.961,4.022,8.982,8.982,8.982
		h45.367C193.744,456.349,252.107,512,323.369,512c70.247,0,128.034-54.058,134.129-122.748c0.341-0.95,0.607-1.941,0.607-3.007
		V179.649h17.965c3.869,0,7.298-2.474,8.522-6.14l17.965-53.895C503.47,116.873,503.009,113.864,501.32,111.522z"/>
</g>
<g>
	<rect x="152.702" y="341.333" style="fill:#D8D8D8;" width="89.825" height="26.947"/>
	<polygon style="fill:#D8D8D8;" points="469.597,161.684 428.649,161.684 416.671,125.754 481.575,125.754 	"/>
</g>
<path style="fill:#314E55;" d="M431.158,98.807c19.811,0,35.93-16.118,35.93-35.93s-16.118-35.93-35.93-35.93
	s-35.93,16.118-35.93,35.93S411.347,98.807,431.158,98.807z"/>
<circle style="fill:#D8D8D8;" cx="431.158" cy="62.877" r="17.965"/>
<path style="fill:#314E55;" d="M363.79,44.912c12.382,0,22.456-10.074,22.456-22.456S376.171,0,363.79,0
	c-12.382,0-22.456,10.074-22.456,22.456S351.408,44.912,363.79,44.912z"/>
<circle style="fill:#D8D8D8;" cx="363.79" cy="22.456" r="4.491"/>
<g>
</g>
<g>
</g>
<g>
</g>
<g>
</g>
<g>
</g>
<g>
</g>
<g>
</g>
<g>
</g>
<g>
</g>
<g>
</g>
<g>
</g>
<g>
</g>
<g>
</g>
<g>
</g>
<g>
</g>
</svg>
