<?xml version="1.0" encoding="iso-8859-1"?>
<!-- Generator: Adobe Illustrator 19.0.0, SVG Export Plug-In . SVG Version: 6.00 Build 0)  -->
<svg version="1.1" id="Layer_1" xmlns="http://www.w3.org/2000/svg" xmlns:xlink="http://www.w3.org/1999/xlink" x="0px" y="0px"
	 viewBox="0 0 512 512" style="enable-background:new 0 0 512 512;" xml:space="preserve">
<path style="fill:#314E55;" d="M256,0C114.839,0,0,114.839,0,256s114.839,256,256,256s256-114.839,256-256S397.161,0,256,0z"/>
<g>
	<path style="fill:#E4AD40;" d="M415.205,199.629l13.857-73.821l22.634-2.031c0.53-0.047,0.969-0.304,1.466-0.435
		c20.484,30.346,34.087,65.672,38.728,103.725l-12.56,11.661L415.205,199.629z"/>
	<path style="fill:#E4AD40;" d="M440.573,106.414l-20.037,1.8c-4.071,0.366-7.411,3.397-8.161,7.42l-15.521,82.66l-48.37,20.702
		l-82.716-57.129c-0.195-0.135-0.422-0.185-0.625-0.304v-54.056c1.626-0.1,3.241-0.569,4.643-1.538l72.696-50.205
		c3.366-2.326,4.777-6.607,3.455-10.478l-3.667-10.728C380.979,49.692,414.784,74.655,440.573,106.414z"/>
</g>
<path style="fill:#E65F58;" d="M307.589,316.933h-94.036l-28.535-83.502c0.216-0.373,0.426-0.747,0.592-1.156l74.961-51.774
	l75.759,52.326L307.589,316.933z"/>
<g>
	<path style="fill:#E4AD40;" d="M320.443,27.234l5.95,17.417l-61.804,42.683l-61.795-42.683l6.839-20.036
		c0.204-0.597,0.158-1.196,0.235-1.799c14.931-2.949,30.347-4.531,46.131-4.531C278.335,18.286,299.933,21.449,320.443,27.234z"/>
	<path style="fill:#E4AD40;" d="M189.186,27.909l-5.936,17.376c-1.321,3.871,0.089,8.152,3.455,10.478l60.305,41.652
		c-0.023,0.263-0.153,0.49-0.153,0.759v69.575l-73.051,50.455l-58.46-18.846l-15.721-83.724c-0.75-4.022-4.089-7.053-8.161-7.42
		l-20.037-1.8C101.453,69.437,142.338,41.656,189.186,27.909z"/>
	<path style="fill:#E4AD40;" d="M58.838,123.341c0.497,0.132,0.936,0.388,1.466,0.435l22.634,2.031l13.857,73.821L32.67,238.728
		l-12.56-11.661C24.751,189.013,38.354,153.688,58.838,123.341z"/>
	<path style="fill:#E4AD40;" d="M18.426,250.46l6.868,6.375c1.741,1.612,3.973,2.442,6.223,2.442c1.643,0,3.286-0.437,4.759-1.335
		l69.594-42.429l60.345,19.453l29.234,85.531l-51.987,37.051l-85.364-15.616c-4.045-0.701-8.045,1.299-9.848,4.969l-6.196,12.636
		C26.838,328.221,18.286,293.093,18.286,256C18.286,254.142,18.384,252.308,18.426,250.46z"/>
	<path style="fill:#E4AD40;" d="M52.768,379.201l8.848-18.031l71.408,13.06c0.233,0.502,0.34,1.04,0.672,1.507
		c0.636,0.891,1.516,1.446,2.368,2.033l12.953,70.801l-18.611,9.126C98.815,437.955,72.142,411.043,52.768,379.201z"/>
	<path style="fill:#E4AD40;" d="M149.776,468.568l13.51-6.626c3.679-1.804,5.705-5.83,4.964-9.857l-14.527-79.395l52.706-37.565
		c0.201,0.013,0.385,0.094,0.589,0.094h106.664l40.956,35.212l-14.941,81.654c-0.741,4.027,1.286,8.053,4.964,9.857l15.582,7.643
		c-31.495,15.433-66.867,24.13-104.243,24.13C217.833,493.714,181.769,484.621,149.776,468.568z"/>
	<path style="fill:#E4AD40;" d="M379.463,459.065c-0.504-0.4-0.925-0.877-1.525-1.172l-19.009-9.321l13.315-72.782
		c0.469-0.367,1.014-0.593,1.417-1.061c0.077-0.089,0.094-0.205,0.167-0.297l72.503-13.261l10.009,20.397
		c0.187,0.384,0.516,0.631,0.748,0.976C437.455,413.628,410.868,439.9,379.463,459.065z"/>
	<path style="fill:#E4AD40;" d="M467.874,363.578l-8.177-16.676c-1.804-3.67-5.866-5.679-9.848-4.969l-82.703,15.129l-41.696-35.848
		l29.012-84.884l50.419-21.58l70.844,43.192c1.473,0.897,3.116,1.335,4.759,1.335c2.25,0,4.482-0.83,6.223-2.442l6.868-6.375
		c0.043,1.848,0.141,3.682,0.141,5.54C493.714,294.708,484.356,331.25,467.874,363.578z"/>
</g>
<g>
</g>
<g>
</g>
<g>
</g>
<g>
</g>
<g>
</g>
<g>
</g>
<g>
</g>
<g>
</g>
<g>
</g>
<g>
</g>
<g>
</g>
<g>
</g>
<g>
</g>
<g>
</g>
<g>
</g>
</svg>
