<?xml version="1.0" encoding="iso-8859-1"?>
<!-- Generator: Adobe Illustrator 19.0.0, SVG Export Plug-In . SVG Version: 6.00 Build 0)  -->
<svg version="1.1" id="Layer_1" xmlns="http://www.w3.org/2000/svg" xmlns:xlink="http://www.w3.org/1999/xlink" x="0px" y="0px"
	 viewBox="0 0 512 512" style="enable-background:new 0 0 512 512;" xml:space="preserve">
<path style="fill:#314E55;" d="M440.14,417.684c3.816,0,7.219-2.412,8.482-6.018L511.5,232.018c0.956-2.746,0.526-5.789-1.158-8.167
	c-1.684-2.368-4.412-3.781-7.325-3.781h-53.895h-89.824h-53.895c-3.816,0-7.219,2.412-8.482,6.018l-62.877,179.649
	c-0.956,2.746-0.526,5.789,1.158,8.167c1.684,2.368,4.412,3.781,7.325,3.781h35.93v53.895h-98.807v-53.895h26.947
	c3.816,0,7.219-2.412,8.482-6.018l62.877-179.649c0.956-2.746,0.526-5.789-1.158-8.167c-1.684-2.368-4.412-3.781-7.325-3.781
	h-53.895h-89.824H71.86c-3.816,0-7.219,2.412-8.482,6.018L0.5,405.737c-0.956,2.746-0.526,5.789,1.158,8.167
	c1.684,2.368,4.412,3.781,7.325,3.781h44.912v53.895H8.983c-4.965,0-8.982,4.018-8.982,8.982s4.018,8.982,8.982,8.982H485.14
	c4.965,0,8.982-4.018,8.982-8.982s-4.018-8.982-8.982-8.982h-80.93v-53.895H440.14z"/>
<g>
	<polygon style="fill:#73C9C9;" points="379.868,399.719 309.079,399.719 337.377,318.877 408.166,318.877 	"/>
	<polygon style="fill:#73C9C9;" points="433.763,399.719 398.909,399.719 427.204,318.877 462.061,318.877 	"/>
	<polygon style="fill:#73C9C9;" points="468.35,300.912 433.492,300.912 455.499,238.035 490.359,238.035 	"/>
	<polygon style="fill:#73C9C9;" points="436.465,238.035 414.455,300.912 343.666,300.912 365.675,238.035 	"/>
</g>
<g>
	<polygon style="fill:#FFFFFF;" points="311.781,238.035 346.634,238.035 324.627,300.912 289.771,300.912 	"/>
	<polygon style="fill:#FFFFFF;" points="283.482,318.877 318.339,318.877 290.045,399.719 255.184,399.719 	"/>
</g>
<g>
	<polygon style="fill:#73C9C9;" points="200.219,399.719 165.366,399.719 193.661,318.877 228.518,318.877 	"/>
	<polygon style="fill:#73C9C9;" points="146.325,399.719 75.535,399.719 103.833,318.877 174.623,318.877 	"/>
	<path style="fill:#73C9C9;" d="M234.723,301.15c-0.403-0.055-0.761-0.237-1.179-0.237h-33.595l22.007-62.877h34.861L234.723,301.15
		z"/>
	<polygon style="fill:#73C9C9;" points="202.921,238.035 180.911,300.912 110.122,300.912 132.132,238.035 	"/>
</g>
<g>
	<polygon style="fill:#FFFFFF;" points="78.237,238.035 113.091,238.035 91.084,300.912 56.227,300.912 	"/>
	<path style="fill:#FFFFFF;" d="M50.226,318.056c1.125,0.507,2.353,0.821,3.669,0.821h30.901l-28.294,80.842H21.64L50.226,318.056z"
		/>
	<polygon style="fill:#FFFFFF;" points="71.86,417.684 152.702,417.684 161.684,417.684 161.684,471.579 71.86,471.579 	"/>
	<rect x="296.421" y="417.684" style="fill:#FFFFFF;" width="89.824" height="53.895"/>
</g>
<path style="fill:#314E55;" d="M62.877,130.246c29.719,0,53.895-24.175,53.895-53.895S92.597,22.456,62.877,22.456
	S8.983,46.632,8.983,76.351S33.158,130.246,62.877,130.246z"/>
<path style="fill:#E4AD40;" d="M62.877,40.421c19.816,0,35.93,16.114,35.93,35.93s-16.114,35.93-35.93,35.93
	s-35.93-16.114-35.93-35.93S43.062,40.421,62.877,40.421z"/>
<g>
	<path style="fill:#314E55;" d="M134.737,85.333h35.93c4.965,0,8.982-4.018,8.982-8.982s-4.018-8.982-8.982-8.982h-35.93
		c-4.965,0-8.982,4.018-8.982,8.982S129.772,85.333,134.737,85.333z"/>
	<path style="fill:#314E55;" d="M53.895,148.211v35.93c0,4.965,4.018,8.982,8.982,8.982s8.982-4.018,8.982-8.982v-35.93
		c0-4.965-4.018-8.982-8.982-8.982S53.895,143.246,53.895,148.211z"/>
	<path style="fill:#314E55;" d="M115.684,141.86l25.403,25.403c1.754,1.754,4.053,2.632,6.351,2.632s4.597-0.877,6.351-2.632
		c3.509-3.509,3.509-9.193,0-12.702l-25.403-25.404c-3.509-3.509-9.193-3.509-12.702,0
		C112.176,132.667,112.175,138.351,115.684,141.86z"/>
</g>
<g>
</g>
<g>
</g>
<g>
</g>
<g>
</g>
<g>
</g>
<g>
</g>
<g>
</g>
<g>
</g>
<g>
</g>
<g>
</g>
<g>
</g>
<g>
</g>
<g>
</g>
<g>
</g>
<g>
</g>
</svg>
