<?xml version="1.0" encoding="iso-8859-1"?>
<!-- Generator: Adobe Illustrator 19.0.0, SVG Export Plug-In . SVG Version: 6.00 Build 0)  -->
<svg version="1.1" id="Layer_1" xmlns="http://www.w3.org/2000/svg" xmlns:xlink="http://www.w3.org/1999/xlink" x="0px" y="0px"
	 viewBox="0 0 512 512" style="enable-background:new 0 0 512 512;" xml:space="preserve">
<path style="fill:#314E55;" d="M423.724,0H88.276c-4.875,0-8.828,3.948-8.828,8.828V476.69c0,4.879,3.953,8.828,8.828,8.828h26.483
	v17.655c0,4.879,3.953,8.828,8.828,8.828h52.966c4.875,0,8.828-3.948,8.828-8.828v-17.655h141.241v17.655
	c0,4.879,3.953,8.828,8.828,8.828h52.966c4.875,0,8.828-3.948,8.828-8.828v-17.655h26.483c4.875,0,8.828-3.948,8.828-8.828V8.828
	C432.552,3.948,428.599,0,423.724,0z"/>
<polygon style="fill:#E9E7D1;" points="414.897,467.862 388.414,467.862 335.448,467.862 176.552,467.862 123.586,467.862 
	97.103,467.862 97.103,17.655 414.897,17.655 "/>
<path style="fill:#314E55;" d="M193.608,209.121c-5.017-5.017-11.677-7.784-18.75-7.784h-0.013c-7.069,0-13.715,2.759-18.716,7.759
	c-5.026,5.026-7.784,11.69-7.767,18.776c0.017,7.052,2.784,13.698,7.797,18.707l15.106,15.102
	c-7.848,14.007-12.368,30.119-12.368,47.285c0,17.166,4.52,33.278,12.369,47.285l-15.11,15.103
	c-10.336,10.345-10.349,27.164-0.026,37.483c5.155,5.155,11.931,7.733,18.716,7.733c6.789,0,13.586-2.586,18.763-7.759
	l15.109-15.109c14.007,7.848,30.118,12.367,47.283,12.367s33.276-4.52,47.283-12.367l15.109,15.109
	c5.017,5.017,11.677,7.784,18.75,7.784h0.013c7.069,0,13.715-2.759,18.716-7.759c5.026-5.026,7.784-11.69,7.767-18.776
	c-0.017-7.052-2.784-13.698-7.797-18.707l-15.106-15.102c7.848-14.007,12.368-30.119,12.368-47.285
	c0-17.166-4.52-33.278-12.369-47.285l15.11-15.103c10.336-10.345,10.349-27.164,0.026-37.483
	c-10.315-10.31-27.129-10.319-37.478,0.026l-15.109,15.109c-14.007-7.848-30.118-12.367-47.283-12.367s-33.276,4.52-47.283,12.367
	L193.608,209.121z"/>
<g>
	<rect x="132.414" y="485.517" style="fill:#E9E7D1;" width="35.31" height="8.828"/>
	<rect x="344.276" y="485.517" style="fill:#E9E7D1;" width="35.31" height="8.828"/>
</g>
<path style="fill:#D8D8D8;" d="M335.448,308.966c0,43.81-35.642,79.448-79.448,79.448s-79.448-35.638-79.448-79.448
	s35.642-79.448,79.448-79.448S335.448,265.155,335.448,308.966z"/>
<path style="fill:#314E55;" d="M256,353.103c24.336,0,44.138-19.802,44.138-44.138c0-24.336-19.802-44.138-44.138-44.138
	s-44.138,19.802-44.138,44.138C211.862,333.302,231.664,353.103,256,353.103z"/>
<path style="fill:#5ECB66;" d="M256,282.483c14.603,0,26.483,11.879,26.483,26.483S270.603,335.448,256,335.448
	s-26.483-11.879-26.483-26.483S241.397,282.483,256,282.483z"/>
<path style="fill:#314E55;" d="M335.448,150.069c29.207,0,52.966-23.759,52.966-52.966s-23.759-52.966-52.966-52.966
	s-52.966,23.759-52.966,52.966S306.241,150.069,335.448,150.069z"/>
<path style="fill:#D8D8D8;" d="M335.448,61.793c19.47,0,35.31,15.836,35.31,35.31s-15.84,35.31-35.31,35.31
	c-19.47,0-35.31-15.836-35.31-35.31S315.978,61.793,335.448,61.793z"/>
<path style="fill:#314E55;" d="M335.448,123.586c14.603,0,26.483-11.879,26.483-26.483s-11.879-26.483-26.483-26.483
	S308.966,82.5,308.966,97.103S320.845,123.586,335.448,123.586z"/>
<circle style="fill:#D8D8D8;" cx="335.448" cy="97.103" r="8.828"/>
<path style="fill:#314E55;" d="M176.552,150.069c29.207,0,52.966-23.759,52.966-52.966s-23.759-52.966-52.966-52.966
	s-52.966,23.759-52.966,52.966S147.345,150.069,176.552,150.069z"/>
<path style="fill:#D8D8D8;" d="M176.552,61.793c19.47,0,35.31,15.836,35.31,35.31s-15.84,35.31-35.31,35.31
	s-35.31-15.836-35.31-35.31S157.082,61.793,176.552,61.793z"/>
<path style="fill:#314E55;" d="M176.552,123.586c14.603,0,26.483-11.879,26.483-26.483s-11.879-26.483-26.483-26.483
	S150.069,82.5,150.069,97.103S161.948,123.586,176.552,123.586z"/>
<g>
	<circle style="fill:#D8D8D8;" cx="176.552" cy="97.103" r="8.828"/>
	<path style="fill:#D8D8D8;" d="M166.017,227.828c-0.004-2.353,0.914-4.569,2.599-6.25c1.664-1.672,3.875-2.586,6.229-2.586h0.004
		c2.362,0,4.591,0.931,6.276,2.612l12.457,12.457l-12.487,12.483l-12.453-12.448C166.957,232.405,166.022,230.181,166.017,227.828z"
		/>
	<path style="fill:#D8D8D8;" d="M181.125,396.328c-3.461,3.457-9.078,3.465-12.513,0.026c-3.44-3.44-3.427-9.06,0.03-12.517
		l12.453-12.448l12.487,12.483L181.125,396.328z"/>
	<path style="fill:#D8D8D8;" d="M345.983,390.103c0.004,2.353-0.914,4.569-2.599,6.25c-1.664,1.672-3.875,2.586-6.229,2.586h-0.004
		c-2.362,0-4.591-0.931-6.276-2.612l-12.457-12.457l12.487-12.483l12.453,12.448C345.043,385.526,345.978,387.75,345.983,390.103z"
		/>
	<path style="fill:#D8D8D8;" d="M330.875,221.604c3.457-3.457,9.073-3.465,12.513-0.026c3.44,3.44,3.427,9.06-0.03,12.517
		l-12.453,12.448l-12.487-12.483L330.875,221.604z"/>
</g>
<g>
</g>
<g>
</g>
<g>
</g>
<g>
</g>
<g>
</g>
<g>
</g>
<g>
</g>
<g>
</g>
<g>
</g>
<g>
</g>
<g>
</g>
<g>
</g>
<g>
</g>
<g>
</g>
<g>
</g>
</svg>
