<?xml version="1.0" encoding="iso-8859-1"?>
<!-- Generator: Adobe Illustrator 19.0.0, SVG Export Plug-In . SVG Version: 6.00 Build 0)  -->
<svg version="1.1" id="Layer_1" xmlns="http://www.w3.org/2000/svg" xmlns:xlink="http://www.w3.org/1999/xlink" x="0px" y="0px"
	 viewBox="0 0 512 512" style="enable-background:new 0 0 512 512;" xml:space="preserve">
<path style="fill:#314E55;" d="M212.426,0H16.34C10.324,0,5.447,4.878,5.447,10.894v424.851c0,6.016,4.878,10.894,10.894,10.894
	h54.468v43.574H38.128c-6.016,0-10.894,4.878-10.894,10.894c0,6.016,4.878,10.894,10.894,10.894h43.574h65.362h43.574
	c6.016,0,10.894-4.878,10.894-10.894c0-6.016-4.878-10.894-10.894-10.894h-32.681v-43.574h54.468
	c6.016,0,10.894-4.878,10.894-10.894V10.894C223.319,4.878,218.442,0,212.426,0z"/>
<g>
	<rect x="92.596" y="446.638" style="fill:#EAEAEA;" width="43.574" height="43.574"/>
	<polygon style="fill:#EAEAEA;" points="201.532,424.851 147.064,424.851 81.702,424.851 27.234,424.851 27.234,21.787 
		201.532,21.787 	"/>
</g>
<path style="fill:#314E55;" d="M495.66,0H299.574c-6.016,0-10.894,4.878-10.894,10.894v424.851c0,6.016,4.878,10.894,10.894,10.894
	h54.468v43.574h-32.681c-6.016,0-10.894,4.878-10.894,10.894c0,6.016,4.878,10.894,10.894,10.894h43.574h65.362h43.574
	c6.016,0,10.894-4.878,10.894-10.894c0-6.016-4.878-10.894-10.894-10.894h-32.681v-43.574h54.468
	c6.016,0,10.894-4.878,10.894-10.894V10.894C506.553,4.878,501.676,0,495.66,0z"/>
<g>
	<rect x="375.83" y="446.638" style="fill:#EAEAEA;" width="43.574" height="43.574"/>
	<polygon style="fill:#EAEAEA;" points="484.766,424.851 430.298,424.851 364.936,424.851 310.468,424.851 310.468,21.787 
		484.766,21.787 	"/>
</g>
<path style="fill:#314E55;" d="M114.383,392.17c36.043,0,65.362-29.319,65.362-65.362s-29.319-65.362-65.362-65.362
	s-65.362,29.319-65.362,65.362S78.34,392.17,114.383,392.17z"/>
<path style="fill:#E65F58;" d="M114.383,283.234c24.027,0,43.574,19.548,43.574,43.574s-19.548,43.574-43.574,43.574
	s-43.574-19.548-43.574-43.574S90.356,283.234,114.383,283.234z"/>
<path style="fill:#314E55;" d="M397.617,392.17c36.043,0,65.362-29.319,65.362-65.362s-29.319-65.362-65.362-65.362
	s-65.362,29.319-65.362,65.362S361.574,392.17,397.617,392.17z"/>
<path style="fill:#E65F58;" d="M397.617,283.234c24.027,0,43.574,19.548,43.574,43.574s-19.548,43.574-43.574,43.574
	s-43.574-19.548-43.574-43.574S373.59,283.234,397.617,283.234z"/>
<path style="fill:#314E55;" d="M114.383,239.66c24.027,0,43.574-19.548,43.574-43.574s-19.548-43.574-43.574-43.574
	s-43.574,19.548-43.574,43.574S90.356,239.66,114.383,239.66z"/>
<circle style="fill:#E65F58;" cx="114.383" cy="196.085" r="21.787"/>
<path style="fill:#314E55;" d="M397.617,239.66c24.027,0,43.574-19.548,43.574-43.574s-19.548-43.574-43.574-43.574
	s-43.574,19.548-43.574,43.574S373.59,239.66,397.617,239.66z"/>
<circle style="fill:#E65F58;" cx="397.617" cy="196.085" r="21.787"/>
<path style="fill:#314E55;" d="M114.383,141.617c24.027,0,43.574-19.548,43.574-43.574s-19.548-43.574-43.574-43.574
	S70.809,74.016,70.809,98.043S90.356,141.617,114.383,141.617z"/>
<circle style="fill:#E65F58;" cx="114.383" cy="98.043" r="21.787"/>
<path style="fill:#314E55;" d="M397.617,141.617c24.027,0,43.574-19.548,43.574-43.574s-19.548-43.574-43.574-43.574
	s-43.574,19.548-43.574,43.574S373.59,141.617,397.617,141.617z"/>
<circle style="fill:#E65F58;" cx="397.617" cy="98.043" r="21.787"/>
<g>
</g>
<g>
</g>
<g>
</g>
<g>
</g>
<g>
</g>
<g>
</g>
<g>
</g>
<g>
</g>
<g>
</g>
<g>
</g>
<g>
</g>
<g>
</g>
<g>
</g>
<g>
</g>
<g>
</g>
</svg>
