<?xml version="1.0" encoding="iso-8859-1"?>
<!-- Generator: Adobe Illustrator 19.0.0, SVG Export Plug-In . SVG Version: 6.00 Build 0)  -->
<svg version="1.1" id="Layer_1" xmlns="http://www.w3.org/2000/svg" xmlns:xlink="http://www.w3.org/1999/xlink" x="0px" y="0px"
	 viewBox="0 0 512 512" style="enable-background:new 0 0 512 512;" xml:space="preserve">
<path style="fill:#314E55;" d="M365.831,245.697c-26.183,0-47.881,15.948-80.73,40.092c-34.774,25.561-82.255,60.358-161.422,97.526
	c-57.267-64.071-83.591-121.693-78.103-171.288c4.12-37.213,25.237-58.379,33.245-65.172l29.386,31.68
	c2.059,2.217,4.852,3.338,7.656,3.338c2.543,0,5.092-0.923,7.1-2.783c4.225-3.925,4.475-10.53,0.55-14.756L47.09,81.943
	l-6.967-67.239c-0.591-5.729-5.642-9.903-11.458-9.307c-5.734,0.591-9.903,5.724-9.307,11.458l7.324,70.705
	c0.234,2.253,1.193,4.363,2.727,6.025l35.226,37.976c-10.863,9.466-34.813,34.778-39.742,77.592
	c-6.283,54.554,20.331,116.165,78.949,183.228c-28.324,12.58-60.272,25.361-96.839,38.096C2.808,431.938,0,435.894,0,440.333
	c0,14.776,0,35.011,365.831,35.011c63.314,0,114.823-51.509,114.823-114.823S429.145,245.697,365.831,245.697z"/>
<path style="fill:#E4AD40;" d="M365.831,454.467c-212.521,0-295.056-7.518-327.069-13.196
	c140.654-51.887,211.165-103.717,258.704-138.656c30.576-22.477,49.032-36.04,68.365-36.04c51.8,0,93.946,42.146,93.946,93.946
	C459.778,412.321,417.631,454.467,365.831,454.467z"/>
<path style="fill:#314E55;" d="M365.831,287.451c-40.291,0-73.069,32.778-73.069,73.069c0,11.904,2.92,23.12,7.992,33.061
	l-19.868,14.172h-42.258c-5.765,0-10.438,4.674-10.438,10.438s4.674,10.439,10.438,10.439h45.602c2.171,0,4.292-0.678,6.06-1.942
	l22.506-16.055c13.329,14.099,32.147,22.957,53.035,22.957c40.291,0,73.069-32.778,73.069-73.069S406.122,287.451,365.831,287.451z"
	/>
<path style="fill:#5ECB66;" d="M365.831,412.713c-13.872,0-26.421-5.53-35.779-14.39l40.351-28.786
	c4.694-3.349,5.785-9.868,2.436-14.557c-3.343-4.689-9.857-5.78-14.557-2.436l-40.283,28.736c-2.777-6.372-4.36-13.377-4.36-20.76
	c0-28.777,23.415-52.192,52.192-52.192c28.777,0,52.192,23.415,52.192,52.192C418.024,389.297,394.608,412.713,365.831,412.713z"/>
<g>
	<path style="fill:#314E55;" d="M381.723,149.085c2.1,0.54,49.313,12.329,102.596,2.237c-13.624,17.034-45.067,47.717-73.727,72.998
		c-4.322,3.812-4.735,10.408-0.923,14.735c2.064,2.34,4.939,3.532,7.834,3.532c2.452,0,4.913-0.861,6.901-2.61
		c96.342-84.976,89.349-98.411,85.985-104.869c-2.385-4.577-7.931-9.368-20.75-6.284c-52.121,12.595-102.244,0.153-102.749,0.036
		c-5.566-1.412-11.264,1.952-12.686,7.533C372.778,141.975,376.142,147.653,381.723,149.085z"/>
	<path style="fill:#314E55;" d="M95.292,485.782H31.8c-5.765,0-10.438,4.674-10.438,10.439s4.674,10.438,10.438,10.438h63.492
		c5.765,0,10.438-4.674,10.438-10.438S101.057,485.782,95.292,485.782z"/>
	<path style="fill:#314E55;" d="M387.57,485.782h-63.492c-5.765,0-10.439,4.674-10.439,10.439s4.674,10.438,10.439,10.438h63.492
		c5.765,0,10.439-4.674,10.439-10.438S393.334,485.782,387.57,485.782z"/>
</g>
<g>
</g>
<g>
</g>
<g>
</g>
<g>
</g>
<g>
</g>
<g>
</g>
<g>
</g>
<g>
</g>
<g>
</g>
<g>
</g>
<g>
</g>
<g>
</g>
<g>
</g>
<g>
</g>
<g>
</g>
</svg>
