<?xml version="1.0" encoding="iso-8859-1"?>
<!-- Generator: Adobe Illustrator 19.0.0, SVG Export Plug-In . SVG Version: 6.00 Build 0)  -->
<svg version="1.1" id="Layer_1" xmlns="http://www.w3.org/2000/svg" xmlns:xlink="http://www.w3.org/1999/xlink" x="0px" y="0px"
	 viewBox="0 0 512 512" style="enable-background:new 0 0 512 512;" xml:space="preserve">
<path style="fill:#314E55;" d="M490.281,221.433L265.143,41.322V9.143C265.143,4.094,261.049,0,256,0s-9.143,4.094-9.143,9.143
	v32.179L21.719,221.433c-3.036,2.424-4.201,6.5-2.92,10.165c1.285,3.665,4.745,6.116,8.629,6.116v54.857
	c0,1.719,0.563,3.326,1.5,4.696c6.415,29.254,32.201,50.161,62.5,50.161c23.107,0,43.589-12.161,54.857-30.911
	c11.268,18.75,31.75,30.911,54.857,30.911s43.589-12.161,54.857-30.911c11.268,18.75,31.75,30.911,54.857,30.911
	s43.589-12.161,54.857-30.911c11.268,18.75,31.75,30.911,54.857,30.911c30.129,0,55.799-20.679,62.393-49.674
	c1.013-1.473,1.607-3.259,1.607-5.183v-54.857c3.884,0,7.344-2.451,8.629-6.116C494.482,227.933,493.317,223.857,490.281,221.433z"
	/>
<polygon style="fill:#C59981;" points="256,57.424 458.509,219.429 53.491,219.429 "/>
<path style="fill:#F28544;" d="M466.286,288.92c-0.29,0.674,0.125,1.456,0,2.206c-3.701,22.067-23.295,38.018-45.714,38.018
	c-22.42,0-41.379-16.018-45.08-38.085c-0.741-4.402-4.554-7.629-9.018-7.629h-1.518c-4.464,0-8.277,3.228-9.018,7.629
	c-3.701,22.067-22.661,38.085-45.08,38.085s-41.379-16.018-45.08-38.085c-0.741-4.402-4.554-7.629-9.018-7.629h-1.518
	c-4.464,0-8.277,3.228-9.018,7.629c-3.701,22.067-22.661,38.085-45.08,38.085s-41.379-16.018-45.08-38.085
	c-0.741-4.402-4.553-7.629-9.018-7.629h-1.518c-4.464,0-8.277,3.228-9.018,7.629c-3.701,22.067-22.661,38.085-45.08,38.085
	s-41.379-16.018-45.08-38.085c-0.12-0.705-0.335-1.379-0.634-2.013v-51.33h420.571V288.92z"/>
<g>
	<path style="fill:#314E55;" d="M237.714,356.571c-5.049,0-9.143,4.094-9.143,9.143v137.143c0,5.049,4.094,9.143,9.143,9.143
		c5.049,0,9.143-4.094,9.143-9.143V365.714C246.857,360.665,242.763,356.571,237.714,356.571z"/>
	<path style="fill:#314E55;" d="M274.286,356.571c-5.049,0-9.143,4.094-9.143,9.143v137.143c0,5.049,4.094,9.143,9.143,9.143
		c5.049,0,9.143-4.094,9.143-9.143V365.714C283.428,360.665,279.335,356.571,274.286,356.571z"/>
</g>
<g>
</g>
<g>
</g>
<g>
</g>
<g>
</g>
<g>
</g>
<g>
</g>
<g>
</g>
<g>
</g>
<g>
</g>
<g>
</g>
<g>
</g>
<g>
</g>
<g>
</g>
<g>
</g>
<g>
</g>
</svg>
