<?xml version="1.0" encoding="iso-8859-1"?>
<!-- Generator: Adobe Illustrator 19.0.0, SVG Export Plug-In . SVG Version: 6.00 Build 0)  -->
<svg version="1.1" id="Layer_1" xmlns="http://www.w3.org/2000/svg" xmlns:xlink="http://www.w3.org/1999/xlink" x="0px" y="0px"
	 viewBox="0 0 512 512" style="enable-background:new 0 0 512 512;" xml:space="preserve">
<g>
	<path style="fill:#314E55;" d="M344.276,445.896c-4.875,0-8.828,3.948-8.828,8.828c0,17.552-15.06,31.828-33.569,31.828
		c-18.509,0-33.569-14.276-33.569-31.828c0-4.879-3.953-8.828-8.828-8.828c-0.617,0-1.16,0.231-1.741,0.351
		c-0.582-0.121-1.124-0.351-1.741-0.351c-4.875,0-8.828,3.948-8.828,8.828c0,17.552-15.06,31.828-33.569,31.828
		s-33.569-14.276-33.569-31.828c0-4.879-3.953-8.828-8.828-8.828c-0.617,0-1.16,0.231-1.741,0.351
		c-0.582-0.121-1.124-0.351-1.741-0.351c-4.875,0-8.828,3.948-8.828,8.828c0,17.552-15.06,31.828-33.569,31.828
		s-33.569-14.276-33.569-31.828c0-4.879-3.953-8.828-8.828-8.828c-4.875,0-8.828,3.948-8.828,8.828
		c0,27.285,22.978,49.483,51.224,49.483c18.804,0,35.228-9.867,44.138-24.495c8.909,14.627,25.334,24.495,44.138,24.495
		s35.228-9.867,44.138-24.495c8.909,14.627,25.334,24.495,44.138,24.495c28.246,0,51.224-22.198,51.224-49.483
		C353.103,449.845,349.151,445.896,344.276,445.896z"/>
	<path style="fill:#314E55;" d="M503.172,345.31c-4.875,0-8.828,3.948-8.828,8.828c0,29.207-23.759,52.966-52.966,52.966
		s-52.966-23.759-52.966-52.966c0-4.879-3.953-8.828-8.828-8.828s-8.828,3.948-8.828,8.828c0,27.626-21.266,50.347-48.283,52.728
		c0.008-0.073,0.053-0.129,0.059-0.203c2.711-32.905,4.086-67.612,4.086-103.147c0-118.871-18.806-295.724-70.621-295.724
		s-70.621,176.853-70.621,295.724c0,35.628,1.388,70.382,4.111,103.347c-27.002-2.398-48.249-25.112-48.249-52.727
		c0-4.879-3.953-8.828-8.828-8.828c-4.875,0-8.828,3.948-8.828,8.828c0,29.207-23.759,52.966-52.966,52.966
		s-52.966-23.759-52.966-52.966c0-4.879-3.953-8.828-8.828-8.828S0,349.259,0,354.138c0,38.94,31.681,70.621,70.621,70.621
		c26.571,0,49.741-14.765,61.793-36.508c12.052,21.743,35.223,36.508,61.793,36.508s49.741-14.765,61.793-36.508
		c12.052,21.743,35.223,36.508,61.793,36.508c26.571,0,49.741-14.765,61.793-36.508c12.052,21.743,35.223,36.508,61.793,36.508
		c38.94,0,70.621-31.681,70.621-70.621C512,349.259,508.047,345.31,503.172,345.31z"/>
</g>
<path style="fill:#EA86A5;" d="M264.828,354.138c0-4.879-3.953-8.828-8.828-8.828s-8.828,3.948-8.828,8.828
	c0,24.757-17.094,45.539-40.083,51.315c-2.683-32.499-4.055-66.78-4.055-101.936c0-169.741,31.371-278.069,52.966-278.069
	s52.966,108.327,52.966,278.069c0,35.052-1.353,69.267-4.026,101.698c-0.007,0.088,0.034,0.165,0.03,0.253
	C281.95,399.713,264.828,378.916,264.828,354.138z"/>
<g>
	<path style="fill:#314E55;" d="M256,98.138c-4.875,0-8.828,3.948-8.828,8.828v211.862c0,4.879,3.953,8.828,8.828,8.828
		s8.828-3.948,8.828-8.828V106.966C264.828,102.086,260.875,98.138,256,98.138z"/>
	<path style="fill:#314E55;" d="M256,54c-4.875,0-8.828,3.948-8.828,8.828v8.828c0,4.879,3.953,8.828,8.828,8.828
		s8.828-3.948,8.828-8.828v-8.828C264.828,57.948,260.875,54,256,54z"/>
</g>
<g>
</g>
<g>
</g>
<g>
</g>
<g>
</g>
<g>
</g>
<g>
</g>
<g>
</g>
<g>
</g>
<g>
</g>
<g>
</g>
<g>
</g>
<g>
</g>
<g>
</g>
<g>
</g>
<g>
</g>
</svg>
