<?xml version="1.0" encoding="iso-8859-1"?>
<!-- Generator: Adobe Illustrator 19.0.0, SVG Export Plug-In . SVG Version: 6.00 Build 0)  -->
<svg version="1.1" id="Layer_1" xmlns="http://www.w3.org/2000/svg" xmlns:xlink="http://www.w3.org/1999/xlink" x="0px" y="0px"
	 viewBox="0 0 512 512" style="enable-background:new 0 0 512 512;" xml:space="preserve">
<path style="fill:#314E55;" d="M510.259,379.482l-66.817-170.744c-4.939-12.612-18.884-22.128-32.431-22.128h-36.618h-87.387
	v-56.098c0-4.887,3.971-8.858,8.858-8.858c4.887,0,8.858,3.971,8.858,8.858c0,4.896,3.962,8.858,8.858,8.858
	s8.858-3.962,8.858-8.858c0-14.654-11.92-26.574-26.574-26.574c-14.654,0-26.574,11.92-26.574,26.574v2.95h-35.432v-2.95
	c0-14.654-11.92-26.574-26.574-26.574s-26.574,11.92-26.574,26.574c0,4.896,3.962,8.858,8.858,8.858
	c4.896,0,8.858-3.962,8.858-8.858c0-4.887,3.971-8.858,8.858-8.858s8.858,3.971,8.858,8.858v56.098h-78.529h-36.617
	c-13.555,0-27.491,9.516-32.431,22.128L1.748,379.482c-2.785,7.119-2.223,14.368,1.548,19.896
	c3.772,5.519,10.303,8.685,17.924,8.685h469.567c7.612,0,14.144-3.166,17.906-8.685
	C512.474,393.841,513.036,386.592,510.259,379.482z M269.291,151.177v8.858h-35.432v-8.858H269.291z M233.859,177.752h35.432v8.858
	h-35.432V177.752z"/>
<path style="fill:#73C9C9;" d="M374.394,204.326c6.012,0,13.417,5.164,15.536,10.839l50.398,135.103
	c0.692,1.869,0.545,3.097,0.208,3.581c-0.337,0.493-1.445,1.064-3.443,1.064H74.914c-1.998,0-3.105-0.571-3.443-1.064
	c-0.337-0.485-0.493-1.721,0.199-3.581l50.406-135.103c0,0,0,0,0.009,0c2.145-5.779,9.403-10.839,15.528-10.839
	C137.613,204.326,374.394,204.326,374.394,204.326z"/>
<path style="fill:#D8D8D8;" d="M494.066,389.386c-0.329,0.476-1.471,0.96-3.279,0.96H21.22c-1.825,0-2.967-0.476-3.287-0.952
	c-0.329-0.485-0.355-1.739,0.32-3.46L85.07,215.191c2.258-5.787,9.706-10.865,15.926-10.865h6.688
	c-0.866,1.491-1.609,3.043-2.207,4.645h0.009L55.07,344.084c-2.647,7.119-1.972,14.368,1.851,19.879
	c3.823,5.51,10.389,8.668,17.993,8.668h362.179c7.612,0,14.178-3.166,18.002-8.677c3.824-5.51,4.49-12.759,1.825-19.879
	l-50.398-135.103c-0.596-1.599-1.353-3.15-2.235-4.645h6.725c6.107,0,13.702,5.182,15.926,10.865l66.817,170.744
	C494.429,387.648,494.394,388.902,494.066,389.386z"/>
<g>
	<path style="fill:#314E55;" d="M127.561,239.759c0,19.541,15.891,35.432,35.432,35.432c10.634,0,20.075-4.803,26.574-12.242
		c6.499,7.439,15.94,12.242,26.574,12.242c10.634,0,20.075-4.803,26.574-12.242c6.499,7.439,15.94,12.242,26.574,12.242
		c19.541,0,35.432-15.891,35.432-35.432c0-4.896-3.962-8.858-8.858-8.858s-8.858,3.962-8.858,8.858
		c0,9.767-7.95,17.716-17.716,17.716s-17.716-7.95-17.716-17.716c0-4.896-3.962-8.858-8.858-8.858s-8.858,3.962-8.858,8.858
		c0,9.767-7.95,17.716-17.716,17.716c-9.767,0-17.716-7.95-17.716-17.716c0-4.896-3.962-8.858-8.858-8.858
		c-4.896,0-8.858,3.962-8.858,8.858c0,9.767-7.95,17.716-17.716,17.716c-9.767,0-17.716-7.95-17.716-17.716
		c0-4.896-3.962-8.858-8.858-8.858S127.561,234.862,127.561,239.759z"/>
	<path style="fill:#314E55;" d="M295.865,292.907c-4.896,0-8.858,3.962-8.858,8.858c0,9.767-7.95,17.716-17.716,17.716
		s-17.716-7.95-17.716-17.716c0-4.896-3.962-8.858-8.858-8.858s-8.858,3.962-8.858,8.858c0,19.541,15.891,35.432,35.432,35.432
		c10.634,0,20.075-4.803,26.574-12.242c6.499,7.439,15.94,12.242,26.574,12.242c10.634,0,20.075-4.803,26.574-12.242
		c6.499,7.439,15.94,12.242,26.574,12.242c19.541,0,35.432-15.891,35.432-35.432c0-4.896-3.962-8.858-8.858-8.858
		s-8.858,3.962-8.858,8.858c0,9.767-7.95,17.716-17.716,17.716c-9.767,0-17.716-7.95-17.716-17.716c0-4.896-3.962-8.858-8.858-8.858
		c-4.896,0-8.858,3.962-8.858,8.858c0,9.767-7.95,17.716-17.716,17.716c-9.767,0-17.716-7.95-17.716-17.716
		C304.723,296.869,300.761,292.907,295.865,292.907z"/>
</g>
<g>
</g>
<g>
</g>
<g>
</g>
<g>
</g>
<g>
</g>
<g>
</g>
<g>
</g>
<g>
</g>
<g>
</g>
<g>
</g>
<g>
</g>
<g>
</g>
<g>
</g>
<g>
</g>
<g>
</g>
</svg>
