<?xml version="1.0" encoding="iso-8859-1"?>
<!-- Generator: Adobe Illustrator 19.0.0, SVG Export Plug-In . SVG Version: 6.00 Build 0)  -->
<svg version="1.1" id="Layer_1" xmlns="http://www.w3.org/2000/svg" xmlns:xlink="http://www.w3.org/1999/xlink" x="0px" y="0px"
	 viewBox="0 0 512 512" style="enable-background:new 0 0 512 512;" xml:space="preserve">
<g>
	<path style="fill:#314E55;" d="M452.923,359.385c-20.537,0-38.641,10.544-49.231,26.49c-10.59-15.947-28.693-26.49-49.231-26.49
		s-38.641,10.544-49.231,26.49c-10.59-15.947-28.693-26.49-49.231-26.49s-38.641,10.544-49.231,26.49
		c-10.59-15.947-28.693-26.49-49.231-26.49s-38.641,10.544-49.231,26.49c-10.59-15.947-28.693-26.49-49.231-26.49
		C26.5,359.385,0,385.885,0,418.462c0,5.442,4.409,9.846,9.846,9.846s9.846-4.404,9.846-9.846c0-21.721,17.668-39.385,39.385-39.385
		s39.385,17.664,39.385,39.385c0,5.442,4.409,9.846,9.846,9.846s9.846-4.404,9.846-9.846c0-21.721,17.668-39.385,39.385-39.385
		s39.385,17.664,39.385,39.385c0,5.442,4.409,9.846,9.846,9.846c5.438,0,9.846-4.404,9.846-9.846
		c0-21.721,17.668-39.385,39.385-39.385s39.385,17.664,39.385,39.385c0,5.442,4.409,9.846,9.846,9.846s9.846-4.404,9.846-9.846
		c0-21.721,17.668-39.385,39.385-39.385s39.385,17.664,39.385,39.385c0,5.442,4.409,9.846,9.846,9.846s9.846-4.404,9.846-9.846
		c0-21.721,17.668-39.385,39.385-39.385s39.385,17.664,39.385,39.385c0,5.442,4.409,9.846,9.846,9.846s9.846-4.404,9.846-9.846
		C512,385.885,485.5,359.385,452.923,359.385z"/>
	<path style="fill:#314E55;" d="M187.077,221.538c38.005,0,68.923-30.923,68.923-68.923s-30.918-68.923-68.923-68.923
		s-68.923,30.923-68.923,68.923S149.072,221.538,187.077,221.538z"/>
</g>
<path style="fill:#E4AD40;" d="M187.077,103.385c27.144,0,49.231,22.087,49.231,49.231s-22.087,49.231-49.231,49.231
	s-49.231-22.087-49.231-49.231S159.933,103.385,187.077,103.385z"/>
<g>
	<path style="fill:#314E55;" d="M187.077,192c16.288,0,29.538-13.25,29.538-29.538c0-5.442-4.409-9.846-9.846-9.846
		c-5.438,0-9.846,4.404-9.846,9.846c0,5.433-4.418,9.846-9.846,9.846c-5.428,0-9.846-4.414-9.846-9.846
		c0-5.442-4.409-9.846-9.846-9.846c-5.438,0-9.846,4.404-9.846,9.846C157.538,178.75,170.788,192,187.077,192z"/>
	<path style="fill:#314E55;" d="M99.76,228.885c0.899,1.577,2.216,2.865,3.803,3.74l40.105,22.058
		c-6.393,10.585-8.488,23.407-5.802,36.846l10.019,50.096c1.062,5.337,6.25,8.836,11.586,7.721c5.332-1.067,8.788-6.25,7.721-11.586
		l-10.019-50.096c-1.995-9.971-0.015-19.221,5.577-26.048c5.572-6.798,14.212-10.539,24.327-10.539
		c10.139,0,18.784,3.74,24.351,10.519c5.582,6.808,7.553,16.067,5.553,26.067l-10.019,50.096
		c-1.067,5.337,2.389,10.519,7.721,11.586c0.654,0.135,1.303,0.193,1.942,0.193c4.596,0,8.712-3.231,9.644-7.913l10.019-50.096
		c2.344-11.724,1.073-22.986-3.511-32.69l47.661-26.213c1.586-0.875,2.904-2.163,3.803-3.74l49.231-86.154
		c2.697-4.721,1.058-10.731-3.664-13.433c-4.702-2.702-10.731-1.048-13.433,3.663l-47.856,83.75l-46.803,25.74
		c-0.371,0.204-0.596,0.543-0.93,0.785c-8.96-7.654-20.622-11.853-33.71-11.853c-11.046,0-21.073,3.024-29.338,8.567l-42.258-23.24
		l-47.856-83.75c-2.692-4.712-8.702-6.365-13.433-3.664c-4.721,2.702-6.361,8.712-3.664,13.433L99.76,228.885z"/>
	<path style="fill:#314E55;" d="M160.394,139.817c0.981,0.981,2.067,1.673,3.245,2.163c1.183,0.49,2.461,0.788,3.745,0.788
		c1.279,0,2.558-0.298,3.74-0.788c1.183-0.49,2.264-1.183,3.25-2.163c0.885-0.894,1.572-1.971,2.067-3.154
		c0.491-1.183,0.789-2.462,0.789-3.741c0-1.279-0.298-2.558-0.788-3.74c-0.495-1.183-1.183-2.269-2.067-3.25
		c-0.986-0.885-2.067-1.577-3.25-2.067c-1.774-0.789-3.741-0.991-5.712-0.596c-0.591,0.106-1.183,0.298-1.774,0.596
		c-0.587,0.192-1.178,0.49-1.769,0.885c-0.495,0.394-0.986,0.788-1.476,1.183c-0.889,0.981-1.577,2.067-2.072,3.25
		c-0.586,1.183-0.784,2.462-0.784,3.74c0,1.279,0.197,2.558,0.784,3.74C158.817,137.846,159.505,138.923,160.394,139.817z"/>
	<path style="fill:#314E55;" d="M199.779,139.817c0.981,0.981,2.067,1.673,3.245,2.163c1.183,0.49,2.461,0.788,3.745,0.788
		c2.659,0,5.12-1.087,6.99-2.952c0.885-0.894,1.572-1.971,2.067-3.154c0.491-1.183,0.789-2.462,0.789-3.741
		c0-1.279-0.298-2.558-0.788-3.74c-0.495-1.183-1.183-2.269-2.067-3.25c-0.986-0.885-2.067-1.577-3.25-2.067
		c-2.365-0.99-5.12-0.99-7.486,0c-1.178,0.49-2.264,1.183-3.245,2.067c-0.889,0.981-1.577,2.067-2.072,3.25
		c-0.491,1.183-0.784,2.462-0.784,3.74c0,1.279,0.293,2.558,0.784,3.74C198.202,137.846,198.889,138.923,199.779,139.817z"/>
</g>
<g>
</g>
<g>
</g>
<g>
</g>
<g>
</g>
<g>
</g>
<g>
</g>
<g>
</g>
<g>
</g>
<g>
</g>
<g>
</g>
<g>
</g>
<g>
</g>
<g>
</g>
<g>
</g>
<g>
</g>
</svg>
