<?xml version="1.0" encoding="iso-8859-1"?>
<!-- Generator: Adobe Illustrator 19.0.0, SVG Export Plug-In . SVG Version: 6.00 Build 0)  -->
<svg version="1.1" id="Layer_1" xmlns="http://www.w3.org/2000/svg" xmlns:xlink="http://www.w3.org/1999/xlink" x="0px" y="0px"
	 viewBox="0 0 512 512" style="enable-background:new 0 0 512 512;" xml:space="preserve">
<path style="fill:#314E55;" d="M375.706,223.768c1.116,0.455,2.286,0.674,3.446,0.674c2.607,0,5.152-1.116,6.928-3.179
	l51.312-59.634c3.295-3.83,2.866-9.603-0.964-12.893c-3.813-3.286-9.598-2.871-12.893,0.964l-33.553,38.991l1.518-24.076
	c0.187-3.022-1.125-5.942-3.518-7.799l-68.268-53.001V73.183C319.715,32.83,286.902,0,246.572,0s-73.143,32.83-73.143,73.183v16.312
	l-100.5,280.853c-1,2.786-0.589,5.884,1.107,8.308c1.696,2.429,4.455,3.888,7.411,3.915c0.027,0,0.062,0,0.098,0
	c3.245,0,50.2-1.357,91.884-75.107v131.353c0,40.353,32.813,73.183,73.143,73.183s73.143-32.83,73.143-73.183v-28.758l77.134-26.555
	c2.357-0.808,4.277-2.54,5.321-4.795c1.045-2.259,1.125-4.844,0.223-7.161l-82.679-212.771v-31.809l53.232,41.326l-2.92,46.429
	C369.777,218.647,372.063,222.286,375.706,223.768z"/>
<path style="fill:#E65F58;" d="M301.429,438.817c0,30.272-24.607,54.897-54.857,54.897s-54.857-24.625-54.857-54.897V267.155
	c0-0.017,0-0.033,0-0.05V73.183c0-30.272,24.607-54.897,54.857-54.897s54.857,24.625,54.857,54.897v87.299V403.54V438.817z"/>
<path style="fill:#314E55;" d="M246.572,45.714C226.402,45.714,210,62.12,210,82.286s16.402,36.571,36.571,36.571
	s36.571-16.406,36.571-36.571S266.742,45.714,246.572,45.714z"/>
<path style="fill:#FFFFFF;" d="M246.572,100.571c-10.08,0-18.286-8.201-18.286-18.286S236.491,64,246.572,64
	s18.286,8.201,18.286,18.286S256.652,100.571,246.572,100.571z"/>
<rect x="328.849" y="347.429" style="fill:#314E55;" width="18.286" height="18.286"/>
<g>
	<path style="fill:#D8D8D8;" d="M95.849,360.558l77.58-216.797v121.603C146.34,331.04,114.022,353.158,95.849,360.558z"/>
	<polygon style="fill:#D8D8D8;" points="381.911,369.312 319.715,390.723 319.715,209.254 	"/>
</g>
<path style="fill:#314E55;" d="M274,411.429h-18.286v-18.286c0-5.049-4.089-9.143-9.143-9.143s-9.143,4.094-9.143,9.143v18.286
	h-18.286c-5.053,0-9.143,4.094-9.143,9.143s4.089,9.143,9.143,9.143h18.286V448c0,5.049,4.089,9.143,9.143,9.143
	s9.143-4.094,9.143-9.143v-18.286H274c5.053,0,9.143-4.094,9.143-9.143S279.054,411.429,274,411.429z"/>
<g>
</g>
<g>
</g>
<g>
</g>
<g>
</g>
<g>
</g>
<g>
</g>
<g>
</g>
<g>
</g>
<g>
</g>
<g>
</g>
<g>
</g>
<g>
</g>
<g>
</g>
<g>
</g>
<g>
</g>
</svg>
