<?xml version="1.0" encoding="iso-8859-1"?>
<!-- Generator: Adobe Illustrator 19.0.0, SVG Export Plug-In . SVG Version: 6.00 Build 0)  -->
<svg version="1.1" id="Layer_1" xmlns="http://www.w3.org/2000/svg" xmlns:xlink="http://www.w3.org/1999/xlink" x="0px" y="0px"
	 viewBox="0 0 512 512" style="enable-background:new 0 0 512 512;" xml:space="preserve">
<path style="fill:#314E55;" d="M512,256c0-32.994-25.599-60.068-57.968-62.547c-3.65-11.529-8.365-22.573-13.879-33.139
	c21.239-24.641,20.232-61.966-3.135-85.333C425.16,63.118,409.387,56.59,392.613,56.59c-15.205,0-29.547,5.415-40.936,15.252
	c-10.564-5.511-21.604-10.225-33.129-13.874C316.069,25.599,288.994,0,256,0s-60.069,25.599-62.548,57.968
	c-11.525,3.648-22.565,8.363-33.129,13.874c-11.39-9.84-25.741-15.252-40.946-15.252c-16.774,0-32.538,6.533-44.396,18.391
	c-23.367,23.367-24.374,60.691-3.135,85.333c-5.514,10.566-10.229,21.61-13.879,33.139C25.599,195.932,0,223.006,0,256
	s25.599,60.068,57.968,62.547c3.65,11.529,8.365,22.573,13.879,33.139c-21.239,24.641-20.232,61.966,3.135,85.333
	c11.859,11.859,27.623,18.391,44.396,18.391c15.205,0,29.556-5.413,40.946-15.252c10.564,5.51,21.604,10.225,33.129,13.874
	C195.931,486.401,223.006,512,256,512s60.069-25.599,62.548-57.968c11.525-3.648,22.565-8.363,33.129-13.874
	c11.389,9.837,25.732,15.252,40.936,15.252c16.774,0,32.547-6.528,44.406-18.391c23.367-23.367,24.374-60.691,3.135-85.333
	c5.514-10.566,10.229-21.61,13.879-33.139C486.401,316.068,512,288.994,512,256z M392.613,329.826
	c-16.774,0-32.538,6.533-44.396,18.391c-20.775,20.775-23.85,52.58-9.365,76.703c-7.096,3.495-14.415,6.577-21.976,9.17
	c-6.794-27.33-31.472-47.675-60.875-47.675s-54.081,20.344-60.875,47.674c-7.562-2.593-14.88-5.674-21.976-9.17
	c14.484-24.124,11.409-55.928-9.365-76.703c-11.859-11.863-27.632-18.391-44.406-18.391c-11.579,0-22.642,3.179-32.306,9.008
	c-3.492-7.091-6.571-14.403-9.162-21.959c27.332-6.795,47.675-31.472,47.675-60.875s-20.343-54.08-47.674-60.875
	c2.591-7.557,5.67-14.868,9.162-21.96c9.664,5.83,20.726,9.01,32.306,9.01c16.774,0,32.547-6.528,44.406-18.391
	c20.775-20.775,23.85-52.579,9.365-76.703c7.096-3.495,14.414-6.577,21.976-9.17c6.794,27.33,31.472,47.675,60.875,47.675
	s54.081-20.344,60.875-47.674c7.562,2.593,14.881,5.675,21.976,9.17c-14.484,24.123-11.409,55.928,9.365,76.703
	c11.859,11.859,27.623,18.391,44.396,18.391c11.58,0,22.648-3.178,32.315-9.008c3.492,7.091,6.571,14.402,9.162,21.959
	c-27.331,6.793-47.675,31.472-47.675,60.875s20.344,54.081,47.675,60.875c-2.591,7.557-5.67,14.868-9.162,21.959
	C415.261,333.004,404.193,329.826,392.613,329.826z"/>
<g>
	<path style="fill:#E4AD40;" d="M492.679,256c0,20.451-14.242,37.534-33.295,42.144c2.817-13.616,4.314-27.708,4.314-42.144
		s-1.497-28.528-4.314-42.144C478.437,218.466,492.679,235.549,492.679,256z"/>
	<path style="fill:#E4AD40;" d="M355.767,415.496c-10.395-16.763-8.421-39.084,6.111-53.619
		c8.207-8.212,19.123-12.731,30.736-12.731c8.233,0,16.063,2.373,22.882,6.621C400.337,379.911,379.91,400.338,355.767,415.496z"/>
	<path style="fill:#E4AD40;" d="M298.265,439.422c-13.61,3.137-27.716,4.955-42.265,4.955s-28.655-1.818-42.265-4.955
		c4.464-19.257,21.67-33.686,42.265-33.686S293.802,420.165,298.265,439.422z"/>
	<path style="fill:#E4AD40;" d="M96.504,355.765c6.814-4.246,14.643-6.619,22.874-6.619c11.613,0,22.528,4.523,30.745,12.731
		c14.531,14.535,16.505,36.856,6.111,53.619C132.089,400.337,111.662,379.91,96.504,355.765z"/>
	<path style="fill:#E4AD40;" d="M67.623,256c0-14.549,1.818-28.656,4.955-42.265c19.256,4.464,33.686,21.671,33.686,42.265
		s-14.43,37.802-33.686,42.265C69.441,284.656,67.623,270.549,67.623,256z"/>
	<path style="fill:#E4AD40;" d="M156.233,96.504c10.395,16.763,8.42,39.084-6.111,53.619c-8.217,8.207-19.132,12.731-30.745,12.731
		c-8.231,0-16.06-2.373-22.874-6.619C111.662,132.09,132.089,111.663,156.233,96.504z"/>
	<path style="fill:#E4AD40;" d="M213.735,72.578c13.61-3.137,27.716-4.955,42.265-4.955s28.655,1.818,42.265,4.955
		c-4.464,19.257-21.67,33.686-42.265,33.686S218.198,91.835,213.735,72.578z"/>
	<path style="fill:#E4AD40;" d="M415.495,156.232c-6.819,4.249-14.649,6.621-22.882,6.621c-11.613,0-22.528-4.519-30.736-12.731
		c-14.531-14.535-16.505-36.856-6.111-53.619C379.91,111.662,400.337,132.089,415.495,156.232z"/>
	<path style="fill:#E4AD40;" d="M405.736,256c0-20.594,14.43-37.802,33.686-42.265c3.137,13.61,4.955,27.716,4.955,42.265
		c0,14.549-1.818,28.656-4.955,42.265C420.166,293.802,405.736,276.594,405.736,256z"/>
	<path style="fill:#E4AD40;" d="M392.613,75.91c11.613,0,22.528,4.519,30.745,12.731c14.504,14.507,16.489,36.769,6.163,53.52
		c-15.623-23.735-35.951-44.06-59.685-59.684C376.629,78.269,384.42,75.91,392.613,75.91z"/>
	<path style="fill:#E4AD40;" d="M256,19.321c20.451,0,37.534,14.241,42.144,33.295c-13.614-2.817-27.706-4.314-42.144-4.314
		c-14.437,0-28.53,1.496-42.144,4.314C218.466,33.561,235.549,19.321,256,19.321z"/>
	<path style="fill:#E4AD40;" d="M88.641,88.641c8.207-8.212,19.123-12.731,30.736-12.731c8.195,0,15.987,2.359,22.784,6.568
		c-23.733,15.623-44.06,35.95-59.682,59.683C72.152,125.41,74.138,103.149,88.641,88.641z"/>
	<path style="fill:#E4AD40;" d="M19.321,256c0-20.451,14.242-37.534,33.295-42.144c-2.817,13.616-4.314,27.708-4.314,42.144
		s1.497,28.528,4.314,42.144C33.563,293.534,19.321,276.451,19.321,256z"/>
	<path style="fill:#E4AD40;" d="M119.377,436.09c-11.613,0-22.528-4.519-30.736-12.731c-14.504-14.507-16.489-36.769-6.163-53.52
		c15.623,23.732,35.949,44.06,59.682,59.683C135.364,433.731,127.572,436.09,119.377,436.09z"/>
	<path style="fill:#E4AD40;" d="M256,492.679c-20.451,0-37.534-14.241-42.144-33.295c13.614,2.817,27.706,4.314,42.144,4.314
		c14.437,0,28.53-1.496,42.144-4.314C293.534,478.439,276.451,492.679,256,492.679z"/>
	<path style="fill:#E4AD40;" d="M423.359,423.359c-8.217,8.212-19.132,12.731-30.745,12.731c-8.193,0-15.984-2.359-22.777-6.567
		c23.734-15.624,44.062-35.949,59.685-59.684C439.848,386.59,437.862,408.851,423.359,423.359z"/>
</g>
<g>
</g>
<g>
</g>
<g>
</g>
<g>
</g>
<g>
</g>
<g>
</g>
<g>
</g>
<g>
</g>
<g>
</g>
<g>
</g>
<g>
</g>
<g>
</g>
<g>
</g>
<g>
</g>
<g>
</g>
</svg>
