<?xml version="1.0" encoding="iso-8859-1"?>
<!-- Generator: Adobe Illustrator 19.0.0, SVG Export Plug-In . SVG Version: 6.00 Build 0)  -->
<svg version="1.1" id="Layer_1" xmlns="http://www.w3.org/2000/svg" xmlns:xlink="http://www.w3.org/1999/xlink" x="0px" y="0px"
	 viewBox="0 0 512 512" style="enable-background:new 0 0 512 512;" xml:space="preserve">
<path style="fill:#314E55;" d="M474.929,388.41h-40.276c-1.485,0-2.821,0.459-4.048,1.106l-19.087-19.784
	c36.052-39.296,58.1-91.637,58.1-149.044C469.619,98.999,370.62,0,248.931,0S28.244,98.999,28.244,220.688
	c0,97.144,63.117,179.766,150.475,209.17l-26.33,70.212c-1.707,4.565,0.603,9.651,5.164,11.366c1.026,0.379,2.069,0.565,3.103,0.565
	c3.569,0,6.94-2.19,8.267-5.733l26.483-70.62c0.104-0.276,0.06-0.559,0.134-0.838c17.106,4.267,34.983,6.567,53.391,6.567
	s36.285-2.3,53.391-6.567c0.074,0.279,0.031,0.563,0.134,0.838l26.483,70.62c1.328,3.543,4.698,5.733,8.267,5.733
	c1.035,0,2.078-0.185,3.103-0.565c4.56-1.715,6.871-6.802,5.164-11.366l-26.33-70.212c30.034-10.109,57.196-26.488,79.915-47.615
	l26.31,27.271l-1.112,34.478c-0.164,4.871,3.664,8.948,8.534,9.108c0.095,0.004,0.19,0.004,0.293,0.004
	c4.741,0,8.664-3.767,8.81-8.543l1.233-38.207c0.003-0.099-0.049-0.19-0.049-0.289h31.85c4.879,0,8.828-3.953,8.828-8.828
	S479.809,388.41,474.929,388.41z"/>
<g>
	<path style="fill:#5ECB66;" d="M248.931,423.72c-111.956,0-203.033-91.081-203.033-203.033S136.975,17.655,248.931,17.655
		s203.033,91.081,203.033,203.033c0,52.424-19.973,100.271-52.709,136.332l-24.689-25.591
		c26.103-29.577,42.088-68.284,42.088-110.74c0-92.482-75.241-167.723-167.723-167.723S81.209,128.206,81.209,220.688
		S156.449,388.41,248.931,388.41c43.68,0,83.386-16.923,113.262-44.381l24.617,25.517
		C350.574,403.135,302.122,423.72,248.931,423.72z"/>
	<path style="fill:#5ECB66;" d="M337.74,293.256c16.2-19.791,25.949-45.057,25.949-72.568c0-63.28-51.482-114.758-114.758-114.758
		s-114.758,51.478-114.758,114.758s51.482,114.758,114.758,114.758c29.418,0,56.199-11.222,76.531-29.489l24.488,25.383
		c-26.696,24.393-62.092,39.415-101.019,39.415c-82.749,0-150.068-67.318-150.068-150.068S166.182,70.62,248.931,70.62
		s150.068,67.318,150.068,150.068c0,37.476-13.902,71.702-36.697,98.027L337.74,293.256z"/>
	<path style="fill:#5ECB66;" d="M300.498,254.651c6.447-9.755,10.226-21.42,10.226-33.963c0-34.073-27.724-61.793-61.793-61.793
		s-61.793,27.719-61.793,61.793s27.724,61.793,61.793,61.793c15.156,0,29.036-5.509,39.799-14.599l24.488,25.383
		c-17.146,15.206-39.622,24.525-64.287,24.525c-53.543,0-97.103-43.56-97.103-97.103s43.56-97.103,97.103-97.103
		s97.103,43.56,97.103,97.103c0,22.524-7.776,43.224-20.693,59.715L300.498,254.651z"/>
</g>
<path style="fill:#E65F58;" d="M261.009,213.718c-3.379-3.508-8.965-3.599-12.483-0.224c-3.508,3.384-3.612,8.974-0.224,12.483
	l28.021,29.045c-7.552,6.039-16.995,9.804-27.392,9.804c-24.336,0-44.138-19.802-44.138-44.138s19.802-44.138,44.138-44.138
	s44.138,19.802,44.138,44.138c0,7.511-2.062,14.483-5.386,20.681L261.009,213.718z"/>
<g>
</g>
<g>
</g>
<g>
</g>
<g>
</g>
<g>
</g>
<g>
</g>
<g>
</g>
<g>
</g>
<g>
</g>
<g>
</g>
<g>
</g>
<g>
</g>
<g>
</g>
<g>
</g>
<g>
</g>
</svg>
