<?xml version="1.0" encoding="iso-8859-1"?>
<!-- Generator: Adobe Illustrator 19.0.0, SVG Export Plug-In . SVG Version: 6.00 Build 0)  -->
<svg version="1.1" id="Layer_1" xmlns="http://www.w3.org/2000/svg" xmlns:xlink="http://www.w3.org/1999/xlink" x="0px" y="0px"
	 viewBox="0 0 512 512" style="enable-background:new 0 0 512 512;" xml:space="preserve">
<path style="fill:#314E55;" d="M477.047,73.221c-25.621-25.626-61.409-37.819-100.894-34.377
	c-38.804,3.405-76.534,21.639-106.249,51.354c-29.715,29.706-47.954,67.441-51.354,106.254c-3.269,37.244,7.597,71.16,30.39,96.414
	c-0.298,0.235-0.657,0.344-0.933,0.62l-40.958,40.954c-14.726-8.641-33.987-6.764-46.645,5.889l-67.792,67.788
	c-15.008,15.026-15.031,39.423-0.056,54.403c7.476,7.476,17.301,11.209,27.136,11.209c9.863,0,19.74-3.761,27.258-11.274
	l67.788-67.788c12.652-12.652,14.529-31.913,5.892-46.642l40.96-40.956c0.371-0.371,0.537-0.845,0.835-1.257
	c21.537,17.29,48.654,26.479,78.373,26.479c4.287,0,8.634-0.188,13.024-0.572c38.804-3.405,76.534-21.639,106.249-51.354
	c29.715-29.706,47.954-67.441,51.354-106.245C514.885,134.677,502.677,98.846,477.047,73.221z"/>
<path style="fill:#D8D8D8;" d="M201.154,381.084l-67.788,67.788c-7.527,7.513-19.74,7.56-27.229,0.066
	c-7.49-7.494-7.462-19.707,0.061-27.239l67.788-67.788c7.523-7.513,19.74-7.56,27.234-0.066
	C208.71,361.339,208.677,373.552,201.154,381.084z"/>
<path style="fill:#E4AD40;" d="M492.289,172.44c-3.011,34.311-19.275,67.816-45.801,94.342s-60.035,42.791-94.347,45.801
	c-33.716,2.889-64.097-7.288-85.633-28.824c-21.541-21.536-31.779-51.955-28.824-85.638c3.011-34.311,19.275-67.816,45.801-94.342
	c26.526-26.526,60.035-42.791,94.347-45.801c3.804-0.328,7.565-0.497,11.274-0.497c29.157,0,55.252,10.215,74.358,29.321
	C485.005,108.348,495.244,138.757,492.289,172.44z"/>
<path style="fill:#314E55;" d="M134.469,228.503c0-37.069-30.161-67.234-67.234-67.234c-16.354,0-31.352,5.882-43.02,15.626
	c-1.293,0.71-2.348,1.709-3.185,2.895C8.109,192.05,0,209.331,0,228.503c0,37.069,30.161,67.234,67.234,67.234
	S134.469,265.572,134.469,228.503z"/>
<g>
	<path style="fill:#5ECB66;" d="M19.21,228.503c0-8.281,2.299-15.96,6.005-22.768c6.797,13.903,19.78,27.571,42.02,27.571
		c4.971,0,7.063,1.857,8.329,3.47c6.003,7.679,4.815,26.209,2.376,38.451c-3.455,0.793-7.014,1.301-10.706,1.301
		C40.755,276.527,19.21,254.982,19.21,228.503z"/>
	<path style="fill:#5ECB66;" d="M98.79,264.414c0.996-12.751,0.154-28.9-8.083-39.447c-5.548-7.11-13.666-10.871-23.473-10.871
		c-18.341,0-25.298-16.006-27.723-24.669c7.848-5.586,17.378-8.948,27.723-8.948c26.479,0,48.025,21.545,48.025,48.025
		C115.259,242.853,108.802,255.606,98.79,264.414z"/>
</g>
<g>
</g>
<g>
</g>
<g>
</g>
<g>
</g>
<g>
</g>
<g>
</g>
<g>
</g>
<g>
</g>
<g>
</g>
<g>
</g>
<g>
</g>
<g>
</g>
<g>
</g>
<g>
</g>
<g>
</g>
</svg>
