<?xml version="1.0" encoding="iso-8859-1"?>
<!-- Generator: Adobe Illustrator 19.0.0, SVG Export Plug-In . SVG Version: 6.00 Build 0)  -->
<svg version="1.1" id="Layer_1" xmlns="http://www.w3.org/2000/svg" xmlns:xlink="http://www.w3.org/1999/xlink" x="0px" y="0px"
	 viewBox="0 0 512 512" style="enable-background:new 0 0 512 512;" xml:space="preserve">
<path style="fill:#314E55;" d="M465.455,144.291C465.455,64.727,411.168,0,344.436,0S223.418,64.727,223.418,144.291
	c0,47.598,19.513,89.759,49.412,116.055c0.151,0.157,0.215,0.361,0.379,0.509c0.427,0.382,42.545,38.609,42.545,79.564
	c0,1.336,0.304,2.592,0.811,3.741c-0.003,0.098-0.056,0.179-0.056,0.277v158.255c0,5.141,4.168,9.309,9.309,9.309h37.236
	c5.141,0,9.309-4.168,9.309-9.309V344.436c0-0.713-0.254-1.342-0.406-2.009c0.152-0.667,0.406-1.297,0.406-2.009
	c0-40.736,43.532-79.373,43.973-79.759c0.593-0.52,0.948-1.182,1.377-1.803C446.664,232.468,465.455,190.998,465.455,144.291z
	 M242.036,144.291c0-69.295,45.936-125.673,102.4-125.673s102.4,56.377,102.4,125.673s-45.936,125.673-102.4,125.673
	c-21.182,0-40.882-7.936-57.232-21.511c-0.785-0.743-1.395-1.307-1.568-1.461c-0.021-0.018-0.048-0.023-0.069-0.041
	C259.282,224.178,242.036,186.691,242.036,144.291z M354.059,335.127h-19.991c-1.255-18.701-8.825-36.204-17.719-50.627
	c9.031,2.573,18.405,4.082,28.087,4.082c9.567,0,18.832-1.47,27.765-3.984C363.082,299.036,355.346,316.5,354.059,335.127z"/>
<rect x="335.127" y="353.745" style="fill:#EA86A5;" width="18.618" height="139.636"/>
<g>
	<path style="fill:#314E55;" d="M288.195,195.491c-5.141,0-9.309,4.168-9.309,9.309s4.168,9.309,9.309,9.309H307.2v9.6
		c0,5.141,4.168,9.309,9.309,9.309c5.141,0,9.309-4.168,9.309-9.309v-9.6h37.236v9.6c0,5.141,4.168,9.309,9.309,9.309
		c5.141,0,9.309-4.168,9.309-9.309v-9.6h18.618c5.141,0,9.309-4.168,9.309-9.309s-4.168-9.309-9.309-9.309h-18.618v-37.236h18.618
		c5.141,0,9.309-4.168,9.309-9.309s-4.168-9.309-9.309-9.309h-18.618V102.4h18.618c5.141,0,9.309-4.168,9.309-9.309
		s-4.168-9.309-9.309-9.309h-18.618V65.164c0-5.141-4.168-9.309-9.309-9.309c-5.141,0-9.309,4.168-9.309,9.309v18.618h-37.236
		V65.164c0-5.141-4.168-9.309-9.309-9.309c-5.141,0-9.309,4.168-9.309,9.309v18.618h-19.004c-5.141,0-9.309,4.168-9.309,9.309
		s4.168,9.309,9.309,9.309H307.2v37.236h-19.004c-5.141,0-9.309,4.168-9.309,9.309s4.168,9.309,9.309,9.309H307.2v37.236H288.195z
		 M325.818,102.4h37.236v37.236h-37.236V102.4z M325.818,158.255h37.236v37.236h-37.236V158.255z"/>
	<path style="fill:#314E55;" d="M107.055,93.091c-33.364,0-60.509,27.146-60.509,60.509s27.146,60.509,60.509,60.509
		s60.509-27.146,60.509-60.509S140.418,93.091,107.055,93.091z"/>
</g>
<path style="fill:#5ECB66;" d="M107.055,195.491c-23.1,0-41.891-18.791-41.891-41.891s18.791-41.891,41.891-41.891
	s41.891,18.791,41.891,41.891S130.155,195.491,107.055,195.491z"/>
<g>
</g>
<g>
</g>
<g>
</g>
<g>
</g>
<g>
</g>
<g>
</g>
<g>
</g>
<g>
</g>
<g>
</g>
<g>
</g>
<g>
</g>
<g>
</g>
<g>
</g>
<g>
</g>
<g>
</g>
</svg>
