<?xml version="1.0" encoding="iso-8859-1"?>
<!-- Generator: Adobe Illustrator 19.0.0, SVG Export Plug-In . SVG Version: 6.00 Build 0)  -->
<svg version="1.1" id="Layer_1" xmlns="http://www.w3.org/2000/svg" xmlns:xlink="http://www.w3.org/1999/xlink" x="0px" y="0px"
	 viewBox="0 0 512 512" style="enable-background:new 0 0 512 512;" xml:space="preserve">
<path style="fill:#314E55;" d="M256,0C114.839,0,0,114.839,0,256s114.839,256,256,256s256-114.839,256-256S397.161,0,256,0z"/>
<g>
	<path style="fill:#DBCF56;" d="M120.575,60.795c-2.048,9.257-4.296,18.527-6.787,27.81l-15.011,3.002
		c-4.947,0.991-8.161,5.808-7.17,10.759c0.866,4.344,4.687,7.348,8.955,7.348c0.589,0,1.196-0.058,1.804-0.179l5.724-1.145
		c-3.067,10.17-6.356,20.321-9.932,30.446l-14.872-1.641c-5.045-0.496-9.527,3.072-10.089,8.085
		c-0.554,5.022,3.072,9.54,8.089,10.094l10.355,1.143c-4.995,13-10.329,25.772-16.019,38.254l-8.765-4.955
		c-4.384-2.482-9.973-0.938-12.455,3.46c-2.491,4.397-0.938,9.973,3.455,12.46l9.979,5.643c-4.247,8.672-8.695,17.123-13.248,25.449
		l-7.133-6.618c-3.714-3.442-9.491-3.223-12.92,0.482c-3.429,3.701-3.214,9.487,0.491,12.92l10.326,9.58
		c-7.79,13.254-15.959,25.942-24.444,38.016c-1.714-11.493-2.624-23.245-2.624-35.207C18.286,175.223,58.816,103.772,120.575,60.795
		z"/>
	<path style="fill:#DBCF56;" d="M25.855,315.594c11.641-15.46,22.705-32.154,33.179-49.71l7.144,6.629
		c1.759,1.634,3.991,2.442,6.214,2.442c2.455,0,4.902-0.982,6.705-2.924c3.429-3.701,3.214-9.487-0.491-12.92l-10.223-9.484
		c5.307-9.538,10.468-19.257,15.379-29.243l12.191,6.893c1.42,0.804,2.964,1.183,4.491,1.183c3.187,0,6.286-1.67,7.964-4.643
		c2.491-4.397,0.938-9.973-3.455-12.46l-13.372-7.56c6.75-14.717,13.043-29.806,18.84-45.208l16.309,1.799
		c0.339,0.036,0.679,0.053,1.009,0.053c4.598,0,8.563-3.46,9.08-8.138c0.554-5.022-3.072-9.54-8.089-10.094l-11.959-1.319
		c4.214-12.156,8.101-24.346,11.598-36.556l19.709-3.942c4.947-0.991,8.161-5.808,7.17-10.759c-0.982-4.942-5.75-8.17-10.759-7.17
		l-10.833,2.165c3.158-12.426,6.012-24.835,8.393-37.19C175.906,28.871,214.737,18.286,256,18.286
		c72.989,0,138.368,33.089,182.008,85.027c-19.463,2.821-38.147,7.748-55.821,14.565l-7.732-13.913
		c-2.446-4.406-8.027-6.005-12.429-3.549c-4.42,2.451-6.009,8.018-3.554,12.433l6.838,12.304
		c-12.355,5.824-24.17,12.547-35.296,20.172l-12.239-14.158c-3.321-3.83-9.08-4.237-12.902-0.938
		c-3.813,3.299-4.241,9.076-0.938,12.893l11.371,13.156c-10.589,8.442-20.506,17.665-29.592,27.659l-13.449-10.417
		c-3.991-3.085-9.732-2.353-12.83,1.629c-3.089,3.991-2.357,9.732,1.634,12.826l12.871,9.969
		c-9.177,11.683-17.336,24.187-24.378,37.391l-17.368-7.618c-4.652-2.049-10.009,0.076-12.045,4.696
		c-2.027,4.625,0.08,10.018,4.705,12.045l16.634,7.297c-5.021,11.308-9.214,23.065-12.58,35.17l-22.125-3.386
		c-5.089-0.844-9.661,2.665-10.42,7.652c-0.768,4.991,2.661,9.656,7.652,10.42l20.623,3.156c-2.616,12.924-4.312,26.183-4.93,39.737
		l-20.139-1.612c-5.17-0.451-9.446,3.357-9.848,8.384c-0.402,5.031,3.357,9.438,8.384,9.839l21.563,1.723
		c0.288,12.031,1.304,23.942,3.225,35.654l-20.574,3.4c-4.982,0.826-8.357,5.531-7.527,10.513c0.741,4.478,4.616,7.652,9.009,7.652
		c0.491,0,0.991-0.04,1.5-0.12l21.149-3.496c2.974,12.442,6.902,24.616,11.717,36.458l-12.83,4.842
		c-4.723,1.781-7.107,7.058-5.321,11.781c1.384,3.661,4.857,5.92,8.554,5.92c1.072,0,2.161-0.192,3.232-0.594l13.925-5.254
		c4.062,8.228,8.64,16.228,13.611,24.04c-1.116,0.015-2.219,0.084-3.339,0.084C145.493,493.714,52.368,417.922,25.855,315.594z"/>
	<path style="fill:#DBCF56;" d="M280.486,492.458c-6.585-9.429-12.517-19.199-17.617-29.337l10.934-4.125
		c4.723-1.781,7.107-7.058,5.321-11.781c-1.786-4.719-7.027-7.12-11.786-5.326l-12.067,4.554
		c-4.383-10.719-7.921-21.748-10.679-33.002l12.898-2.132c4.982-0.826,8.357-5.531,7.527-10.513
		c-0.83-4.978-5.437-8.344-10.509-7.531l-13.573,2.243c-1.684-10.254-2.588-20.681-2.924-31.203l17.256,1.379
		c0.25,0.022,0.5,0.031,0.741,0.031c4.723,0,8.723-3.629,9.107-8.415c0.402-5.031-3.357-9.438-8.384-9.839l-18.77-1.5
		c0.566-13.118,2.212-25.942,4.79-38.424l21.007,3.214c0.473,0.076,0.938,0.107,1.393,0.107c4.438,0,8.339-3.237,9.027-7.759
		c0.768-4.991-2.661-9.656-7.652-10.42l-19.431-2.973c3.033-10.52,6.774-20.737,11.16-30.598l15.379,6.746
		c1.187,0.527,2.437,0.777,3.661,0.777c3.527,0,6.875-2.045,8.384-5.473c2.027-4.625-0.08-10.018-4.705-12.045l-14.595-6.402
		c6.403-11.833,13.783-23.047,22.043-33.551l13.713,10.623c1.67,1.29,3.634,1.915,5.589,1.915c2.732,0,5.438-1.219,7.241-3.545
		c3.089-3.991,2.357-9.732-1.634-12.826l-13.074-10.127c8.323-9.043,17.378-17.402,27.037-25.058l8.965,10.373
		c1.813,2.094,4.357,3.165,6.92,3.165c2.125,0,4.25-0.732,5.982-2.228c3.813-3.299,4.241-9.076,0.938-12.893l-8.003-9.259
		c10.153-6.833,20.89-12.888,32.125-18.116l6.976,12.554c1.67,3.005,4.786,4.701,8,4.701c1.5,0,3.027-0.371,4.429-1.152
		c4.42-2.451,6.009-8.018,3.554-12.433l-5.99-10.779c18.81-7.029,38.814-11.781,59.72-13.915
		c26.94,38.536,42.806,85.359,42.806,135.841C493.714,378.81,400.105,480.161,280.486,492.458z"/>
</g>
<g>
</g>
<g>
</g>
<g>
</g>
<g>
</g>
<g>
</g>
<g>
</g>
<g>
</g>
<g>
</g>
<g>
</g>
<g>
</g>
<g>
</g>
<g>
</g>
<g>
</g>
<g>
</g>
<g>
</g>
</svg>
