<?xml version="1.0" encoding="iso-8859-1"?>
<!-- Generator: Adobe Illustrator 19.0.0, SVG Export Plug-In . SVG Version: 6.00 Build 0)  -->
<svg version="1.1" id="Layer_1" xmlns="http://www.w3.org/2000/svg" xmlns:xlink="http://www.w3.org/1999/xlink" x="0px" y="0px"
	 viewBox="0 0 512 512" style="enable-background:new 0 0 512 512;" xml:space="preserve">
<path style="fill:#314E55;" d="M496.246,366.486l-64.453-145.02c-0.68-1.527-1.817-2.634-3.096-3.523
	C396.423,106.961,331.153,30.845,256,30.845c-75.155,0-140.427,76.12-172.7,187.107c-1.278,0.889-2.415,1.994-3.093,3.513
	l-64.453,145.02C6.924,367.449,0,374.867,0,383.948c0,9.733,7.922,17.655,17.655,17.655s17.655-7.922,17.655-17.655
	c0-3.865-1.286-7.415-3.402-10.327l35.379-79.602c-3.56,26.025-5.494,53.164-5.494,81.102c0,4.879,3.948,8.828,8.828,8.828h105.931
	h4.647h20.753c5.943,35.433-15.957,70.361-51.356,79.853c-4.707,1.259-7.509,6.103-6.241,10.81c1.06,3.948,4.621,6.543,8.517,6.543
	c0.759,0,1.526-0.095,2.293-0.302c43.279-11.602,70.357-53.631,64.571-96.905h81.358c-5.786,43.274,21.291,85.303,64.571,96.905
	c0.767,0.207,1.534,0.302,2.293,0.302c3.896,0,7.457-2.595,8.517-6.543c1.267-4.707-1.534-9.552-6.241-10.81
	c-35.399-9.493-57.3-44.42-51.356-79.853h20.753h13.474h88.276c4.879,0,8.828-3.948,8.828-8.828c0-27.938-1.934-55.077-5.494-81.102
	l35.379,79.602c-2.116,2.912-3.402,6.462-3.402,10.327c0,9.733,7.922,17.655,17.655,17.655c9.733,0,17.655-7.922,17.655-17.655
	C512,374.867,505.076,367.449,496.246,366.486z M310.891,366.293c-0.129,0.013-0.26-0.019-0.387,0H210.338
	c-0.149-0.022-0.302,0.015-0.452,0h-16.069l66.596-182.474l66.596,182.474H310.891z"/>
<path style="fill:#5ECB66;" d="M353.103,366.293h-7.302l-77.095-211.25c-1.276-3.483-4.586-5.802-8.293-5.802
	s-7.017,2.319-8.293,5.802l-77.095,211.25H79.509C82.052,190.267,160.25,48.5,256,48.5s173.948,141.767,176.491,317.793H353.103z"/>
<g>
</g>
<g>
</g>
<g>
</g>
<g>
</g>
<g>
</g>
<g>
</g>
<g>
</g>
<g>
</g>
<g>
</g>
<g>
</g>
<g>
</g>
<g>
</g>
<g>
</g>
<g>
</g>
<g>
</g>
</svg>
