<?xml version="1.0" encoding="iso-8859-1"?>
<!-- Generator: Adobe Illustrator 19.0.0, SVG Export Plug-In . SVG Version: 6.00 Build 0)  -->
<svg version="1.1" id="Layer_1" xmlns="http://www.w3.org/2000/svg" xmlns:xlink="http://www.w3.org/1999/xlink" x="0px" y="0px"
	 viewBox="0 0 512 512" style="enable-background:new 0 0 512 512;" xml:space="preserve">
<path style="fill:#314E55;" d="M502.691,358.4h-83.782v-83.782c0-5.145-4.164-9.309-9.309-9.309H307.2v-83.782
	c0-5.145-4.164-9.309-9.309-9.309H9.309c-5.145,0-9.309,4.164-9.309,9.309v111.709v186.182c0,5.145,4.164,9.309,9.309,9.309h186.182
	h307.2c5.145,0,9.309-4.164,9.309-9.309V367.709C512,362.564,507.836,358.4,502.691,358.4z"/>
<path style="fill:#F28544;" d="M18.618,190.836h269.964v83.782V358.4H204.8v-65.164c0-5.145-4.164-9.309-9.309-9.309H18.618V190.836
	z"/>
<polygon style="fill:#5ECB66;" points="18.618,302.545 186.182,302.545 186.182,367.709 186.182,470.109 18.618,470.109 "/>
<path style="fill:#E4AD40;" d="M493.382,470.109H204.8v-93.091h93.091c5.145,0,9.309-4.164,9.309-9.309v-83.782h93.091v83.782
	c0,5.145,4.164,9.309,9.309,9.309h83.782V470.109z"/>
<path style="fill:#314E55;" d="M449.564,167.891c1.818,1.818,4.2,2.727,6.582,2.727s4.764-0.909,6.582-2.727l26.327-26.327
	c3.636-3.636,3.636-9.527,0-13.164c-3.636-3.636-9.527-3.636-13.164,0l-10.436,10.436V32.582c0-5.145-4.164-9.309-9.309-9.309
	s-9.309,4.164-9.309,9.309v106.254L436.4,128.4c-3.636-3.636-9.527-3.636-13.164,0c-3.636,3.636-3.636,9.527,0,13.164
	L449.564,167.891z"/>
<g>
</g>
<g>
</g>
<g>
</g>
<g>
</g>
<g>
</g>
<g>
</g>
<g>
</g>
<g>
</g>
<g>
</g>
<g>
</g>
<g>
</g>
<g>
</g>
<g>
</g>
<g>
</g>
<g>
</g>
</svg>
