<?xml version="1.0" encoding="iso-8859-1"?>
<!-- Generator: Adobe Illustrator 19.0.0, SVG Export Plug-In . SVG Version: 6.00 Build 0)  -->
<svg version="1.1" id="Layer_1" xmlns="http://www.w3.org/2000/svg" xmlns:xlink="http://www.w3.org/1999/xlink" x="0px" y="0px"
	 viewBox="0 0 512 512" style="enable-background:new 0 0 512 512;" xml:space="preserve">
<g>
	<path style="fill:#314E55;" d="M438.857,411.906V182.827C438.857,82.015,356.827,0,256,0S73.143,82.015,73.143,182.827v229.079
		c-18.417,8.07-31.347,26.457-31.347,47.85c0,28.806,23.393,52.245,52.143,52.245h324.122c28.75,0,52.143-23.439,52.143-52.245
		C470.204,438.362,457.274,419.976,438.857,411.906z"/>
	<path style="fill:#EAEAEA;" d="M94.041,182.827c0-89.286,72.653-161.929,161.959-161.929s161.959,72.643,161.959,161.929V407.51
		H94.041V182.827z"/>
	<path style="fill:#D8D8D8;" d="M418.061,491.102H93.939c-17.23,0-31.245-14.061-31.245-31.347
		c0-17.286,14.015-31.347,31.245-31.347h324.122c17.23,0,31.245,14.061,31.245,31.347
		C449.306,477.041,435.291,491.102,418.061,491.102z"/>
	<g>
		<rect x="198.531" y="114.939" style="fill:#314E55;" width="20.898" height="20.898"/>
		<rect x="240.327" y="114.939" style="fill:#314E55;" width="20.898" height="20.898"/>
		<rect x="240.327" y="73.143" style="fill:#314E55;" width="20.898" height="20.898"/>
		<rect x="282.122" y="114.939" style="fill:#314E55;" width="20.898" height="20.898"/>
		<rect x="156.735" y="282.122" style="fill:#314E55;" width="20.898" height="20.898"/>
		<rect x="198.531" y="282.122" style="fill:#314E55;" width="20.898" height="20.898"/>
		<rect x="240.327" y="282.122" style="fill:#314E55;" width="20.898" height="20.898"/>
		<rect x="282.122" y="282.122" style="fill:#314E55;" width="20.898" height="20.898"/>
		<rect x="323.918" y="282.122" style="fill:#314E55;" width="20.898" height="20.898"/>
		<rect x="135.837" y="323.918" style="fill:#314E55;" width="20.898" height="20.898"/>
		<rect x="177.633" y="323.918" style="fill:#314E55;" width="20.898" height="20.898"/>
		<rect x="219.429" y="323.918" style="fill:#314E55;" width="20.898" height="20.898"/>
		<rect x="261.224" y="323.918" style="fill:#314E55;" width="20.898" height="20.898"/>
		<rect x="303.02" y="323.918" style="fill:#314E55;" width="20.898" height="20.898"/>
		<rect x="344.816" y="323.918" style="fill:#314E55;" width="20.898" height="20.898"/>
		<rect x="156.735" y="365.714" style="fill:#314E55;" width="20.898" height="20.898"/>
		<rect x="198.531" y="365.714" style="fill:#314E55;" width="20.898" height="20.898"/>
		<rect x="240.327" y="365.714" style="fill:#314E55;" width="20.898" height="20.898"/>
		<rect x="282.122" y="365.714" style="fill:#314E55;" width="20.898" height="20.898"/>
		<rect x="323.918" y="365.714" style="fill:#314E55;" width="20.898" height="20.898"/>
		<rect x="177.633" y="156.735" style="fill:#314E55;" width="20.898" height="20.898"/>
		<rect x="135.837" y="156.735" style="fill:#314E55;" width="20.898" height="20.898"/>
		<rect x="219.429" y="156.735" style="fill:#314E55;" width="20.898" height="20.898"/>
		<rect x="261.224" y="156.735" style="fill:#314E55;" width="20.898" height="20.898"/>
		<rect x="303.02" y="156.735" style="fill:#314E55;" width="20.898" height="20.898"/>
		<rect x="344.816" y="156.735" style="fill:#314E55;" width="20.898" height="20.898"/>
		<rect x="156.735" y="198.531" style="fill:#314E55;" width="20.898" height="20.898"/>
		<rect x="198.531" y="198.531" style="fill:#314E55;" width="20.898" height="20.898"/>
		<rect x="240.327" y="198.531" style="fill:#314E55;" width="20.898" height="20.898"/>
		<rect x="282.122" y="198.531" style="fill:#314E55;" width="20.898" height="20.898"/>
		<rect x="323.918" y="198.531" style="fill:#314E55;" width="20.898" height="20.898"/>
		<rect x="177.633" y="240.327" style="fill:#314E55;" width="20.898" height="20.898"/>
		<rect x="135.837" y="240.327" style="fill:#314E55;" width="20.898" height="20.898"/>
		<rect x="219.429" y="240.327" style="fill:#314E55;" width="20.898" height="20.898"/>
		<rect x="261.224" y="240.327" style="fill:#314E55;" width="20.898" height="20.898"/>
		<rect x="303.02" y="240.327" style="fill:#314E55;" width="20.898" height="20.898"/>
		<rect x="344.816" y="240.327" style="fill:#314E55;" width="20.898" height="20.898"/>
	</g>
</g>
<g>
</g>
<g>
</g>
<g>
</g>
<g>
</g>
<g>
</g>
<g>
</g>
<g>
</g>
<g>
</g>
<g>
</g>
<g>
</g>
<g>
</g>
<g>
</g>
<g>
</g>
<g>
</g>
<g>
</g>
</svg>
