<?xml version="1.0" encoding="iso-8859-1"?>
<!-- Generator: Adobe Illustrator 19.0.0, SVG Export Plug-In . SVG Version: 6.00 Build 0)  -->
<svg version="1.1" id="Layer_1" xmlns="http://www.w3.org/2000/svg" xmlns:xlink="http://www.w3.org/1999/xlink" x="0px" y="0px"
	 viewBox="0 0 512 512" style="enable-background:new 0 0 512 512;" xml:space="preserve">
<path style="fill:#314E55;" d="M503.018,302.465H476.07V271.43c0-4.965-4.018-8.982-8.982-8.982h-67.895L173.342,36.605
	c-3.509-3.509-9.193-3.509-12.702,0l-25.263,25.263l-19.053-19.061c-1.684-1.684-3.965-2.632-6.351-2.632
	c-2.386,0-4.667,0.947-6.351,2.632l-75.869,75.869c-3.509,3.509-3.509,9.193,0,12.702l19.053,19.061l-25.263,25.263
	c-1.684,1.684-2.632,3.965-2.632,6.351c0,2.386,0.947,4.667,2.632,6.351l74.051,74.044H44.912c-4.965,0-8.982,4.018-8.982,8.982
	v31.035H8.982c-4.965,0-8.982,4.018-8.982,8.982v117.588c0,4.965,4.018,8.982,8.982,8.982H35.93v31.026
	c0,4.965,4.018,8.982,8.982,8.982h422.175c4.965,0,8.982-4.018,8.982-8.982v-31.026h26.947c4.965,0,8.982-4.018,8.982-8.982V311.447
	C512,306.483,507.982,302.465,503.018,302.465z"/>
<g>
	<path style="fill:#D8D8D8;" d="M65.86,156.789c3.509-3.509,3.509-9.193,0-12.702l-19.053-19.061l63.167-63.167l19.053,19.061
		c1.684,1.684,3.965,2.632,6.351,2.632s4.667-0.947,6.351-2.632l25.263-25.263l52.764,52.762L94.36,233.816
		c-0.354,0.353-0.514,0.805-0.796,1.198l-52.967-52.962L65.86,156.789z"/>
	<path style="fill:#D8D8D8;" d="M105.864,247.313c0.393-0.282,0.844-0.442,1.197-0.795l125.396-125.396L373.79,262.447H121
		L105.864,247.313z"/>
</g>
<g>
	<path style="fill:#D26CBA;" d="M44.912,420.053H17.965V320.43h26.947c4.965,0,8.982-4.018,8.982-8.982v-31.035h63.386h8.474
		v179.649h-71.86v-31.026C53.895,424.07,49.877,420.053,44.912,420.053z"/>
	<path style="fill:#D26CBA;" d="M494.035,420.053h-26.947c-4.965,0-8.982,4.018-8.982,8.982v31.026H143.719V280.412h251.754h62.632
		v31.035c0,4.965,4.018,8.982,8.982,8.982h26.947V420.053z"/>
</g>
<g>
	<path style="fill:#314E55;" d="M206.596,325.325h134.737c4.965,0,8.982-4.018,8.982-8.982c0-4.965-4.018-8.982-8.982-8.982H206.596
		c-4.965,0-8.982,4.018-8.982,8.982C197.614,321.307,201.632,325.325,206.596,325.325z"/>
	<path style="fill:#314E55;" d="M386.246,343.289H206.596c-4.965,0-8.982,4.018-8.982,8.982s4.018,8.982,8.982,8.982h179.649
		c4.965,0,8.982-4.018,8.982-8.982S391.21,343.289,386.246,343.289z"/>
	<path style="fill:#314E55;" d="M242.526,379.219h-35.93c-4.965,0-8.982,4.018-8.982,8.982s4.018,8.982,8.982,8.982h35.93
		c4.965,0,8.982-4.018,8.982-8.982S247.491,379.219,242.526,379.219z"/>
	<path style="fill:#314E55;" d="M314.386,379.219h-35.93c-4.965,0-8.982,4.018-8.982,8.982s4.018,8.982,8.982,8.982h35.93
		c4.965,0,8.982-4.018,8.982-8.982S319.351,379.219,314.386,379.219z"/>
</g>
<g>
</g>
<g>
</g>
<g>
</g>
<g>
</g>
<g>
</g>
<g>
</g>
<g>
</g>
<g>
</g>
<g>
</g>
<g>
</g>
<g>
</g>
<g>
</g>
<g>
</g>
<g>
</g>
<g>
</g>
</svg>
