<?xml version="1.0" encoding="iso-8859-1"?>
<!-- Generator: Adobe Illustrator 19.0.0, SVG Export Plug-In . SVG Version: 6.00 Build 0)  -->
<svg version="1.1" id="Layer_1" xmlns="http://www.w3.org/2000/svg" xmlns:xlink="http://www.w3.org/1999/xlink" x="0px" y="0px"
	 viewBox="0 0 512 512" style="enable-background:new 0 0 512 512;" xml:space="preserve">
<path style="fill:#314E55;" d="M364.743,194.832c0-5.009-4.053-9.062-9.062-9.062h-27.267c10.686-27.803,12.701-46.923,6.612-61.009
	c-7.035-16.301-23.31-22.159-39.053-27.823c-13.531-4.876-27.513-9.903-37.734-21.398c-8.009-9.018-11.239-17.646-9.867-26.372
	c2.929-18.611,25.575-32.15,25.788-32.274c3.54-2.071,5.248-6.248,4.186-10.195C277.274,2.743,273.69,0,269.593,0
	c-1.664,0-41.248,0.761-93.212,66.894c-14.699,18.708-20.796,38.929-18.115,60.097c3.133,24.721,17.678,45.408,29.768,58.779
	h-31.715c-5.009,0-9.062,4.053-9.062,9.062c0,37.803,19.408,71.127,48.761,90.619h-3.451c-5.009,0-9.062,4.053-9.062,9.062
	c0,5.009,4.053,9.062,9.062,9.062h9.817l17.404,200.151c0.407,4.681,4.327,8.274,9.026,8.274h54.372
	c4.699,0,8.619-3.593,9.027-8.274l17.404-200.151h9.817c5.009,0,9.062-4.053,9.062-9.062s-4.053-9.062-9.062-9.062h-3.451
	C345.335,265.959,364.743,232.634,364.743,194.832z"/>
<path style="fill:#E65F58;" d="M176.248,124.708c-2.053-16.177,2.788-31.858,14.381-46.611
	c16.345-20.805,31.071-34.398,43.257-43.274c-1.566,3.575-2.752,7.389-3.398,11.434c-2.274,14.257,2.504,28.159,14.212,41.319
	c13.283,14.947,30.203,21.036,45.133,26.416c15.274,5.496,24.823,9.301,28.558,17.956c4.383,10.141,1.189,27.855-9.539,53.823
	h-94.917C206.128,179.132,180.076,154.948,176.248,124.708z"/>
<polygon style="fill:#73C9C9;" points="274.876,493.876 237.124,493.876 220.575,303.575 291.425,303.575 "/>
<path style="fill:#E4AD40;" d="M256,285.451c-46.911,0-85.611-35.832-90.168-81.558h180.336
	C341.611,249.619,302.911,285.451,256,285.451z"/>
<g>
</g>
<g>
</g>
<g>
</g>
<g>
</g>
<g>
</g>
<g>
</g>
<g>
</g>
<g>
</g>
<g>
</g>
<g>
</g>
<g>
</g>
<g>
</g>
<g>
</g>
<g>
</g>
<g>
</g>
</svg>
