<?xml version="1.0" encoding="iso-8859-1"?>
<!-- Generator: Adobe Illustrator 19.0.0, SVG Export Plug-In . SVG Version: 6.00 Build 0)  -->
<svg version="1.1" id="Layer_1" xmlns="http://www.w3.org/2000/svg" xmlns:xlink="http://www.w3.org/1999/xlink" x="0px" y="0px"
	 viewBox="0 0 512 512" style="enable-background:new 0 0 512 512;" xml:space="preserve">
<path style="fill:#314E55;" d="M503.172,105.931c4.875,0,8.828-3.948,8.828-8.828V44.138c0-4.879-3.953-8.828-8.828-8.828H247.173
	c-4.875,0-8.828,3.948-8.828,8.828v52.965c0,4.879,3.953,8.828,8.828,8.828h35.31v79.448H158.897v-61.793
	c0-4.879-3.953-8.828-8.828-8.828h-35.31c-4.875,0-8.828,3.948-8.828,8.828v61.793h-35.31c-4.875,0-8.828,3.948-8.828,8.828v44.138
	h-35.31c-4.875,0-8.828,3.948-8.828,8.828v79.448c0,4.879,3.953,8.828,8.828,8.828h35.31v35.31H24.717
	c-3.896,0-7.336,2.56-8.457,6.293L0.372,430.017c-0.802,2.672-0.293,5.569,1.375,7.802c1.664,2.241,4.293,3.56,7.082,3.56H114.76
	c1.449,0,2.76-0.433,3.967-1.051c14.172,21.847,38.73,36.361,66.654,36.361s52.482-14.514,66.654-36.361
	c1.207,0.619,2.517,1.051,3.967,1.051h52.965c1.449,0,2.76-0.433,3.967-1.051c14.172,21.847,38.73,36.361,66.654,36.361
	s52.482-14.514,66.654-36.361c1.207,0.619,2.517,1.051,3.967,1.051h52.965c4.875,0,8.828-3.948,8.828-8.828v-52.965
	c0-4.879-3.953-8.828-8.828-8.828H476.69V105.931H503.172z"/>
<g>
	<polygon style="fill:#F28544;" points="256.001,52.966 494.345,52.966 494.345,88.276 467.862,88.276 291.311,88.276 
		256.001,88.276 	"/>
	<rect x="123.586" y="132.414" style="fill:#F28544;" width="17.655" height="52.965"/>
</g>
<rect x="35.31" y="256" style="fill:#E4AD40;" width="26.483" height="61.793"/>
<path style="fill:#EAEAEA;" d="M79.449,326.62v-79.448v-44.138h35.31h35.31h132.413v167.724h-22.29
	c-10.941-30.807-40.302-52.965-74.813-52.965s-63.872,22.158-74.813,52.965h-0.221H79.449V326.62z"/>
<polygon style="fill:#DBCF56;" points="108.84,423.724 20.691,423.724 31.286,388.413 108.84,388.413 "/>
<path style="fill:#73C9C9;" d="M185.38,459.034c-34.073,0-61.793-27.724-61.793-61.793s27.72-61.793,61.793-61.793
	s61.793,27.724,61.793,61.793S219.453,459.034,185.38,459.034z"/>
<polygon style="fill:#DBCF56;" points="302.6,423.724 262.378,423.724 262.378,388.413 291.311,388.413 302.6,388.413 "/>
<path style="fill:#73C9C9;" d="M379.586,459.034c-34.073,0-61.793-27.724-61.793-61.793s27.72-61.793,61.793-61.793
	s61.793,27.724,61.793,61.793S413.66,459.034,379.586,459.034z"/>
<polygon style="fill:#DBCF56;" points="494.345,423.724 457.003,423.724 457.003,388.413 467.862,388.413 494.345,388.413 "/>
<path style="fill:#D8D8D8;" d="M459.034,370.758h-4.414h-0.221c-10.941-30.807-40.302-52.965-74.813-52.965
	s-63.872,22.158-74.813,52.965h-0.221h-4.414V194.207v-88.276h158.896V370.758z"/>
<path style="fill:#314E55;" d="M335.449,256h79.448c4.875,0,8.828-3.948,8.828-8.828v-57.327c0-26.802-21.78-48.603-48.552-48.603
	c-26.772,0-48.552,21.802-48.552,48.603v57.327C326.621,252.052,330.574,256,335.449,256z"/>
<path style="fill:#EAEAEA;" d="M344.276,189.845c0-17.069,13.862-30.948,30.896-30.948c17.035,0,30.896,13.879,30.896,30.948v48.5
	h-61.793V189.845z"/>
<g>
</g>
<g>
</g>
<g>
</g>
<g>
</g>
<g>
</g>
<g>
</g>
<g>
</g>
<g>
</g>
<g>
</g>
<g>
</g>
<g>
</g>
<g>
</g>
<g>
</g>
<g>
</g>
<g>
</g>
</svg>
