<?xml version="1.0" encoding="iso-8859-1"?>
<!-- Generator: Adobe Illustrator 19.0.0, SVG Export Plug-In . SVG Version: 6.00 Build 0)  -->
<svg version="1.1" id="Layer_1" xmlns="http://www.w3.org/2000/svg" xmlns:xlink="http://www.w3.org/1999/xlink" x="0px" y="0px"
	 viewBox="0 0 512 512" style="enable-background:new 0 0 512 512;" xml:space="preserve">
<path style="fill:#314E55;" d="M440.197,307.988H71.803C32.21,307.988,0,340.225,0,379.847s32.211,71.86,71.803,71.86h0.057v26.947
	c0,4.961,4.022,8.982,8.982,8.982h71.86c4.961,0,8.982-4.022,8.982-8.982v-26.947h188.632v26.947c0,4.961,4.022,8.982,8.982,8.982
	h71.86c4.961,0,8.982-4.022,8.982-8.982v-26.947h0.057c39.592,0,71.803-32.237,71.803-71.86S479.789,307.988,440.197,307.988z"/>
<g>
	<rect x="89.825" y="451.704" style="fill:#D8D8D8;" width="53.895" height="17.965"/>
	<rect x="368.281" y="451.704" style="fill:#D8D8D8;" width="53.895" height="17.965"/>
	<path style="fill:#D8D8D8;" d="M440.197,433.742h-9.04h-71.86H152.702h-71.86h-9.039c-29.684,0-53.838-24.175-53.838-53.895
		s24.154-53.895,53.838-53.895h368.395c29.684,0,53.838,24.175,53.838,53.895S469.881,433.742,440.197,433.742z"/>
</g>
<path style="fill:#314E55;" d="M440.14,343.917c-19.811,0-35.93,16.118-35.93,35.93s16.118,35.93,35.93,35.93
	s35.93-16.118,35.93-35.93S459.952,343.917,440.14,343.917z"/>
<circle style="fill:#5ECB66;" cx="440.14" cy="379.844" r="17.965"/>
<path style="fill:#314E55;" d="M71.86,343.917c-19.811,0-35.93,16.118-35.93,35.93s16.118,35.93,35.93,35.93
	s35.93-16.118,35.93-35.93S91.671,343.917,71.86,343.917z"/>
<circle style="fill:#5ECB66;" cx="71.86" cy="379.844" r="17.965"/>
<path style="fill:#314E55;" d="M157.535,110.374c-3.61,0-6.868,2.162-8.276,5.487l-72.11,170.667
	c-1.171,2.772-0.873,5.952,0.79,8.461c1.667,2.509,4.474,4.018,7.487,4.018h79.811c4.272,0,7.952-3.009,8.803-7.193l34.684-170.667
	c0.535-2.64-0.14-5.386-1.847-7.474c-1.706-2.088-4.259-3.298-6.956-3.298L157.535,110.374L157.535,110.374z"/>
<polygon style="fill:#5ECB66;" points="157.895,281.04 98.974,281.04 163.491,128.339 188.93,128.339 "/>
<path style="fill:#314E55;" d="M120.399,98.492c1.702,1.847,4.096,2.899,6.61,2.899h118.145c4.961,0,8.982-4.022,8.982-8.982
	c0-4.961-4.022-8.982-8.982-8.982H130.952L79.285,27.264c-3.351-3.654-9.031-3.886-12.693-0.526
	c-3.649,3.36-3.886,9.039-0.526,12.693L120.399,98.492z"/>
<g>
</g>
<g>
</g>
<g>
</g>
<g>
</g>
<g>
</g>
<g>
</g>
<g>
</g>
<g>
</g>
<g>
</g>
<g>
</g>
<g>
</g>
<g>
</g>
<g>
</g>
<g>
</g>
<g>
</g>
</svg>
