<?xml version="1.0" encoding="iso-8859-1"?>
<!-- Generator: Adobe Illustrator 19.0.0, SVG Export Plug-In . SVG Version: 6.00 Build 0)  -->
<svg version="1.1" id="Layer_1" xmlns="http://www.w3.org/2000/svg" xmlns:xlink="http://www.w3.org/1999/xlink" x="0px" y="0px"
	 viewBox="0 0 512 512" style="enable-background:new 0 0 512 512;" xml:space="preserve">
<path style="fill:#314E55;" d="M449.123,166.175c0-36.895-23.846-69.579-58.531-81.035c-8.829-20.202-27.496-34.228-49.346-37.088
	C321.184,17.877,287.969,0,251.509,0c-34.627,0-66.715,16.395-87.009,44.158c-2.32-0.307-4.662-0.456-7.022-0.456
	c-27.259,0-49.895,20.158-53.417,46.684c-25.873,18.579-41.184,48.263-41.184,80.28c0,38.623,21.939,72.991,56.443,89.298
	c-0.004,0.175-0.004,0.351-0.004,0.526c0,29.719,24.175,53.895,53.895,53.895c11.996,0,23.408-3.895,32.768-11.096
	c3.118,1.621,6.34,3.003,9.601,4.276v186.469h-53.895c-4.961,0-8.982,4.018-8.982,8.982s4.022,8.982,8.982,8.982h62.877h53.895
	h64.956c4.961,0,8.982-4.018,8.982-8.982s-4.022-8.982-8.982-8.982h-55.974V307.561c9.415-3.675,18.291-8.726,26.254-15.184
	c15.895,7.254,35.759,4.193,48.693-7.474c4.763,1.667,9.807,2.535,14.877,2.535c24.763,0,44.912-20.149,44.912-44.912
	c0-4.281-0.592-8.465-1.759-12.5C438.741,213.833,449.123,190.921,449.123,166.175z"/>
<rect x="233.544" y="314.386" style="fill:#E9E7D1;" width="35.93" height="179.649"/>
<path style="fill:#5ECB66;" d="M404.333,219.982c-3.399,2.561-4.531,7.167-2.706,11.009c1.715,3.623,2.583,7.5,2.583,11.535
	c0,14.86-12.088,26.947-26.947,26.947c-4.522,0-8.82-1.079-12.776-3.211c-3.781-2.026-8.496-1.088-11.219,2.237
	c-8.513,10.439-24.596,12.877-35.776,5.5c-3.438-2.272-8.004-1.921-11.057,0.903c-14.978,13.877-34.487,21.518-54.925,21.518
	c-14.846,0-29.36-4.061-41.982-11.737c-1.443-0.877-3.057-1.307-4.662-1.307c-2.311,0-4.605,0.895-6.333,2.605
	c-6.776,6.737-15.768,10.439-25.32,10.439c-19.811,0-35.93-16.114-35.93-35.93c0-1.693,0.114-3.36,0.342-4.991
	c0.575-4.105-1.737-8.079-5.597-9.605c-31.092-12.263-51.184-41.79-51.184-75.228c0-27.403,13.715-52.728,36.689-67.737
	c2.412-1.57,3.921-4.211,4.061-7.088c0.912-19.167,16.675-34.176,35.886-34.176c3.026,0,6.013,0.369,8.882,1.097
	c3.745,0.974,7.649-0.579,9.75-3.816c16.658-25.658,44.842-40.982,75.399-40.982c31.662,0,60.386,16.175,76.838,43.272
	c1.539,2.535,4.224,4.149,7.18,4.307c18.158,1.017,33.794,12.763,39.838,29.921c0.982,2.79,3.272,4.912,6.118,5.684
	c29.25,7.939,49.675,34.684,49.675,65.026C431.158,187.509,421.382,207.114,404.333,219.982z"/>
<g>
	<path style="fill:#314E55;" d="M267.373,141.123c-16.439-3.482-33.232-0.377-47.32,8.772c-1.021,0.664-1.968,1.408-2.943,2.123
		c-4.789-11.853-13.026-21.961-23.969-29.07c-14.092-9.149-30.899-12.254-47.32-8.772c-4.851,1.035-7.952,5.807-6.917,10.658
		c1.031,4.842,5.768,7.903,10.653,6.921c11.741-2.518,23.737-0.272,33.798,6.254c10.061,6.535,16.974,16.596,19.469,28.333
		c0.008,0.04,0.035,0.068,0.043,0.108c-4.822,6.852-8.275,14.658-10.07,23.103c-1.031,4.851,2.066,9.623,6.917,10.658
		c0.631,0.132,1.259,0.193,1.877,0.193c4.149,0,7.882-2.895,8.776-7.114c2.496-11.737,9.408-21.798,19.469-28.333
		c10.07-6.526,22.066-8.772,33.798-6.254c4.882,1.009,9.618-2.07,10.653-6.921S272.224,142.158,267.373,141.123z"/>
	<path style="fill:#314E55;" d="M364.162,199.947c-21.224-12.754-28.118-40.404-15.364-61.632c2.553-4.246,1.175-9.772-3.074-12.325
		c-4.254-2.544-9.768-1.175-12.329,3.079c-17.851,29.711-8.202,68.421,21.513,86.281c1.447,0.868,3.044,1.281,4.618,1.281
		c3.048,0,6.022-1.553,7.706-4.36C369.79,208.026,368.412,202.509,364.162,199.947z"/>
</g>
<g>
</g>
<g>
</g>
<g>
</g>
<g>
</g>
<g>
</g>
<g>
</g>
<g>
</g>
<g>
</g>
<g>
</g>
<g>
</g>
<g>
</g>
<g>
</g>
<g>
</g>
<g>
</g>
<g>
</g>
</svg>
