<?xml version="1.0" encoding="iso-8859-1"?>
<!-- Generator: Adobe Illustrator 19.0.0, SVG Export Plug-In . SVG Version: 6.00 Build 0)  -->
<svg version="1.1" id="Layer_1" xmlns="http://www.w3.org/2000/svg" xmlns:xlink="http://www.w3.org/1999/xlink" x="0px" y="0px"
	 viewBox="0 0 512 512" style="enable-background:new 0 0 512 512;" xml:space="preserve">
<path style="fill:#314E55;" d="M508.313,201.021c-2.312-1.723-5.304-2.241-8.085-1.42l-36.571,10.973
	c-3.258,0.978-5.543,3.694-6.215,6.928h-100.87v-29.375c0-5.053-4.094-9.143-9.143-9.143s-9.143,4.089-9.143,9.143v29.375H320
	v-29.375c0-5.053-4.094-9.143-9.143-9.143c-5.049,0-9.143,4.089-9.143,9.143v29.375h-18.286v-29.375
	c0-5.053-4.094-9.143-9.143-9.143c-5.049,0-9.143,4.089-9.143,9.143v29.375h-97.46c-61.067-4.009-118.196-50.75-151.335-93.196
	c-2.406-3.089-6.522-4.304-10.179-3.018C2.478,122.557,0,126.03,0,129.932v233.857c0,5.053,4.094,9.143,9.143,9.143h4.402
	c2.616,0,5.103-1.116,6.839-3.072c28.143-31.732,85.076-85.402,149.728-88.357h41.17C199.403,293.131,192,309.318,192,327.218
	c0,35.286,28.688,64,63.947,64h109.821c35.259,0,63.947-28.714,63.947-64c0-17.9-7.403-34.087-19.281-45.714h47.008
	c0.672,3.235,2.957,5.95,6.215,6.928l36.571,10.973c0.866,0.259,1.75,0.384,2.629,0.384c1.942,0,3.862-0.616,5.455-1.804
	c2.321-1.732,3.687-4.446,3.687-7.339v-82.286C512,205.468,510.634,202.754,508.313,201.021z M301.714,281.504v91.429h-18.286
	v-91.429H301.714z M320,281.504h18.286v91.429H320V281.504z M210.286,327.218c0-25.205,20.482-45.714,45.661-45.714h9.196v91.429
	h-9.196C230.768,372.932,210.286,352.423,210.286,327.218z M411.429,327.218c0,25.205-20.482,45.714-45.661,45.714h-9.196v-91.429
	h9.196C390.947,281.504,411.429,302.013,411.429,327.218z"/>
<g>
	<rect x="320" y="235.799" style="fill:#E4AD40;" width="18.286" height="27.429"/>
	<rect x="283.429" y="235.799" style="fill:#E4AD40;" width="18.286" height="27.429"/>
	<path style="fill:#E4AD40;" d="M169.696,263.227c-63.527,2.902-118.719,48.134-151.411,81.982V154.745
		c36.643,39.563,90.656,77.348,148.522,81.027c0.192,0.009,0.388,0.018,0.58,0.018h97.755v27.429h-9.196
		c-0.042,0-0.081,0.006-0.123,0.006L169.696,263.227z"/>
	<path style="fill:#E4AD40;" d="M365.768,263.218h-9.196v-27.429h100.571v27.429l-91.319,0.003
		C365.805,263.221,365.787,263.218,365.768,263.218z"/>
	<polygon style="fill:#E4AD40;" points="493.714,278.361 475.429,272.87 475.429,272.361 475.429,226.646 475.429,226.137 
		493.714,220.646 	"/>
</g>
<g>
</g>
<g>
</g>
<g>
</g>
<g>
</g>
<g>
</g>
<g>
</g>
<g>
</g>
<g>
</g>
<g>
</g>
<g>
</g>
<g>
</g>
<g>
</g>
<g>
</g>
<g>
</g>
<g>
</g>
</svg>
