<?xml version="1.0" encoding="iso-8859-1"?>
<!-- Generator: Adobe Illustrator 19.0.0, SVG Export Plug-In . SVG Version: 6.00 Build 0)  -->
<svg version="1.1" id="Layer_1" xmlns="http://www.w3.org/2000/svg" xmlns:xlink="http://www.w3.org/1999/xlink" x="0px" y="0px"
	 viewBox="0 0 512 512" style="enable-background:new 0 0 512 512;" xml:space="preserve">
<path style="fill:#314E55;" d="M18.286,342.857h475.429c5.049,0,9.143-4.089,9.143-9.143V288V68.571V22.857
	c0-5.053-4.094-9.143-9.143-9.143H18.286c-5.049,0-9.143,4.089-9.143,9.143v45.714V288v45.714
	C9.143,338.768,13.237,342.857,18.286,342.857z"/>
<rect x="27.429" y="77.714" style="fill:#EAEAEA;" width="457.143" height="201.143"/>
<g>
	<rect x="27.429" y="297.143" style="fill:#D8D8D8;" width="457.143" height="27.429"/>
	<rect x="27.429" y="32" style="fill:#D8D8D8;" width="457.143" height="27.429"/>
</g>
<g>
	<path style="fill:#314E55;" d="M429.714,406.857c-45.37,0-82.286,36.911-82.286,82.286c0,5.053,4.094,9.143,9.143,9.143
		s9.143-4.089,9.143-9.143c0-35.286,28.71-64,64-64s64,28.714,64,64c0,5.053,4.094,9.143,9.143,9.143
		c5.049,0,9.143-4.089,9.143-9.143C512,443.768,475.085,406.857,429.714,406.857z"/>
	<path style="fill:#314E55;" d="M256,406.857c-45.371,0-82.286,36.911-82.286,82.286c0,5.053,4.094,9.143,9.143,9.143
		c5.049,0,9.143-4.089,9.143-9.143c0-35.286,28.71-64,64-64s64,28.714,64,64c0,5.053,4.094,9.143,9.143,9.143
		c5.049,0,9.143-4.089,9.143-9.143C338.286,443.768,301.371,406.857,256,406.857z"/>
	<path style="fill:#314E55;" d="M82.286,406.857C36.915,406.857,0,443.768,0,489.143c0,5.053,4.094,9.143,9.143,9.143
		s9.143-4.089,9.143-9.143c0-35.286,28.71-64,64-64s64,28.714,64,64c0,5.053,4.094,9.143,9.143,9.143
		c5.049,0,9.143-4.089,9.143-9.143C164.571,443.768,127.656,406.857,82.286,406.857z"/>
	<path style="fill:#314E55;" d="M219.192,227.205c1.469,0.911,3.138,1.366,4.808,1.366c1.397,0,2.799-0.321,4.089-0.964
		l82.286-41.143c3.098-1.554,5.053-4.714,5.053-8.179s-1.955-6.625-5.053-8.179l-82.286-41.143
		c-2.835-1.411-6.196-1.268-8.897,0.402c-2.692,1.669-4.335,4.607-4.335,7.777v82.286
		C214.857,222.598,216.5,225.536,219.192,227.205z"/>
</g>
<polygon style="fill:#5ECB66;" points="233.143,151.938 285.844,178.286 233.143,204.634 "/>
<g>
</g>
<g>
</g>
<g>
</g>
<g>
</g>
<g>
</g>
<g>
</g>
<g>
</g>
<g>
</g>
<g>
</g>
<g>
</g>
<g>
</g>
<g>
</g>
<g>
</g>
<g>
</g>
<g>
</g>
</svg>
