<?xml version="1.0" encoding="iso-8859-1"?>
<!-- Generator: Adobe Illustrator 19.0.0, SVG Export Plug-In . SVG Version: 6.00 Build 0)  -->
<svg version="1.1" id="Layer_1" xmlns="http://www.w3.org/2000/svg" xmlns:xlink="http://www.w3.org/1999/xlink" x="0px" y="0px"
	 viewBox="0 0 512 512" style="enable-background:new 0 0 512 512;" xml:space="preserve">
<path style="fill:#314E55;" d="M503.132,213.546c10-23.385,11.528-41.233,4.658-54.575c-8.013-15.575-25.234-20.952-37.484-23.636
	c-24.874-5.444-55.689,12.664-71.183,23.381l-0.807-31.268h9.319c4.896,0,8.866-3.97,8.866-8.866s-3.97-8.866-8.866-8.866H389.22
	H190.625h-17.498c-4.896,0-8.866,3.97-8.866,8.866s3.97,8.866,8.866,8.866h8.401l-3.286,127.379L105.55,234.46
	c-0.037-0.11-0.004-0.229-0.045-0.339l-24.052-63.714c-1.186-3.147-4.052-5.351-7.398-5.693c-3.394-0.355-6.602,1.242-8.39,4.087
	L1.372,270.558c-1.788,2.827-1.831,6.42-0.113,9.29c1.606,2.688,4.502,4.312,7.606,4.312c0.208,0,0.42-0.009,0.632-0.022
	l67.683-4.853c0.342-0.024,0.621-0.24,0.954-0.303l97.79,65.722l-1.028,39.848h-9.093c-4.896,0-8.866,3.97-8.866,8.866
	s3.97,8.866,8.866,8.866h17.731h212.777h18.532c4.896,0,8.866-3.97,8.866-8.866s-3.97-8.866-8.866-8.866h-9.894l-0.863-33.451
	C416.602,336.471,485.323,255.173,503.132,213.546z M400.774,179.516c11.225-9.017,44.9-31.407,65.731-26.865
	c13.913,3.052,22.026,7.641,25.519,14.433c4.238,8.234,2.493,21.519-5.195,39.484c-13.311,31.11-59.51,88.895-83.433,117.77
	l-3.722-144.253C400.034,179.872,400.438,179.786,400.774,179.516z"/>
<path style="fill:#5ECB66;" d="M71.15,193.317l16.024,42.45c-0.1,0.152-0.249,0.255-0.34,0.416l-6.721,11.761l-8.703,13.979
	l-45.679,3.273L71.15,193.317z"/>
<polygon style="fill:#D8D8D8;" points="90.323,265.814 95.362,256.998 99.061,251.056 177.771,273.11 176.466,323.705 "/>
<polygon style="fill:#81A4E3;" points="192.634,384.553 199.266,127.448 380.579,127.448 387.211,384.553 "/>
<g>
</g>
<g>
</g>
<g>
</g>
<g>
</g>
<g>
</g>
<g>
</g>
<g>
</g>
<g>
</g>
<g>
</g>
<g>
</g>
<g>
</g>
<g>
</g>
<g>
</g>
<g>
</g>
<g>
</g>
</svg>
