<?xml version="1.0" encoding="iso-8859-1"?>
<!-- Generator: Adobe Illustrator 19.0.0, SVG Export Plug-In . SVG Version: 6.00 Build 0)  -->
<svg version="1.1" id="Layer_1" xmlns="http://www.w3.org/2000/svg" xmlns:xlink="http://www.w3.org/1999/xlink" x="0px" y="0px"
	 viewBox="0 0 512 512" style="enable-background:new 0 0 512 512;" xml:space="preserve">
<path style="fill:#314E55;" d="M503.172,388.099H105.931V274.065l218.841,104.349c1.185,0.565,2.483,0.858,3.797,0.858h165.776
	c4.875,0,8.828-3.953,8.828-8.828s-3.953-8.828-8.828-8.828h-163.78L105.931,254.504v-25.749
	c49.416-4.48,88.276-46.093,88.276-96.656c0-53.543-43.56-97.103-97.103-97.103S0,78.556,0,132.099
	c0,50.564,38.86,92.177,88.276,96.656v17.331l-15.095-7.198c-4.392-2.086-9.66-0.237-11.767,4.172
	c-2.095,4.397-0.228,9.668,4.172,11.767l22.69,10.819v131.28v35.31v35.94c0,4.875,3.953,8.828,8.828,8.828
	c4.875,0,8.828-3.953,8.828-8.828v-27.112h335.448v17.655c0,4.875,3.953,8.828,8.828,8.828c4.875,0,8.828-3.953,8.828-8.828v-17.655
	h44.138c4.875,0,8.828-3.953,8.828-8.828v-35.31C512,392.052,508.047,388.099,503.172,388.099z"/>
<path style="fill:#D8D8D8;" d="M17.655,132.099c0-43.806,35.642-79.448,79.448-79.448s79.448,35.642,79.448,79.448
	s-35.642,79.448-79.448,79.448S17.655,175.905,17.655,132.099z"/>
<path style="fill:#314E55;" d="M141.241,132.099c0-24.336-19.802-44.138-44.138-44.138s-44.138,19.802-44.138,44.138
	s19.802,44.138,44.138,44.138S141.241,156.435,141.241,132.099z"/>
<g>
	<path style="fill:#D8D8D8;" d="M70.621,132.099c0-14.603,11.879-26.483,26.483-26.483s26.483,11.879,26.483,26.483
		s-11.879,26.483-26.483,26.483S70.621,146.703,70.621,132.099z"/>
	<rect x="105.931" y="405.754" style="fill:#D8D8D8;" width="388.414" height="17.655"/>
</g>
<g>
</g>
<g>
</g>
<g>
</g>
<g>
</g>
<g>
</g>
<g>
</g>
<g>
</g>
<g>
</g>
<g>
</g>
<g>
</g>
<g>
</g>
<g>
</g>
<g>
</g>
<g>
</g>
<g>
</g>
</svg>
