<?xml version="1.0" encoding="iso-8859-1"?>
<!-- Generator: Adobe Illustrator 19.0.0, SVG Export Plug-In . SVG Version: 6.00 Build 0)  -->
<svg version="1.1" id="Layer_1" xmlns="http://www.w3.org/2000/svg" xmlns:xlink="http://www.w3.org/1999/xlink" x="0px" y="0px"
	 viewBox="0 0 512 512" style="enable-background:new 0 0 512 512;" xml:space="preserve">
<path style="fill:#314E55;" d="M502.499,120.036h-49.171c-3.475,0-6.671,1.893-8.337,4.945l-23.013,42.087H403.34l-15.964-62.361
	c-1.229-4.815-5.933-7.822-10.851-7.005l-69.458,12.212c-0.107-0.054-0.17-0.165-0.279-0.215l-64.476-29.914
	c-3.029-1.41-6.56-1.123-9.306,0.742l-44.708,30.118c-2.955,1.986-4.551,5.465-4.129,9l5.665,47.422h-56.817
	c-3.331,0-6.416,1.744-8.137,4.593c-1.717,2.848-1.819,6.393-0.269,9.343l72.791,138.082H171.36
	c-12.154-33.158-44.769-57.007-83.108-57.007C39.591,262.081,0,300.438,0,347.591s39.591,85.51,88.252,85.51
	c48.666,0,88.257-38.357,88.257-85.51c0-3.214-0.22-6.378-0.578-9.501h37.223h128.887h95.183c3.424,0,6.578-1.837,8.267-4.815
	c1.684-2.978,1.642-6.634-0.116-9.566l-46.259-77.207l25.762-45.798c0.522-0.564,1.007-1.176,1.393-1.882l32.688-59.781h43.539
	c5.247,0,9.501-4.25,9.501-9.501S507.746,120.036,502.499,120.036z M420.454,319.087h-62.167l30.104-53.518L420.454,319.087z"/>
<path style="fill:#D8D8D8;" d="M88.252,414.099c-38.186,0-69.25-29.84-69.25-66.508s31.064-66.508,69.25-66.508
	s69.254,29.84,69.254,66.508S126.438,414.099,88.252,414.099z"/>
<path style="fill:#314E55;" d="M88.252,315.283c-18.265,0-33.124,14.493-33.124,32.308s14.86,32.308,33.124,32.308
	c18.269,0,33.129-14.493,33.129-32.308S106.522,315.283,88.252,315.283z"/>
<ellipse style="fill:#FFFFFF;" cx="88.242" cy="347.592" rx="14.123" ry="13.306"/>
<g>
	<path style="fill:#D8D8D8;" d="M383.725,167.069H278.023l28.837-38.356c0.861,0.094,1.717,0.23,2.614,0.082l61.674-10.847
		L383.725,167.069z"/>
	<polygon style="fill:#D8D8D8;" points="203.727,123.163 239.176,99.28 288.138,121.994 254.267,167.05 254.259,167.069 
		208.973,167.069 	"/>
</g>
<polygon style="fill:#F28544;" points="218.888,319.087 148.767,186.071 411.306,186.071 336.484,319.087 "/>
<g>
</g>
<g>
</g>
<g>
</g>
<g>
</g>
<g>
</g>
<g>
</g>
<g>
</g>
<g>
</g>
<g>
</g>
<g>
</g>
<g>
</g>
<g>
</g>
<g>
</g>
<g>
</g>
<g>
</g>
</svg>
