<?xml version="1.0" encoding="iso-8859-1"?>
<!-- Generator: Adobe Illustrator 19.0.0, SVG Export Plug-In . SVG Version: 6.00 Build 0)  -->
<svg version="1.1" id="Layer_1" xmlns="http://www.w3.org/2000/svg" xmlns:xlink="http://www.w3.org/1999/xlink" x="0px" y="0px"
	 viewBox="0 0 512 512" style="enable-background:new 0 0 512 512;" xml:space="preserve">
<path style="fill:#314E55;" d="M390.982,109.486H139.636c-5.141,0-9.309,4.168-9.309,9.309v83.782v18.618v83.782
	c0,5.145,4.168,9.309,9.309,9.309h130.327c0,66.727,54.286,121.018,121.018,121.018c63.339,0,115.373-48.936,120.509-110.968
	c0.235-0.818,0.509-1.627,0.509-2.523v-91.309C512,163.773,457.714,109.486,390.982,109.486z"/>
<g>
	<rect x="279.273" y="128.105" style="fill:#EAEAEA;" width="18.618" height="65.164"/>
	<rect x="242.036" y="128.105" style="fill:#EAEAEA;" width="18.618" height="65.164"/>
	<rect x="148.945" y="128.105" style="fill:#EAEAEA;" width="74.473" height="65.164"/>
</g>
<path style="fill:#C59981;" d="M390.982,416.686c-56.464,0-102.4-45.936-102.4-102.4c0-2.882,0.118-5.718,0.35-8.536
	c0.214-2.6-0.664-5.164-2.427-7.082c-1.764-1.909-4.245-3-6.85-3H148.945v-74.473v-9.309h242.036c56.464,0,102.4,45.936,102.4,102.4
	S447.445,416.686,390.982,416.686z"/>
<path style="fill:#EAEAEA;" d="M390.982,193.268h-74.473v-65.164h74.473c56.464,0,102.4,45.936,102.4,102.4v19.584
	C471.948,216.024,434.117,193.268,390.982,193.268z"/>
<path style="fill:#314E55;" d="M390.982,277.05c-30.8,0-55.855,25.055-55.855,55.855s25.054,55.855,55.855,55.855
	s55.855-25.055,55.855-55.855S421.782,277.05,390.982,277.05z"/>
<path style="fill:#EAEAEA;" d="M390.982,370.141c-20.532,0-37.236-16.7-37.236-37.236s16.704-37.236,37.236-37.236
	s37.236,16.7,37.236,37.236S411.514,370.141,390.982,370.141z"/>
<g>
	<path style="fill:#314E55;" d="M83.782,183.959H9.309c-5.141,0-9.309,4.168-9.309,9.309s4.168,9.309,9.309,9.309h74.473
		c5.141,0,9.309-4.168,9.309-9.309S88.923,183.959,83.782,183.959z"/>
	<path style="fill:#314E55;" d="M38.955,79.423c-3.636-3.636-9.527-3.636-13.164,0c-3.636,3.636-3.636,9.527,0,13.164L77.2,143.996
		c1.818,1.818,4.2,2.727,6.582,2.727s4.764-0.909,6.582-2.727c3.636-3.636,3.636-9.527,0-13.164L38.955,79.423z"/>
	<path style="fill:#314E55;" d="M77.2,242.541L25.791,293.95c-3.636,3.636-3.636,9.527,0,13.164c1.818,1.818,4.2,2.727,6.582,2.727
		c2.382,0,4.764-0.909,6.582-2.727l51.409-51.409c3.636-3.636,3.636-9.527,0-13.164C86.727,238.905,80.836,238.905,77.2,242.541z"/>
</g>
<g>
</g>
<g>
</g>
<g>
</g>
<g>
</g>
<g>
</g>
<g>
</g>
<g>
</g>
<g>
</g>
<g>
</g>
<g>
</g>
<g>
</g>
<g>
</g>
<g>
</g>
<g>
</g>
<g>
</g>
</svg>
