<?xml version="1.0" encoding="iso-8859-1"?>
<!-- Generator: Adobe Illustrator 19.0.0, SVG Export Plug-In . SVG Version: 6.00 Build 0)  -->
<svg version="1.1" id="Layer_1" xmlns="http://www.w3.org/2000/svg" xmlns:xlink="http://www.w3.org/1999/xlink" x="0px" y="0px"
	 viewBox="0 0 512 512" style="enable-background:new 0 0 512 512;" xml:space="preserve">
<path style="fill:#314E55;" d="M404.211,368.281h-8.982v-98.807c0-4.961-4.018-8.982-8.982-8.982h-8.982v-98.807
	c0-4.961-4.018-8.982-8.982-8.982h-8.982V44.912c0-4.961-4.018-8.982-8.982-8.982H62.877c-4.965,0-8.982,4.022-8.982,8.982v107.789
	h-8.982c-4.965,0-8.982,4.022-8.982,8.982v98.807h-8.982c-4.965,0-8.982,4.022-8.982,8.982v98.807H8.982
	c-4.965,0-8.982,4.022-8.982,8.982v116.772c0,4.961,4.018,8.982,8.982,8.982h395.228c4.965,0,8.982-4.022,8.982-8.982V377.263
	C413.193,372.303,409.175,368.281,404.211,368.281z"/>
<g>
	<rect x="71.86" y="53.895" style="fill:#E9E7D1;" width="269.474" height="98.807"/>
	<polygon style="fill:#E9E7D1;" points="53.895,170.667 62.877,170.667 350.316,170.667 359.298,170.667 359.298,260.491 
		53.895,260.491 	"/>
	<polygon style="fill:#E9E7D1;" points="35.93,278.456 44.912,278.456 368.281,278.456 377.263,278.456 377.263,368.281 
		35.93,368.281 	"/>
	<polygon style="fill:#E9E7D1;" points="395.228,485.053 17.965,485.053 17.965,386.246 26.947,386.246 386.246,386.246 
		395.228,386.246 	"/>
</g>
<path style="fill:#314E55;" d="M341.333,404.211c-14.86,0-26.947,12.088-26.947,26.947s12.088,26.947,26.947,26.947
	s26.947-12.088,26.947-26.947S356.193,404.211,341.333,404.211z"/>
<circle style="fill:#E9E7D1;" cx="341.333" cy="431.158" r="8.982"/>
<path style="fill:#314E55;" d="M71.86,404.211c-14.86,0-26.947,12.088-26.947,26.947S57,458.105,71.86,458.105
	s26.947-12.088,26.947-26.947S86.719,404.211,71.86,404.211z"/>
<circle style="fill:#E9E7D1;" cx="71.86" cy="431.158" r="8.982"/>
<path style="fill:#314E55;" d="M89.825,296.421c-14.86,0-26.947,12.088-26.947,26.947c0,14.86,12.088,26.947,26.947,26.947
	s26.947-12.088,26.947-26.947C116.772,308.509,104.684,296.421,89.825,296.421z"/>
<circle style="fill:#E9E7D1;" cx="89.825" cy="323.368" r="8.982"/>
<path style="fill:#314E55;" d="M323.368,296.421c-14.86,0-26.947,12.088-26.947,26.947c0,14.86,12.088,26.947,26.947,26.947
	c14.86,0,26.947-12.088,26.947-26.947C350.316,308.509,338.228,296.421,323.368,296.421z"/>
<circle style="fill:#E9E7D1;" cx="323.368" cy="323.368" r="8.982"/>
<path style="fill:#314E55;" d="M107.789,188.632c-14.86,0-26.947,12.088-26.947,26.947s12.088,26.947,26.947,26.947
	s26.947-12.088,26.947-26.947S122.649,188.632,107.789,188.632z"/>
<circle style="fill:#E9E7D1;" cx="107.789" cy="215.579" r="8.982"/>
<path style="fill:#314E55;" d="M305.404,188.632c-14.86,0-26.947,12.088-26.947,26.947s12.088,26.947,26.947,26.947
	s26.947-12.088,26.947-26.947S320.263,188.632,305.404,188.632z"/>
<circle style="fill:#E9E7D1;" cx="305.404" cy="215.579" r="8.982"/>
<path style="fill:#314E55;" d="M125.754,80.842c-14.86,0-26.947,12.088-26.947,26.947s12.088,26.947,26.947,26.947
	s26.947-12.088,26.947-26.947S140.614,80.842,125.754,80.842z"/>
<circle style="fill:#E9E7D1;" cx="125.754" cy="107.789" r="8.982"/>
<path style="fill:#314E55;" d="M287.439,80.842c-14.86,0-26.947,12.088-26.947,26.947s12.088,26.947,26.947,26.947
	s26.947-12.088,26.947-26.947S302.298,80.842,287.439,80.842z"/>
<circle style="fill:#E9E7D1;" cx="287.439" cy="107.789" r="8.982"/>
<path style="fill:#314E55;" d="M458.105,215.579c0-16.265-10.931-29.884-25.786-34.294c0.105-0.549,0.33-1.055,0.33-1.636V17.965
	c0-4.961-4.018-8.982-8.982-8.982s-8.982,4.022-8.982,8.982v161.684c0,0.271,0.13,0.499,0.154,0.763
	c-16.305,3.398-28.593,17.871-28.593,35.167c0,19.811,16.114,35.93,35.93,35.93S458.105,235.39,458.105,215.579z"/>
<path style="fill:#E65F58;" d="M422.175,233.544c-9.904,0-17.965-8.057-17.965-17.965s8.061-17.965,17.965-17.965
	c9.904,0,17.965,8.057,17.965,17.965S432.079,233.544,422.175,233.544z"/>
<path style="fill:#314E55;" d="M486.214,271.11c0.105-0.549,0.33-1.055,0.33-1.636V107.789c0-4.961-4.018-8.982-8.982-8.982
	s-8.982,4.022-8.982,8.982v161.684c0,0.271,0.13,0.499,0.154,0.763c-16.305,3.398-28.593,17.871-28.593,35.167
	c0,19.811,16.114,35.93,35.93,35.93c19.816,0,35.93-16.118,35.93-35.93C512,289.138,501.069,275.52,486.214,271.11z"/>
<path style="fill:#E65F58;" d="M476.07,323.368c-9.904,0-17.965-8.057-17.965-17.965s8.061-17.965,17.965-17.965
	c9.904,0,17.965,8.057,17.965,17.965C494.035,315.311,485.974,323.368,476.07,323.368z"/>
<g>
</g>
<g>
</g>
<g>
</g>
<g>
</g>
<g>
</g>
<g>
</g>
<g>
</g>
<g>
</g>
<g>
</g>
<g>
</g>
<g>
</g>
<g>
</g>
<g>
</g>
<g>
</g>
<g>
</g>
</svg>
