<?xml version="1.0" encoding="iso-8859-1"?>
<!-- Generator: Adobe Illustrator 19.0.0, SVG Export Plug-In . SVG Version: 6.00 Build 0)  -->
<svg version="1.1" id="Layer_1" xmlns="http://www.w3.org/2000/svg" xmlns:xlink="http://www.w3.org/1999/xlink" x="0px" y="0px"
	 viewBox="0 0 512 512" style="enable-background:new 0 0 512 512;" xml:space="preserve">
<path style="fill:#314E55;" d="M511.002,220.468c-1.534-2.989-4.62-4.866-7.978-4.866H443.59l-78.241-69.547
	c-1.639-1.464-3.761-2.271-5.962-2.271h-98.75c-4.962,0-8.977,4.015-8.977,8.977v62.841H45.184c-4.962,0-8.977,4.015-8.977,8.977
	v125.681c0,4.962,4.015,8.977,8.977,8.977h26.932v44.886c0,3.314,1.824,6.356,4.743,7.916c1.324,0.71,2.779,1.061,4.234,1.061
	c1.745,0,3.48-0.509,4.98-1.508l78.533-52.355H350.56c37.855,0,84.696-24.109,106.631-54.889l53.145-74.562
	C512.281,227.052,512.544,223.458,511.002,220.468z"/>
<g>
	<polygon style="fill:#73C9C9;" points="416.574,215.602 332.456,215.602 332.456,161.739 355.978,161.739 	"/>
	<rect x="269.609" y="161.739" style="fill:#73C9C9;" width="44.886" height="53.863"/>
</g>
<polygon style="fill:#D8D8D8;" points="90.07,387.353 90.07,359.238 132.241,359.238 "/>
<path style="fill:#EA86A5;" d="M442.568,293.934c-18.296,25.661-60.43,47.35-92.008,47.35H54.162V233.557h206.477h179.545h45.421
	L442.568,293.934z"/>
<path style="fill:#314E55;" d="M90.07,197.648h17.954h35.909c14.851,0,26.932-12.081,26.932-26.932
	c0-14.851-12.081-26.932-26.932-26.932H90.07c-14.851,0-26.932,12.081-26.932,26.932c0,3.163,0.649,6.155,1.655,8.977H8.977
	c-4.962,0-8.977,4.015-8.977,8.977c0,0.524,0.212,0.978,0.298,1.478v160.113c0,4.962,4.015,8.977,8.977,8.977
	s8.977-4.015,8.977-8.977V197.648H90.07z"/>
<path style="fill:#EA86A5;" d="M81.093,170.716c0-5.032,3.945-8.977,8.977-8.977h53.863c5.032,0,8.977,3.945,8.977,8.977
	c0,5.032-3.945,8.977-8.977,8.977h-35.909H90.07C85.038,179.693,81.093,175.748,81.093,170.716z"/>
<g>
	<path style="fill:#314E55;" d="M458.137,395.147c-4.962,0-8.977,4.015-8.977,8.977c0,9.898-8.057,17.954-17.954,17.954
		s-17.954-8.057-17.954-17.954c0-4.962-4.015-8.977-8.977-8.977c-4.962,0-8.977,4.015-8.977,8.977
		c0,9.898-8.057,17.954-17.954,17.954s-17.954-8.057-17.954-17.954c0-4.962-4.015-8.977-8.977-8.977
		c-4.962,0-8.977,4.015-8.977,8.977c0,9.898-8.057,17.954-17.954,17.954c-9.898,0-17.954-8.057-17.954-17.954
		c0-4.962-4.015-8.977-8.977-8.977c-4.962,0-8.977,4.015-8.977,8.977c0,19.804,16.105,35.909,35.909,35.909
		c10.777,0,20.345-4.868,26.932-12.407c6.587,7.539,16.155,12.407,26.932,12.407s20.345-4.868,26.932-12.407
		c6.587,7.539,16.155,12.407,26.932,12.407c19.804,0,35.909-16.105,35.909-35.909C467.115,399.163,463.1,395.147,458.137,395.147z"
		/>
	<path style="fill:#314E55;" d="M161.888,116.853c10.777,0,20.345-4.868,26.932-12.407c6.587,7.539,16.155,12.407,26.932,12.407
		c19.804,0,35.909-16.105,35.909-35.909c0-4.962-4.015-8.977-8.977-8.977s-8.977,4.015-8.977,8.977
		c0,9.898-8.057,17.954-17.954,17.954c-9.898,0-17.954-8.057-17.954-17.954c0-4.962-4.015-8.977-8.977-8.977
		s-8.977,4.015-8.977,8.977c0,9.898-8.057,17.954-17.954,17.954c-9.898,0-17.954-8.057-17.954-17.954
		c0-4.962-4.015-8.977-8.977-8.977s-8.977,4.015-8.977,8.977C125.979,100.748,142.084,116.853,161.888,116.853z"/>
</g>
<g>
</g>
<g>
</g>
<g>
</g>
<g>
</g>
<g>
</g>
<g>
</g>
<g>
</g>
<g>
</g>
<g>
</g>
<g>
</g>
<g>
</g>
<g>
</g>
<g>
</g>
<g>
</g>
<g>
</g>
</svg>
