<?xml version="1.0" encoding="utf-8"?>
<!-- Generator: Adobe Illustrator 19.1.0, SVG Export Plug-In . SVG Version: 6.00 Build 0)  -->
<!DOCTYPE svg PUBLIC "-//W3C//DTD SVG 1.1//EN" "http://www.w3.org/Graphics/SVG/1.1/DTD/svg11.dtd">
<svg version="1.1" id="Layer_1" xmlns="http://www.w3.org/2000/svg" xmlns:xlink="http://www.w3.org/1999/xlink" x="0px" y="0px"
	 width="75px" height="44.8px" viewBox="0 0 75 44.8" style="enable-background:new 0 0 75 44.8;" xml:space="preserve">
<g>
	<path d="M18.5,44.8c-2.8,0-8.4-0.8-13.8-6.2c-4-4-4.7-8.1-4.7-10.9c0.1-3,1.1-5.1,1.1-5.2c0.2-0.3,0.5-0.5,0.8-0.6
		c7.5-0.9,13.5,3.5,13.8,3.7c0.1,0.1,0.1,0.1,0.2,0.2l11.6,13.9c0.4,0.5,0.3,1.1-0.1,1.5c-0.5,0.4-1.1,0.3-1.5-0.1L14.3,27.2
		c-0.7-0.5-5.6-3.7-11.5-3.3c-0.3,0.7-0.7,2.1-0.7,3.8c0,3.4,1.3,6.5,4.1,9.2c6.7,6.7,13.7,5.5,13.8,5.5c0.6-0.1,1.1,0.3,1.3,0.9
		c0.1,0.6-0.3,1.1-0.9,1.3C20.3,44.7,19.6,44.8,18.5,44.8"/>
	<path d="M28.9,40.8c0-0.1-4.8-11.8-9.2-18.9c-2.4-3.9-5.6-5.7-7.4-6.4c0,0.7,0.3,2.2,1.2,4.8c0.9,2.6,2,5,2.5,5.7l-1.8,1.2
		c-0.7-1.1-2-3.8-2.9-6.6c-1.8-5.5-1.1-6.5-0.8-6.9c0.4-0.6,1.2-0.8,1.9-0.5c1.7,0.6,6,2.7,9,7.6c2.4,3.8,4.8,8.8,6.4,12.4
		c1.8,3.8,3,6.8,3,6.9L28.9,40.8z"/>
	<path d="M36.4,39.3l-0.3-17.5c-2.7-2.9-7.2-6.6-9.2-6.4c-1.7,0.2-4.8,3-5.3,6l-2.1-0.4c0.3-1.8,1.3-3.6,2.7-5.2
		c1.4-1.5,3-2.5,4.4-2.6c1.8-0.2,4.2,1,7.3,3.6c2.2,1.8,3.9,3.7,4,3.7l0.3,0.3l0.3,18.4L36.4,39.3z"/>
	<path d="M55.5,44.7c-0.5,0-0.8,0-0.9,0c-0.6-0.1-1-0.6-1-1.2c0.1-0.6,0.6-1,1.2-1c0,0,2,0.2,4.7-0.5c3.6-0.8,6.8-2.6,9.4-5.2
		c2.6-2.6,3.9-5.6,3.9-9c0-1.7-0.3-3.2-0.6-3.9c-6.4-0.5-10.8,2.8-11.4,3.2L49.1,41.1c-0.4,0.5-1.1,0.5-1.5,0.1
		c-0.5-0.4-0.5-1.1-0.1-1.5l11.8-14c0,0,0.1-0.1,0.1-0.1c0.2-0.2,5.7-4.6,13.8-3.7c0.4,0,0.7,0.3,0.9,0.7c0,0.1,0.9,2.2,0.9,5.3
		c0,2.8-0.8,6.9-4.5,10.7C64.7,44.1,57.9,44.7,55.5,44.7"/>
	<path d="M46,40.8l-2-0.8c0.2-0.5,5.1-12.1,9.7-19.4c3-4.9,7.3-6.9,9-7.6c0.8-0.3,1.5-0.1,1.9,0.5c0.3,0.4,1.1,1.4-0.8,6.9
		c-0.9,2.7-2.1,5.5-2.9,6.6l-1.8-1.2c0.5-0.7,1.6-3,2.5-5.7c0.9-2.5,1.1-4,1.2-4.8c-1.7,0.8-5,2.6-7.4,6.4
		C51.1,28.8,46.1,40.7,46,40.8"/>
	<path d="M38.6,38.1L36.5,38l0.5-17.3l0.3-0.3c0.1-0.1,1.8-1.9,4-3.7c3.1-2.6,5.5-3.8,7.3-3.6c1.4,0.2,3,1.1,4.4,2.6
		c1.5,1.5,2.4,3.4,2.7,5.2l-2.1,0.4c-0.2-1.4-1-2.9-2.2-4.1c-1-1.1-2.2-1.8-3.1-1.9c-2-0.2-6.4,3.5-9.2,6.4L38.6,38.1z"/>
	<path d="M32.7,18.5c-2.7-5.7,0.1-12.7,2.2-16C35.4,1.8,36.5,0,37.7,0c0.7,0,1.4,0.6,2.2,1.8c1.2,1.9,2.3,4.6,2.9,7.2
		c0.8,3.5,0.6,6.8-0.5,9.4l-2-0.8c1.5-3.5,0.6-7.7-0.1-9.8c-0.9-2.8-2-4.7-2.6-5.4c-0.7,0.7-1.9,2.7-2.9,5.4c-1.6,4.8-1,7.9-0.1,9.8
		L32.7,18.5z"/>
	<path d="M54.7,44.7c-0.1,0-0.3,0-0.4-0.1c-0.4-0.2-0.8-0.3-1.2-0.4c-5.5-2.1-9.2-3.4-15.6-3.4c-6.6,0-10.5,1.4-16.4,3.6l-0.7,0.2
		c-0.6,0.2-1.2-0.1-1.4-0.6c-0.2-0.6,0.1-1.2,0.6-1.4l0.7-0.2c5.9-2.2,10.1-3.8,17.1-3.8c6.8,0,10.8,1.5,16.3,3.6
		c0.4,0.1,0.8,0.3,1.2,0.4c0.6,0.2,0.8,0.8,0.6,1.4C55.6,44.4,55.2,44.7,54.7,44.7"/>
</g>
</svg>
