<svg xmlns="http://www.w3.org/2000/svg" width="38.06" height="38.4" viewBox="0 0 38.06 38.4"><defs><style>.cls-1{fill:#005678;}</style></defs><title>icon-cart</title><g id="Layer_2" data-name="Layer 2"><g id="Layer_1-2" data-name="Layer 1"><path class="cls-1" d="M12.42,16.1A1.6,1.6,0,0,0,14,14.5V8.26a5.06,5.06,0,1,1,10.12,0V14.5a1.6,1.6,0,1,0,3.2,0V8.26a8.26,8.26,0,1,0-16.52,0V14.5a1.6,1.6,0,0,0,1.6,1.6Z"/><path class="cls-1" d="M37.43,12.5h-8.5v2a3.2,3.2,0,0,1-6.4,0v-2H15.62v2a3.2,3.2,0,0,1-6.4,0v-2H.63a.6.6,0,0,0-.61.78l5.6,22.8a3.28,3.28,0,0,0,3,2.32h20.8a3.28,3.28,0,0,0,3-2.32L38,13.28a.6.6,0,0,0-.61-.78Zm0,0"/></g></g></svg>