<?xml version="1.0" encoding="utf-8"?>
<!-- Generator: Adobe Illustrator 19.1.0, SVG Export Plug-In . SVG Version: 6.00 Build 0)  -->
<!DOCTYPE svg PUBLIC "-//W3C//DTD SVG 1.1//EN" "http://www.w3.org/Graphics/SVG/1.1/DTD/svg11.dtd">
<svg version="1.1" id="Layer_1" xmlns="http://www.w3.org/2000/svg" xmlns:xlink="http://www.w3.org/1999/xlink" x="0px" y="0px"
	 width="24px" height="30px" viewBox="0 0 24 30" style="enable-background:new 0 0 24 30;" xml:space="preserve">
<style type="text/css">
	.st0{fill:#0A0C15;}
</style>
<g id="_x31_-user_-_single">
	<g>
		<path class="st0" d="M16.4,16.8C19.1,15.3,21,12.4,21,9c0-5-4-9-9-9C7,0,3,4,3,9c0,3.4,1.9,6.3,4.6,7.8C3.2,18.6,0,22.9,0,28v2h2
			v-2c0-5.5,4.5-10,10-10c5.5,0,10,4.5,10,10v2h2v-2C24,22.9,20.8,18.6,16.4,16.8z M5,9c0-3.9,3.1-7,7-7c3.9,0,7,3.1,7,7
			c0,3.9-3.1,7-7,7C8.1,16,5,12.9,5,9z"/>
	</g>
</g>
</svg>
