<?xml version="1.0" encoding="utf-8"?>
<!-- Generator: Adobe Illustrator 19.1.0, SVG Export Plug-In . SVG Version: 6.00 Build 0)  -->
<!DOCTYPE svg PUBLIC "-//W3C//DTD SVG 1.1//EN" "http://www.w3.org/Graphics/SVG/1.1/DTD/svg11.dtd">
<svg version="1.1" id="Layer_1" xmlns="http://www.w3.org/2000/svg" xmlns:xlink="http://www.w3.org/1999/xlink" x="0px" y="0px"
	 width="32px" height="32px" viewBox="0 0 32 32" style="enable-background:new 0 0 32 32;" xml:space="preserve">
<g id="_x33_5-interface_-_search">
	<g>
		<path d="M31.7,30.4l-8.9-8.9c2-2.3,3.2-5.2,3.2-8.5c0-7.2-5.8-13-13-13C5.8,0,0,5.8,0,13c0,7.2,5.8,13,13,13
			c3.2,0,6.2-1.2,8.5-3.2l8.9,8.9c0.4,0.4,1,0.4,1.3,0C32.1,31.3,32.1,30.7,31.7,30.4z M13,24C6.9,24,2,19.1,2,13C2,6.9,6.9,2,13,2
			c6.1,0,11,4.9,11,11C24,19.1,19.1,24,13,24z"/>
	</g>
</g>
</svg>
