<?xml version="1.0" encoding="utf-8"?>
<!-- Generator: Adobe Illustrator 19.2.0, SVG Export Plug-In . SVG Version: 6.00 Build 0)  -->
<!DOCTYPE svg PUBLIC "-//W3C//DTD SVG 1.1//EN" "http://www.w3.org/Graphics/SVG/1.1/DTD/svg11.dtd">
<svg version="1.1" id="Isolation_Mode" xmlns="http://www.w3.org/2000/svg" xmlns:xlink="http://www.w3.org/1999/xlink" x="0px"
	 y="0px" width="30px" height="32px" viewBox="0 0 30 32" style="enable-background:new 0 0 30 32;" xml:space="preserve">
<style type="text/css">
	.st0{fill-rule:evenodd;clip-rule:evenodd;fill:#3D4042;}
</style>
<title>icon-gift</title>
<g id="_x31_5-ecomerce_-_gift_wishlist">
	<path class="st0" d="M22.3,6c0.3-0.6,0.6-1.3,0.6-2c0-2.2-1.8-4-4-4c-1.2,0-2.3,0.5-3,1.4c-0.7-0.8-1.8-1.4-3-1.4c-2.2,0-4,1.8-4,4
		c0,0.7,0.2,1.4,0.6,2H0.9v6h2v8v2v10h12h2h12V22v-2v-8h2V6H22.3z M18.9,2c1.1,0,2,0.9,2,2c0,1.1-0.9,2-2,2c-1.1,0-2-0.9-2-2
		C16.9,2.9,17.8,2,18.9,2z M12.9,2c1.1,0,2,0.9,2,2c0,1.1-0.9,2-2,2c-1.1,0-2-0.9-2-2C10.9,2.9,11.8,2,12.9,2z M14.9,30h-10v-8h10
		V30z M14.9,20h-10v-8h10V20z M26.9,30h-10v-8h10V30z M26.9,20h-10v-8h10V20z M28.9,10h-26V8h26V10z"/>
</g>
</svg>
