<?xml version="1.0" encoding="utf-8"?>
<!-- Generator: Adobe Illustrator 18.1.1, SVG Export Plug-In . SVG Version: 6.00 Build 0)  -->
<!DOCTYPE svg PUBLIC "-//W3C//DTD SVG 1.1//EN" "http://www.w3.org/Graphics/SVG/1.1/DTD/svg11.dtd">
<svg version="1.1" id="Layer_1" xmlns="http://www.w3.org/2000/svg" xmlns:xlink="http://www.w3.org/1999/xlink" x="0px" y="0px" width="24px" height="24px"
	 viewBox="0 0 19 20" enable-background="new 0 0 19 20" xml:space="preserve">
<path fill-rule="evenodd" clip-rule="evenodd" fill="#FFFFFF" d="M8.7,4.7C8.4,2.6,7,0.9,5.5,0.9S3.1,2.4,3.3,4.5
	C3.6,6.6,5,8.4,6.5,8.4S8.9,6.8,8.7,4.7z M6.3,12.5c-2.2,0-4.2,1.5-4.2,3.2c0,1.8,1.6,3.3,3.8,3.3c3.1,0,4.2-1.4,4.2-3.2
	c0-0.2,0-0.4-0.1-0.6c-0.2-1-1.1-1.5-2.3-2.4C7.3,12.6,6.8,12.5,6.3,12.5z M8.9,1c1.2,0.5,1.8,2,1.8,3.6c0,1.3-0.7,2.4-1.6,3.2
	C8.2,8.6,8,8.9,8,9.6c0,0.6,1,1.5,1.5,1.9c1.5,1.2,2,2.2,2,4c0,2.2-2,4.5-5.7,4.5C2.7,20,0,18.6,0,16.4c0-2.3,2.5-4.5,5.7-4.5l1,0
	c-0.4-0.5-0.8-1-0.8-1.7C5.9,9.8,6,9.4,6.2,9C6,9,5.8,9,5.6,9C3,9,1.2,7,1.2,4.5c0-2.4,2.4-4.5,5-4.5H12l-1.3,1H8.9z M19,5h-2v2h-2
	V5h-2V3h2V1h2v2h2V5z"/>
</svg>
