<?xml version="1.0" encoding="utf-8"?>
<!-- Generator: Adobe Illustrator 18.1.1, SVG Export Plug-In . SVG Version: 6.00 Build 0)  -->
<!DOCTYPE svg PUBLIC "-//W3C//DTD SVG 1.1//EN" "http://www.w3.org/Graphics/SVG/1.1/DTD/svg11.dtd">
<svg version="1.1" id="Layer_1" xmlns="http://www.w3.org/2000/svg" xmlns:xlink="http://www.w3.org/1999/xlink" x="0px" y="0px"
	 viewBox="0 0 23 20" enable-background="new 0 0 23 20" xml:space="preserve" width="16" height="16">
<path fill="#33ccff" d="M23,2.4c-0.9,0.4-1.8,0.7-2.7,0.8c1-0.6,1.7-1.6,2.1-2.8c-0.9,0.6-1.9,1-3,1.2c-0.9-1-2.1-1.6-3.5-1.6
	c-2.6,0-4.7,2.3-4.7,5.1c0,0.4,0,0.8,0.1,1.1C7.4,6,3.9,4,1.6,0.9C1.2,1.7,1,2.5,1,3.5c0,1.8,0.8,3.3,2.1,4.2C2.3,7.6,1.6,7.4,0.9,7
	v0.1c0,2.4,1.6,4.5,3.8,5c-0.4,0.1-0.8,0.2-1.2,0.2c-0.3,0-0.6,0-0.9-0.1c0.6,2,2.3,3.5,4.4,3.5c-1.6,1.3-3.6,2.2-5.9,2.2
	c-0.4,0-0.8,0-1.1-0.1C2.1,19.2,4.6,20,7.2,20c8.7,0,13.4-7.7,13.4-14.4l0-0.7C21.6,4.3,22.4,3.4,23,2.4z"/>
</svg>
