<?xml version="1.0" encoding="utf-8"?>
<!-- Generator: Adobe Illustrator 19.1.0, SVG Export Plug-In . SVG Version: 6.00 Build 0)  -->
<!DOCTYPE svg PUBLIC "-//W3C//DTD SVG 1.1//EN" "http://www.w3.org/Graphics/SVG/1.1/DTD/svg11.dtd">
<svg version="1.1" id="Layer_1" xmlns="http://www.w3.org/2000/svg" xmlns:xlink="http://www.w3.org/1999/xlink" x="0px" y="0px"
	 width="28px" height="21.9px" viewBox="0 0 28 21.9" style="enable-background:new 0 0 28 21.9;" xml:space="preserve">
<style type="text/css">
	.st0{fill:#3D4042;}
</style>
<g id="_x33_-interface_-_arrow_left">
	<g>
		<path class="st0" d="M27,10H3.5l9.2-8.3c0.4-0.4,0.4-1,0-1.4c-0.4-0.4-1-0.4-1.4,0l-11,9.9c0,0-0.1,0-0.1,0C0.1,10.5,0,10.7,0,11
			c0,0.3,0.1,0.5,0.3,0.7c0,0,0.1,0,0.1,0l11,9.9c0.4,0.4,1,0.4,1.4,0c0.4-0.4,0.4-1,0-1.4L3.5,12H27c0.6,0,1-0.4,1-1
			C28,10.4,27.5,10,27,10z"/>
	</g>
</g>
</svg>
