<?xml version="1.0" encoding="utf-8"?>
<!-- Generator: Adobe Illustrator 19.0.1, SVG Export Plug-In . SVG Version: 6.00 Build 0)  -->
<!DOCTYPE svg PUBLIC "-//W3C//DTD SVG 1.1//EN" "http://www.w3.org/Graphics/SVG/1.1/DTD/svg11.dtd">
<svg version="1.1" id="Arrow_1_" xmlns="http://www.w3.org/2000/svg" xmlns:xlink="http://www.w3.org/1999/xlink" x="0px" y="0px"
	 width="16px" height="16px" viewBox="-229 31 500 500" style="enable-background:new -229 31 500 500;" xml:space="preserve">
<style type="text/css">
	.st0{fill:#FFFFFF;}
</style>
<g>
	<g id="tumblr-icon">
		<path class="st0" d="M-31.4,31c-3.2,25.8-9,47-17.4,63.6c-8.4,16.7-19.6,31-33.6,42.9s-30.7,21-50.3,27.4v71.2h54.8v175.2
			c0,22.8,2.4,40.3,7.2,52.3s13.4,23.4,25.8,34.1c12.4,10.7,27.4,18.9,44.9,24.7c17.5,5.8,37.7,8.6,60.6,8.6c20.1,0,38.8-2,56.2-6.1
			c17.3-4,36.6-11.1,58-21.1v-78.6c-25.1,16.5-50.2,24.7-75.5,24.7c-14.2,0-26.9-3.3-37.9-10c-8.3-4.9-14.1-11.5-17.1-19.7
			c-3.1-8.2-4.6-26.8-4.6-55.8V236.1h118.7v-78.5H39.5V31H-31.4z"/>
	</g>
</g>
</svg>
