<?xml version="1.0" encoding="utf-8"?>
<!-- Generator: Adobe Illustrator 19.1.0, SVG Export Plug-In . SVG Version: 6.00 Build 0)  -->
<!DOCTYPE svg PUBLIC "-//W3C//DTD SVG 1.1//EN" "http://www.w3.org/Graphics/SVG/1.1/DTD/svg11.dtd">
<svg version="1.1" id="Layer_1" xmlns="http://www.w3.org/2000/svg" xmlns:xlink="http://www.w3.org/1999/xlink" x="0px" y="0px"
	 width="24px" height="32px" viewBox="0 0 24 32" style="enable-background:new 0 0 24 32;" xml:space="preserve">
<g id="_x31_2-ecommerce_-_market_bag_shop">
	<g>
		<path d="M22,6h-4V5c0-2.8-2.2-5-5-5h-2C8.2,0,6,2.2,6,5v1H2C0.9,6,0,6.9,0,8v22c0,1.1,0.9,2,2,2h20c1.1,0,2-0.9,2-2V8
			C24,6.9,23.1,6,22,6z M8,5c0-1.7,1.3-3,3-3h2c1.7,0,3,1.3,3,3v1H8V5z M22,29c0,0.6-0.4,1-1,1H3c-0.6,0-1-0.4-1-1v-3h20V29z M22,24
			H2V9c0-0.6,0.4-1,1-1h3v4h2V8h8v4h2V8h3c0.6,0,1,0.4,1,1V24z"/>
	</g>
</g>
</svg>
