<?xml version="1.0" encoding="utf-8"?>
<!-- Generator: Adobe Illustrator 19.1.0, SVG Export Plug-In . SVG Version: 6.00 Build 0)  -->
<!DOCTYPE svg PUBLIC "-//W3C//DTD SVG 1.1//EN" "http://www.w3.org/Graphics/SVG/1.1/DTD/svg11.dtd">
<svg version="1.1" id="Layer_1" xmlns="http://www.w3.org/2000/svg" xmlns:xlink="http://www.w3.org/1999/xlink" x="0px" y="0px"
	 width="28px" height="21.9px" viewBox="-465 270.1 28 21.9" style="enable-background:new -465 270.1 28 21.9;"
	 xml:space="preserve">
<style type="text/css">
	.st0{fill:#3D4042;}
</style>
<g id="_x33_-interface_-_arrow_left">
	<g>
		<path class="st0" d="M-464,282h23.5l-9.2,8.3c-0.4,0.4-0.4,1,0,1.4c0.4,0.4,1,0.4,1.4,0l11-9.9h0.1c0.1-0.3,0.2-0.5,0.2-0.8
			c0-0.3-0.1-0.5-0.3-0.7h-0.1l-11-9.9c-0.4-0.4-1-0.4-1.4,0c-0.4,0.4-0.4,1,0,1.4l9.3,8.2H-464c-0.6,0-1,0.4-1,1
			S-464.5,282-464,282z"/>
	</g>
</g>
</svg>
