<?xml version="1.0" encoding="utf-8"?>
<!-- Generator: Adobe Illustrator 21.0.2, SVG Export Plug-In . SVG Version: 6.00 Build 0)  -->
<svg version="1.1" id="Layer_1" xmlns="http://www.w3.org/2000/svg" xmlns:xlink="http://www.w3.org/1999/xlink" x="0px" y="0px"
	 viewBox="0 0 24 24" style="enable-background:new 0 0 24 24;" xml:space="preserve">
<style type="text/css">
	.st0{fill:#33CCFF;}
</style>
<path class="st0" d="M2,0C0.9,0,0,0.9,0,2v20c0,1.1,0.9,2,2,2h9.8v-9.2H8.9l0.2-4h2.8V7.9c0,0-0.4-3.9,4-3.9c4.3,0,3.3,0,3.3,0v3.7
	L17,7.9c0,0-1-0.5-1,0.3v2.6h3.8l-0.9,4H16v9.1h6c1.1,0,2-0.9,2-2V2c0-1.1-0.9-2-2-2H2z"/>
</svg>
