<?xml version="1.0" encoding="utf-8"?>
<!-- Generator: Adobe Illustrator 19.1.0, SVG Export Plug-In . SVG Version: 6.00 Build 0)  -->
<!DOCTYPE svg PUBLIC "-//W3C//DTD SVG 1.1//EN" "http://www.w3.org/Graphics/SVG/1.1/DTD/svg11.dtd">
<svg version="1.1" id="Layer_1" xmlns="http://www.w3.org/2000/svg" xmlns:xlink="http://www.w3.org/1999/xlink" x="0px" y="0px"
	 width="16px" height="16px" viewBox="-141 143 16 16" style="enable-background:new -141 143 16 16;" xml:space="preserve">
<path d="M-133,143c-4.4,0-8,3.6-8,8c0,3.3,2,6.1,4.8,7.3c0-0.5,0-1.2,0.1-1.9l1-4.3c0,0-0.3-0.5-0.3-1.3c0-1.2,0.7-2.1,1.5-2.1
	c0.7,0,1.1,0.5,1.1,1.2c0,0.7-0.5,1.8-0.7,2.9c-0.2,0.9,0.4,1.5,1.3,1.5c1.5,0,2.5-1.9,2.5-4.3c0-1.7-1.2-3.1-3.3-3.1
	c-2.4,0-3.9,1.8-3.9,3.8c0,0.7,0.2,1.2,0.5,1.6c0.1,0.2,0.1,0.3,0.1,0.5l-0.1,0.7c-0.1,0.2-0.2,0.3-0.4,0.2
	c-1.1-0.5-1.7-1.7-1.7-3.1c0.1-2.3,2-5.1,5.8-5.1c3.1,0,5.1,2.2,5.1,4.6c0,3.1-1.7,5.5-4.3,5.5c-0.9,0-1.7-0.5-1.9-1
	c0,0-0.5,1.9-0.5,2.2c-0.2,0.6-0.5,1.3-0.8,1.7c0.7,0.2,1.4,0.3,2.2,0.3c4.4,0,8-3.6,8-8S-128.6,143-133,143z"/>
</svg>
