<?xml version="1.0" encoding="utf-8"?>
<!-- Generator: Adobe Illustrator 19.1.0, SVG Export Plug-In . SVG Version: 6.00 Build 0)  -->
<!DOCTYPE svg PUBLIC "-//W3C//DTD SVG 1.1//EN" "http://www.w3.org/Graphics/SVG/1.1/DTD/svg11.dtd">
<svg version="1.1" id="Layer_1" xmlns="http://www.w3.org/2000/svg" xmlns:xlink="http://www.w3.org/1999/xlink" x="0px" y="0px"
	 width="28px" height="28px" viewBox="0 0 28 28" style="enable-background:new 0 0 28 28;" xml:space="preserve">
<style type="text/css">
	.st0{fill:#3D4042;}
</style>
<g id="_x35_1-interface_-_plus_add">
	<g>
		<path class="st0" d="M27,13H15V1c0-0.6-0.4-1-1-1c-0.6,0-1,0.4-1,1v12H1c-0.6,0-1,0.4-1,1c0,0.6,0.4,1,1,1h12v12c0,0.6,0.4,1,1,1
			c0.6,0,1-0.4,1-1V15h12c0.6,0,1-0.4,1-1C28,13.4,27.6,13,27,13z"/>
	</g>
</g>
</svg>
