<svg id="Layer_1" data-name="Layer 1" xmlns="http://www.w3.org/2000/svg" viewBox="0 0 329.39 329.39"><defs><style>.cls-1{fill:#fff;}</style></defs><title>logo-stillactive</title><path class="cls-1" d="M75.12,133.81l2.42-4.17a1.55,1.55,0,0,1,2.29-.47c.33.2,5.78,4.17,10.15,4.17,3.5,0,6.12-2.29,6.12-5.18,0-3.43-2.89-5.78-8.54-8.06-6.31-2.55-12.63-6.59-12.63-14.52,0-6,4.43-12.9,15.12-12.9a23.66,23.66,0,0,1,13.44,4.5,1.66,1.66,0,0,1,.4,2.22l-2.55,3.83A1.77,1.77,0,0,1,99,104c-.54-.33-5.65-3.7-9.34-3.7s-5.92,2.55-5.92,4.71c0,3.16,2.49,5.31,7.93,7.52,6.52,2.62,14,6.52,14,15.19,0,6.92-6,13.3-15.46,13.3-8.47,0-13.44-4-14.78-5.24-.6-.61-.94-.94-.33-2"/><path class="cls-1" d="M127.33,101.42H117a1.28,1.28,0,0,1-1.28-1.28V94.63A1.28,1.28,0,0,1,117,93.35h29.37a1.27,1.27,0,0,1,1.28,1.28v5.51a1.27,1.27,0,0,1-1.28,1.28H136.13v37.7a1.32,1.32,0,0,1-1.27,1.28h-6.25a1.32,1.32,0,0,1-1.28-1.28Z"/><path class="cls-1" d="M161.4,94.63a1.32,1.32,0,0,1,1.28-1.28h6.25a1.32,1.32,0,0,1,1.27,1.28v44.49a1.32,1.32,0,0,1-1.27,1.28h-6.25a1.32,1.32,0,0,1-1.28-1.28Z"/><path class="cls-1" d="M189.16,94.63a1.27,1.27,0,0,1,1.28-1.28h6.18a1.32,1.32,0,0,1,1.27,1.28v37.7H215a1.27,1.27,0,0,1,1.28,1.28v5.51a1.28,1.28,0,0,1-1.28,1.28h-24.6a1.28,1.28,0,0,1-1.28-1.28Z"/><path class="cls-1" d="M229.82,94.63a1.27,1.27,0,0,1,1.28-1.28h6.18a1.32,1.32,0,0,1,1.27,1.28v37.7h17.14a1.27,1.27,0,0,1,1.28,1.28v5.51a1.28,1.28,0,0,1-1.28,1.28h-24.6a1.28,1.28,0,0,1-1.28-1.28Z"/><path class="cls-1" d="M62.44,205l-6.72-14.78h-.21L48.94,205Zm-29,14.31,20.9-45.23a1.21,1.21,0,0,1,1.14-.74h.67a1.15,1.15,0,0,1,1.14.74L78,219.29A1.19,1.19,0,0,1,76.83,221H71a1.93,1.93,0,0,1-2-1.34l-3.29-7.26H45.65l-3.29,7.26a2,2,0,0,1-2,1.34H34.56a1.19,1.19,0,0,1-1.14-1.75"/><path class="cls-1" d="M111.3,173.32a22.74,22.74,0,0,1,16.26,6.25,1.24,1.24,0,0,1,.07,1.88l-4.1,4.23a1.07,1.07,0,0,1-1.68,0,15.9,15.9,0,0,0-10.35-4c-8.6,0-15,7.19-15,15.66a15.22,15.22,0,0,0,15.05,15.52,16.12,16.12,0,0,0,10.28-3.83,1.24,1.24,0,0,1,1.68,0l4.17,4.3a1.28,1.28,0,0,1-.07,1.82,23.06,23.06,0,0,1-16.33,6.52,24.19,24.19,0,1,1,0-48.39"/><path class="cls-1" d="M149.48,182.06H139.19a1.28,1.28,0,0,1-1.28-1.28v-5.51a1.28,1.28,0,0,1,1.28-1.28h29.37a1.27,1.27,0,0,1,1.28,1.28v5.51a1.27,1.27,0,0,1-1.28,1.28H158.28v37.7A1.32,1.32,0,0,1,157,221h-6.25a1.32,1.32,0,0,1-1.28-1.28Z"/><path class="cls-1" d="M183.55,175.27a1.32,1.32,0,0,1,1.28-1.28h6.25a1.32,1.32,0,0,1,1.27,1.28v44.49a1.32,1.32,0,0,1-1.27,1.28h-6.25a1.32,1.32,0,0,1-1.28-1.28Z"/><path class="cls-1" d="M205.19,175.74a1.19,1.19,0,0,1,1.14-1.75h6.85a1.24,1.24,0,0,1,1.14.74l12.9,28.9h.47l12.9-28.9a1.24,1.24,0,0,1,1.14-.74h6.85a1.19,1.19,0,0,1,1.14,1.75L228.91,221a1.2,1.2,0,0,1-1.14.74h-.67A1.21,1.21,0,0,1,226,221Z"/><path class="cls-1" d="M262.58,175.27a1.27,1.27,0,0,1,1.28-1.28h27.35a1.27,1.27,0,0,1,1.28,1.28v5.51a1.27,1.27,0,0,1-1.28,1.28H271.31v11h16.6a1.32,1.32,0,0,1,1.28,1.28v5.58a1.28,1.28,0,0,1-1.28,1.28h-16.6V213h19.89a1.27,1.27,0,0,1,1.28,1.28v5.51a1.28,1.28,0,0,1-1.28,1.28H263.86a1.28,1.28,0,0,1-1.28-1.28Z"/><path class="cls-1" d="M164.7,329.39C73.88,329.39,0,255.51,0,164.7S73.88,0,164.7,0s164.7,73.88,164.7,164.7S255.51,329.39,164.7,329.39ZM164.7,6C77.19,6,6,77.19,6,164.7s71.19,158.7,158.7,158.7,158.7-71.19,158.7-158.7S252.2,6,164.7,6Z"/></svg>