<svg xmlns="http://www.w3.org/2000/svg" viewBox="0 0 329.4 329.39"><defs><style>.cls-1{fill:#46c8f5;}</style></defs><title>logo-stillactive-blue</title><g id="Layer_2" data-name="Layer 2"><g id="Layer_1-2" data-name="Layer 1"><path class="cls-1" d="M75.12,133.8l2.42-4.17a1.55,1.55,0,0,1,2.11-.59l.18.12c.33.2,5.78,4.17,10.15,4.17,3.5,0,6.12-2.29,6.12-5.18,0-3.43-2.89-5.78-8.54-8.06-6.31-2.55-12.63-6.59-12.63-14.52,0-6,4.43-12.9,15.12-12.9a23.66,23.66,0,0,1,13.44,4.5,1.66,1.66,0,0,1,.4,2.22l-2.56,3.84A1.77,1.77,0,0,1,99,104c-.54-.33-5.65-3.7-9.34-3.7s-5.92,2.55-5.92,4.71c0,3.16,2.49,5.31,7.93,7.52,6.52,2.62,14,6.52,14,15.19,0,6.92-6,13.3-15.46,13.3-8.47,0-13.44-4-14.78-5.24-.6-.61-.94-.94-.33-2"/><path class="cls-1" d="M127.34,101.41H117.05a1.28,1.28,0,0,1-1.28-1.28V94.62a1.28,1.28,0,0,1,1.28-1.28h29.37a1.27,1.27,0,0,1,1.28,1.26s0,0,0,0v5.51a1.27,1.27,0,0,1-1.26,1.28h-10.3v37.7a1.32,1.32,0,0,1-1.27,1.28h-6.25a1.32,1.32,0,0,1-1.28-1.28Z"/><path class="cls-1" d="M161.41,94.62a1.32,1.32,0,0,1,1.28-1.28h6.25a1.32,1.32,0,0,1,1.27,1.28v44.49a1.32,1.32,0,0,1-1.27,1.28h-6.25a1.32,1.32,0,0,1-1.28-1.28Z"/><path class="cls-1" d="M189.16,94.62a1.27,1.27,0,0,1,1.26-1.28h6.2a1.32,1.32,0,0,1,1.27,1.28v37.7H215a1.27,1.27,0,0,1,1.28,1.26s0,0,0,0v5.51a1.28,1.28,0,0,1-1.28,1.28h-24.6a1.28,1.28,0,0,1-1.28-1.28Z"/><path class="cls-1" d="M229.82,94.62a1.27,1.27,0,0,1,1.26-1.28h6.2a1.32,1.32,0,0,1,1.27,1.28v37.7h17.14a1.27,1.27,0,0,1,1.28,1.26s0,0,0,0v5.51a1.28,1.28,0,0,1-1.28,1.28H231.1a1.28,1.28,0,0,1-1.28-1.28Z"/><path class="cls-1" d="M62.45,205l-6.72-14.75H55.5L48.91,205Zm-29,14.31,20.9-45.23a1.21,1.21,0,0,1,1.14-.74h.67a1.15,1.15,0,0,1,1.14.74L78,219.29A1.19,1.19,0,0,1,76.86,221H71a1.93,1.93,0,0,1-2-1.34l-3.29-7.26H45.65l-3.29,7.26a2,2,0,0,1-2,1.34h-5.8a1.19,1.19,0,0,1-1.14-1.75"/><path class="cls-1" d="M111.31,173.32a22.74,22.74,0,0,1,16.26,6.25,1.24,1.24,0,0,1,.2,1.74l-.13.14-4.1,4.23a1.07,1.07,0,0,1-1.68,0,15.9,15.9,0,0,0-10.35-4c-8.6,0-15,7.19-15,15.66a15.22,15.22,0,0,0,14.92,15.52h.13A16.12,16.12,0,0,0,121.84,209a1.24,1.24,0,0,1,1.68,0l4.17,4.3a1.28,1.28,0,0,1-.06,1.81h0a23.06,23.06,0,0,1-16.33,6.52,24.19,24.19,0,1,1,0-48.39"/><path class="cls-1" d="M149.5,182.06H139.2a1.28,1.28,0,0,1-1.28-1.28v-5.55A1.28,1.28,0,0,1,139.2,174h29.37a1.27,1.27,0,0,1,1.28,1.26s0,0,0,0v5.51a1.27,1.27,0,0,1-1.26,1.28H158.28v37.7A1.32,1.32,0,0,1,157,221h-6.25a1.32,1.32,0,0,1-1.28-1.28Z"/><path class="cls-1" d="M183.55,175.23a1.32,1.32,0,0,1,1.28-1.28h6.25a1.32,1.32,0,0,1,1.27,1.28v44.49a1.32,1.32,0,0,1-1.27,1.28h-6.25a1.32,1.32,0,0,1-1.28-1.28Z"/><path class="cls-1" d="M205.19,175.74a1.19,1.19,0,0,1,1.14-1.75h6.85a1.24,1.24,0,0,1,1.14.74l12.9,28.9h.47l12.9-28.9a1.24,1.24,0,0,1,1.14-.74h6.85a1.19,1.19,0,0,1,1.14,1.75L228.88,221a1.2,1.2,0,0,1-1.14.74h-.67a1.21,1.21,0,0,1-1.14-.74Z"/><path class="cls-1" d="M262.58,175.23a1.27,1.27,0,0,1,1.26-1.28h27.37a1.27,1.27,0,0,1,1.29,1.25s0,0,0,0v5.51a1.27,1.27,0,0,1-1.26,1.28H271.32v11h16.6a1.32,1.32,0,0,1,1.28,1.28v5.58a1.28,1.28,0,0,1-1.28,1.28h-16.6v11.76h19.89a1.27,1.27,0,0,1,1.29,1.25s0,0,0,.06v5.51a1.28,1.28,0,0,1-1.28,1.28H263.86a1.28,1.28,0,0,1-1.28-1.28Z"/><path class="cls-1" d="M164.7,329.39C73.89,329.39,0,255.51,0,164.69S73.89,0,164.7,0,329.4,73.88,329.4,164.7,255.5,329.39,164.7,329.39ZM164.7,6C77.2,6,6,77.23,6,164.69s71.19,158.7,158.7,158.7,158.7-71.16,158.7-158.7S252.21,6,164.7,6Z"/></g></g></svg>