<svg id="Layer_1" data-name="Layer 1" xmlns="http://www.w3.org/2000/svg" xmlns:xlink="http://www.w3.org/1999/xlink" width="421.17" height="220.19" viewBox="0 0 421.17 220.19"><defs><style>.cls-1{fill:none;}.cls-2{clip-path:url(#clip-path);}.cls-3{fill:#eb1778;}</style><clipPath id="clip-path" transform="translate(0 -0.81)"><rect class="cls-1" x="0.06" y="0.81" width="421.11" height="220.13"/></clipPath></defs><title>logo-indiegogo</title><g class="cls-2"><polyline class="cls-3" points="0 220.19 220.19 220.19 220.19 192.42 206.31 192.42 206.31 206.31 13.88 206.31 13.88 13.88 206.31 13.88 206.31 126.84 220.19 126.84 220.19 0 0 0 0 220.19"/></g><rect class="cls-3" x="48.38" y="133.64" width="13.89" height="51.97"/><polyline class="cls-3" points="97.77 157.7 83.74 133.65 69.15 133.65 69.15 185.61 82.34 185.61 82.34 158.61 82.55 158.62 98.47 185.61 111.23 185.61 111.23 133.65 97.98 133.65 97.98 157.7 97.77 157.7"/><path class="cls-3" d="M118.16,134.45v52h17.46c16.48,0,24.26-4.14,24.26-26,0-21.46-7.92-25.95-24.47-25.95H118.16m27.63,26c0,13.12-3.72,14-8.91,14H132V147.08h4.28C142.22,147.08,145.79,147.43,145.79,160.47Z" transform="translate(0 -0.81)"/><rect class="cls-3" x="164.86" y="133.64" width="13.88" height="51.97"/><path class="cls-3" d="M293.47,133.82c-19.35,0-22.79,12.69-22.79,26.65S274.12,187,293.47,187s22.72-12.69,22.72-26.58-3.37-26.65-22.72-26.65m0,41c-7.64,0-8.7-5.26-8.7-13.82s1.05-13.75,8.7-13.75,8.63,5.26,8.63,13.75S301,174.78,293.47,174.78Z" transform="translate(0 -0.81)"/><path class="cls-3" d="M390.81,133.82c-19.36,0-22.8,12.69-22.8,26.65S371.45,187,390.81,187s22.72-12.69,22.72-26.58-3.36-26.65-22.72-26.65m0,41c-7.65,0-8.7-5.26-8.7-13.82s1.05-13.75,8.7-13.75,8.62,5.26,8.62,13.75S398.38,174.78,390.81,174.78Z" transform="translate(0 -0.81)"/><path class="cls-3" d="M418,178.2c-2.53,0-3.15,1.71-3.15,4s.62,3.93,3.15,3.93,3.17-1.7,3.17-3.93-.65-4-3.17-4m0,7.33c-2.07,0-2.55-1.47-2.55-3.37s.48-3.38,2.55-3.38,2.56,1.46,2.56,3.38S420.08,185.52,418,185.52Z" transform="translate(0 -0.81)"/><path class="cls-3" d="M419.75,181.26c0-.94-.31-1.48-1.52-1.48h-1.8v4.7h1v-1.66H418l.73,1.66h1l-.79-1.75c.63-.21.82-.73.82-1.46m-1.57.78h-.79v-1.42h.79c.47,0,.62.2.62.71S418.65,182,418.18,182Z" transform="translate(0 -0.81)"/><path class="cls-3" d="M244.05,166.36h9v.91c0,5.74.18,8.28-6.66,8.28-6.38,0-8.56-2.94-8.56-14.66,0-12.2,3.65-13.68,9.12-13.68a18.21,18.21,0,0,1,9.33,2.39L263.67,138c-3.93-2.53-9.68-4.21-16.13-4.21-18,0-23.7,8.63-23.7,26.65,0,15.71,4.21,26.58,21.25,26.58a42.44,42.44,0,0,0,7.85-.63H265.7V155.07H245.59l-1.53,11.29" transform="translate(0 -0.81)"/><path class="cls-3" d="M341.39,166.36h9v.91c0,5.74.18,8.28-6.66,8.28-6.38,0-8.56-2.94-8.56-14.66,0-12.2,3.65-13.68,9.12-13.68a18.2,18.2,0,0,1,9.33,2.39L361,138c-3.93-2.53-9.68-4.21-16.13-4.21-18,0-23.7,8.63-23.7,26.65,0,15.71,4.21,26.58,21.25,26.58a42.43,42.43,0,0,0,7.85-.63H363V155.07H342.92l-1.53,11.29" transform="translate(0 -0.81)"/><polyline class="cls-3" points="220.18 146.34 220.18 133.65 185.68 133.65 185.68 185.61 220.18 185.61 220.18 173.27 199.28 173.27 199.28 165.48 213.01 165.48 214.69 153.14 199.28 153.14 199.28 146.34 220.18 146.34"/></svg>